<svg id="svg" version="1.1" xmlns="http://www.w3.org/2000/svg" xmlns:xlink="http://www.w3.org/1999/xlink" width="400" height="400" viewBox="0, 0, 400,400"><g id="svgg"><path id="path0" d="M94.000 6.400 C 94.000 6.620,93.550 6.800,93.000 6.800 C 92.450 6.800,92.000 6.980,92.000 7.200 C 92.000 7.420,91.640 7.600,91.200 7.600 C 90.760 7.600,90.400 7.780,90.400 8.000 C 90.400 8.220,90.059 8.400,89.642 8.400 C 88.752 8.400,83.200 13.755,83.200 14.614 C 83.200 14.936,83.020 15.200,82.800 15.200 C 82.580 15.200,82.400 15.560,82.400 16.000 C 82.400 16.440,82.220 16.800,82.000 16.800 C 81.780 16.800,81.600 17.340,81.600 18.000 C 81.600 18.660,81.420 19.200,81.200 19.200 C 80.935 19.200,80.800 38.018,80.800 74.853 L 80.800 130.507 79.700 131.453 C 79.095 131.973,78.415 132.399,78.188 132.400 C 77.962 132.400,77.517 132.760,77.200 133.200 C 76.883 133.640,76.465 134.000,76.272 134.000 C 76.079 134.000,75.417 134.540,74.800 135.200 C 74.183 135.860,73.478 136.400,73.232 136.400 C 72.786 136.400,67.600 141.383,67.600 141.811 C 67.600 141.935,67.163 142.473,66.629 143.007 C 66.095 143.541,65.336 144.523,64.943 145.189 C 64.549 145.855,64.086 146.400,63.914 146.400 C 63.741 146.400,63.600 146.636,63.600 146.925 C 63.600 147.213,63.240 147.836,62.800 148.308 C 62.360 148.780,62.000 149.444,62.000 149.783 C 62.000 150.122,61.820 150.400,61.600 150.400 C 61.380 150.400,61.200 150.760,61.200 151.200 C 61.200 151.640,61.020 152.000,60.800 152.000 C 60.580 152.000,60.400 152.360,60.400 152.800 C 60.400 153.240,60.220 153.600,60.000 153.600 C 59.780 153.600,59.600 153.949,59.600 154.376 C 59.600 154.803,59.430 155.258,59.223 155.386 C 59.016 155.514,58.725 156.424,58.578 157.409 C 58.430 158.394,58.150 159.200,57.955 159.200 C 57.760 159.200,57.600 159.830,57.600 160.600 C 57.600 161.370,57.420 162.000,57.200 162.000 C 56.980 162.000,56.800 162.900,56.800 164.000 C 56.800 165.100,56.620 166.000,56.400 166.000 C 56.144 166.000,56.000 169.667,56.000 176.200 C 56.000 182.733,56.144 186.400,56.400 186.400 C 56.620 186.400,56.800 187.390,56.800 188.600 C 56.800 189.810,56.980 190.800,57.200 190.800 C 57.420 190.800,57.600 191.520,57.600 192.400 C 57.600 193.280,57.780 194.000,58.000 194.000 C 58.220 194.000,58.400 194.624,58.400 195.386 C 58.400 196.667,59.108 199.338,60.020 201.500 C 60.229 201.995,60.601 202.895,60.847 203.500 C 61.092 204.105,61.452 204.913,61.647 205.295 C 61.841 205.677,62.000 206.262,62.000 206.595 C 62.000 206.928,62.180 207.200,62.400 207.200 C 62.620 207.200,62.800 207.560,62.800 208.000 C 62.800 208.440,62.980 208.800,63.200 208.800 C 63.420 208.800,63.600 209.145,63.600 209.567 C 63.600 209.988,63.735 210.393,63.900 210.467 C 64.276 210.634,65.575 212.764,65.871 213.700 C 65.993 214.085,66.252 214.400,66.447 214.400 C 66.641 214.400,66.800 214.720,66.800 215.112 C 66.800 215.503,67.160 216.083,67.600 216.400 C 68.040 216.717,68.400 217.162,68.401 217.388 C 68.401 217.615,68.941 218.430,69.600 219.200 C 70.259 219.970,70.799 220.741,70.799 220.913 C 70.800 221.086,71.385 221.828,72.100 222.563 C 72.815 223.298,74.120 224.761,75.000 225.814 C 75.880 226.867,77.545 228.686,78.700 229.856 C 80.282 231.458,80.800 232.275,80.800 233.168 C 80.800 233.819,80.980 234.464,81.200 234.600 C 81.420 234.736,81.600 235.636,81.600 236.600 C 81.600 237.564,81.780 238.464,82.000 238.600 C 82.220 238.736,82.400 239.467,82.400 240.224 C 82.400 240.981,82.580 241.600,82.800 241.600 C 83.020 241.600,83.200 242.140,83.200 242.800 C 83.200 243.460,83.380 244.000,83.600 244.000 C 83.820 244.000,84.000 244.439,84.000 244.976 C 84.000 245.513,84.180 246.064,84.400 246.200 C 84.620 246.336,84.800 246.797,84.800 247.224 C 84.800 247.651,84.980 248.000,85.200 248.000 C 85.420 248.000,85.600 248.360,85.600 248.800 C 85.600 249.240,85.780 249.600,86.000 249.600 C 86.220 249.600,86.400 249.960,86.400 250.400 C 86.400 250.840,86.580 251.200,86.800 251.200 C 87.020 251.200,87.200 251.560,87.200 252.000 C 87.200 252.440,87.380 252.800,87.600 252.800 C 87.820 252.800,88.000 253.160,88.000 253.600 C 88.000 254.040,88.150 254.400,88.332 254.400 C 88.515 254.400,88.920 254.892,89.232 255.494 C 89.756 256.504,90.385 257.389,91.400 258.545 C 91.620 258.795,92.340 259.810,93.000 260.800 C 94.329 262.793,100.641 269.200,101.276 269.200 C 101.498 269.200,102.183 269.740,102.800 270.400 C 103.417 271.060,104.169 271.600,104.472 271.600 C 104.775 271.600,105.283 271.960,105.600 272.400 C 105.917 272.840,106.497 273.200,106.888 273.200 C 107.280 273.200,107.600 273.353,107.600 273.539 C 107.600 273.726,108.365 274.218,109.300 274.632 C 112.037 275.846,112.000 275.742,112.000 282.171 C 112.000 287.086,111.906 288.000,111.400 288.000 C 111.070 288.000,110.800 288.180,110.800 288.400 C 110.800 288.620,110.080 288.800,109.200 288.800 C 108.320 288.800,107.600 288.980,107.600 289.200 C 107.600 289.420,106.880 289.600,106.000 289.600 C 105.120 289.600,104.400 289.780,104.400 290.000 C 104.400 290.220,103.680 290.400,102.800 290.400 C 101.920 290.400,101.200 290.558,101.200 290.750 C 101.200 290.943,100.255 291.210,99.100 291.344 C 95.938 291.710,91.704 292.562,91.366 292.901 C 91.201 293.065,90.377 293.200,89.533 293.200 C 88.690 293.200,88.000 293.362,88.000 293.560 C 88.000 293.758,87.235 294.022,86.300 294.147 C 82.211 294.694,81.182 294.906,80.974 295.242 C 80.852 295.439,80.144 295.600,79.400 295.600 C 78.656 295.600,77.936 295.780,77.800 296.000 C 77.664 296.220,76.933 296.400,76.176 296.400 C 75.419 296.400,74.800 296.580,74.800 296.800 C 74.800 297.020,74.001 297.200,73.024 297.200 C 72.047 297.200,71.136 297.380,71.000 297.600 C 70.864 297.820,70.043 298.000,69.176 298.000 C 68.309 298.000,67.600 298.180,67.600 298.400 C 67.600 298.620,66.981 298.800,66.224 298.800 C 65.467 298.800,64.736 298.980,64.600 299.200 C 64.464 299.420,63.823 299.600,63.176 299.600 C 62.529 299.600,62.000 299.780,62.000 300.000 C 62.000 300.220,61.561 300.400,61.024 300.400 C 60.487 300.400,59.936 300.580,59.800 300.800 C 59.664 301.020,59.113 301.200,58.576 301.200 C 58.039 301.200,57.600 301.380,57.600 301.600 C 57.600 301.820,57.240 302.000,56.800 302.000 C 56.360 302.000,56.000 302.180,56.000 302.400 C 56.000 302.620,55.460 302.800,54.800 302.800 C 54.140 302.800,53.600 302.980,53.600 303.200 C 53.600 303.420,53.240 303.600,52.800 303.600 C 52.360 303.600,52.000 303.780,52.000 304.000 C 52.000 304.220,51.640 304.400,51.200 304.400 C 50.760 304.400,50.400 304.580,50.400 304.800 C 50.400 305.020,50.040 305.200,49.600 305.200 C 49.160 305.200,48.800 305.380,48.800 305.600 C 48.800 305.820,48.440 306.000,48.000 306.000 C 47.560 306.000,47.200 306.180,47.200 306.400 C 47.200 306.620,46.930 306.800,46.600 306.800 C 46.270 306.800,46.000 306.980,46.000 307.200 C 46.000 307.420,45.745 307.600,45.433 307.600 C 45.122 307.600,44.807 307.735,44.733 307.900 C 44.660 308.065,43.933 308.539,43.119 308.953 C 42.304 309.367,41.276 310.042,40.835 310.453 C 40.394 310.864,39.828 311.200,39.577 311.200 C 39.326 311.200,38.617 311.740,38.000 312.400 C 37.383 313.060,36.711 313.600,36.506 313.600 C 35.845 313.600,28.774 320.281,26.400 323.147 C 24.735 325.158,23.397 326.716,21.900 328.386 C 21.295 329.061,20.800 329.815,20.800 330.060 C 20.800 330.305,20.484 330.797,20.097 331.153 C 19.711 331.509,19.140 332.295,18.830 332.900 C 18.519 333.505,18.115 334.000,17.932 334.000 C 17.750 334.000,17.600 334.278,17.600 334.617 C 17.600 334.956,17.240 335.620,16.800 336.092 C 16.360 336.564,16.000 337.187,16.000 337.475 C 16.000 337.764,15.820 338.000,15.600 338.000 C 15.380 338.000,15.200 338.360,15.200 338.800 C 15.200 339.240,15.020 339.600,14.800 339.600 C 14.580 339.600,14.400 339.960,14.400 340.400 C 14.400 340.840,14.220 341.200,14.000 341.200 C 13.780 341.200,13.600 341.560,13.600 342.000 C 13.600 342.440,13.465 342.801,13.300 342.803 C 12.894 342.807,12.000 344.786,12.000 345.680 C 12.000 346.076,11.820 346.400,11.600 346.400 C 11.380 346.400,11.200 346.749,11.200 347.176 C 11.200 347.603,11.020 348.064,10.800 348.200 C 10.580 348.336,10.400 348.887,10.400 349.424 C 10.400 349.961,10.220 350.400,10.000 350.400 C 9.780 350.400,9.600 350.904,9.600 351.520 C 9.600 352.136,9.421 352.819,9.202 353.038 C 8.984 353.256,8.688 354.552,8.546 355.918 C 8.403 357.283,8.132 358.400,7.943 358.400 C 7.754 358.400,7.600 359.120,7.600 360.000 C 7.600 360.880,7.420 361.600,7.200 361.600 C 6.980 361.600,6.800 362.579,6.800 363.776 C 6.800 364.973,6.620 366.064,6.400 366.200 C 6.146 366.357,6.000 371.471,6.000 380.224 L 6.000 394.000 137.600 394.000 L 269.200 394.000 269.200 380.424 C 269.200 371.804,269.054 366.757,268.800 366.600 C 268.580 366.464,268.400 365.373,268.400 364.176 C 268.400 362.979,268.220 362.000,268.000 362.000 C 267.780 362.000,267.600 361.190,267.600 360.200 C 267.600 359.210,267.420 358.400,267.200 358.400 C 266.980 358.400,266.800 357.680,266.800 356.800 C 266.800 355.920,266.620 355.200,266.400 355.200 C 266.180 355.200,266.000 354.660,266.000 354.000 C 266.000 353.340,265.820 352.800,265.600 352.800 C 265.380 352.800,265.200 352.260,265.200 351.600 C 265.200 350.940,265.020 350.400,264.800 350.400 C 264.580 350.400,264.400 349.860,264.400 349.200 C 264.400 348.540,264.220 348.000,264.000 348.000 C 263.780 348.000,263.600 347.640,263.600 347.200 C 263.600 346.760,263.420 346.400,263.200 346.400 C 262.980 346.400,262.800 346.076,262.800 345.680 C 262.800 344.786,261.906 342.807,261.500 342.803 C 261.335 342.801,261.200 342.440,261.200 342.000 C 261.200 341.560,261.020 341.200,260.800 341.200 C 260.580 341.200,260.400 340.840,260.400 340.400 C 260.400 339.960,260.220 339.600,260.000 339.600 C 259.780 339.600,259.600 339.240,259.600 338.800 C 259.600 338.360,259.434 338.000,259.232 338.000 C 259.029 338.000,258.745 337.460,258.600 336.800 C 258.455 336.140,258.171 335.600,257.968 335.600 C 257.766 335.600,257.600 335.364,257.600 335.075 C 257.600 334.787,257.285 334.202,256.900 333.775 C 256.515 333.349,255.945 332.505,255.632 331.900 C 255.320 331.295,254.915 330.800,254.732 330.800 C 254.550 330.800,254.400 330.557,254.400 330.259 C 254.400 329.962,253.860 329.154,253.200 328.463 C 252.540 327.772,252.000 327.112,252.000 326.995 C 252.000 326.878,251.055 325.825,249.900 324.654 C 248.745 323.483,247.243 321.912,246.563 321.163 C 244.776 319.195,238.906 313.600,238.628 313.600 C 238.499 313.600,237.828 313.060,237.137 312.400 C 236.446 311.740,235.638 311.200,235.341 311.200 C 235.043 311.200,234.800 311.041,234.800 310.846 C 234.800 310.651,234.178 310.196,233.417 309.835 C 232.656 309.474,231.926 309.003,231.793 308.789 C 231.661 308.575,231.203 308.400,230.776 308.400 C 230.349 308.400,230.000 308.220,230.000 308.000 C 230.000 307.780,229.640 307.600,229.200 307.600 C 228.760 307.600,228.400 307.420,228.400 307.200 C 228.400 306.936,241.600 306.800,267.200 306.800 L 306.000 306.800 306.000 338.400 C 306.000 359.200,306.137 370.000,306.400 370.000 C 306.620 370.000,306.800 370.619,306.800 371.376 C 306.800 372.133,306.980 372.864,307.200 373.000 C 307.420 373.136,307.600 373.597,307.600 374.024 C 307.600 374.451,307.780 374.800,308.000 374.800 C 308.220 374.800,308.400 375.154,308.400 375.586 C 308.400 376.553,309.626 379.200,310.074 379.200 C 310.253 379.200,310.400 379.478,310.400 379.818 C 310.400 380.158,310.850 380.886,311.400 381.436 C 311.950 381.986,312.400 382.580,312.400 382.756 C 312.400 383.223,316.713 387.600,317.173 387.600 C 317.388 387.600,318.014 388.050,318.564 388.600 C 319.114 389.150,319.842 389.600,320.182 389.600 C 320.522 389.600,320.800 389.747,320.800 389.926 C 320.800 390.368,323.442 391.600,324.390 391.600 C 324.810 391.600,325.264 391.780,325.400 392.000 C 325.536 392.220,325.997 392.400,326.424 392.400 C 326.851 392.400,327.200 392.580,327.200 392.800 C 327.200 393.020,327.830 393.200,328.600 393.200 C 329.370 393.200,330.000 393.380,330.000 393.600 C 330.000 393.852,332.733 394.000,337.400 394.000 C 342.067 394.000,344.800 393.852,344.800 393.600 C 344.800 393.380,345.520 393.200,346.400 393.200 C 347.280 393.200,348.000 393.020,348.000 392.800 C 348.000 392.580,348.349 392.400,348.776 392.400 C 349.203 392.400,349.664 392.220,349.800 392.000 C 349.936 391.780,350.461 391.600,350.968 391.600 C 351.474 391.600,352.551 391.150,353.362 390.600 C 354.172 390.050,354.928 389.600,355.041 389.600 C 355.913 389.600,362.800 383.062,362.800 382.235 C 362.800 381.983,363.160 381.517,363.600 381.200 C 364.040 380.883,364.400 380.343,364.400 380.000 C 364.400 379.657,364.760 379.117,365.200 378.800 C 365.640 378.483,366.000 377.903,366.000 377.512 C 366.000 377.120,366.180 376.800,366.400 376.800 C 366.620 376.800,366.800 376.350,366.800 375.800 C 366.800 375.250,366.980 374.800,367.200 374.800 C 367.420 374.800,367.600 374.350,367.600 373.800 C 367.600 373.250,367.780 372.800,368.000 372.800 C 368.220 372.800,368.400 372.170,368.400 371.400 C 368.400 370.630,368.580 370.000,368.800 370.000 C 369.063 370.000,369.200 359.200,369.200 338.400 L 369.200 306.800 374.776 306.800 C 378.063 306.800,380.454 306.636,380.600 306.400 C 380.736 306.180,381.191 306.000,381.611 306.000 C 382.302 306.000,382.909 305.717,386.035 303.938 C 387.574 303.061,391.600 298.713,391.600 297.926 C 391.600 297.527,391.780 297.200,392.000 297.200 C 392.220 297.200,392.400 296.840,392.400 296.400 C 392.400 295.960,392.580 295.600,392.800 295.600 C 393.020 295.600,393.200 295.060,393.200 294.400 C 393.200 293.740,393.380 293.200,393.600 293.200 C 393.866 293.200,394.000 247.267,394.000 156.200 C 394.000 65.133,393.866 19.200,393.600 19.200 C 393.380 19.200,393.200 18.660,393.200 18.000 C 393.200 17.340,393.020 16.800,392.800 16.800 C 392.580 16.800,392.400 16.440,392.400 16.000 C 392.400 15.560,392.240 15.200,392.043 15.200 C 391.847 15.200,391.583 14.786,391.456 14.281 C 391.161 13.104,387.513 9.406,385.976 8.725 C 385.329 8.439,384.800 8.069,384.800 7.902 C 384.800 7.736,384.440 7.600,384.000 7.600 C 383.560 7.600,383.200 7.420,383.200 7.200 C 383.200 6.980,382.660 6.800,382.000 6.800 C 381.340 6.800,380.800 6.620,380.800 6.400 C 380.800 6.134,332.733 6.000,237.400 6.000 C 142.067 6.000,94.000 6.134,94.000 6.400 M374.800 19.600 C 374.800 19.820,375.322 20.000,375.960 20.000 C 377.555 20.000,380.000 22.445,380.000 24.040 C 380.000 24.678,380.180 25.200,380.400 25.200 C 380.660 25.200,380.800 30.600,380.800 40.600 L 380.800 56.000 237.400 56.000 L 94.000 56.000 94.000 40.600 C 94.000 30.600,94.140 25.200,94.400 25.200 C 94.620 25.200,94.800 24.660,94.800 24.000 C 94.800 23.340,94.980 22.800,95.200 22.800 C 95.420 22.800,95.600 22.596,95.600 22.347 C 95.600 21.670,97.205 20.408,98.374 20.165 C 98.938 20.048,99.670 19.794,100.000 19.600 C 100.869 19.089,374.800 19.089,374.800 19.600 M106.000 37.400 L 106.000 44.000 112.600 44.000 L 119.200 44.000 119.200 37.400 L 119.200 30.800 112.600 30.800 L 106.000 30.800 106.000 37.400 M130.800 37.400 L 130.800 44.000 137.400 44.000 L 144.000 44.000 144.000 37.400 L 144.000 30.800 137.400 30.800 L 130.800 30.800 130.800 37.400 M156.000 37.400 L 156.000 44.000 162.600 44.000 L 169.200 44.000 169.200 37.400 L 169.200 30.800 162.600 30.800 L 156.000 30.800 156.000 37.400 M380.800 178.200 C 380.800 250.600,380.666 287.200,380.400 287.200 C 380.180 287.200,380.000 287.662,380.000 288.226 C 380.000 291.278,376.764 293.200,371.625 293.200 L 369.200 293.200 369.200 257.400 C 369.200 233.800,369.064 221.600,368.800 221.600 C 368.580 221.600,368.400 221.280,368.400 220.888 C 368.400 220.497,368.040 219.917,367.600 219.600 C 367.160 219.283,366.800 218.743,366.800 218.400 C 366.800 218.057,366.440 217.517,366.000 217.200 C 365.560 216.883,365.200 216.343,365.200 216.000 C 365.200 215.657,364.840 215.117,364.400 214.800 C 363.960 214.483,363.600 213.969,363.600 213.659 C 363.600 213.348,363.284 212.803,362.897 212.447 C 362.511 212.091,361.940 211.305,361.630 210.700 C 361.319 210.095,360.915 209.600,360.732 209.600 C 360.550 209.600,360.400 209.370,360.400 209.088 C 360.400 208.807,360.040 208.317,359.600 208.000 C 359.160 207.683,358.800 207.131,358.800 206.773 C 358.800 206.415,358.445 205.713,358.012 205.214 C 357.578 204.714,357.116 203.966,356.985 203.552 C 356.854 203.139,356.578 202.800,356.373 202.800 C 356.168 202.800,356.000 202.564,356.000 202.275 C 356.000 201.987,355.685 201.402,355.300 200.975 C 354.915 200.549,354.345 199.705,354.032 199.100 C 353.720 198.495,353.315 198.000,353.132 198.000 C 352.950 198.000,352.800 197.764,352.800 197.475 C 352.800 197.187,352.485 196.602,352.100 196.175 C 351.715 195.749,351.145 194.905,350.832 194.300 C 350.520 193.695,350.115 193.200,349.932 193.200 C 349.750 193.200,349.600 192.970,349.600 192.688 C 349.600 192.407,349.240 191.917,348.800 191.600 C 348.360 191.283,348.000 190.743,348.000 190.400 C 348.000 190.057,347.640 189.517,347.200 189.200 C 346.760 188.883,346.400 188.343,346.400 188.000 C 346.400 187.657,346.040 187.117,345.600 186.800 C 345.160 186.483,344.800 185.943,344.800 185.600 C 344.800 185.257,344.440 184.717,344.000 184.400 C 343.560 184.083,343.200 183.543,343.200 183.200 C 343.200 182.857,342.840 182.317,342.400 182.000 C 341.960 181.683,341.600 181.191,341.600 180.908 C 341.600 180.624,340.970 179.495,340.200 178.400 C 339.430 177.305,338.800 176.226,338.800 176.004 C 338.800 175.782,338.260 175.600,337.600 175.600 C 336.800 175.600,336.400 175.800,336.400 176.200 C 336.400 176.530,336.250 176.800,336.068 176.800 C 335.885 176.800,335.481 177.295,335.170 177.900 C 334.860 178.505,334.289 179.291,333.903 179.647 C 333.516 180.003,333.200 180.548,333.200 180.859 C 333.200 181.169,332.840 181.683,332.400 182.000 C 331.960 182.317,331.600 182.857,331.600 183.200 C 331.600 183.543,331.240 184.083,330.800 184.400 C 330.360 184.717,330.000 185.257,330.000 185.600 C 330.000 185.943,329.640 186.483,329.200 186.800 C 328.760 187.117,328.400 187.614,328.400 187.905 C 328.400 188.196,328.040 188.820,327.600 189.292 C 327.160 189.764,326.800 190.387,326.800 190.675 C 326.800 190.964,326.661 191.200,326.491 191.200 C 326.321 191.200,325.843 191.830,325.428 192.600 C 325.013 193.370,324.522 194.000,324.337 194.000 C 324.152 194.000,324.000 194.320,324.000 194.712 C 324.000 195.103,323.640 195.683,323.200 196.000 C 322.760 196.317,322.400 196.857,322.400 197.200 C 322.400 197.543,322.040 198.083,321.600 198.400 C 321.160 198.717,320.800 199.257,320.800 199.600 C 320.800 199.943,320.440 200.483,320.000 200.800 C 319.560 201.117,319.200 201.657,319.200 202.000 C 319.200 202.343,318.840 202.883,318.400 203.200 C 317.960 203.517,317.600 204.057,317.600 204.400 C 317.600 204.743,317.240 205.283,316.800 205.600 C 316.360 205.917,316.000 206.457,316.000 206.800 C 316.000 207.143,315.640 207.683,315.200 208.000 C 314.760 208.317,314.400 208.779,314.400 209.026 C 314.400 209.274,314.040 209.802,313.600 210.200 C 313.160 210.598,312.800 211.166,312.800 211.462 C 312.800 211.758,312.650 212.000,312.468 212.000 C 312.285 212.000,311.880 212.495,311.568 213.100 C 311.255 213.705,310.862 214.380,310.694 214.600 C 309.654 215.961,308.400 218.109,308.400 218.529 C 308.400 218.801,308.040 219.283,307.600 219.600 C 307.160 219.917,306.800 220.497,306.800 220.888 C 306.800 221.280,306.620 221.600,306.400 221.600 C 306.136 221.600,306.000 233.800,306.000 257.400 L 306.000 293.200 245.067 293.200 C 211.553 293.200,183.999 293.065,183.835 292.900 C 183.552 292.615,179.656 291.819,176.200 291.340 C 175.320 291.218,174.429 290.956,174.220 290.759 C 174.011 290.562,173.156 290.400,172.320 290.400 C 171.484 290.400,170.800 290.220,170.800 290.000 C 170.800 289.780,170.080 289.600,169.200 289.600 C 168.320 289.600,167.600 289.420,167.600 289.200 C 167.600 288.980,166.880 288.800,166.000 288.800 C 165.120 288.800,164.400 288.620,164.400 288.400 C 164.400 288.180,164.040 288.000,163.600 288.000 C 162.837 288.000,162.800 287.733,162.800 282.171 C 162.800 276.342,163.055 275.200,164.358 275.200 C 165.039 275.200,167.600 273.878,167.600 273.526 C 167.600 273.347,167.836 273.200,168.125 273.200 C 168.413 273.200,169.036 272.840,169.508 272.400 C 169.980 271.960,170.527 271.600,170.724 271.600 C 170.921 271.600,171.646 271.060,172.337 270.400 C 173.028 269.740,173.687 269.200,173.801 269.200 C 174.160 269.200,181.600 261.629,181.600 261.264 C 181.600 261.074,182.140 260.354,182.800 259.663 C 183.460 258.972,184.000 258.226,184.000 258.004 C 184.000 257.782,184.150 257.600,184.332 257.600 C 184.515 257.600,184.920 257.105,185.232 256.500 C 185.545 255.895,186.115 255.051,186.500 254.625 C 186.885 254.198,187.200 253.613,187.200 253.325 C 187.200 253.036,187.380 252.800,187.600 252.800 C 187.820 252.800,188.000 252.440,188.000 252.000 C 188.000 251.560,188.180 251.200,188.400 251.200 C 188.620 251.200,188.800 250.840,188.800 250.400 C 188.800 249.960,188.980 249.600,189.200 249.600 C 189.420 249.600,189.600 249.328,189.600 248.995 C 189.600 248.662,189.780 248.032,190.000 247.595 C 190.220 247.158,190.584 246.436,190.809 245.991 C 191.034 245.546,191.328 244.376,191.463 243.391 C 191.598 242.406,191.864 241.600,192.054 241.600 C 192.244 241.600,192.400 240.970,192.400 240.200 C 192.400 239.430,192.580 238.800,192.800 238.800 C 193.020 238.800,193.200 237.900,193.200 236.800 C 193.200 235.700,193.380 234.800,193.600 234.800 C 193.820 234.800,194.000 234.163,194.000 233.385 C 194.000 232.133,194.417 231.555,197.600 228.400 C 199.580 226.437,201.200 224.716,201.200 224.576 C 201.200 224.436,201.702 223.844,202.315 223.260 C 202.929 222.677,203.868 221.570,204.402 220.800 C 204.937 220.030,205.605 219.162,205.887 218.871 C 206.169 218.581,206.400 218.189,206.400 218.000 C 206.400 217.811,206.647 217.410,206.948 217.109 C 207.665 216.392,208.800 214.185,208.800 213.508 C 208.800 213.216,209.160 212.717,209.600 212.400 C 210.040 212.083,210.400 211.503,210.400 211.112 C 210.400 210.720,210.580 210.400,210.800 210.400 C 211.020 210.400,211.200 210.040,211.200 209.600 C 211.200 209.160,211.380 208.800,211.600 208.800 C 211.820 208.800,212.000 208.440,212.000 208.000 C 212.000 207.560,212.180 207.200,212.400 207.200 C 212.620 207.200,212.800 206.840,212.800 206.400 C 212.800 205.960,212.980 205.600,213.200 205.600 C 213.420 205.600,213.600 205.150,213.600 204.600 C 213.600 204.050,213.780 203.600,214.000 203.600 C 214.220 203.600,214.400 203.150,214.400 202.600 C 214.400 202.050,214.580 201.600,214.800 201.600 C 215.020 201.600,215.200 201.150,215.200 200.600 C 215.200 200.050,215.360 199.600,215.556 199.600 C 215.893 199.600,216.010 199.151,216.632 195.500 C 216.773 194.675,217.048 194.000,217.244 194.000 C 217.440 194.000,217.600 193.291,217.600 192.424 C 217.600 191.557,217.780 190.736,218.000 190.600 C 218.220 190.464,218.400 189.474,218.400 188.400 C 218.400 187.326,218.580 186.336,218.800 186.200 C 219.049 186.046,219.200 182.196,219.200 175.976 C 219.200 169.592,219.056 166.000,218.800 166.000 C 218.580 166.000,218.400 165.201,218.400 164.224 C 218.400 163.247,218.220 162.336,218.000 162.200 C 217.780 162.064,217.600 161.524,217.600 161.000 C 217.600 160.476,217.420 159.936,217.200 159.800 C 216.980 159.664,216.800 159.113,216.800 158.576 C 216.800 158.039,216.620 157.600,216.400 157.600 C 216.180 157.600,216.000 157.060,216.000 156.400 C 216.000 155.740,215.820 155.200,215.600 155.200 C 215.380 155.200,215.200 154.840,215.200 154.400 C 215.200 153.960,215.020 153.600,214.800 153.600 C 214.580 153.600,214.400 153.240,214.400 152.800 C 214.400 152.360,214.220 152.000,214.000 152.000 C 213.780 152.000,213.600 151.640,213.600 151.200 C 213.600 150.760,213.420 150.400,213.200 150.400 C 212.980 150.400,212.800 150.080,212.800 149.688 C 212.800 149.297,212.440 148.717,212.000 148.400 C 211.560 148.083,211.200 147.543,211.200 147.200 C 211.200 146.857,210.840 146.317,210.400 146.000 C 209.960 145.683,209.600 145.213,209.600 144.956 C 209.600 143.829,199.805 134.000,198.682 134.000 C 198.404 134.000,197.917 133.640,197.600 133.200 C 197.283 132.760,196.799 132.400,196.525 132.400 C 195.390 132.400,193.200 129.833,193.200 128.503 C 193.200 127.786,193.020 127.200,192.800 127.200 C 192.580 127.200,192.400 126.660,192.400 126.000 C 192.400 125.340,192.243 124.800,192.052 124.800 C 191.860 124.800,191.584 123.900,191.438 122.800 C 191.292 121.700,191.031 120.800,190.859 120.800 C 190.686 120.800,190.300 119.900,190.000 118.800 C 189.700 117.700,189.308 116.800,189.128 116.800 C 188.947 116.800,188.800 116.440,188.800 116.000 C 188.800 115.560,188.620 115.200,188.400 115.200 C 188.180 115.200,188.000 114.840,188.000 114.400 C 188.000 113.960,187.820 113.600,187.600 113.600 C 187.380 113.600,187.200 113.240,187.200 112.800 C 187.200 112.360,187.054 112.000,186.875 112.000 C 186.696 112.000,186.302 111.370,186.000 110.600 C 185.698 109.830,185.304 109.200,185.125 109.200 C 184.946 109.200,184.800 108.880,184.800 108.488 C 184.800 108.097,184.440 107.517,184.000 107.200 C 183.560 106.883,183.200 106.303,183.200 105.912 C 183.200 105.520,183.020 105.200,182.800 105.200 C 182.580 105.200,182.400 104.880,182.400 104.488 C 182.400 104.097,182.040 103.517,181.600 103.200 C 181.160 102.883,180.800 102.343,180.800 102.000 C 180.800 101.657,180.440 101.117,180.000 100.800 C 179.560 100.483,179.200 99.943,179.200 99.600 C 179.200 99.257,178.840 98.717,178.400 98.400 C 177.960 98.083,177.600 97.503,177.600 97.112 C 177.600 95.539,175.194 96.426,172.746 98.900 C 171.930 99.725,171.054 100.400,170.800 100.400 C 170.546 100.400,169.646 101.120,168.800 102.000 C 167.954 102.880,167.054 103.600,166.800 103.600 C 166.546 103.600,165.646 104.320,164.800 105.200 C 163.954 106.080,163.107 106.800,162.917 106.800 C 162.727 106.800,161.768 107.515,160.786 108.389 C 159.803 109.262,158.871 109.982,158.713 109.989 C 158.556 109.995,157.797 110.630,157.027 111.400 C 156.257 112.170,155.462 112.800,155.262 112.800 C 155.061 112.800,154.155 113.520,153.248 114.400 C 152.341 115.280,151.418 116.000,151.196 116.000 C 150.974 116.000,150.228 116.540,149.537 117.200 C 148.846 117.860,148.038 118.400,147.741 118.400 C 147.443 118.400,147.199 118.535,147.199 118.700 C 147.198 118.865,146.208 119.450,145.000 120.000 C 143.792 120.550,142.802 121.135,142.801 121.300 C 142.801 121.465,142.440 121.600,142.000 121.600 C 141.560 121.600,141.200 121.780,141.200 122.000 C 141.200 122.220,140.660 122.400,140.000 122.400 C 139.340 122.400,138.800 122.580,138.800 122.800 C 138.800 123.020,138.080 123.200,137.200 123.200 C 136.320 123.200,135.600 123.380,135.600 123.600 C 135.600 123.837,134.133 124.000,132.000 124.000 C 130.020 124.000,128.400 124.169,128.400 124.376 C 128.400 124.602,121.832 124.804,111.900 124.884 C 102.825 124.957,95.085 125.167,94.700 125.351 C 94.037 125.668,94.000 124.201,94.000 97.443 L 94.000 69.200 237.400 69.200 L 380.800 69.200 380.800 178.200 M106.000 87.400 L 106.000 94.000 112.600 94.000 L 119.200 94.000 119.200 87.400 L 119.200 80.800 112.600 80.800 L 106.000 80.800 106.000 87.400 M130.800 87.400 L 130.800 94.000 137.400 94.000 L 144.000 94.000 144.000 87.400 L 144.000 80.800 137.400 80.800 L 130.800 80.800 130.800 87.400 M156.000 87.400 L 156.000 94.000 162.600 94.000 L 169.200 94.000 169.200 87.400 L 169.200 80.800 162.600 80.800 L 156.000 80.800 156.000 87.400 M230.800 125.000 L 230.800 169.200 300.000 169.200 L 369.200 169.200 369.200 125.000 L 369.200 80.800 300.000 80.800 L 230.800 80.800 230.800 125.000 M356.000 125.000 L 356.000 156.000 300.000 156.000 L 244.000 156.000 244.000 125.000 L 244.000 94.000 300.000 94.000 L 356.000 94.000 356.000 125.000 M256.000 112.600 L 256.000 119.200 300.000 119.200 L 344.000 119.200 344.000 112.600 L 344.000 106.000 300.000 106.000 L 256.000 106.000 256.000 112.600 M174.000 118.649 C 174.000 118.952,174.180 119.200,174.400 119.200 C 174.620 119.200,174.800 119.465,174.800 119.789 C 174.800 120.311,176.243 123.812,177.234 125.695 C 177.435 126.077,177.600 126.662,177.600 126.995 C 177.600 127.328,177.780 127.600,178.000 127.600 C 178.220 127.600,178.400 128.140,178.400 128.800 C 178.400 129.460,178.580 130.000,178.800 130.000 C 179.020 130.000,179.200 130.540,179.200 131.200 C 179.200 131.860,179.380 132.400,179.600 132.400 C 179.842 132.400,180.000 134.133,180.000 136.800 C 180.000 139.467,179.842 141.200,179.600 141.200 C 179.380 141.200,179.200 141.483,179.200 141.828 C 179.200 142.626,176.996 145.890,175.573 147.200 C 172.844 149.712,171.945 150.400,171.393 150.400 C 171.067 150.400,170.800 150.580,170.800 150.800 C 170.800 151.020,170.440 151.200,170.000 151.200 C 169.560 151.200,169.200 151.380,169.200 151.600 C 169.200 151.820,168.840 152.000,168.400 152.000 C 167.960 152.000,167.600 152.180,167.600 152.400 C 167.600 152.620,167.060 152.800,166.400 152.800 C 165.740 152.800,165.200 152.980,165.200 153.200 C 165.200 153.420,164.660 153.600,164.000 153.600 C 163.340 153.600,162.800 153.780,162.800 154.000 C 162.800 154.220,161.990 154.400,161.000 154.400 C 160.010 154.400,159.200 154.580,159.200 154.800 C 159.200 155.041,157.524 155.200,154.971 155.200 C 149.329 155.200,149.600 154.818,149.600 162.771 L 149.600 169.200 155.400 169.200 C 159.000 169.200,161.200 169.048,161.200 168.800 C 161.200 168.580,162.100 168.400,163.200 168.400 C 164.300 168.400,165.200 168.220,165.200 168.000 C 165.200 167.780,165.920 167.600,166.800 167.600 C 167.680 167.600,168.400 167.420,168.400 167.200 C 168.400 166.980,168.929 166.800,169.576 166.800 C 170.223 166.800,170.864 166.620,171.000 166.400 C 171.136 166.180,171.687 166.000,172.224 166.000 C 172.761 166.000,173.200 165.820,173.200 165.600 C 173.200 165.380,173.650 165.200,174.200 165.200 C 174.750 165.200,175.200 165.020,175.200 164.800 C 175.200 164.580,175.560 164.400,176.000 164.400 C 176.440 164.400,176.800 164.220,176.800 164.000 C 176.800 163.780,177.078 163.600,177.417 163.600 C 177.756 163.600,178.420 163.240,178.892 162.800 C 179.364 162.360,179.987 162.000,180.275 162.000 C 180.564 162.000,180.800 161.850,180.800 161.668 C 180.800 161.485,181.294 161.080,181.898 160.768 C 183.551 159.914,189.200 154.652,189.200 153.966 C 189.200 153.796,189.447 153.410,189.748 153.109 C 190.505 152.353,191.600 150.170,191.600 149.420 C 191.600 149.079,191.780 148.800,192.000 148.800 C 192.220 148.800,192.402 148.485,192.405 148.100 C 192.411 147.284,197.463 152.378,198.368 154.112 C 198.680 154.710,199.085 155.200,199.268 155.200 C 199.450 155.200,199.600 155.470,199.600 155.800 C 199.600 156.130,199.780 156.400,200.000 156.400 C 200.220 156.400,200.400 156.670,200.400 157.000 C 200.400 157.330,200.580 157.600,200.800 157.600 C 201.020 157.600,201.200 157.870,201.200 158.200 C 201.200 158.530,201.380 158.800,201.600 158.800 C 201.820 158.800,202.000 159.239,202.000 159.776 C 202.000 160.313,202.180 160.864,202.400 161.000 C 202.620 161.136,202.800 161.597,202.800 162.024 C 202.800 162.451,202.980 162.800,203.200 162.800 C 203.420 162.800,203.600 163.340,203.600 164.000 C 203.600 164.660,203.780 165.200,204.000 165.200 C 204.220 165.200,204.400 165.819,204.400 166.576 C 204.400 167.333,204.580 168.064,204.800 168.200 C 205.044 168.351,205.200 171.471,205.200 176.224 C 205.200 181.141,205.053 184.000,204.800 184.000 C 204.580 184.000,204.400 184.900,204.400 186.000 C 204.400 187.100,204.220 188.000,204.000 188.000 C 203.780 188.000,203.600 188.720,203.600 189.600 C 203.600 190.480,203.420 191.200,203.200 191.200 C 202.980 191.200,202.800 191.830,202.800 192.600 C 202.800 193.370,202.620 194.000,202.400 194.000 C 202.180 194.000,202.000 194.349,202.000 194.776 C 202.000 195.203,201.820 195.664,201.600 195.800 C 201.380 195.936,201.200 196.487,201.200 197.024 C 201.200 197.561,201.020 198.000,200.800 198.000 C 200.580 198.000,200.400 198.360,200.400 198.800 C 200.400 199.240,200.220 199.600,200.000 199.600 C 199.780 199.600,199.600 199.960,199.600 200.400 C 199.600 200.840,199.442 201.200,199.250 201.200 C 199.058 201.200,198.796 201.718,198.670 202.352 C 198.543 202.985,198.160 203.782,197.820 204.123 C 197.479 204.464,197.200 205.026,197.200 205.371 C 197.200 205.717,197.020 206.000,196.800 206.000 C 196.580 206.000,196.400 206.294,196.400 206.653 C 196.400 207.012,196.073 207.597,195.672 207.953 C 195.272 208.309,194.777 208.960,194.572 209.400 C 194.327 209.926,194.163 206.990,194.092 200.812 C 194.030 195.362,193.820 191.260,193.592 191.032 C 193.377 190.817,193.200 190.147,193.200 189.544 C 193.200 188.941,193.020 188.336,192.800 188.200 C 192.580 188.064,192.400 187.603,192.400 187.176 C 192.400 186.749,192.220 186.400,192.000 186.400 C 191.780 186.400,191.600 186.122,191.600 185.783 C 191.600 184.941,188.776 181.180,187.136 179.838 C 186.401 179.237,185.456 178.464,185.036 178.121 C 179.857 173.897,168.099 173.465,159.000 177.164 C 157.296 177.857,155.305 178.400,154.472 178.400 C 153.992 178.400,153.600 178.580,153.600 178.800 C 153.600 179.020,152.700 179.200,151.600 179.200 C 150.500 179.200,149.600 179.380,149.600 179.600 C 149.600 179.825,148.475 180.000,147.024 180.000 C 145.607 180.000,144.336 180.180,144.200 180.400 C 144.051 180.640,141.329 180.800,137.376 180.800 C 133.259 180.800,130.800 180.650,130.800 180.400 C 130.800 180.171,129.600 180.000,128.000 180.000 C 126.400 180.000,125.200 179.829,125.200 179.600 C 125.200 179.380,124.401 179.200,123.424 179.200 C 122.447 179.200,121.536 179.020,121.400 178.800 C 121.264 178.580,120.634 178.400,120.000 178.400 C 119.366 178.400,118.736 178.220,118.600 178.000 C 118.464 177.780,117.823 177.600,117.176 177.600 C 116.529 177.600,116.000 177.420,116.000 177.200 C 116.000 176.980,115.586 176.800,115.080 176.800 C 114.574 176.800,113.989 176.648,113.780 176.463 C 110.207 173.292,93.837 174.506,90.126 178.217 C 89.805 178.538,89.375 178.800,89.169 178.800 C 88.686 178.800,84.800 182.764,84.800 183.257 C 84.800 183.464,84.440 184.020,84.000 184.492 C 83.560 184.964,83.200 185.587,83.200 185.875 C 83.200 186.164,83.020 186.400,82.800 186.400 C 82.580 186.400,82.400 186.672,82.400 187.005 C 82.400 187.338,82.242 187.923,82.049 188.305 C 81.003 190.377,80.800 192.391,80.800 200.728 C 80.800 206.376,80.655 209.600,80.400 209.600 C 80.180 209.600,80.000 209.370,80.000 209.088 C 80.000 208.807,79.640 208.317,79.200 208.000 C 78.760 207.683,78.400 207.103,78.400 206.712 C 78.400 206.320,78.220 206.000,78.000 206.000 C 77.780 206.000,77.600 205.640,77.600 205.200 C 77.600 204.760,77.420 204.400,77.200 204.400 C 76.980 204.400,76.800 204.040,76.800 203.600 C 76.800 203.160,76.620 202.800,76.400 202.800 C 76.180 202.800,76.000 202.440,76.000 202.000 C 76.000 201.560,75.820 201.200,75.600 201.200 C 75.380 201.200,75.200 200.912,75.200 200.560 C 75.200 200.209,74.912 199.264,74.559 198.460 C 74.207 197.657,73.736 196.550,73.513 196.000 C 73.289 195.450,72.948 194.687,72.753 194.305 C 72.559 193.923,72.400 193.169,72.400 192.629 C 72.400 192.089,72.240 191.548,72.044 191.427 C 71.849 191.306,71.586 190.621,71.461 189.904 C 71.336 189.187,71.021 187.610,70.762 186.400 C 70.134 183.470,69.827 168.413,70.384 167.856 C 70.613 167.627,70.803 167.071,70.806 166.620 C 70.813 165.708,71.699 162.967,72.126 162.541 C 72.277 162.390,72.400 161.847,72.400 161.333 C 72.400 160.820,72.580 160.400,72.800 160.400 C 73.020 160.400,73.200 160.040,73.200 159.600 C 73.200 159.160,73.340 158.800,73.510 158.800 C 73.681 158.800,74.176 157.992,74.610 157.004 C 75.045 156.016,75.535 155.206,75.700 155.204 C 75.865 155.202,76.000 154.941,76.000 154.623 C 76.000 153.957,84.120 145.600,84.768 145.600 C 85.005 145.600,85.200 145.420,85.200 145.200 C 85.200 144.980,85.470 144.800,85.800 144.800 C 86.130 144.800,86.400 144.620,86.400 144.400 C 86.400 144.180,86.670 144.000,87.000 144.000 C 87.330 144.000,87.600 143.820,87.600 143.600 C 87.600 143.380,87.870 143.200,88.200 143.200 C 88.530 143.200,88.800 143.020,88.800 142.800 C 88.800 142.580,89.145 142.400,89.567 142.400 C 89.988 142.400,90.393 142.255,90.467 142.077 C 90.635 141.671,96.900 139.600,97.962 139.600 C 98.397 139.600,98.864 139.420,99.000 139.200 C 99.136 138.980,100.756 138.800,102.600 138.800 C 104.444 138.800,106.064 138.620,106.200 138.400 C 106.358 138.145,111.996 138.000,121.800 138.000 C 131.604 138.000,137.242 137.855,137.400 137.600 C 137.536 137.380,138.346 137.200,139.200 137.200 C 140.054 137.200,140.864 137.020,141.000 136.800 C 141.136 136.580,141.867 136.400,142.624 136.400 C 143.381 136.400,144.000 136.220,144.000 136.000 C 144.000 135.780,144.540 135.600,145.200 135.600 C 145.860 135.600,146.400 135.420,146.400 135.200 C 146.400 134.980,146.760 134.800,147.200 134.800 C 147.640 134.800,148.000 134.620,148.000 134.400 C 148.000 134.180,148.335 134.000,148.744 134.000 C 149.656 134.000,154.400 131.595,154.400 131.133 C 154.400 130.950,154.760 130.800,155.200 130.800 C 155.640 130.800,156.000 130.620,156.000 130.400 C 156.000 130.180,156.206 130.000,156.457 130.000 C 156.708 130.000,157.429 129.460,158.060 128.800 C 158.691 128.140,159.403 127.600,159.643 127.600 C 159.883 127.600,160.558 127.087,161.145 126.459 C 161.731 125.832,162.748 125.040,163.405 124.700 C 164.062 124.359,165.183 123.523,165.896 122.840 C 166.609 122.158,167.353 121.600,167.548 121.600 C 167.744 121.600,168.645 120.880,169.552 120.000 C 170.459 119.120,171.359 118.400,171.551 118.400 C 171.744 118.400,172.128 118.128,172.404 117.795 C 172.971 117.112,174.000 117.663,174.000 118.649 M256.000 137.400 L 256.000 144.000 300.000 144.000 L 344.000 144.000 344.000 137.400 L 344.000 130.800 300.000 130.800 L 256.000 130.800 256.000 137.400 M230.800 187.400 L 230.800 194.000 262.400 194.000 L 294.000 194.000 294.000 187.400 L 294.000 180.800 262.400 180.800 L 230.800 180.800 230.800 187.400 M106.867 189.113 C 107.070 189.592,113.499 191.600,114.828 191.600 C 115.472 191.600,116.000 191.780,116.000 192.000 C 116.000 192.220,116.720 192.400,117.600 192.400 C 118.480 192.400,119.200 192.580,119.200 192.800 C 119.200 193.020,120.100 193.200,121.200 193.200 C 122.300 193.200,123.200 193.380,123.200 193.600 C 123.200 193.831,124.467 194.000,126.200 194.000 C 127.933 194.000,129.200 194.169,129.200 194.400 C 129.200 194.654,132.200 194.800,137.400 194.800 C 142.600 194.800,145.600 194.654,145.600 194.400 C 145.600 194.169,146.859 194.000,148.576 194.000 C 150.213 194.000,151.664 193.820,151.800 193.600 C 151.936 193.380,152.836 193.200,153.800 193.200 C 154.764 193.200,155.664 193.020,155.800 192.800 C 155.936 192.580,156.667 192.400,157.424 192.400 C 158.181 192.400,158.800 192.220,158.800 192.000 C 158.800 191.780,159.418 191.600,160.172 191.600 C 161.649 191.600,168.113 189.630,168.333 189.113 C 168.575 188.546,174.214 188.769,175.470 189.395 C 177.832 190.574,180.000 193.636,180.000 195.795 C 180.000 196.568,180.180 197.200,180.400 197.200 C 180.659 197.200,180.800 202.067,180.800 211.000 C 180.800 219.933,180.659 224.800,180.400 224.800 C 180.162 224.800,180.000 226.325,180.000 228.576 C 180.000 230.663,179.821 232.463,179.600 232.600 C 179.380 232.736,179.200 233.456,179.200 234.200 C 179.200 234.944,179.020 235.664,178.800 235.800 C 178.580 235.936,178.400 236.667,178.400 237.424 C 178.400 238.181,178.220 238.800,178.000 238.800 C 177.780 238.800,177.600 239.092,177.600 239.448 C 177.600 240.254,174.018 247.751,173.545 247.933 C 173.355 248.007,173.200 248.322,173.200 248.633 C 173.200 248.945,173.020 249.200,172.800 249.200 C 172.580 249.200,172.400 249.404,172.400 249.653 C 172.400 249.902,172.076 250.397,171.681 250.753 C 171.286 251.109,170.524 252.030,169.988 252.800 C 168.639 254.737,166.932 256.397,164.730 257.911 C 163.701 258.618,162.621 259.423,162.330 259.699 C 162.038 259.974,161.308 260.454,160.707 260.764 C 160.105 261.074,159.258 261.659,158.823 262.064 C 158.389 262.469,157.756 262.800,157.417 262.800 C 157.078 262.800,156.800 262.980,156.800 263.200 C 156.800 263.420,156.440 263.600,156.000 263.600 C 155.560 263.600,155.200 263.780,155.200 264.000 C 155.200 264.220,154.761 264.400,154.224 264.400 C 153.687 264.400,153.136 264.580,153.000 264.800 C 152.864 265.020,152.403 265.200,151.976 265.200 C 151.549 265.200,151.200 265.380,151.200 265.600 C 151.200 265.820,150.581 266.000,149.824 266.000 C 149.067 266.000,148.336 266.180,148.200 266.400 C 148.064 266.620,147.344 266.800,146.600 266.800 C 145.856 266.800,145.136 266.980,145.000 267.200 C 144.850 267.443,141.863 267.600,137.376 267.600 C 132.725 267.600,130.000 267.452,130.000 267.200 C 130.000 266.980,129.280 266.800,128.400 266.800 C 127.520 266.800,126.800 266.620,126.800 266.400 C 126.800 266.180,126.170 266.000,125.400 266.000 C 124.630 266.000,124.000 265.820,124.000 265.600 C 124.000 265.380,123.550 265.200,123.000 265.200 C 122.450 265.200,122.000 265.020,122.000 264.800 C 122.000 264.580,121.550 264.400,121.000 264.400 C 120.450 264.400,120.000 264.220,120.000 264.000 C 120.000 263.780,119.640 263.600,119.200 263.600 C 118.760 263.600,118.400 263.420,118.400 263.200 C 118.400 262.980,118.122 262.800,117.783 262.800 C 117.444 262.800,116.780 262.440,116.308 262.000 C 115.836 261.560,115.213 261.200,114.925 261.200 C 114.636 261.200,114.400 261.064,114.400 260.898 C 114.400 260.731,113.905 260.375,113.300 260.106 C 112.695 259.836,111.713 259.162,111.117 258.608 C 110.522 258.054,109.898 257.600,109.731 257.600 C 109.375 257.600,104.800 252.736,104.800 252.358 C 104.800 252.216,104.170 251.413,103.400 250.572 C 102.630 249.731,102.000 248.809,102.000 248.522 C 102.000 248.235,101.820 248.000,101.600 248.000 C 101.380 248.000,101.200 247.764,101.200 247.475 C 101.200 247.187,100.840 246.564,100.400 246.092 C 99.960 245.620,99.600 244.956,99.600 244.617 C 99.600 244.278,99.465 243.999,99.300 243.997 C 98.894 243.993,98.000 242.014,98.000 241.120 C 98.000 240.724,97.820 240.400,97.600 240.400 C 97.380 240.400,97.200 240.040,97.200 239.600 C 97.200 239.160,97.020 238.800,96.800 238.800 C 96.580 238.800,96.400 238.080,96.400 237.200 C 96.400 236.320,96.220 235.600,96.000 235.600 C 95.780 235.600,95.600 234.880,95.600 234.000 C 95.600 233.120,95.420 232.400,95.200 232.400 C 94.961 232.400,94.800 230.867,94.800 228.600 C 94.800 226.333,94.639 224.800,94.400 224.800 C 94.141 224.800,94.000 219.933,94.000 211.000 C 94.000 202.067,94.141 197.200,94.400 197.200 C 94.620 197.200,94.800 196.480,94.800 195.600 C 94.800 194.720,94.980 194.000,95.200 194.000 C 95.420 194.000,95.600 193.722,95.600 193.382 C 95.600 192.644,97.006 191.179,99.037 189.801 C 100.520 188.794,106.507 188.268,106.867 189.113 M338.000 201.112 C 338.000 201.503,338.360 202.083,338.800 202.400 C 339.240 202.717,339.600 203.257,339.600 203.600 C 339.600 203.943,339.960 204.483,340.400 204.800 C 340.840 205.117,341.200 205.521,341.200 205.697 C 341.200 205.994,343.139 209.152,343.597 209.600 C 343.709 209.710,344.056 210.295,344.368 210.900 C 344.680 211.505,345.085 212.000,345.268 212.000 C 345.450 212.000,345.600 212.320,345.600 212.712 C 345.600 213.103,345.960 213.683,346.400 214.000 C 346.840 214.317,347.200 214.857,347.200 215.200 C 347.200 215.543,347.560 216.083,348.000 216.400 C 350.524 218.219,349.565 218.400,337.400 218.400 C 325.235 218.400,324.276 218.219,326.800 216.400 C 327.240 216.083,327.600 215.543,327.600 215.200 C 327.600 214.857,327.960 214.317,328.400 214.000 C 328.840 213.683,329.200 213.143,329.200 212.800 C 329.200 212.457,329.560 211.917,330.000 211.600 C 330.440 211.283,330.800 210.743,330.800 210.400 C 330.800 210.057,331.160 209.517,331.600 209.200 C 332.040 208.883,332.400 208.393,332.400 208.112 C 332.400 207.830,332.550 207.600,332.732 207.600 C 332.915 207.600,333.320 207.105,333.632 206.500 C 333.945 205.895,334.515 205.051,334.900 204.625 C 335.285 204.198,335.600 203.696,335.600 203.508 C 335.600 203.320,335.960 202.780,336.400 202.308 C 336.840 201.836,337.200 201.213,337.200 200.925 C 337.200 200.636,337.380 200.400,337.600 200.400 C 337.820 200.400,338.000 200.720,338.000 201.112 M230.800 212.600 L 230.800 219.200 262.400 219.200 L 294.000 219.200 294.000 212.600 L 294.000 206.000 262.400 206.000 L 230.800 206.000 230.800 212.600 M206.000 237.400 L 206.000 244.000 250.000 244.000 L 294.000 244.000 294.000 237.400 L 294.000 230.800 250.000 230.800 L 206.000 230.800 206.000 237.400 M330.800 281.200 L 330.800 330.800 325.000 330.800 L 319.200 330.800 319.200 281.200 L 319.200 231.600 325.000 231.600 L 330.800 231.600 330.800 281.200 M356.000 281.200 L 356.000 330.800 350.000 330.800 L 344.000 330.800 344.000 281.200 L 344.000 231.600 350.000 231.600 L 356.000 231.600 356.000 281.200 M206.000 262.600 L 206.000 269.200 237.600 269.200 L 269.200 269.200 269.200 262.600 L 269.200 256.000 237.600 256.000 L 206.000 256.000 206.000 262.600 M280.800 262.600 L 280.800 269.200 287.400 269.200 L 294.000 269.200 294.000 262.600 L 294.000 256.000 287.400 256.000 L 280.800 256.000 280.800 262.600 M128.000 281.200 C 128.000 281.456,131.467 281.600,137.600 281.600 C 143.733 281.600,147.200 281.456,147.200 281.200 C 147.200 280.980,147.740 280.800,148.400 280.800 L 149.600 280.800 149.600 285.720 C 149.600 290.318,149.146 292.788,148.300 292.797 C 148.135 292.799,148.000 293.070,148.000 293.400 C 148.000 293.730,147.841 294.000,147.647 294.000 C 147.452 294.000,147.193 294.315,147.071 294.700 C 146.836 295.443,145.556 297.664,145.170 298.000 C 145.044 298.110,144.504 299.010,143.970 300.000 C 143.437 300.990,142.775 302.038,142.500 302.329 C 142.225 302.619,142.000 303.204,142.000 303.629 C 142.000 304.053,141.820 304.400,141.600 304.400 C 141.380 304.400,141.200 304.720,141.200 305.112 C 141.200 305.503,140.840 306.083,140.400 306.400 C 139.960 306.717,139.600 307.297,139.600 307.688 C 139.600 308.080,139.420 308.400,139.200 308.400 C 138.980 308.400,138.800 308.670,138.800 309.000 C 138.800 309.330,138.620 309.600,138.400 309.600 C 138.180 309.600,138.000 309.870,138.000 310.200 C 138.000 311.204,137.299 310.871,136.736 309.600 C 136.444 308.940,136.069 308.400,135.902 308.400 C 135.736 308.400,135.600 308.164,135.600 307.875 C 135.600 307.587,135.240 306.964,134.800 306.492 C 134.360 306.020,134.000 305.356,134.000 305.017 C 134.000 304.678,133.820 304.400,133.600 304.400 C 133.380 304.400,133.200 304.164,133.200 303.875 C 133.200 303.587,132.840 302.964,132.400 302.492 C 131.960 302.020,131.600 301.356,131.600 301.017 C 131.600 300.678,131.420 300.400,131.200 300.400 C 130.980 300.400,130.800 300.164,130.800 299.875 C 130.800 299.587,130.440 298.964,130.000 298.492 C 129.560 298.020,129.200 297.356,129.200 297.017 C 129.200 296.678,129.020 296.400,128.800 296.400 C 128.580 296.400,128.400 296.130,128.400 295.800 C 128.400 295.470,128.220 295.200,128.000 295.200 C 127.780 295.200,127.600 294.930,127.600 294.600 C 127.600 294.270,127.454 294.000,127.275 294.000 C 127.096 294.000,126.702 293.370,126.400 292.600 C 126.098 291.830,125.704 291.200,125.525 291.200 C 125.346 291.200,125.200 288.860,125.200 286.000 L 125.200 280.800 126.600 280.800 C 127.370 280.800,128.000 280.980,128.000 281.200 M115.429 302.571 C 115.743 302.886,116.000 303.336,116.000 303.571 C 116.000 303.807,116.180 304.000,116.400 304.000 C 116.620 304.000,116.800 304.270,116.800 304.600 C 116.800 304.930,116.936 305.200,117.102 305.200 C 117.269 305.200,117.629 305.706,117.903 306.325 C 118.176 306.944,118.760 307.836,119.200 308.308 C 119.640 308.780,120.000 309.444,120.000 309.783 C 120.000 310.122,120.180 310.400,120.400 310.400 C 120.620 310.400,120.800 310.720,120.800 311.112 C 120.800 311.503,121.160 312.083,121.600 312.400 C 122.040 312.717,122.400 313.297,122.400 313.688 C 122.400 314.080,122.580 314.400,122.800 314.400 C 123.020 314.400,123.200 314.720,123.200 315.112 C 123.200 315.503,123.560 316.083,124.000 316.400 C 124.440 316.717,124.800 317.210,124.800 317.496 C 124.800 317.782,125.250 318.729,125.800 319.600 C 126.350 320.471,126.800 321.295,126.800 321.430 C 126.800 321.566,127.152 322.170,127.581 322.774 L 128.362 323.871 123.157 328.935 C 117.026 334.901,117.600 334.665,117.600 331.224 C 117.600 329.697,117.420 328.336,117.200 328.200 C 116.980 328.064,116.800 326.444,116.800 324.600 C 116.800 322.756,116.620 321.136,116.400 321.000 C 116.180 320.864,116.000 319.233,116.000 317.376 C 116.000 315.392,115.835 314.000,115.600 314.000 C 115.365 314.000,115.200 312.608,115.200 310.624 C 115.200 308.767,115.020 307.136,114.800 307.000 C 114.386 306.744,114.223 302.000,114.629 302.000 C 114.754 302.000,115.114 302.257,115.429 302.571 M160.242 304.500 C 160.118 305.875,159.846 308.620,159.638 310.600 C 158.609 320.374,158.437 322.417,158.419 325.100 C 158.408 326.754,158.228 328.000,158.000 328.000 C 157.765 328.000,157.600 329.374,157.600 331.321 L 157.600 334.641 152.100 329.221 C 149.075 326.239,146.735 323.740,146.900 323.667 C 147.065 323.593,147.200 323.278,147.200 322.967 C 147.200 322.655,147.380 322.400,147.600 322.400 C 147.820 322.400,148.000 322.040,148.000 321.600 C 148.000 321.160,148.180 320.800,148.400 320.800 C 148.620 320.800,148.800 320.530,148.800 320.200 C 148.800 319.870,148.980 319.600,149.200 319.600 C 149.420 319.600,149.600 319.330,149.600 319.000 C 149.600 318.670,149.780 318.400,150.000 318.400 C 150.220 318.400,150.400 318.122,150.400 317.783 C 150.400 317.444,150.760 316.780,151.200 316.308 C 151.640 315.836,152.000 315.213,152.000 314.925 C 152.000 314.636,152.180 314.400,152.400 314.400 C 152.620 314.400,152.800 314.040,152.800 313.600 C 152.800 313.160,152.958 312.800,153.151 312.800 C 153.345 312.800,153.727 312.260,154.000 311.600 C 154.273 310.940,154.655 310.400,154.849 310.400 C 155.042 310.400,155.200 310.055,155.200 309.633 C 155.200 309.212,155.344 308.807,155.521 308.733 C 155.874 308.587,158.800 303.855,158.800 303.431 C 158.800 303.039,159.748 302.033,160.134 302.015 C 160.318 302.007,160.367 303.125,160.242 304.500 M100.400 306.976 C 100.400 307.733,100.580 308.464,100.800 308.600 C 101.020 308.736,101.200 310.356,101.200 312.200 C 101.200 314.044,101.380 315.664,101.600 315.800 C 101.820 315.936,102.000 317.567,102.000 319.424 C 102.000 321.408,102.165 322.800,102.400 322.800 C 102.635 322.800,102.800 324.192,102.800 326.176 C 102.800 328.033,102.980 329.664,103.200 329.800 C 103.420 329.936,103.600 331.567,103.600 333.424 C 103.600 335.408,103.765 336.800,104.000 336.800 C 104.237 336.800,104.400 338.267,104.400 340.400 C 104.400 342.533,104.563 344.000,104.800 344.000 C 105.035 344.000,105.200 345.392,105.200 347.376 C 105.200 349.233,105.380 350.864,105.600 351.000 C 105.820 351.136,106.000 352.767,106.000 354.624 C 106.000 356.608,106.165 358.000,106.400 358.000 C 106.633 358.000,106.800 359.333,106.800 361.200 C 106.800 366.097,106.725 366.146,120.589 352.300 C 127.253 345.645,133.794 339.138,135.125 337.840 L 137.544 335.481 151.996 349.940 C 168.612 366.566,168.400 366.420,168.400 361.224 C 168.400 359.477,168.580 357.936,168.800 357.800 C 169.020 357.664,169.200 356.069,169.200 354.256 C 169.200 352.443,169.367 350.789,169.571 350.580 C 169.775 350.371,170.045 348.715,170.171 346.900 C 170.297 345.085,170.503 342.115,170.629 340.300 C 170.755 338.485,171.025 336.829,171.229 336.620 C 171.433 336.411,171.600 334.782,171.600 333.000 C 171.600 331.218,171.767 329.589,171.971 329.380 C 172.175 329.171,172.439 327.560,172.558 325.800 C 172.677 324.040,172.955 320.980,173.176 319.000 C 173.397 317.020,173.756 313.780,173.972 311.800 C 174.657 305.542,174.609 305.653,176.539 305.894 C 177.453 306.008,178.371 306.258,178.580 306.451 C 178.789 306.643,179.543 306.800,180.256 306.800 C 180.969 306.800,181.664 306.980,181.800 307.200 C 181.936 307.420,182.588 307.600,183.250 307.600 C 183.911 307.600,184.792 307.782,185.206 308.003 C 185.621 308.225,187.319 308.522,188.980 308.662 C 190.641 308.803,192.000 309.071,192.000 309.259 C 192.000 309.446,192.630 309.600,193.400 309.600 C 194.170 309.600,194.800 309.780,194.800 310.000 C 194.800 310.220,195.520 310.400,196.400 310.400 C 197.280 310.400,198.000 310.580,198.000 310.800 C 198.000 311.020,198.720 311.200,199.600 311.200 C 200.480 311.200,201.200 311.380,201.200 311.600 C 201.200 311.820,201.920 312.000,202.800 312.000 C 203.680 312.000,204.400 312.180,204.400 312.400 C 204.400 312.620,205.120 312.800,206.000 312.800 C 206.880 312.800,207.600 312.980,207.600 313.200 C 207.600 313.420,208.039 313.600,208.576 313.600 C 209.113 313.600,209.664 313.780,209.800 314.000 C 209.936 314.220,210.487 314.400,211.024 314.400 C 211.561 314.400,212.000 314.580,212.000 314.800 C 212.000 315.020,212.360 315.200,212.800 315.200 C 213.240 315.200,213.600 315.380,213.600 315.600 C 213.600 315.820,213.872 316.000,214.205 316.000 C 214.851 316.000,215.486 316.271,217.400 317.364 C 218.060 317.741,218.915 318.149,219.300 318.271 C 219.685 318.393,220.000 318.652,220.000 318.847 C 220.000 319.041,220.360 319.200,220.800 319.200 C 221.240 319.200,221.600 319.380,221.600 319.600 C 221.600 319.820,221.960 320.000,222.400 320.000 C 222.840 320.000,223.200 320.150,223.200 320.332 C 223.200 320.515,223.692 320.920,224.294 321.232 C 225.447 321.830,226.097 322.306,228.210 324.100 C 228.923 324.705,229.707 325.200,229.953 325.200 C 230.199 325.200,230.400 325.380,230.400 325.600 C 230.400 325.820,230.589 326.000,230.819 326.000 C 231.367 326.000,240.400 335.127,240.400 335.681 C 240.400 335.915,240.720 336.397,241.112 336.753 C 241.503 337.109,242.538 338.523,243.412 339.897 C 244.285 341.270,245.135 342.395,245.300 342.397 C 245.465 342.398,245.600 342.760,245.600 343.200 C 245.600 343.640,245.735 344.001,245.900 344.003 C 246.065 344.005,246.405 344.410,246.655 344.903 C 246.905 345.396,247.664 346.880,248.342 348.200 C 249.020 349.520,249.581 350.915,249.587 351.300 C 249.594 351.685,249.780 352.000,250.000 352.000 C 250.220 352.000,250.400 352.360,250.400 352.800 C 250.400 353.240,250.580 353.600,250.800 353.600 C 251.020 353.600,251.200 354.039,251.200 354.576 C 251.200 355.113,251.380 355.664,251.600 355.800 C 251.820 355.936,252.000 356.487,252.000 357.024 C 252.000 357.561,252.180 358.000,252.400 358.000 C 252.620 358.000,252.800 358.529,252.800 359.176 C 252.800 359.823,252.980 360.464,253.200 360.600 C 253.420 360.736,253.600 361.546,253.600 362.400 C 253.600 363.254,253.780 364.064,254.000 364.200 C 254.220 364.336,254.400 365.337,254.400 366.424 C 254.400 367.511,254.580 368.400,254.800 368.400 C 255.044 368.400,255.200 370.259,255.200 373.176 C 255.200 375.929,255.369 378.058,255.600 378.200 C 255.820 378.336,256.000 378.977,256.000 379.624 L 256.000 380.800 237.600 380.800 L 219.200 380.800 219.200 368.400 L 219.200 356.000 212.600 356.000 L 206.000 356.000 206.000 368.400 L 206.000 380.800 137.600 380.800 L 69.200 380.800 69.200 368.400 L 69.200 356.000 62.600 356.000 L 56.000 356.000 56.000 368.400 L 56.000 380.800 37.556 380.800 L 19.112 380.800 19.397 379.300 C 19.553 378.475,19.764 375.730,19.864 373.200 C 19.965 370.670,20.217 368.429,20.424 368.220 C 20.631 368.011,20.800 366.987,20.800 365.944 C 20.800 364.901,20.980 363.936,21.200 363.800 C 21.420 363.664,21.600 362.843,21.600 361.976 C 21.600 361.109,21.780 360.400,22.000 360.400 C 22.220 360.400,22.400 359.896,22.400 359.280 C 22.400 358.664,22.549 357.989,22.730 357.780 C 22.912 357.571,23.311 356.590,23.617 355.600 C 23.924 354.610,24.404 353.350,24.685 352.800 C 24.965 352.250,25.196 351.395,25.198 350.900 C 25.199 350.405,25.380 350.000,25.600 350.000 C 25.820 350.000,26.000 349.550,26.000 349.000 C 26.000 348.450,26.180 348.000,26.400 348.000 C 26.620 348.000,26.800 347.764,26.800 347.475 C 26.800 347.187,27.160 346.564,27.600 346.092 C 28.040 345.620,28.400 344.956,28.400 344.617 C 28.400 344.278,28.580 344.000,28.800 344.000 C 29.020 344.000,29.200 343.680,29.200 343.288 C 29.200 342.897,29.560 342.317,30.000 342.000 C 30.440 341.683,30.800 341.193,30.800 340.912 C 30.800 340.630,30.950 340.400,31.132 340.400 C 31.315 340.400,31.720 339.908,32.032 339.307 C 32.345 338.706,33.095 337.689,33.700 337.048 C 34.305 336.406,34.800 335.725,34.800 335.533 C 34.800 335.342,35.925 334.049,37.300 332.660 C 38.675 331.271,40.610 329.248,41.600 328.164 C 42.590 327.080,43.850 325.963,44.400 325.681 C 44.950 325.399,46.001 324.643,46.737 324.000 C 47.472 323.357,48.417 322.722,48.837 322.588 C 49.256 322.455,49.600 322.178,49.600 321.973 C 49.600 321.768,49.836 321.600,50.125 321.600 C 50.413 321.600,51.036 321.240,51.508 320.800 C 51.980 320.360,52.644 320.000,52.983 320.000 C 53.322 320.000,53.600 319.841,53.600 319.647 C 53.600 319.452,53.915 319.190,54.300 319.064 C 54.685 318.938,55.770 318.377,56.711 317.818 C 57.652 317.258,58.687 316.800,59.011 316.800 C 59.335 316.800,59.600 316.620,59.600 316.400 C 59.600 316.180,59.960 316.000,60.400 316.000 C 60.840 316.000,61.200 315.820,61.200 315.600 C 61.200 315.380,61.549 315.200,61.976 315.200 C 62.403 315.200,62.864 315.020,63.000 314.800 C 63.136 314.580,63.687 314.400,64.224 314.400 C 64.761 314.400,65.200 314.220,65.200 314.000 C 65.200 313.780,65.740 313.600,66.400 313.600 C 67.060 313.600,67.600 313.420,67.600 313.200 C 67.600 312.980,68.230 312.800,69.000 312.800 C 69.770 312.800,70.400 312.620,70.400 312.400 C 70.400 312.180,71.120 312.000,72.000 312.000 C 72.880 312.000,73.600 311.820,73.600 311.600 C 73.600 311.380,74.320 311.200,75.200 311.200 C 76.080 311.200,76.800 311.020,76.800 310.800 C 76.800 310.580,77.520 310.400,78.400 310.400 C 79.280 310.400,80.000 310.220,80.000 310.000 C 80.000 309.780,80.720 309.600,81.600 309.600 C 82.480 309.600,83.200 309.443,83.200 309.252 C 83.200 309.060,84.637 308.778,86.393 308.625 C 88.149 308.472,89.690 308.178,89.817 307.973 C 89.943 307.768,90.656 307.600,91.400 307.600 C 92.144 307.600,92.864 307.420,93.000 307.200 C 93.136 306.980,93.957 306.800,94.824 306.800 C 95.691 306.800,96.400 306.630,96.400 306.423 C 96.400 306.216,97.165 305.977,98.100 305.893 C 99.035 305.809,99.935 305.708,100.100 305.670 C 100.265 305.631,100.400 306.219,100.400 306.976 M356.000 352.976 C 356.000 358.529,355.847 362.047,355.600 362.200 C 355.380 362.336,355.200 363.517,355.200 364.824 C 355.200 366.141,355.022 367.200,354.800 367.200 C 354.580 367.200,354.400 367.650,354.400 368.200 C 354.400 368.750,354.220 369.200,354.000 369.200 C 353.780 369.200,353.600 369.560,353.600 370.000 C 353.600 370.440,353.420 370.800,353.200 370.800 C 352.980 370.800,352.800 371.088,352.800 371.440 C 352.800 371.791,352.260 372.583,351.600 373.200 C 350.940 373.817,350.399 374.474,350.397 374.660 C 350.396 374.847,349.721 375.448,348.897 375.996 C 348.074 376.544,347.310 377.086,347.200 377.199 C 345.085 379.377,332.400 381.435,332.400 379.600 C 332.400 379.380,332.147 379.200,331.838 379.200 C 328.606 379.200,320.800 371.394,320.800 368.162 C 320.800 367.853,320.620 367.600,320.400 367.600 C 320.174 367.600,320.000 366.467,320.000 365.000 C 320.000 363.533,319.826 362.400,319.600 362.400 C 319.345 362.400,319.200 359.067,319.200 353.200 L 319.200 344.000 337.600 344.000 L 356.000 344.000 356.000 352.976 M130.800 362.600 L 130.800 369.200 137.400 369.200 L 144.000 369.200 144.000 362.600 L 144.000 356.000 137.400 356.000 L 130.800 356.000 130.800 362.600 " stroke="none" fill="#040404" fill-rule="evenodd"></path><path id="path1" d="" stroke="none" fill="#080404" fill-rule="evenodd"></path><path id="path2" d="" stroke="none" fill="#080404" fill-rule="evenodd"></path><path id="path3" d="" stroke="none" fill="#080404" fill-rule="evenodd"></path><path id="path4" d="" stroke="none" fill="#080404" fill-rule="evenodd"></path></g></svg>