<svg id="svg" version="1.1" xmlns="http://www.w3.org/2000/svg" xmlns:xlink="http://www.w3.org/1999/xlink" width="400" height="400" viewBox="0, 0, 400,400"><g id="svgg"><path id="path0" d="M179.000 0.463 C 177.020 0.641,174.140 0.894,172.600 1.026 C 171.060 1.157,169.629 1.430,169.420 1.632 C 169.211 1.835,168.212 2.000,167.200 2.000 C 166.188 2.000,165.189 2.163,164.980 2.361 C 164.628 2.696,163.836 2.833,158.700 3.449 C 157.655 3.575,156.800 3.822,156.800 3.998 C 156.800 4.175,156.035 4.419,155.100 4.541 C 151.840 4.966,150.391 5.291,150.173 5.644 C 150.052 5.840,149.333 6.000,148.576 6.000 C 147.819 6.000,147.200 6.180,147.200 6.400 C 147.200 6.620,146.570 6.800,145.800 6.800 C 145.030 6.800,144.400 6.980,144.400 7.200 C 144.400 7.420,143.871 7.600,143.224 7.600 C 142.577 7.600,141.936 7.780,141.800 8.000 C 141.664 8.220,141.194 8.400,140.755 8.400 C 140.316 8.400,138.032 9.049,135.678 9.841 C 133.325 10.634,131.220 11.322,131.000 11.370 C 130.780 11.419,129.903 11.760,129.051 12.129 C 128.199 12.498,127.378 12.800,127.226 12.800 C 127.074 12.800,126.205 13.160,125.294 13.600 C 124.384 14.040,123.360 14.400,123.019 14.400 C 122.679 14.400,122.400 14.580,122.400 14.800 C 122.400 15.020,121.950 15.200,121.400 15.200 C 120.850 15.200,120.400 15.380,120.400 15.600 C 120.400 15.820,120.209 16.000,119.975 16.000 C 119.741 16.000,118.346 16.558,116.875 17.239 C 115.404 17.921,113.750 18.685,113.200 18.938 C 112.650 19.192,112.110 19.499,112.000 19.622 C 111.890 19.745,111.170 20.092,110.400 20.393 C 109.630 20.693,108.522 21.268,107.938 21.670 C 107.354 22.071,106.679 22.400,106.438 22.400 C 106.197 22.400,106.000 22.580,106.000 22.800 C 106.000 23.020,105.640 23.200,105.200 23.200 C 104.760 23.200,104.400 23.380,104.400 23.600 C 104.400 23.820,104.040 24.000,103.600 24.000 C 103.160 24.000,102.798 24.135,102.795 24.300 C 102.792 24.465,101.622 25.140,100.195 25.800 C 98.768 26.460,97.600 27.135,97.600 27.300 C 97.600 27.465,97.407 27.600,97.172 27.600 C 96.665 27.600,93.059 30.009,92.867 30.477 C 92.793 30.655,92.388 30.800,91.967 30.800 C 91.545 30.800,91.200 30.942,91.200 31.115 C 91.200 31.289,90.165 32.049,88.900 32.804 C 87.635 33.560,86.330 34.454,86.000 34.792 C 85.670 35.129,84.905 35.660,84.300 35.970 C 83.695 36.281,83.200 36.685,83.200 36.868 C 83.200 37.050,82.930 37.200,82.600 37.200 C 82.270 37.200,82.000 37.341,82.000 37.514 C 82.000 37.686,81.455 38.149,80.789 38.543 C 80.123 38.936,79.178 39.657,78.689 40.144 C 78.200 40.631,76.990 41.613,76.000 42.327 C 66.240 49.366,48.028 67.616,41.999 76.400 C 41.470 77.170,40.748 78.070,40.394 78.400 C 40.040 78.730,39.142 79.900,38.400 81.000 C 37.658 82.100,36.768 83.270,36.422 83.600 C 36.077 83.930,35.540 84.695,35.230 85.300 C 34.919 85.905,34.537 86.400,34.381 86.400 C 34.225 86.400,33.873 86.940,33.600 87.600 C 33.327 88.260,32.945 88.800,32.751 88.800 C 32.558 88.800,32.400 88.974,32.400 89.187 C 32.400 89.622,29.632 94.071,28.410 95.600 C 27.970 96.150,27.608 96.825,27.605 97.100 C 27.602 97.375,27.409 97.600,27.176 97.600 C 26.943 97.600,26.851 97.760,26.972 97.955 C 27.093 98.150,26.925 98.530,26.600 98.800 C 26.275 99.070,26.107 99.450,26.228 99.645 C 26.349 99.840,26.290 100.000,26.098 100.000 C 25.906 100.000,25.502 100.630,25.200 101.400 C 24.898 102.170,24.504 102.800,24.325 102.800 C 24.146 102.800,24.000 103.160,24.000 103.600 C 24.000 104.040,23.864 104.400,23.698 104.400 C 23.531 104.400,23.143 104.985,22.835 105.700 C 22.527 106.415,21.974 107.450,21.607 108.000 C 21.240 108.550,20.693 109.630,20.393 110.400 C 20.092 111.170,19.745 111.890,19.623 112.000 C 19.151 112.424,18.400 114.017,18.400 114.595 C 18.400 114.928,18.220 115.200,18.000 115.200 C 17.780 115.200,17.600 115.436,17.600 115.725 C 17.600 116.014,17.240 116.995,16.800 117.906 C 16.360 118.816,16.000 119.750,16.000 119.981 C 16.000 120.211,15.820 120.400,15.600 120.400 C 15.380 120.400,15.200 120.850,15.200 121.400 C 15.200 121.950,15.053 122.400,14.872 122.400 C 14.692 122.400,14.300 123.300,14.000 124.400 C 13.700 125.500,13.308 126.400,13.128 126.400 C 12.947 126.400,12.800 126.648,12.800 126.951 C 12.800 127.254,12.498 128.199,12.129 129.051 C 11.760 129.903,11.422 130.780,11.378 131.000 C 11.333 131.220,10.740 132.975,10.060 134.900 C 9.379 136.825,8.943 138.400,9.091 138.400 C 9.239 138.400,9.144 138.616,8.880 138.880 C 8.616 139.144,8.400 139.954,8.400 140.680 C 8.400 141.406,8.220 142.000,8.000 142.000 C 7.780 142.000,7.600 142.540,7.600 143.200 C 7.600 143.860,7.420 144.400,7.200 144.400 C 6.980 144.400,6.800 145.030,6.800 145.800 C 6.800 146.570,6.620 147.200,6.400 147.200 C 6.180 147.200,6.000 147.819,6.000 148.576 C 6.000 149.333,5.840 150.052,5.644 150.173 C 5.291 150.391,4.966 151.840,4.541 155.100 C 4.419 156.035,4.158 156.800,3.960 156.800 C 3.762 156.800,3.600 157.574,3.600 158.520 C 3.600 159.466,3.437 160.411,3.239 160.620 C 2.900 160.977,2.702 162.136,2.152 167.000 C 2.028 168.100,1.763 169.171,1.563 169.380 C 1.363 169.589,1.200 170.948,1.200 172.400 C 1.200 173.929,0.997 175.243,0.717 175.523 C 0.046 176.194,-0.221 212.592,0.392 219.800 C 0.635 222.660,0.931 226.170,1.049 227.600 C 1.168 229.030,1.430 230.371,1.632 230.580 C 1.835 230.789,2.000 231.903,2.000 233.056 C 2.000 234.209,2.180 235.264,2.400 235.400 C 2.620 235.536,2.800 236.436,2.800 237.400 C 2.800 238.364,2.980 239.264,3.200 239.400 C 3.420 239.536,3.600 240.447,3.600 241.424 C 3.600 242.401,3.780 243.200,4.000 243.200 C 4.220 243.200,4.400 243.909,4.400 244.776 C 4.400 245.643,4.580 246.464,4.800 246.600 C 5.020 246.736,5.200 247.456,5.200 248.200 C 5.200 248.944,5.380 249.664,5.600 249.800 C 5.820 249.936,6.000 250.667,6.000 251.424 C 6.000 252.181,6.180 252.800,6.400 252.800 C 6.620 252.800,6.800 253.430,6.800 254.200 C 6.800 254.970,6.980 255.600,7.200 255.600 C 7.420 255.600,7.600 256.140,7.600 256.800 C 7.600 257.460,7.780 258.000,8.000 258.000 C 8.220 258.000,8.400 258.464,8.400 259.030 C 8.400 260.047,10.787 267.812,11.852 270.260 C 12.153 270.954,12.400 271.640,12.400 271.786 C 12.400 271.932,12.850 273.035,13.400 274.237 C 13.950 275.440,14.400 276.688,14.400 277.012 C 14.400 277.335,14.536 277.600,14.702 277.600 C 14.868 277.600,15.228 278.230,15.502 279.000 C 15.776 279.770,16.224 281.030,16.498 281.800 C 16.772 282.570,17.132 283.200,17.298 283.200 C 17.464 283.200,17.600 283.560,17.600 284.000 C 17.600 284.440,17.780 284.800,18.000 284.800 C 18.220 284.800,18.400 284.982,18.400 285.204 C 18.400 285.813,20.115 289.380,20.481 289.533 C 20.657 289.607,20.804 289.967,20.809 290.333 C 20.814 290.700,21.170 291.450,21.600 292.000 C 22.030 292.550,22.386 293.225,22.391 293.500 C 22.396 293.775,22.580 294.000,22.800 294.000 C 23.020 294.000,23.200 294.360,23.200 294.800 C 23.200 295.240,23.380 295.600,23.600 295.600 C 23.820 295.600,24.000 295.960,24.000 296.400 C 24.000 296.840,24.146 297.200,24.325 297.200 C 24.504 297.200,24.898 297.830,25.200 298.600 C 25.502 299.370,25.926 300.000,26.141 300.000 C 26.357 300.000,26.426 300.107,26.295 300.239 C 26.049 300.484,28.126 304.055,30.855 308.078 C 31.705 309.331,32.400 310.546,32.400 310.778 C 32.400 311.010,32.568 311.200,32.773 311.200 C 32.978 311.200,33.262 311.566,33.404 312.013 C 33.546 312.460,34.053 313.225,34.531 313.713 C 35.009 314.201,35.655 315.095,35.968 315.700 C 36.280 316.305,36.685 316.800,36.868 316.800 C 37.050 316.800,37.201 317.025,37.202 317.300 C 37.203 317.575,37.743 318.375,38.402 319.078 C 39.061 319.781,39.600 320.531,39.600 320.745 C 39.600 320.959,39.751 321.193,39.936 321.267 C 40.121 321.340,40.936 322.274,41.746 323.343 C 44.373 326.808,48.150 331.374,49.289 332.460 C 49.900 333.044,50.400 333.679,50.400 333.873 C 50.400 334.152,53.913 337.839,57.107 340.912 C 57.386 341.180,59.366 343.111,61.507 345.202 C 65.332 348.938,69.431 352.624,71.800 354.458 C 72.460 354.969,73.180 355.527,73.400 355.698 C 73.620 355.869,74.430 356.544,75.200 357.198 C 75.970 357.852,76.727 358.390,76.882 358.394 C 77.037 358.397,77.614 358.850,78.164 359.400 C 78.714 359.950,79.260 360.400,79.377 360.400 C 79.592 360.400,80.833 361.367,81.816 362.300 C 82.106 362.575,82.536 362.800,82.771 362.800 C 83.007 362.800,83.200 362.950,83.200 363.132 C 83.200 363.315,83.695 363.720,84.300 364.032 C 84.905 364.345,85.940 365.094,86.600 365.698 C 87.260 366.302,88.025 366.797,88.300 366.798 C 88.575 366.799,88.800 366.968,88.800 367.173 C 88.800 367.378,89.159 367.660,89.598 367.799 C 90.036 367.938,90.628 368.266,90.913 368.526 C 91.198 368.787,91.874 369.259,92.415 369.576 C 95.483 371.370,98.734 373.362,99.660 374.016 C 100.243 374.428,101.188 374.882,101.760 375.026 C 102.332 375.169,102.800 375.447,102.800 375.643 C 102.800 375.840,103.160 376.000,103.600 376.000 C 104.040 376.000,104.400 376.180,104.400 376.400 C 104.400 376.620,104.760 376.800,105.200 376.800 C 105.640 376.800,106.000 376.980,106.000 377.200 C 106.000 377.420,106.270 377.600,106.600 377.600 C 106.930 377.600,107.200 377.780,107.200 378.000 C 107.200 378.220,107.472 378.400,107.805 378.400 C 108.366 378.400,109.937 379.130,110.400 379.605 C 110.632 379.843,113.020 380.991,117.000 382.776 C 118.540 383.467,120.113 384.205,120.495 384.416 C 120.877 384.627,121.462 384.800,121.795 384.800 C 122.128 384.800,122.400 384.980,122.400 385.200 C 122.400 385.420,122.672 385.600,123.005 385.600 C 123.338 385.600,123.923 385.759,124.305 385.953 C 125.983 386.807,129.605 388.157,134.200 389.641 C 136.180 390.280,138.353 390.983,139.028 391.202 C 139.704 391.421,140.649 391.600,141.128 391.600 C 141.608 391.600,142.000 391.780,142.000 392.000 C 142.000 392.220,142.540 392.400,143.200 392.400 C 143.860 392.400,144.400 392.580,144.400 392.800 C 144.400 393.020,145.019 393.200,145.776 393.200 C 146.533 393.200,147.264 393.380,147.400 393.600 C 147.536 393.820,148.166 394.000,148.800 394.000 C 149.434 394.000,150.064 394.180,150.200 394.400 C 150.336 394.620,151.056 394.800,151.800 394.800 C 152.544 394.800,153.264 394.980,153.400 395.200 C 153.536 395.420,154.357 395.600,155.224 395.600 C 156.091 395.600,156.800 395.780,156.800 396.000 C 156.800 396.220,157.599 396.400,158.576 396.400 C 159.553 396.400,160.464 396.580,160.600 396.800 C 160.736 397.020,161.737 397.200,162.824 397.200 C 163.911 397.200,164.800 397.364,164.800 397.564 C 164.800 397.907,166.020 398.080,172.400 398.644 C 173.830 398.770,175.244 399.075,175.541 399.320 C 176.310 399.954,212.909 400.193,219.800 399.610 C 229.060 398.826,229.794 398.738,230.180 398.366 C 230.389 398.165,231.593 398.000,232.856 398.000 C 234.119 398.000,235.264 397.820,235.400 397.600 C 235.536 397.380,236.256 397.200,237.000 397.200 C 237.744 397.200,238.464 397.020,238.600 396.800 C 238.736 396.580,238.632 396.400,238.368 396.400 C 238.105 396.400,237.147 395.725,236.239 394.900 C 235.331 394.075,233.521 392.500,232.216 391.400 C 230.911 390.300,228.922 388.590,227.794 387.600 C 225.043 385.184,224.273 384.525,218.000 379.216 C 215.030 376.702,211.696 373.825,210.591 372.823 C 208.724 371.129,207.032 369.674,202.362 365.746 C 199.930 363.701,189.724 354.910,188.200 353.547 C 187.540 352.957,186.175 351.783,185.167 350.937 C 182.163 348.418,166.616 335.057,166.400 334.809 C 166.290 334.682,165.030 333.594,163.600 332.390 C 162.170 331.185,160.910 330.106,160.800 329.991 C 160.690 329.877,158.080 327.633,155.000 325.005 C 151.920 322.377,149.310 320.131,149.200 320.013 C 149.090 319.896,147.830 318.815,146.400 317.610 C 144.970 316.406,143.710 315.323,143.600 315.204 C 143.490 315.085,142.801 314.495,142.069 313.894 C 141.337 313.292,140.943 312.800,141.193 312.800 C 141.443 312.800,141.528 312.608,141.383 312.373 C 141.238 312.138,140.828 312.057,140.472 312.194 C 140.116 312.330,139.947 312.320,140.096 312.171 C 140.245 312.021,139.340 311.234,138.084 310.422 C 131.238 305.995,125.163 297.970,122.472 289.800 C 120.540 283.935,120.600 284.750,120.600 264.573 L 120.600 245.346 121.582 243.437 C 126.083 234.682,139.563 234.648,143.399 243.381 C 143.763 244.209,143.945 244.366,143.967 243.870 C 143.990 243.363,146.180 245.156,151.100 249.707 C 155.005 253.319,159.550 257.502,161.200 259.002 C 162.850 260.501,166.180 263.557,168.600 265.793 C 171.020 268.029,175.430 272.083,178.400 274.803 C 184.951 280.802,192.084 287.396,195.369 290.489 L 197.800 292.777 178.400 292.882 C 163.795 292.961,161.818 293.020,170.400 293.120 C 176.670 293.194,189.078 293.130,197.973 292.979 L 214.146 292.703 211.761 290.452 C 210.449 289.213,208.211 287.129,206.788 285.820 C 205.365 284.511,202.760 282.078,201.000 280.414 C 199.240 278.750,194.203 274.061,189.807 269.994 C 185.412 265.927,180.212 261.025,178.252 259.100 C 176.292 257.175,174.548 255.600,174.376 255.600 C 173.654 255.600,170.669 252.161,169.964 250.516 C 168.263 246.548,169.270 242.454,172.822 238.900 C 173.976 237.745,174.728 236.800,174.493 236.800 C 174.259 236.800,174.005 236.935,173.929 237.100 C 173.854 237.265,173.224 237.915,172.528 238.544 L 171.264 239.688 167.733 236.344 C 165.790 234.505,162.580 231.457,160.600 229.571 C 155.779 224.980,150.763 220.242,145.200 215.025 C 142.670 212.652,140.456 210.461,140.280 210.155 C 140.104 209.850,139.784 209.600,139.569 209.600 C 138.756 209.600,136.374 207.005,135.407 205.063 C 133.174 200.583,134.742 194.928,138.982 192.169 C 141.380 190.610,142.758 190.413,151.400 190.393 L 159.800 190.375 152.600 183.356 C 148.640 179.496,141.392 172.449,136.494 167.696 C 131.179 162.539,127.767 158.944,128.032 158.780 C 128.292 158.620,127.970 158.328,127.260 158.081 C 125.509 157.471,122.696 154.732,121.570 152.540 L 120.600 150.654 120.600 133.427 C 120.600 115.399,120.546 116.067,122.467 110.200 C 123.333 107.554,125.623 102.676,126.098 102.467 C 126.264 102.393,126.400 102.140,126.400 101.904 C 126.400 99.417,136.491 89.986,142.292 87.053 C 151.099 82.598,148.362 82.800,200.020 82.800 L 245.112 82.800 249.056 83.812 C 259.168 86.408,271.348 95.446,273.735 102.125 C 273.878 102.524,274.174 102.740,274.393 102.605 C 274.617 102.466,274.693 102.612,274.568 102.939 C 274.446 103.258,274.538 103.638,274.773 103.783 C 275.008 103.928,275.200 103.857,275.200 103.625 C 275.200 103.241,276.590 104.791,285.419 115.022 C 291.188 121.705,303.428 135.847,304.442 137.000 C 305.023 137.660,307.896 140.990,310.827 144.400 C 316.052 150.479,318.144 152.902,328.610 164.998 C 331.465 168.297,334.250 171.529,334.800 172.180 C 335.350 172.832,336.529 174.182,337.421 175.182 C 338.313 176.182,340.661 178.890,342.639 181.200 C 344.618 183.510,350.276 190.080,355.213 195.800 C 360.150 201.520,364.642 206.732,365.195 207.382 C 365.748 208.032,366.933 209.382,367.829 210.382 C 369.153 211.861,376.112 219.940,381.109 225.800 C 381.672 226.460,382.867 227.818,383.766 228.818 C 384.665 229.818,385.850 231.173,386.400 231.831 C 395.123 242.254,396.400 243.428,396.400 241.024 C 396.400 240.267,396.580 239.536,396.800 239.400 C 397.020 239.264,397.200 238.364,397.200 237.400 C 397.200 236.436,397.380 235.536,397.600 235.400 C 397.820 235.264,398.000 234.119,398.000 232.856 C 398.000 231.593,398.165 230.389,398.366 230.180 C 398.738 229.794,398.826 229.060,399.610 219.800 C 400.221 212.584,399.952 176.192,399.283 175.523 C 399.009 175.249,398.800 173.960,398.800 172.544 C 398.800 171.171,398.620 169.936,398.400 169.800 C 398.180 169.664,398.000 168.393,398.000 166.976 C 398.000 165.525,397.825 164.400,397.600 164.400 C 397.380 164.400,397.200 163.601,397.200 162.624 C 397.200 161.647,397.020 160.736,396.800 160.600 C 396.580 160.464,396.400 159.553,396.400 158.576 C 396.400 157.599,396.220 156.800,396.000 156.800 C 395.780 156.800,395.600 156.091,395.600 155.224 C 395.600 154.357,395.420 153.536,395.200 153.400 C 394.980 153.264,394.800 152.544,394.800 151.800 C 394.800 151.056,394.620 150.336,394.400 150.200 C 394.180 150.064,394.000 149.434,394.000 148.800 C 394.000 148.166,393.820 147.536,393.600 147.400 C 393.380 147.264,393.200 146.533,393.200 145.776 C 393.200 145.019,393.020 144.400,392.800 144.400 C 392.580 144.400,392.400 143.860,392.400 143.200 C 392.400 142.540,392.220 142.000,392.000 142.000 C 391.780 142.000,391.600 141.458,391.600 140.795 C 391.600 140.132,391.441 139.277,391.246 138.895 C 391.052 138.513,390.414 136.670,389.830 134.800 C 388.498 130.536,386.840 126.047,385.953 124.305 C 385.759 123.923,385.600 123.338,385.600 123.005 C 385.600 122.672,385.420 122.400,385.200 122.400 C 384.980 122.400,384.800 122.128,384.800 121.795 C 384.800 121.462,384.639 120.877,384.442 120.495 C 383.827 119.301,381.696 114.661,381.138 113.300 C 380.845 112.585,380.469 112.000,380.302 112.000 C 380.136 112.000,380.000 111.755,380.000 111.456 C 380.000 110.689,377.536 106.000,377.133 106.000 C 376.950 106.000,376.800 105.640,376.800 105.200 C 376.800 104.760,376.620 104.400,376.400 104.400 C 376.180 104.400,376.000 104.040,376.000 103.600 C 376.000 103.160,375.840 102.800,375.643 102.800 C 375.447 102.800,375.174 102.351,375.036 101.801 C 374.898 101.252,374.272 100.037,373.645 99.101 C 373.018 98.166,371.720 96.050,370.760 94.400 C 369.801 92.750,368.799 91.174,368.534 90.898 C 368.269 90.621,367.938 90.036,367.799 89.598 C 367.660 89.159,367.378 88.800,367.173 88.800 C 366.968 88.800,366.800 88.575,366.800 88.300 C 366.799 88.025,366.334 87.260,365.765 86.600 C 365.196 85.940,364.437 84.905,364.079 84.300 C 363.721 83.695,363.286 83.200,363.114 83.200 C 362.941 83.200,362.800 83.022,362.800 82.805 C 362.800 82.433,362.040 81.385,360.900 80.184 C 360.625 79.894,360.400 79.530,360.400 79.375 C 360.400 79.221,360.074 78.803,359.675 78.447 C 359.276 78.091,358.377 76.958,357.676 75.930 C 356.976 74.901,356.173 73.821,355.893 73.530 C 355.612 73.238,354.965 72.460,354.455 71.800 C 352.332 69.053,349.545 65.979,345.315 61.718 C 342.848 59.233,340.897 57.200,340.979 57.200 C 341.491 57.200,331.822 48.476,327.000 44.588 C 325.680 43.523,324.540 42.506,324.467 42.326 C 324.393 42.147,324.123 41.999,323.867 41.998 C 323.610 41.997,322.825 41.457,322.122 40.798 C 321.419 40.139,320.693 39.600,320.510 39.600 C 320.327 39.600,319.917 39.240,319.600 38.800 C 319.283 38.360,318.793 38.000,318.512 38.000 C 318.230 38.000,318.000 37.820,318.000 37.600 C 318.000 37.380,317.730 37.200,317.400 37.200 C 317.070 37.200,316.800 37.062,316.800 36.894 C 316.800 36.726,316.080 36.144,315.200 35.600 C 314.320 35.056,313.600 34.503,313.600 34.370 C 313.600 34.237,313.143 33.920,312.585 33.666 C 312.027 33.412,311.352 33.019,311.085 32.793 C 309.591 31.530,301.844 26.849,301.549 27.031 C 301.357 27.150,301.200 27.058,301.200 26.826 C 301.200 26.594,300.345 26.007,299.300 25.521 C 298.255 25.035,297.340 24.494,297.267 24.319 C 297.193 24.143,296.788 24.000,296.367 24.000 C 295.945 24.000,295.597 23.865,295.594 23.700 C 295.590 23.535,294.690 22.960,293.594 22.421 C 292.497 21.883,291.600 21.298,291.600 21.121 C 291.600 20.945,291.165 20.800,290.633 20.800 C 290.102 20.800,289.607 20.665,289.533 20.500 C 289.345 20.076,284.401 17.600,283.744 17.600 C 283.445 17.600,283.200 17.420,283.200 17.200 C 283.200 16.980,282.964 16.800,282.675 16.800 C 282.386 16.800,281.405 16.440,280.494 16.000 C 279.584 15.560,278.560 15.200,278.219 15.200 C 277.879 15.200,277.600 15.020,277.600 14.800 C 277.600 14.580,277.321 14.400,276.981 14.400 C 276.640 14.400,275.616 14.040,274.706 13.600 C 273.795 13.160,272.902 12.800,272.721 12.800 C 272.539 12.800,271.628 12.459,270.696 12.041 C 268.089 10.875,262.176 9.013,259.495 8.513 C 258.887 8.400,258.292 8.149,258.171 7.954 C 258.051 7.759,257.423 7.600,256.776 7.600 C 256.129 7.600,255.600 7.420,255.600 7.200 C 255.600 6.980,254.970 6.800,254.200 6.800 C 253.430 6.800,252.800 6.620,252.800 6.400 C 252.800 6.180,252.271 6.000,251.624 6.000 C 250.977 6.000,250.336 5.820,250.200 5.600 C 250.064 5.380,249.254 5.200,248.400 5.200 C 247.546 5.200,246.736 5.020,246.600 4.800 C 246.464 4.580,245.643 4.400,244.776 4.400 C 243.909 4.400,243.200 4.220,243.200 4.000 C 243.200 3.780,242.401 3.600,241.424 3.600 C 240.447 3.600,239.536 3.420,239.400 3.200 C 239.264 2.980,238.364 2.800,237.400 2.800 C 236.436 2.800,235.536 2.620,235.400 2.400 C 235.264 2.180,234.209 2.000,233.056 2.000 C 231.903 2.000,230.789 1.835,230.580 1.632 C 230.371 1.430,229.030 1.165,227.600 1.043 C 226.170 0.920,223.110 0.655,220.800 0.453 C 215.693 0.005,184.013 0.014,179.000 0.463 M180.100 107.100 C 191.045 107.159,208.955 107.159,219.900 107.100 C 230.845 107.041,221.890 106.992,200.000 106.992 C 178.110 106.992,169.155 107.041,180.100 107.100 M148.844 112.244 C 147.935 113.278,147.296 114.229,147.425 114.358 C 147.554 114.488,147.859 114.235,148.103 113.797 C 148.347 113.359,149.062 112.483,149.691 111.851 C 150.321 111.219,150.760 110.627,150.667 110.534 C 150.574 110.441,149.754 111.211,148.844 112.244 M250.816 112.200 C 251.748 113.300,252.861 114.980,253.289 115.933 C 253.717 116.887,254.154 117.579,254.261 117.472 C 254.653 117.080,252.803 114.083,250.987 112.168 L 249.121 110.200 250.816 112.200 M277.628 110.676 C 277.718 111.715,278.344 112.596,278.372 111.724 C 278.387 111.242,278.220 110.736,278.000 110.600 C 277.780 110.464,277.613 110.498,277.628 110.676 M278.640 114.266 C 279.008 115.799,279.200 115.944,279.200 114.690 C 279.200 114.117,279.013 113.532,278.784 113.390 C 278.511 113.221,278.462 113.523,278.640 114.266 M146.652 115.116 C 146.261 115.748,145.612 117.600,145.781 117.600 C 146.041 117.600,147.219 115.086,147.042 114.908 C 146.953 114.820,146.777 114.913,146.652 115.116 M279.400 200.000 C 279.400 245.278,279.532 282.116,279.694 281.862 C 279.856 281.608,279.988 244.770,279.988 200.000 C 279.988 155.230,279.856 118.392,279.694 118.138 C 279.532 117.884,279.400 154.722,279.400 200.000 M254.446 118.800 C 254.427 119.350,254.587 120.070,254.800 120.400 C 255.294 121.164,255.294 120.342,254.800 118.800 L 254.480 117.800 254.446 118.800 M145.062 119.347 C 144.897 119.978,144.856 120.589,144.971 120.704 C 145.293 121.027,145.687 119.738,145.515 118.923 C 145.403 118.390,145.284 118.501,145.062 119.347 M176.600 144.800 C 176.308 145.273,176.699 145.273,177.800 144.800 C 178.571 144.469,178.569 144.455,177.724 144.428 C 177.242 144.413,176.736 144.580,176.600 144.800 M184.846 146.100 C 184.944 146.155,195.369 156.459,208.013 168.998 L 231.000 191.797 208.201 168.898 C 195.662 156.304,185.237 146.000,185.035 146.000 C 184.832 146.000,184.747 146.045,184.846 146.100 M171.229 148.291 C 170.553 149.111,170.000 149.961,170.000 150.180 C 170.000 150.399,170.298 150.133,170.662 149.589 C 171.027 149.045,171.688 148.195,172.132 147.700 C 172.576 147.205,172.831 146.800,172.699 146.800 C 172.567 146.800,171.905 147.471,171.229 148.291 M144.446 149.067 C 144.421 149.324,144.284 149.864,144.141 150.267 C 143.940 150.836,143.994 150.897,144.379 150.542 C 144.652 150.291,144.789 149.751,144.684 149.342 C 144.579 148.934,144.472 148.810,144.446 149.067 M169.354 151.377 C 169.232 151.694,169.203 152.279,169.289 152.677 C 169.387 153.128,169.524 152.912,169.654 152.100 C 169.871 150.738,169.730 150.396,169.354 151.377 M139.200 157.200 C 138.650 157.630,138.397 157.986,138.638 157.991 C 138.879 157.996,139.402 157.640,139.800 157.200 C 140.712 156.192,140.488 156.192,139.200 157.200 M169.200 157.376 C 169.200 157.913,169.347 158.444,169.528 158.555 C 169.708 158.667,169.777 158.227,169.682 157.579 C 169.472 156.149,169.200 156.035,169.200 157.376 M129.600 159.300 C 129.600 159.465,130.849 159.600,132.376 159.600 C 133.903 159.600,135.236 159.465,135.338 159.300 C 135.440 159.135,134.191 159.000,132.562 159.000 C 130.933 159.000,129.600 159.135,129.600 159.300 M185.800 176.000 C 193.718 183.920,200.286 190.400,200.396 190.400 C 200.506 190.400,194.118 183.920,186.200 176.000 C 178.282 168.080,171.714 161.600,171.604 161.600 C 171.494 161.600,177.882 168.080,185.800 176.000 M231.200 192.128 C 231.200 192.301,231.650 193.105,232.200 193.914 C 232.750 194.723,233.200 195.244,233.200 195.072 C 233.200 194.899,232.750 194.095,232.200 193.286 C 231.650 192.477,231.200 191.956,231.200 192.128 M233.789 197.413 C 234.120 198.506,234.391 200.030,234.391 200.800 C 234.391 201.570,234.120 203.094,233.789 204.187 C 233.457 205.280,233.339 206.000,233.525 205.787 C 234.050 205.189,234.800 202.255,234.800 200.800 C 234.800 199.345,234.050 196.411,233.525 195.813 C 233.339 195.600,233.457 196.320,233.789 197.413 M231.674 208.299 C 230.945 209.280,230.405 210.136,230.474 210.203 C 230.544 210.269,231.210 209.525,231.955 208.550 C 232.701 207.575,233.241 206.719,233.155 206.647 C 233.070 206.575,232.404 207.319,231.674 208.299 M141.804 210.806 C 141.938 211.023,142.607 211.200,143.290 211.200 C 144.801 211.200,144.649 211.000,142.880 210.663 C 142.055 210.506,141.652 210.560,141.804 210.806 M185.523 211.099 C 188.231 211.168,192.551 211.168,195.123 211.099 C 197.695 211.029,195.480 210.972,190.200 210.973 C 184.920 210.973,182.815 211.030,185.523 211.099 M195.941 215.200 C 193.734 217.400,192.082 219.200,192.271 219.200 C 192.460 219.200,194.408 217.400,196.600 215.200 C 198.792 213.000,200.443 211.200,200.270 211.200 C 200.097 211.200,198.149 213.000,195.941 215.200 M221.182 219.350 C 216.915 223.580,215.380 225.200,215.637 225.200 C 215.733 225.200,217.967 223.040,220.600 220.400 C 223.233 217.760,225.292 215.600,225.175 215.600 C 225.059 215.600,223.262 217.287,221.182 219.350 M189.037 222.012 C 187.738 223.330,186.748 224.482,186.838 224.571 C 186.927 224.661,188.144 223.579,189.541 222.167 C 190.938 220.755,191.928 219.604,191.741 219.608 C 191.553 219.613,190.337 220.695,189.037 222.012 M180.466 230.648 C 177.753 233.371,175.685 235.600,175.872 235.600 C 176.321 235.600,185.814 226.076,185.580 225.861 C 185.481 225.770,183.180 227.924,180.466 230.648 M205.593 234.946 C 203.947 236.566,202.155 238.411,201.612 239.046 C 201.068 239.681,202.463 238.403,204.712 236.208 C 206.960 234.012,208.800 232.167,208.800 232.108 C 208.800 231.830,208.388 232.195,205.593 234.946 M144.302 246.200 C 144.407 246.750,144.562 247.200,144.647 247.200 C 144.731 247.200,144.800 246.750,144.800 246.200 C 144.800 245.650,144.645 245.200,144.455 245.200 C 144.266 245.200,144.197 245.650,144.302 246.200 M187.866 252.635 C 186.803 253.642,186.004 254.537,186.091 254.624 C 186.177 254.711,187.131 253.886,188.209 252.791 C 190.668 250.295,190.445 250.194,187.866 252.635 M177.338 256.894 C 177.592 257.056,178.520 257.188,179.400 257.188 C 180.280 257.188,181.208 257.056,181.462 256.894 C 181.716 256.732,180.788 256.600,179.400 256.600 C 178.012 256.600,177.084 256.732,177.338 256.894 M144.834 279.600 C 144.846 279.930,145.011 280.560,145.200 281.000 L 145.544 281.800 145.566 281.000 C 145.578 280.560,145.413 279.930,145.200 279.600 C 144.855 279.067,144.815 279.067,144.834 279.600 M254.649 279.815 C 254.512 280.173,254.416 280.856,254.436 281.333 C 254.462 281.947,254.585 281.808,254.859 280.856 C 255.257 279.472,255.094 278.658,254.649 279.815 M146.060 283.601 C 146.290 284.261,146.641 284.902,146.839 285.024 C 147.339 285.333,147.296 285.115,146.571 283.661 C 145.775 282.066,145.514 282.035,146.060 283.601 M252.424 285.761 C 251.575 287.134,249.435 289.226,247.596 290.479 C 247.048 290.852,246.794 291.167,247.032 291.179 C 247.686 291.211,252.100 287.065,252.923 285.646 C 253.902 283.958,253.478 284.056,252.424 285.761 M278.846 284.867 C 278.821 285.234,278.696 285.864,278.570 286.267 C 278.352 286.962,278.363 286.963,278.797 286.287 C 279.048 285.896,279.173 285.266,279.073 284.887 C 278.911 284.268,278.888 284.266,278.846 284.867 M149.200 288.200 C 149.946 288.970,150.647 289.600,150.757 289.600 C 150.867 289.600,150.346 288.970,149.600 288.200 C 148.854 287.430,148.153 286.800,148.043 286.800 C 147.933 286.800,148.454 287.430,149.200 288.200 M278.046 287.867 C 278.021 288.124,277.884 288.664,277.741 289.067 C 277.540 289.636,277.594 289.697,277.979 289.342 C 278.252 289.091,278.389 288.551,278.284 288.142 C 278.179 287.734,278.072 287.610,278.046 287.867 M220.900 293.099 C 224.585 293.165,230.615 293.165,234.300 293.099 C 237.985 293.033,234.970 292.979,227.600 292.979 C 220.230 292.979,217.215 293.033,220.900 293.099 M274.237 297.000 C 273.876 297.550,273.737 298.000,273.927 298.000 C 274.116 298.000,274.477 297.550,274.727 297.000 C 274.978 296.450,275.117 296.000,275.037 296.000 C 274.957 296.000,274.597 296.450,274.237 297.000 M271.000 301.715 C 269.380 303.990,269.223 304.469,270.649 302.784 C 272.545 300.543,272.918 299.999,272.549 300.015 C 272.357 300.024,271.660 300.789,271.000 301.715 M268.034 305.353 L 267.069 306.600 268.213 305.512 C 268.843 304.914,269.277 304.353,269.179 304.265 C 269.080 304.177,268.565 304.667,268.034 305.353 M263.585 309.232 L 262.200 310.463 263.488 309.613 C 264.630 308.859,265.493 308.000,265.108 308.000 C 265.032 308.000,264.347 308.554,263.585 309.232 M259.500 311.829 C 258.895 312.157,258.400 312.510,258.400 312.613 C 258.400 312.999,259.032 312.757,260.000 312.000 C 261.189 311.070,261.011 311.009,259.500 311.829 M251.000 315.600 C 250.229 315.931,250.231 315.945,251.076 315.972 C 251.558 315.987,252.064 315.820,252.200 315.600 C 252.492 315.127,252.101 315.127,251.000 315.600 M150.400 316.394 C 150.730 316.611,151.435 316.791,151.967 316.794 C 153.251 316.802,152.925 316.575,151.200 316.258 C 150.215 316.077,149.978 316.118,150.400 316.394 M248.000 316.400 L 247.000 316.720 248.000 316.754 C 248.550 316.773,249.270 316.613,249.600 316.400 C 250.364 315.906,249.542 315.906,248.000 316.400 M154.315 317.272 C 155.191 317.619,244.289 317.608,245.524 317.260 C 246.032 317.117,225.564 317.000,200.039 317.000 C 174.514 317.000,153.938 317.122,154.315 317.272 " stroke="none" fill="#fb5b53" fill-rule="evenodd"></path><path id="path1" d="M155.400 83.468 C 152.009 83.923,147.169 85.386,144.262 86.834 C 143.416 87.255,142.471 87.600,142.162 87.600 C 141.853 87.600,141.600 87.780,141.600 88.000 C 141.600 88.220,141.407 88.400,141.172 88.400 C 140.937 88.400,139.906 88.977,138.881 89.682 C 134.124 92.955,129.070 98.180,126.821 102.150 C 124.832 105.662,124.507 106.321,123.732 108.400 C 121.073 115.538,121.002 116.203,121.001 134.000 L 121.000 150.200 122.069 152.225 C 125.888 159.461,135.181 160.887,140.879 155.110 C 144.120 151.824,144.400 150.088,144.400 133.242 C 144.400 123.787,144.546 118.874,144.851 118.119 C 146.867 113.112,149.520 110.116,153.836 107.973 L 156.600 106.600 200.000 106.600 L 243.400 106.600 246.200 107.984 C 250.621 110.169,253.242 113.182,255.259 118.400 C 255.707 119.560,255.800 133.542,255.800 200.000 C 255.800 266.458,255.707 280.440,255.259 281.600 C 253.209 286.903,248.243 292.400,245.502 292.400 C 245.204 292.400,244.735 292.625,244.460 292.900 C 244.066 293.294,234.683 293.400,200.243 293.400 L 156.526 293.400 153.763 292.017 C 149.454 289.861,146.889 286.943,144.851 281.881 C 144.543 281.117,144.400 275.696,144.400 264.758 C 144.400 245.716,144.182 244.239,140.879 240.890 C 135.107 235.039,126.107 236.423,122.102 243.777 L 121.000 245.800 121.000 264.000 C 121.000 281.863,121.156 284.549,122.386 287.800 C 122.553 288.240,122.912 289.320,123.185 290.200 C 125.600 297.987,137.046 311.600,141.178 311.600 C 141.410 311.600,141.600 311.780,141.600 312.000 C 141.600 312.220,141.865 312.400,142.188 312.400 C 142.511 312.400,143.366 312.723,144.088 313.119 C 144.810 313.514,146.750 314.259,148.400 314.775 C 150.050 315.290,151.850 315.912,152.400 316.156 C 153.673 316.721,240.518 317.009,244.633 316.461 C 248.336 315.969,252.646 314.748,255.236 313.457 C 256.403 312.876,257.592 312.400,257.879 312.400 C 258.165 312.400,258.400 312.220,258.400 312.000 C 258.400 311.780,258.593 311.600,258.828 311.600 C 259.232 311.600,262.069 309.767,263.754 308.418 C 267.261 305.609,271.401 300.962,273.237 297.774 C 274.963 294.777,276.375 291.797,276.387 291.124 C 276.394 290.752,276.580 290.336,276.800 290.200 C 277.020 290.064,277.200 289.524,277.200 289.000 C 277.200 288.476,277.361 287.948,277.558 287.826 C 279.058 286.899,279.225 276.818,279.085 195.600 C 278.946 115.139,278.959 115.830,277.592 112.200 C 277.427 111.760,277.052 110.590,276.759 109.600 C 275.899 106.687,273.196 101.773,270.596 98.395 C 265.604 91.908,258.698 87.302,249.800 84.527 L 246.200 83.405 201.400 83.356 C 176.760 83.329,156.060 83.379,155.400 83.468 M177.036 145.473 C 173.326 146.087,169.600 150.862,169.600 155.004 C 169.600 158.517,170.613 159.753,186.340 175.433 C 194.518 183.587,201.087 190.380,200.938 190.529 C 200.789 190.678,187.962 190.808,172.433 190.818 C 143.204 190.836,141.933 190.901,139.501 192.496 C 134.056 196.069,133.446 203.853,138.286 208.000 C 141.018 210.340,138.889 210.190,171.100 210.315 C 195.674 210.409,200.800 210.522,200.800 210.968 C 200.800 211.264,194.185 218.146,186.100 226.260 C 178.015 234.375,171.197 241.461,170.950 242.007 C 169.053 246.190,169.170 248.301,171.507 252.059 C 173.827 255.789,179.718 257.300,183.787 255.207 C 187.298 253.401,231.738 208.226,232.783 205.400 C 234.016 202.068,233.824 198.279,232.260 195.086 C 231.058 192.630,187.607 148.631,184.348 146.569 C 182.856 145.625,179.320 145.095,177.036 145.473 " stroke="none" fill="#fbfbfb" fill-rule="evenodd"></path><path id="path2" d="M72.600 44.486 C 71.578 45.077,70.643 46.001,71.071 45.998 C 71.252 45.997,71.940 45.553,72.600 45.012 C 73.889 43.955,73.889 43.742,72.600 44.486 M327.400 44.988 C 328.978 46.281,329.665 46.293,328.162 45.000 C 327.523 44.451,326.820 44.002,326.600 44.002 C 326.380 44.003,326.740 44.447,327.400 44.988 M66.218 49.818 C 65.587 50.360,65.145 50.878,65.235 50.968 C 65.326 51.058,65.916 50.688,66.546 50.145 C 67.177 49.603,67.619 49.085,67.529 48.996 C 67.439 48.906,66.849 49.276,66.218 49.818 M332.400 49.100 C 332.400 49.269,332.760 49.632,333.200 49.907 C 333.640 50.182,334.000 50.269,334.000 50.100 C 334.000 49.931,333.640 49.568,333.200 49.293 C 332.760 49.018,332.400 48.931,332.400 49.100 M50.200 65.720 C 48.950 67.251,48.736 67.598,49.051 67.578 C 49.243 67.566,49.819 67.026,50.330 66.378 C 50.842 65.730,51.112 65.207,50.930 65.215 C 50.749 65.224,50.420 65.451,50.200 65.720 M350.093 66.800 C 350.368 67.240,350.731 67.600,350.900 67.600 C 351.069 67.600,350.982 67.240,350.707 66.800 C 350.432 66.360,350.069 66.000,349.900 66.000 C 349.731 66.000,349.818 66.360,350.093 66.800 M354.000 70.976 C 354.000 71.140,354.360 71.731,354.800 72.291 C 355.240 72.850,355.600 73.131,355.600 72.915 C 355.600 72.699,355.240 72.107,354.800 71.600 C 354.360 71.093,354.000 70.812,354.000 70.976 M44.816 72.075 C 44.367 72.557,44.000 73.127,44.000 73.342 C 44.000 73.557,44.045 73.658,44.100 73.567 C 44.155 73.475,44.636 72.905,45.170 72.300 C 46.315 71.001,46.002 70.802,44.816 72.075 M357.209 75.046 C 357.221 75.513,358.780 77.500,358.791 77.063 C 358.796 76.878,358.440 76.269,358.000 75.709 C 357.560 75.150,357.204 74.851,357.209 75.046 M373.077 98.431 C 374.194 100.333,374.889 100.686,373.888 98.843 C 373.400 97.943,372.855 97.205,372.677 97.203 C 372.500 97.201,372.680 97.754,373.077 98.431 M275.200 104.001 C 275.200 104.441,275.380 104.800,275.600 104.800 C 275.820 104.800,276.000 105.072,276.000 105.405 C 276.000 105.738,276.159 106.323,276.353 106.705 C 276.548 107.087,276.929 107.940,277.200 108.600 C 277.471 109.260,277.852 110.113,278.047 110.495 C 278.241 110.877,278.400 111.606,278.400 112.115 C 278.400 112.624,278.563 113.211,278.763 113.420 C 278.963 113.629,279.256 114.790,279.414 116.000 C 279.909 119.785,279.793 281.493,279.293 284.000 C 278.536 287.803,278.350 288.575,277.970 289.500 C 277.766 289.995,277.435 290.805,277.234 291.300 C 276.018 294.288,274.178 298.000,273.912 298.000 C 273.740 298.000,273.600 298.193,273.600 298.428 C 273.600 301.875,257.409 315.200,253.220 315.200 C 252.983 315.200,252.477 315.362,252.095 315.561 C 251.307 315.971,249.187 316.536,246.069 317.168 C 243.059 317.778,156.348 317.770,153.706 317.159 C 150.282 316.368,148.617 315.916,147.600 315.501 C 147.050 315.277,146.150 314.916,145.600 314.700 C 145.050 314.484,144.287 314.148,143.905 313.953 C 143.523 313.759,142.938 313.600,142.605 313.600 C 142.272 313.600,142.000 313.420,142.000 313.200 C 142.000 312.980,141.716 312.800,141.369 312.800 C 140.966 312.800,141.218 313.194,142.069 313.894 C 142.801 314.495,143.490 315.085,143.600 315.204 C 143.710 315.323,144.970 316.406,146.400 317.610 C 147.830 318.815,149.090 319.896,149.200 320.013 C 149.310 320.131,151.920 322.377,155.000 325.005 C 158.080 327.633,160.690 329.877,160.800 329.991 C 160.910 330.106,162.170 331.185,163.600 332.390 C 165.030 333.594,166.290 334.682,166.400 334.809 C 166.616 335.057,182.163 348.418,185.167 350.937 C 186.175 351.783,187.540 352.957,188.200 353.547 C 189.724 354.910,199.930 363.701,202.362 365.746 C 207.032 369.674,208.724 371.129,210.591 372.823 C 211.696 373.825,215.030 376.702,218.000 379.216 C 224.273 384.525,225.043 385.184,227.794 387.600 C 228.922 388.590,230.911 390.300,232.216 391.400 C 233.521 392.500,235.331 394.075,236.239 394.900 C 237.147 395.725,238.105 396.400,238.368 396.400 C 238.632 396.400,238.736 396.580,238.600 396.800 C 238.464 397.020,238.708 397.200,239.143 397.200 C 239.578 397.200,239.993 397.020,240.067 396.801 C 240.140 396.581,240.973 396.372,241.917 396.335 C 242.862 396.298,243.727 396.117,243.841 395.934 C 243.954 395.750,244.587 395.600,245.247 395.600 C 245.945 395.600,246.344 395.433,246.200 395.200 C 246.047 394.952,246.796 394.800,248.176 394.800 C 249.399 394.800,250.400 394.620,250.400 394.400 C 250.400 394.180,251.120 394.000,252.000 394.000 C 252.880 394.000,253.600 393.820,253.600 393.600 C 253.600 393.380,254.140 393.200,254.800 393.200 C 255.460 393.200,256.000 393.020,256.000 392.800 C 256.000 392.580,256.630 392.400,257.400 392.400 C 258.170 392.400,258.800 392.238,258.800 392.039 C 258.800 391.841,259.880 391.553,261.200 391.400 C 262.520 391.247,263.600 390.959,263.600 390.761 C 263.600 390.562,264.039 390.400,264.576 390.400 C 265.113 390.400,265.664 390.220,265.800 390.000 C 265.936 389.780,266.399 389.600,266.829 389.600 C 267.584 389.600,267.974 389.456,269.895 388.462 C 270.387 388.208,271.152 388.000,271.595 388.000 C 272.038 388.000,272.400 387.820,272.400 387.600 C 272.400 387.380,272.850 387.200,273.400 387.200 C 273.950 387.200,274.400 387.020,274.400 386.800 C 274.400 386.580,274.760 386.400,275.200 386.400 C 275.640 386.400,276.000 386.220,276.000 386.000 C 276.000 385.780,276.540 385.600,277.200 385.600 C 277.860 385.600,278.400 385.420,278.400 385.200 C 278.400 384.980,278.760 384.800,279.200 384.800 C 279.640 384.800,280.000 384.620,280.000 384.400 C 280.000 384.180,280.360 384.000,280.800 384.000 C 281.240 384.000,281.600 383.820,281.600 383.600 C 281.600 383.380,281.949 383.200,282.376 383.200 C 282.803 383.200,283.264 383.020,283.400 382.800 C 283.536 382.580,284.087 382.400,284.624 382.400 C 285.161 382.400,285.600 382.220,285.600 382.000 C 285.600 381.780,285.960 381.600,286.400 381.600 C 286.840 381.600,287.200 381.420,287.200 381.200 C 287.200 380.980,287.483 380.800,287.829 380.800 C 288.529 380.800,289.678 379.812,289.354 379.488 C 289.240 379.373,289.384 379.290,289.673 379.303 C 290.972 379.360,291.628 379.169,291.400 378.800 C 291.260 378.573,291.596 378.400,292.176 378.400 C 292.739 378.400,293.200 378.220,293.200 378.000 C 293.200 377.780,293.560 377.600,294.000 377.600 C 294.440 377.600,294.800 377.420,294.800 377.200 C 294.800 376.980,295.120 376.800,295.512 376.800 C 295.903 376.800,296.483 376.440,296.800 376.000 C 297.117 375.560,297.634 375.200,297.948 375.200 C 298.723 375.200,302.800 373.113,302.800 372.716 C 302.800 372.542,303.078 372.400,303.417 372.400 C 303.756 372.400,304.420 372.040,304.892 371.600 C 305.364 371.160,305.987 370.800,306.275 370.800 C 306.564 370.800,306.800 370.620,306.800 370.400 C 306.800 370.180,307.030 370.000,307.312 370.000 C 307.593 370.000,308.083 369.640,308.400 369.200 C 308.717 368.760,309.257 368.400,309.600 368.400 C 309.943 368.400,310.483 368.040,310.800 367.600 C 311.117 367.160,311.657 366.800,312.000 366.800 C 312.343 366.800,312.883 366.440,313.200 366.000 C 313.517 365.560,314.057 365.200,314.400 365.200 C 314.743 365.200,315.283 364.840,315.600 364.400 C 315.917 363.960,316.425 363.600,316.728 363.600 C 317.031 363.600,317.783 363.060,318.400 362.400 C 319.017 361.740,319.737 361.200,320.000 361.200 C 320.263 361.200,320.983 360.660,321.600 360.000 C 322.217 359.340,322.934 358.800,323.194 358.800 C 323.454 358.800,324.279 358.170,325.026 357.400 C 325.774 356.630,326.542 356.000,326.732 356.000 C 326.922 356.000,328.213 354.920,329.600 353.600 C 330.987 352.280,332.280 351.200,332.474 351.200 C 332.667 351.200,334.806 349.175,337.226 346.700 C 342.510 341.297,341.297 342.510,346.700 337.226 C 349.175 334.806,351.200 332.667,351.200 332.474 C 351.200 332.280,352.280 330.987,353.600 329.600 C 354.920 328.213,356.000 326.922,356.000 326.732 C 356.000 326.542,356.630 325.774,357.400 325.026 C 358.170 324.279,358.800 323.454,358.800 323.194 C 358.800 322.934,359.340 322.217,360.000 321.600 C 360.660 320.983,361.200 320.280,361.200 320.036 C 361.200 319.792,361.740 319.028,362.400 318.337 C 363.060 317.646,363.600 316.878,363.600 316.629 C 363.600 316.380,363.960 315.917,364.400 315.600 C 364.840 315.283,365.200 314.743,365.200 314.400 C 365.200 314.057,365.560 313.517,366.000 313.200 C 366.440 312.883,366.800 312.343,366.800 312.000 C 366.800 311.657,367.160 311.117,367.600 310.800 C 368.040 310.483,368.400 309.943,368.400 309.600 C 368.400 309.257,368.760 308.717,369.200 308.400 C 369.640 308.083,370.000 307.593,370.000 307.312 C 370.000 307.030,370.180 306.800,370.400 306.800 C 370.620 306.800,370.800 306.564,370.800 306.275 C 370.800 305.987,371.160 305.364,371.600 304.892 C 372.040 304.420,372.400 303.756,372.400 303.417 C 372.400 303.078,372.580 302.800,372.800 302.800 C 373.020 302.800,373.200 302.603,373.200 302.362 C 373.200 302.121,373.548 301.435,373.973 300.837 C 374.399 300.240,374.878 299.222,375.037 298.576 C 375.197 297.929,375.659 297.109,376.064 296.753 C 376.469 296.397,376.800 295.812,376.800 295.453 C 376.800 295.094,376.980 294.800,377.200 294.800 C 377.420 294.800,377.600 294.440,377.600 294.000 C 377.600 293.560,377.780 293.200,378.000 293.200 C 378.220 293.200,378.400 292.840,378.400 292.400 C 378.400 291.960,378.546 291.600,378.725 291.600 C 378.904 291.600,379.298 290.970,379.600 290.200 C 379.902 289.430,380.296 288.800,380.475 288.800 C 380.654 288.800,380.800 288.440,380.800 288.000 C 380.800 287.560,380.980 287.200,381.200 287.200 C 381.420 287.200,381.600 286.840,381.600 286.400 C 381.600 285.960,381.780 285.600,382.000 285.600 C 382.220 285.600,382.400 285.161,382.400 284.624 C 382.400 284.087,382.580 283.536,382.800 283.400 C 383.020 283.264,383.200 282.803,383.200 282.376 C 383.200 281.949,383.380 281.600,383.600 281.600 C 383.820 281.600,384.000 281.240,384.000 280.800 C 384.000 280.360,384.180 280.000,384.400 280.000 C 384.620 280.000,384.800 279.640,384.800 279.200 C 384.800 278.760,384.980 278.400,385.200 278.400 C 385.420 278.400,385.600 277.860,385.600 277.200 C 385.600 276.540,385.780 276.000,386.000 276.000 C 386.220 276.000,386.400 275.640,386.400 275.200 C 386.400 274.760,386.580 274.400,386.800 274.400 C 387.020 274.400,387.200 273.950,387.200 273.400 C 387.200 272.850,387.380 272.400,387.600 272.400 C 387.820 272.400,388.000 272.038,388.000 271.595 C 388.000 271.152,388.180 270.432,388.400 269.995 C 388.620 269.558,388.980 268.842,389.200 268.405 C 389.420 267.968,389.600 267.259,389.600 266.829 C 389.600 266.399,389.780 265.936,390.000 265.800 C 390.220 265.664,390.400 265.023,390.400 264.376 C 390.400 263.729,390.567 263.200,390.771 263.200 C 390.975 263.200,391.266 262.210,391.417 261.000 C 391.568 259.790,391.813 258.800,391.961 258.800 C 392.109 258.800,392.274 258.215,392.328 257.500 C 392.381 256.785,392.600 256.140,392.813 256.067 C 393.026 255.993,393.200 255.408,393.200 254.767 C 393.200 254.125,393.380 253.600,393.600 253.600 C 393.820 253.600,394.000 252.880,394.000 252.000 C 394.000 251.120,394.180 250.400,394.400 250.400 C 394.620 250.400,394.800 249.500,394.800 248.400 C 394.800 247.300,394.980 246.400,395.200 246.400 C 395.420 246.400,395.600 245.948,395.600 245.395 C 395.600 244.842,395.813 244.048,396.074 243.631 C 396.479 242.981,396.367 242.721,395.288 241.812 C 394.227 240.920,391.259 237.583,386.400 231.822 C 385.850 231.169,384.665 229.818,383.766 228.818 C 382.867 227.818,381.672 226.460,381.109 225.800 C 376.112 219.940,369.153 211.861,367.829 210.382 C 366.933 209.382,365.748 208.032,365.195 207.382 C 364.642 206.732,360.150 201.520,355.213 195.800 C 350.276 190.080,344.618 183.510,342.639 181.200 C 340.661 178.890,338.313 176.182,337.421 175.182 C 336.529 174.182,335.350 172.832,334.800 172.180 C 334.250 171.529,331.465 168.297,328.610 164.998 C 318.144 152.902,316.052 150.479,310.827 144.400 C 307.896 140.990,305.023 137.660,304.442 137.000 C 303.428 135.847,291.188 121.705,285.419 115.022 C 275.754 103.823,275.200 103.225,275.200 104.001 M157.000 107.600 C 156.864 107.820,156.420 108.000,156.014 108.000 C 152.550 108.000,145.600 115.484,145.600 119.214 C 145.600 119.840,145.420 120.464,145.200 120.600 C 144.945 120.757,144.800 126.139,144.800 135.429 C 144.800 143.449,144.641 150.323,144.447 150.705 C 144.252 151.087,143.847 151.937,143.547 152.594 C 142.169 155.604,138.469 158.800,136.362 158.800 C 135.969 158.800,135.536 158.980,135.400 159.200 C 135.058 159.753,129.706 159.717,129.520 159.161 C 129.440 158.919,128.957 158.784,128.448 158.861 C 127.661 158.979,128.865 160.303,136.461 167.669 C 141.377 172.436,148.640 179.496,152.600 183.356 L 159.800 190.375 179.967 190.387 C 191.058 190.394,200.058 190.319,199.967 190.220 C 199.875 190.121,193.291 183.506,185.335 175.520 C 177.379 167.534,170.473 160.282,169.988 159.405 C 167.446 154.803,169.777 147.850,174.600 145.653 C 175.260 145.353,176.113 144.948,176.495 144.753 C 177.406 144.290,181.419 144.299,182.305 144.766 C 182.687 144.968,183.630 145.408,184.400 145.744 C 186.545 146.682,231.999 192.479,233.088 194.800 C 235.376 199.678,235.373 201.994,233.070 206.800 C 232.113 208.797,186.239 255.040,184.400 255.862 C 181.317 257.239,179.322 257.424,176.400 256.602 C 175.376 256.314,177.746 258.797,184.224 264.800 C 194.002 273.861,198.989 278.506,201.800 281.173 C 203.560 282.843,207.095 286.142,209.656 288.505 L 214.312 292.800 228.533 292.800 C 237.581 292.800,242.843 292.655,243.000 292.400 C 243.136 292.180,243.580 292.000,243.986 292.000 C 247.437 292.000,253.281 285.916,254.553 281.000 C 255.050 279.078,255.142 121.264,254.647 119.400 C 253.259 114.176,247.484 108.000,243.986 108.000 C 243.580 108.000,243.136 107.820,243.000 107.600 C 242.838 107.337,228.070 107.200,200.000 107.200 C 171.930 107.200,157.162 107.337,157.000 107.600 M390.718 137.626 C 390.814 138.277,391.019 138.888,391.174 138.984 C 391.329 139.079,391.377 138.625,391.282 137.974 C 391.186 137.323,390.981 136.712,390.826 136.616 C 390.671 136.521,390.623 136.975,390.718 137.626 M141.011 211.140 C 141.445 211.547,145.040 214.912,149.000 218.618 C 152.960 222.323,157.820 226.904,159.800 228.796 C 163.156 232.003,169.432 237.932,170.734 239.124 C 171.436 239.768,170.144 240.959,186.814 224.300 L 199.923 211.200 170.985 211.200 C 152.125 211.200,141.961 211.061,141.800 210.800 C 141.664 210.580,141.253 210.400,140.888 210.400 C 140.312 210.400,140.328 210.499,141.011 211.140 M144.000 244.170 C 144.000 244.736,144.176 245.200,144.392 245.200 C 144.639 245.200,144.832 251.501,144.916 262.300 C 145.059 280.684,145.047 280.544,146.907 284.331 C 148.653 287.884,153.541 292.000,156.014 292.000 C 156.420 292.000,156.864 292.180,157.000 292.400 C 157.160 292.658,164.425 292.796,177.524 292.789 L 197.800 292.777 195.369 290.489 C 192.084 287.396,184.951 280.802,178.400 274.803 C 175.430 272.083,171.020 268.029,168.600 265.793 C 166.180 263.557,162.850 260.501,161.200 259.002 C 159.550 257.502,155.005 253.319,151.100 249.707 C 144.904 243.975,144.000 243.270,144.000 244.170 M44.419 327.192 C 44.981 328.290,45.959 329.377,46.180 329.148 C 46.258 329.066,45.780 328.370,45.117 327.600 C 44.243 326.585,44.052 326.472,44.419 327.192 M49.293 333.200 C 49.762 333.951,50.400 334.280,50.400 333.771 C 50.400 333.473,49.325 332.400,49.025 332.400 C 48.898 332.400,49.018 332.760,49.293 333.200 M65.200 348.984 C 65.200 349.416,67.316 351.218,67.549 350.984 C 67.651 350.883,67.658 350.755,67.567 350.700 C 67.475 350.645,66.905 350.164,66.300 349.630 C 65.695 349.097,65.200 348.806,65.200 348.984 M71.600 354.800 C 72.107 355.240,72.699 355.600,72.915 355.600 C 73.131 355.600,72.850 355.240,72.291 354.800 C 71.731 354.360,71.140 354.000,70.976 354.000 C 70.812 354.000,71.093 354.360,71.600 354.800 M137.233 390.944 C 137.325 391.023,137.940 391.208,138.600 391.356 C 139.476 391.552,139.638 391.515,139.200 391.218 C 138.660 390.853,136.832 390.598,137.233 390.944 " stroke="none" fill="#dc3c3c" fill-rule="evenodd"></path><path id="path3" d="M155.423 83.147 C 154.775 83.286,174.835 83.400,200.000 83.400 C 225.165 83.400,245.225 83.286,244.577 83.147 C 243.930 83.008,223.870 82.895,200.000 82.895 C 176.130 82.895,156.070 83.008,155.423 83.147 M151.200 84.000 C 150.405 84.514,151.404 84.514,152.600 84.000 L 153.400 83.656 152.600 83.634 C 152.160 83.622,151.530 83.787,151.200 84.000 M246.833 83.744 C 246.925 83.823,247.540 84.008,248.200 84.156 C 249.076 84.352,249.238 84.315,248.800 84.018 C 248.260 83.653,246.432 83.398,246.833 83.744 M133.658 93.428 C 131.250 95.659,128.271 99.121,127.059 101.100 C 126.319 102.308,127.166 101.425,128.592 99.500 C 130.341 97.140,134.981 92.384,136.197 91.705 C 136.635 91.460,136.886 91.153,136.755 91.021 C 136.623 90.890,135.230 91.973,133.658 93.428 M265.678 93.118 C 266.937 94.282,268.717 96.082,269.633 97.118 C 270.549 98.153,270.930 98.460,270.480 97.800 C 269.655 96.591,265.689 92.669,264.194 91.585 C 263.750 91.263,264.418 91.953,265.678 93.118 M271.999 100.300 C 272.522 101.015,273.013 101.600,273.089 101.600 C 273.393 101.600,272.401 100.100,271.745 99.567 C 271.313 99.216,271.410 99.496,271.999 100.300 M125.786 103.300 L 125.152 104.600 125.967 103.600 C 126.752 102.637,127.008 102.000,126.610 102.000 C 126.506 102.000,126.135 102.585,125.786 103.300 M273.215 102.200 C 273.217 102.420,273.586 103.050,274.036 103.600 C 274.579 104.264,274.715 104.331,274.440 103.800 C 273.766 102.495,273.212 101.772,273.215 102.200 M179.100 106.700 C 190.595 106.759,209.405 106.759,220.900 106.700 C 232.395 106.641,222.990 106.593,200.000 106.593 C 177.010 106.593,167.605 106.641,179.100 106.700 M155.600 107.218 C 155.162 107.515,155.324 107.552,156.200 107.356 C 157.671 107.027,157.990 106.798,156.967 106.806 C 156.545 106.809,155.930 106.995,155.600 107.218 M242.433 106.944 C 242.525 107.023,243.140 107.208,243.800 107.356 C 244.676 107.552,244.838 107.515,244.400 107.218 C 243.860 106.853,242.032 106.598,242.433 106.944 M250.800 111.400 C 251.546 112.170,252.247 112.800,252.357 112.800 C 252.467 112.800,251.946 112.170,251.200 111.400 C 250.454 110.630,249.753 110.000,249.643 110.000 C 249.533 110.000,250.054 110.630,250.800 111.400 M122.200 111.600 C 122.050 112.073,122.017 112.550,122.127 112.660 C 122.237 112.770,122.450 112.473,122.600 112.000 C 122.750 111.527,122.783 111.050,122.673 110.940 C 122.563 110.830,122.350 111.127,122.200 111.600 M121.400 114.800 C 121.248 115.491,121.207 116.141,121.309 116.242 C 121.411 116.344,121.609 115.853,121.750 115.150 C 122.083 113.483,121.760 113.160,121.400 114.800 M278.056 114.000 C 278.056 114.330,278.211 114.960,278.400 115.400 C 278.617 115.904,278.744 115.978,278.744 115.600 C 278.744 115.270,278.589 114.640,278.400 114.200 C 278.183 113.696,278.056 113.622,278.056 114.000 M120.662 120.900 C 120.322 125.260,120.370 146.572,120.723 148.548 C 120.875 149.399,121.000 142.784,121.000 133.848 C 121.000 124.911,120.982 117.600,120.959 117.600 C 120.937 117.600,120.803 119.085,120.662 120.900 M144.649 118.615 C 144.512 118.973,144.415 119.566,144.434 119.933 C 144.453 120.300,144.627 120.069,144.821 119.420 C 145.198 118.158,145.065 117.533,144.649 118.615 M279.102 189.600 C 279.158 229.090,279.252 265.000,279.311 269.400 C 279.369 273.800,279.439 242.570,279.465 200.000 C 279.492 157.430,279.398 121.520,279.257 120.200 C 279.115 118.880,279.046 150.110,279.102 189.600 M255.796 200.000 C 255.796 242.350,255.843 259.675,255.900 238.500 C 255.957 217.325,255.957 182.675,255.900 161.500 C 255.843 140.325,255.796 157.650,255.796 200.000 M177.229 145.151 C 176.677 145.305,177.612 145.422,179.400 145.422 C 181.188 145.422,182.123 145.305,181.571 145.151 C 181.037 145.002,180.060 144.880,179.400 144.880 C 178.740 144.880,177.763 145.002,177.229 145.151 M183.795 146.094 C 184.232 146.372,186.032 147.946,187.795 149.590 L 191.000 152.580 188.200 149.660 C 186.660 148.055,184.860 146.482,184.200 146.165 C 183.540 145.848,183.358 145.816,183.795 146.094 M172.175 148.100 L 171.000 149.400 172.300 148.225 C 173.512 147.130,173.784 146.800,173.475 146.800 C 173.406 146.800,172.821 147.385,172.175 148.100 M144.046 148.467 C 144.021 148.834,143.896 149.464,143.770 149.867 C 143.552 150.562,143.563 150.563,143.997 149.887 C 144.248 149.496,144.373 148.866,144.273 148.487 C 144.111 147.868,144.088 147.866,144.046 148.467 M121.200 150.953 C 121.200 151.382,122.390 153.600,122.621 153.600 C 122.731 153.600,122.523 153.015,122.159 152.300 C 121.417 150.840,121.200 150.536,121.200 150.953 M124.000 155.400 C 124.746 156.170,125.447 156.800,125.557 156.800 C 125.667 156.800,125.146 156.170,124.400 155.400 C 123.654 154.630,122.953 154.000,122.843 154.000 C 122.733 154.000,123.254 154.630,124.000 155.400 M140.514 155.480 C 140.027 155.986,139.774 156.400,139.952 156.400 C 140.342 156.400,141.798 154.845,141.564 154.677 C 141.474 154.613,141.001 154.974,140.514 155.480 M130.966 158.940 C 131.865 159.153,133.149 159.148,134.138 158.929 C 135.634 158.598,135.483 158.562,132.627 158.572 C 129.891 158.581,129.663 158.632,130.966 158.940 M203.400 165.200 C 204.483 166.300,205.460 167.200,205.570 167.200 C 205.680 167.200,204.883 166.300,203.800 165.200 C 202.717 164.100,201.740 163.200,201.630 163.200 C 201.520 163.200,202.317 164.100,203.400 165.200 M182.600 172.000 C 184.350 173.760,185.871 175.200,185.981 175.200 C 186.091 175.200,184.750 173.760,183.000 172.000 C 181.250 170.240,179.729 168.800,179.619 168.800 C 179.509 168.800,180.850 170.240,182.600 172.000 M220.200 182.000 C 221.059 182.880,221.852 183.600,221.962 183.600 C 222.072 183.600,221.459 182.880,220.600 182.000 C 219.741 181.120,218.948 180.400,218.838 180.400 C 218.728 180.400,219.341 181.120,220.200 182.000 M197.121 186.520 C 199.159 188.567,200.685 190.396,200.513 190.585 C 200.341 190.774,200.444 190.787,200.742 190.614 C 201.217 190.339,194.341 182.800,193.616 182.800 C 193.506 182.800,195.083 184.474,197.121 186.520 M141.800 191.200 C 141.296 191.417,141.222 191.544,141.600 191.544 C 141.930 191.544,142.560 191.389,143.000 191.200 C 143.504 190.983,143.578 190.856,143.200 190.856 C 142.870 190.856,142.240 191.011,141.800 191.200 M138.800 192.600 C 138.055 193.150,137.615 193.594,137.822 193.586 C 138.224 193.570,140.755 191.605,140.378 191.602 C 140.255 191.601,139.545 192.050,138.800 192.600 M134.630 199.500 C 134.497 200.325,134.538 201.533,134.719 202.184 C 134.981 203.124,135.054 202.813,135.074 200.684 C 135.103 197.648,134.980 197.319,134.630 199.500 M233.720 200.800 C 233.720 202.010,233.795 202.505,233.887 201.900 C 233.978 201.295,233.978 200.305,233.887 199.700 C 233.795 199.095,233.720 199.590,233.720 200.800 M135.200 204.148 C 135.200 205.179,138.133 208.800,138.967 208.800 C 139.193 208.800,138.959 208.507,138.447 208.148 C 137.935 207.790,136.995 206.674,136.358 205.670 C 135.721 204.665,135.200 203.980,135.200 204.148 M207.400 232.373 C 194.860 244.895,184.870 254.985,185.200 254.795 C 185.896 254.394,230.696 209.599,230.399 209.602 C 230.289 209.603,219.940 219.850,207.400 232.373 M141.733 210.243 C 142.136 210.675,200.800 211.129,200.800 210.700 C 200.800 210.535,188.043 210.400,172.450 210.400 C 156.858 210.400,143.493 210.284,142.750 210.143 C 141.963 209.993,141.539 210.034,141.733 210.243 M190.198 221.602 C 189.158 222.751,189.620 222.880,190.714 221.746 C 191.217 221.226,191.470 220.800,191.276 220.800 C 191.082 220.800,190.597 221.161,190.198 221.602 M188.202 223.598 C 187.803 224.039,187.607 224.400,187.767 224.400 C 188.188 224.400,189.328 223.195,189.112 222.979 C 189.011 222.878,188.602 223.156,188.202 223.598 M130.283 237.139 C 129.889 237.295,130.932 237.422,132.600 237.422 C 134.268 237.422,135.311 237.295,134.917 237.139 C 134.523 236.984,133.480 236.856,132.600 236.856 C 131.720 236.856,130.677 236.984,130.283 237.139 M173.402 238.398 C 173.003 238.839,172.807 239.200,172.967 239.200 C 173.388 239.200,174.528 237.995,174.312 237.779 C 174.211 237.678,173.802 237.956,173.402 238.398 M123.978 240.700 L 122.600 242.200 124.100 240.822 C 125.496 239.538,125.784 239.200,125.478 239.200 C 125.412 239.200,124.737 239.875,123.978 240.700 M140.514 240.520 C 141.001 241.026,141.474 241.387,141.564 241.323 C 141.798 241.155,140.342 239.600,139.952 239.600 C 139.774 239.600,140.027 240.014,140.514 240.520 M121.829 243.543 C 120.925 245.293,121.056 245.641,122.023 244.055 C 122.474 243.315,122.757 242.623,122.651 242.518 C 122.545 242.412,122.176 242.873,121.829 243.543 M169.800 243.600 C 169.650 244.073,169.617 244.550,169.727 244.660 C 169.837 244.770,170.050 244.473,170.200 244.000 C 170.350 243.527,170.383 243.050,170.273 242.940 C 170.163 242.830,169.950 243.127,169.800 243.600 M143.668 245.600 C 143.688 246.639,144.318 248.346,144.332 247.400 C 144.338 246.960,144.189 246.240,144.000 245.800 C 143.789 245.310,143.661 245.232,143.668 245.600 M120.657 247.500 C 120.335 249.446,120.408 277.066,120.743 280.200 C 120.885 281.520,121.000 274.365,121.000 264.300 C 121.000 254.235,120.979 246.000,120.952 246.000 C 120.926 246.000,120.793 246.675,120.657 247.500 M169.612 248.800 C 169.612 249.130,169.787 249.670,170.000 250.000 C 170.345 250.533,170.388 250.533,170.388 250.000 C 170.388 249.670,170.213 249.130,170.000 248.800 C 169.655 248.267,169.612 248.267,169.612 248.800 M171.077 252.031 C 171.475 252.708,172.056 253.473,172.368 253.731 C 172.680 253.989,172.432 253.435,171.815 252.500 C 170.520 250.537,170.009 250.212,171.077 252.031 M177.300 256.276 C 177.685 256.376,178.315 256.376,178.700 256.276 C 179.085 256.175,178.770 256.093,178.000 256.093 C 177.230 256.093,176.915 256.175,177.300 256.276 M180.500 256.276 C 180.885 256.376,181.515 256.376,181.900 256.276 C 182.285 256.175,181.970 256.093,181.200 256.093 C 180.430 256.093,180.115 256.175,180.500 256.276 M278.924 279.800 C 278.926 281.120,279.001 281.612,279.090 280.893 C 279.179 280.174,279.177 279.094,279.086 278.493 C 278.995 277.892,278.922 278.480,278.924 279.800 M144.406 280.233 C 144.409 280.655,144.595 281.270,144.818 281.600 C 145.115 282.038,145.152 281.876,144.956 281.000 C 144.627 279.529,144.398 279.210,144.406 280.233 M121.256 284.400 C 121.256 284.730,121.411 285.360,121.600 285.800 C 121.817 286.304,121.944 286.378,121.944 286.000 C 121.944 285.670,121.789 285.040,121.600 284.600 C 121.383 284.096,121.256 284.022,121.256 284.400 M278.273 284.553 C 278.123 284.945,278.011 285.566,278.025 285.933 C 278.042 286.375,278.181 286.274,278.437 285.634 C 278.649 285.103,278.761 284.482,278.685 284.254 C 278.609 284.027,278.424 284.161,278.273 284.553 M147.496 287.000 C 147.950 287.660,148.829 288.650,149.450 289.200 C 150.199 289.864,150.059 289.596,149.032 288.400 C 146.936 285.957,146.515 285.574,147.496 287.000 M250.778 288.700 L 249.400 290.200 250.900 288.822 C 252.296 287.538,252.584 287.200,252.278 287.200 C 252.212 287.200,251.537 287.875,250.778 288.700 M202.500 293.498 C 204.865 293.569,208.735 293.569,211.100 293.498 C 213.465 293.428,211.530 293.370,206.800 293.370 C 202.070 293.370,200.135 293.428,202.500 293.498 M125.800 296.800 C 126.141 297.460,126.511 298.000,126.621 298.000 C 126.731 298.000,126.541 297.460,126.200 296.800 C 125.859 296.140,125.489 295.600,125.379 295.600 C 125.269 295.600,125.459 296.140,125.800 296.800 M273.814 296.635 C 273.441 297.204,273.205 297.738,273.289 297.822 C 273.373 297.907,273.758 297.441,274.144 296.788 C 275.006 295.328,274.748 295.209,273.814 296.635 M127.051 298.900 C 128.469 301.278,132.911 306.175,135.400 308.102 C 136.280 308.784,135.636 308.063,133.969 306.501 C 132.302 304.939,130.069 302.477,129.007 301.030 C 127.282 298.680,126.250 297.557,127.051 298.900 M270.584 301.500 C 269.752 302.545,268.155 304.390,267.035 305.599 L 265.000 307.798 266.918 305.999 C 268.724 304.306,272.663 299.600,272.275 299.600 C 272.177 299.600,271.416 300.455,270.584 301.500 M151.200 316.000 C 151.530 316.213,152.070 316.388,152.400 316.388 C 152.933 316.388,152.933 316.345,152.400 316.000 C 152.070 315.787,151.530 315.612,151.200 315.612 C 150.667 315.612,150.667 315.655,151.200 316.000 M155.420 316.853 C 156.069 316.992,176.130 317.086,200.000 317.062 C 223.870 317.038,240.070 316.970,236.000 316.911 C 219.161 316.666,154.330 316.619,155.420 316.853 " stroke="none" fill="#f5acac" fill-rule="evenodd"></path><path id="path4" d="M153.400 83.200 C 152.330 83.472,152.308 83.505,153.200 83.505 C 153.750 83.505,154.740 83.368,155.400 83.200 C 156.470 82.928,156.492 82.895,155.600 82.895 C 155.050 82.895,154.060 83.032,153.400 83.200 M244.600 83.200 C 245.260 83.368,246.250 83.505,246.800 83.505 C 247.692 83.505,247.670 83.472,246.600 83.200 C 245.940 83.032,244.950 82.895,244.400 82.895 C 243.508 82.895,243.530 82.928,244.600 83.200 M139.700 88.446 C 138.337 89.319,137.895 89.906,139.100 89.243 C 140.018 88.739,141.456 87.627,141.200 87.619 C 141.090 87.616,140.415 87.988,139.700 88.446 M259.400 88.207 C 259.840 88.566,260.560 89.035,261.000 89.251 L 261.800 89.644 261.000 88.993 C 260.560 88.634,259.840 88.165,259.400 87.949 L 258.600 87.556 259.400 88.207 M136.385 90.829 L 135.000 92.058 136.500 90.981 C 137.826 90.030,138.257 89.600,137.885 89.600 C 137.822 89.600,137.147 90.153,136.385 90.829 M262.000 89.725 C 262.000 89.824,262.661 90.409,263.468 91.025 C 264.276 91.641,264.811 91.941,264.656 91.691 C 264.340 91.179,262.000 89.447,262.000 89.725 M267.600 94.600 C 269.017 96.030,270.267 97.200,270.377 97.200 C 270.487 97.200,269.417 96.030,268.000 94.600 C 266.583 93.170,265.333 92.000,265.223 92.000 C 265.113 92.000,266.183 93.170,267.600 94.600 M132.378 94.300 L 131.000 95.800 132.500 94.422 C 133.325 93.663,134.000 92.988,134.000 92.922 C 134.000 92.616,133.662 92.904,132.378 94.300 M271.191 98.788 C 271.657 99.441,272.242 100.102,272.491 100.256 C 272.741 100.411,272.441 99.876,271.825 99.068 C 270.488 97.315,269.984 97.092,271.191 98.788 M158.305 107.083 C 158.802 107.179,159.522 107.175,159.905 107.075 C 160.287 106.975,159.880 106.896,159.000 106.901 C 158.120 106.905,157.807 106.987,158.305 107.083 M240.305 107.083 C 240.802 107.179,241.522 107.175,241.905 107.075 C 242.287 106.975,241.880 106.896,241.000 106.901 C 240.120 106.905,239.807 106.987,240.305 107.083 M151.800 109.435 L 150.600 110.466 152.000 109.563 C 153.796 108.404,153.801 108.400,153.367 108.402 C 153.165 108.403,152.460 108.868,151.800 109.435 M249.329 110.442 C 250.170 111.189,251.402 112.430,252.067 113.200 C 253.083 114.377,253.148 114.409,252.475 113.400 C 251.653 112.170,250.019 110.577,248.600 109.622 C 248.160 109.326,248.488 109.695,249.329 110.442 M148.975 111.700 L 147.800 113.000 149.100 111.825 C 150.312 110.730,150.584 110.400,150.275 110.400 C 150.206 110.400,149.621 110.985,148.975 111.700 M121.049 114.615 C 120.912 114.973,120.823 115.836,120.850 116.533 C 120.892 117.587,120.950 117.498,121.199 116.000 C 121.517 114.086,121.459 113.548,121.049 114.615 M278.893 116.800 C 278.893 117.570,278.975 117.885,279.076 117.500 C 279.176 117.115,279.176 116.485,279.076 116.100 C 278.975 115.715,278.893 116.030,278.893 116.800 M120.514 120.200 C 120.517 121.300,120.595 121.703,120.687 121.095 C 120.779 120.486,120.777 119.586,120.682 119.095 C 120.587 118.603,120.511 119.100,120.514 120.200 M279.309 120.400 C 279.309 121.390,279.387 121.795,279.482 121.300 C 279.578 120.805,279.578 119.995,279.482 119.500 C 279.387 119.005,279.309 119.410,279.309 120.400 M255.396 200.000 C 255.396 244.110,255.443 262.155,255.500 240.100 C 255.557 218.045,255.557 181.955,255.500 159.900 C 255.443 137.845,255.396 155.890,255.396 200.000 M144.581 134.600 C 144.580 142.520,144.634 145.817,144.699 141.926 C 144.765 138.035,144.765 131.555,144.700 127.526 C 144.634 123.497,144.581 126.680,144.581 134.600 M208.200 169.600 C 220.739 182.140,231.087 192.400,231.197 192.400 C 231.307 192.400,221.139 182.140,208.600 169.600 C 196.061 157.060,185.713 146.800,185.603 146.800 C 185.493 146.800,195.661 157.060,208.200 169.600 M121.600 152.772 C 121.600 153.043,122.666 154.330,123.968 155.632 C 125.270 156.934,126.557 158.000,126.828 158.000 C 127.099 158.000,126.574 157.459,125.661 156.799 C 124.749 156.138,123.462 154.851,122.801 153.939 C 122.141 153.026,121.600 152.501,121.600 152.772 M169.309 154.800 C 169.309 155.790,169.387 156.195,169.482 155.700 C 169.578 155.205,169.578 154.395,169.482 153.900 C 169.387 153.405,169.309 153.810,169.309 154.800 M137.000 158.022 C 136.120 158.438,135.634 158.784,135.920 158.790 C 136.502 158.801,138.800 157.684,138.800 157.390 C 138.800 157.156,138.918 157.114,137.000 158.022 M185.798 175.500 L 200.596 190.400 171.598 190.406 C 155.649 190.409,142.392 190.544,142.138 190.706 C 141.884 190.868,154.838 190.952,170.926 190.892 C 187.013 190.833,200.312 190.648,200.479 190.481 C 200.646 190.314,194.081 183.523,185.891 175.389 L 171.000 160.600 185.798 175.500 M135.755 195.412 C 135.390 195.969,135.164 196.498,135.253 196.587 C 135.342 196.676,135.718 196.220,136.089 195.574 C 136.914 194.136,136.669 194.017,135.755 195.412 M233.800 200.800 C 233.800 202.544,233.922 203.662,234.072 203.285 C 234.221 202.908,234.344 201.790,234.344 200.800 C 234.344 199.810,234.221 198.692,234.072 198.315 C 233.922 197.938,233.800 199.056,233.800 200.800 M134.468 202.200 C 134.462 202.640,134.611 203.360,134.800 203.800 C 135.238 204.819,135.238 203.768,134.800 202.400 C 134.543 201.596,134.477 201.557,134.468 202.200 M226.592 213.700 L 223.000 217.400 226.700 213.808 C 228.735 211.833,230.400 210.168,230.400 210.108 C 230.400 209.818,229.928 210.264,226.592 213.700 M153.527 211.100 C 158.658 211.163,166.938 211.163,171.927 211.100 C 176.917 211.036,172.720 210.984,162.600 210.984 C 152.480 210.984,148.397 211.036,153.527 211.100 M211.794 228.500 L 206.600 233.800 211.900 228.606 C 216.823 223.781,217.381 223.200,217.094 223.200 C 217.036 223.200,214.651 225.585,211.794 228.500 M129.000 237.200 C 128.496 237.417,128.422 237.544,128.800 237.544 C 129.130 237.544,129.760 237.389,130.200 237.200 C 130.704 236.983,130.778 236.856,130.400 236.856 C 130.070 236.856,129.440 237.011,129.000 237.200 M135.000 237.200 C 135.440 237.389,136.070 237.544,136.400 237.544 C 136.778 237.544,136.704 237.417,136.200 237.200 C 135.760 237.011,135.130 236.856,134.800 236.856 C 134.422 236.856,134.496 236.983,135.000 237.200 M125.727 238.754 C 124.109 239.926,121.600 242.703,121.600 243.322 C 121.600 243.509,122.191 242.883,122.913 241.931 C 123.636 240.979,125.096 239.615,126.159 238.900 C 127.221 238.185,127.917 237.600,127.705 237.600 C 127.493 237.600,126.603 238.119,125.727 238.754 M170.829 241.054 C 170.373 241.634,170.005 242.309,170.012 242.554 C 170.019 242.799,170.224 242.640,170.468 242.200 C 170.712 241.760,171.185 241.085,171.518 240.700 C 171.851 240.315,172.019 240.000,171.891 240.000 C 171.763 240.000,171.285 240.474,170.829 241.054 M195.000 245.200 C 192.367 247.840,190.303 250.000,190.413 250.000 C 190.523 250.000,192.767 247.840,195.400 245.200 C 198.033 242.560,200.097 240.400,199.987 240.400 C 199.877 240.400,197.633 242.560,195.000 245.200 M169.331 246.600 C 169.333 248.140,169.405 248.721,169.492 247.891 C 169.579 247.061,169.577 245.801,169.489 245.091 C 169.400 244.381,169.329 245.060,169.331 246.600 M144.583 263.400 C 144.583 272.420,144.635 276.167,144.699 271.727 C 144.764 267.287,144.764 259.907,144.700 255.327 C 144.635 250.747,144.583 254.380,144.583 263.400 M170.000 250.689 C 170.000 250.921,170.371 251.536,170.824 252.056 L 171.647 253.000 170.945 251.800 C 170.020 250.221,170.000 250.197,170.000 250.689 M172.800 254.285 C 172.800 254.634,174.399 255.738,174.600 255.528 C 174.667 255.457,174.289 255.077,173.761 254.681 C 173.232 254.286,172.800 254.108,172.800 254.285 M178.705 256.683 C 179.202 256.779,179.922 256.775,180.305 256.675 C 180.687 256.575,180.280 256.496,179.400 256.501 C 178.520 256.505,178.207 256.587,178.705 256.683 M279.314 279.000 C 279.317 280.100,279.395 280.503,279.487 279.895 C 279.579 279.286,279.577 278.386,279.482 277.895 C 279.387 277.403,279.311 277.900,279.314 279.000 M120.509 280.000 C 120.509 280.990,120.587 281.395,120.682 280.900 C 120.778 280.405,120.778 279.595,120.682 279.100 C 120.587 278.605,120.509 279.010,120.509 280.000 M278.893 283.200 C 278.893 283.970,278.975 284.285,279.076 283.900 C 279.176 283.515,279.176 282.885,279.076 282.500 C 278.975 282.115,278.893 282.430,278.893 283.200 M120.806 283.633 C 120.809 284.385,120.977 285.261,121.179 285.579 C 121.416 285.954,121.465 285.530,121.318 284.379 C 121.035 282.170,120.798 281.825,120.806 283.633 M250.581 288.500 L 249.000 290.200 250.700 288.619 C 252.281 287.148,252.584 286.800,252.281 286.800 C 252.216 286.800,251.451 287.565,250.581 288.500 M148.800 288.150 C 149.350 288.771,150.340 289.650,151.000 290.104 C 152.426 291.085,152.043 290.664,149.600 288.568 C 148.404 287.541,148.136 287.401,148.800 288.150 M179.200 293.200 L 160.200 293.412 178.200 293.453 C 188.100 293.476,200.340 293.372,205.400 293.221 L 214.600 292.947 206.400 292.968 C 201.890 292.979,189.650 293.084,179.200 293.200 M221.325 293.499 C 224.804 293.566,230.384 293.566,233.725 293.499 C 237.066 293.432,234.220 293.378,227.400 293.378 C 220.580 293.378,217.846 293.433,221.325 293.499 M125.615 297.000 C 125.617 297.220,125.986 297.850,126.436 298.400 C 126.979 299.064,127.115 299.131,126.840 298.600 C 126.166 297.295,125.612 296.572,125.615 297.000 M132.000 305.400 C 133.417 306.830,134.667 308.000,134.777 308.000 C 134.887 308.000,133.817 306.830,132.400 305.400 C 130.983 303.970,129.733 302.800,129.623 302.800 C 129.513 302.800,130.583 303.970,132.000 305.400 M267.178 305.900 L 265.800 307.400 267.300 306.022 C 268.125 305.263,268.800 304.588,268.800 304.522 C 268.800 304.216,268.462 304.504,267.178 305.900 M135.344 308.309 C 135.660 308.821,138.000 310.553,138.000 310.275 C 138.000 310.176,137.339 309.591,136.532 308.975 C 135.724 308.359,135.189 308.059,135.344 308.309 M141.200 312.184 C 141.200 312.294,141.920 312.751,142.800 313.200 C 143.680 313.649,144.400 313.926,144.400 313.816 C 144.400 313.706,143.680 313.249,142.800 312.800 C 141.920 312.351,141.200 312.074,141.200 312.184 M255.200 313.800 C 254.650 314.114,254.380 314.372,254.600 314.372 C 254.820 314.372,255.450 314.114,256.000 313.800 C 256.550 313.486,256.820 313.228,256.600 313.228 C 256.380 313.228,255.750 313.486,255.200 313.800 " stroke="none" fill="#f1a09f" fill-rule="evenodd"></path></g></svg>