<svg id="svg" version="1.1" xmlns="http://www.w3.org/2000/svg" xmlns:xlink="http://www.w3.org/1999/xlink" width="400" height="400" viewBox="0, 0, 400,400"><g id="svgg"><path id="path0" d="M108.400 12.407 C 108.400 12.648,105.864 12.800,101.824 12.800 C 97.871 12.800,95.149 12.960,95.000 13.200 C 94.864 13.420,93.244 13.600,91.400 13.600 C 89.556 13.600,87.936 13.780,87.800 14.000 C 87.664 14.220,86.674 14.400,85.600 14.400 C 84.526 14.400,83.536 14.580,83.400 14.800 C 83.264 15.020,82.544 15.200,81.800 15.200 C 81.056 15.200,80.336 15.380,80.200 15.600 C 80.064 15.820,79.423 16.000,78.776 16.000 C 78.129 16.000,77.600 16.180,77.600 16.400 C 77.600 16.620,77.150 16.800,76.600 16.800 C 76.050 16.800,75.600 16.980,75.600 17.200 C 75.600 17.420,75.060 17.600,74.400 17.600 C 73.740 17.600,73.200 17.780,73.200 18.000 C 73.200 18.220,72.840 18.400,72.400 18.400 C 71.960 18.400,71.600 18.580,71.600 18.800 C 71.600 19.020,71.240 19.200,70.800 19.200 C 70.360 19.200,70.000 19.380,70.000 19.600 C 70.000 19.820,69.640 20.000,69.200 20.000 C 68.760 20.000,68.400 20.180,68.400 20.400 C 68.400 20.620,68.040 20.800,67.600 20.800 C 67.160 20.800,66.800 20.980,66.800 21.200 C 66.800 21.420,66.440 21.600,66.000 21.600 C 65.560 21.600,65.200 21.780,65.200 22.000 C 65.200 22.220,64.840 22.400,64.400 22.400 C 63.960 22.400,63.600 22.580,63.600 22.800 C 63.600 23.020,63.330 23.200,63.000 23.200 C 62.670 23.200,62.400 23.380,62.400 23.600 C 62.400 23.820,62.130 24.000,61.800 24.000 C 61.470 24.000,61.200 24.180,61.200 24.400 C 61.200 24.620,60.956 24.800,60.658 24.800 C 60.361 24.800,59.631 25.250,59.038 25.800 C 58.444 26.350,57.810 26.800,57.628 26.800 C 57.445 26.800,56.600 27.476,55.748 28.302 C 54.897 29.128,53.570 30.250,52.800 30.795 C 51.017 32.058,49.258 33.817,47.995 35.600 C 47.450 36.370,46.328 37.697,45.502 38.548 C 44.676 39.400,44.000 40.263,44.000 40.466 C 44.000 40.670,43.550 41.286,43.000 41.836 C 42.450 42.386,42.000 43.098,42.000 43.418 C 42.000 43.738,41.820 44.000,41.600 44.000 C 41.380 44.000,41.200 44.320,41.200 44.712 C 41.200 45.103,40.840 45.683,40.400 46.000 C 39.960 46.317,39.600 46.897,39.600 47.288 C 39.600 47.680,39.420 48.000,39.200 48.000 C 38.980 48.000,38.800 48.360,38.800 48.800 C 38.800 49.240,38.620 49.600,38.400 49.600 C 38.180 49.600,38.000 49.960,38.000 50.400 C 38.000 50.840,37.820 51.200,37.600 51.200 C 37.380 51.200,37.200 51.560,37.200 52.000 C 37.200 52.440,37.020 52.800,36.800 52.800 C 36.580 52.800,36.400 53.160,36.400 53.600 C 36.400 54.040,36.220 54.400,36.000 54.400 C 35.780 54.400,35.600 54.940,35.600 55.600 C 35.600 56.260,35.420 56.800,35.200 56.800 C 34.980 56.800,34.800 57.160,34.800 57.600 C 34.800 58.040,34.620 58.400,34.400 58.400 C 34.180 58.400,34.000 58.940,34.000 59.600 C 34.000 60.260,33.820 60.800,33.600 60.800 C 33.380 60.800,33.200 61.430,33.200 62.200 C 33.200 62.970,33.020 63.600,32.800 63.600 C 32.580 63.600,32.400 64.320,32.400 65.200 C 32.400 66.080,32.220 66.800,32.000 66.800 C 31.778 66.800,31.600 67.867,31.600 69.200 C 31.600 70.533,31.422 71.600,31.200 71.600 C 30.952 71.600,30.800 73.725,30.800 77.176 C 30.800 80.463,30.636 82.854,30.400 83.000 C 30.145 83.158,30.000 88.577,30.000 97.944 C 30.000 107.300,29.853 112.787,29.596 113.044 C 29.332 113.308,29.228 120.309,29.296 133.224 C 29.414 155.580,29.043 153.429,32.600 152.397 C 36.781 151.185,40.480 150.854,59.407 150.002 C 64.910 149.755,70.670 149.428,72.207 149.276 L 75.000 149.000 75.105 133.015 C 75.169 123.164,75.361 116.879,75.605 116.635 C 75.851 116.389,76.000 110.548,76.000 101.120 C 76.000 91.307,76.140 86.000,76.400 86.000 C 76.643 86.000,76.800 84.200,76.800 81.400 C 76.800 78.600,76.957 76.800,77.200 76.800 C 77.420 76.800,77.600 76.260,77.600 75.600 C 77.600 74.940,77.780 74.400,78.000 74.400 C 78.220 74.400,78.400 73.950,78.400 73.400 C 78.400 72.850,78.580 72.400,78.800 72.400 C 79.020 72.400,79.200 72.080,79.200 71.688 C 79.200 71.297,79.560 70.717,80.000 70.400 C 80.440 70.083,80.800 69.590,80.800 69.304 C 80.800 68.630,85.488 63.969,86.907 63.232 C 87.508 62.920,88.000 62.515,88.000 62.332 C 88.000 62.150,88.360 62.000,88.800 62.000 C 89.240 62.000,89.600 61.820,89.600 61.600 C 89.600 61.380,89.960 61.200,90.400 61.200 C 90.840 61.200,91.200 61.020,91.200 60.800 C 91.200 60.580,91.650 60.400,92.200 60.400 C 92.750 60.400,93.200 60.220,93.200 60.000 C 93.200 59.778,94.256 59.600,95.567 59.600 C 97.104 59.600,97.992 59.425,98.100 59.100 C 98.344 58.367,163.256 58.367,163.500 59.100 C 163.603 59.410,164.416 59.600,165.633 59.600 C 166.715 59.600,167.600 59.780,167.600 60.000 C 167.600 60.220,168.140 60.400,168.800 60.400 C 169.460 60.400,170.000 60.580,170.000 60.800 C 170.000 61.020,170.540 61.200,171.200 61.200 C 171.860 61.200,172.400 61.380,172.400 61.600 C 172.400 61.820,172.643 62.000,172.941 62.000 C 173.238 62.000,174.046 62.540,174.737 63.200 C 175.428 63.860,176.089 64.400,176.207 64.400 C 176.638 64.400,179.816 67.842,180.368 68.905 C 180.680 69.507,181.085 70.000,181.268 70.000 C 181.450 70.000,181.600 70.360,181.600 70.800 C 181.600 71.240,181.735 71.601,181.900 71.603 C 182.259 71.607,183.200 73.544,183.200 74.280 C 183.200 74.566,183.380 74.800,183.600 74.800 C 183.820 74.800,184.000 75.430,184.000 76.200 C 184.000 76.970,184.180 77.600,184.400 77.600 C 184.652 77.600,184.800 80.333,184.800 85.000 C 184.800 89.667,184.948 92.400,185.200 92.400 C 185.449 92.400,185.600 94.667,185.600 98.400 L 185.600 104.400 208.600 104.400 L 231.600 104.400 231.600 97.224 C 231.600 92.871,231.443 89.950,231.200 89.800 C 230.954 89.648,230.800 86.396,230.800 81.376 C 230.800 76.192,230.654 73.200,230.400 73.200 C 230.175 73.200,230.000 72.075,230.000 70.624 C 230.000 69.207,229.820 67.936,229.600 67.800 C 229.380 67.664,229.200 66.843,229.200 65.976 C 229.200 65.109,229.020 64.400,228.800 64.400 C 228.580 64.400,228.400 63.781,228.400 63.024 C 228.400 62.267,228.220 61.536,228.000 61.400 C 227.780 61.264,227.600 60.713,227.600 60.176 C 227.600 59.639,227.420 59.200,227.200 59.200 C 226.980 59.200,226.800 58.660,226.800 58.000 C 226.800 57.340,226.620 56.800,226.400 56.800 C 226.180 56.800,226.000 56.440,226.000 56.000 C 226.000 55.560,225.840 55.200,225.645 55.200 C 225.449 55.200,225.164 54.525,225.011 53.700 C 224.732 52.195,222.472 47.516,221.903 47.267 C 221.737 47.193,221.600 46.958,221.600 46.745 C 221.600 46.217,218.434 41.558,217.528 40.753 C 217.128 40.397,216.800 39.913,216.800 39.677 C 216.800 39.194,205.536 27.600,205.067 27.600 C 204.901 27.600,204.280 27.150,203.687 26.600 C 203.093 26.050,202.331 25.600,201.992 25.600 C 201.654 25.600,201.117 25.240,200.800 24.800 C 200.483 24.360,199.943 24.000,199.600 24.000 C 199.257 24.000,198.717 23.640,198.400 23.200 C 198.083 22.760,197.503 22.400,197.112 22.400 C 196.720 22.400,196.400 22.220,196.400 22.000 C 196.400 21.780,196.040 21.600,195.600 21.600 C 195.160 21.600,194.800 21.420,194.800 21.200 C 194.800 20.980,194.440 20.800,194.000 20.800 C 193.560 20.800,193.200 20.620,193.200 20.400 C 193.200 20.180,192.840 20.000,192.400 20.000 C 191.960 20.000,191.600 19.820,191.600 19.600 C 191.600 19.380,191.240 19.200,190.800 19.200 C 190.360 19.200,190.000 19.020,190.000 18.800 C 190.000 18.580,189.550 18.400,189.000 18.400 C 188.450 18.400,188.000 18.220,188.000 18.000 C 188.000 17.780,187.651 17.600,187.224 17.600 C 186.797 17.600,186.336 17.420,186.200 17.200 C 186.064 16.980,185.513 16.800,184.976 16.800 C 184.439 16.800,184.000 16.620,184.000 16.400 C 184.000 16.180,183.280 16.000,182.400 16.000 C 181.520 16.000,180.800 15.820,180.800 15.600 C 180.800 15.380,180.080 15.200,179.200 15.200 C 178.320 15.200,177.600 15.020,177.600 14.800 C 177.600 14.580,176.700 14.400,175.600 14.400 C 174.500 14.400,173.600 14.220,173.600 14.000 C 173.600 13.765,172.208 13.600,170.224 13.600 C 168.367 13.600,166.736 13.420,166.600 13.200 C 166.451 12.960,163.737 12.800,159.800 12.800 C 155.940 12.800,153.147 12.638,153.004 12.407 C 152.671 11.868,108.400 11.868,108.400 12.407 M146.405 289.896 C 142.625 290.596,142.000 292.452,142.000 302.973 C 142.000 312.529,141.910 312.845,139.652 311.237 C 139.006 310.777,138.388 310.400,138.279 310.400 C 138.171 310.400,136.848 309.649,135.341 308.730 C 129.601 305.233,125.529 303.200,124.268 303.200 C 121.051 303.200,118.685 305.678,118.715 309.016 C 118.743 312.121,119.657 313.124,125.192 316.125 C 126.407 316.783,127.850 317.625,128.400 317.996 C 128.950 318.367,130.795 319.432,132.500 320.363 C 135.677 322.098,135.967 322.404,135.100 323.108 C 134.634 323.487,134.031 323.840,130.100 326.039 C 120.723 331.283,118.970 332.671,118.778 335.009 C 118.458 338.883,120.126 341.176,123.499 341.500 C 125.889 341.730,126.292 341.551,135.363 336.251 C 138.643 334.335,141.467 332.909,141.638 333.083 C 141.809 333.258,142.006 337.540,142.075 342.600 C 142.168 349.475,142.336 352.002,142.738 352.600 C 145.013 355.981,150.377 356.026,152.416 352.681 C 153.128 351.513,153.197 350.622,153.199 342.549 C 153.200 335.872,153.325 333.594,153.709 333.275 C 154.218 332.853,155.620 333.592,165.292 339.379 C 171.824 343.288,177.463 341.242,176.643 335.260 C 176.271 332.547,174.825 331.325,166.800 326.945 C 163.954 325.391,160.239 322.944,160.107 322.536 C 159.976 322.130,163.040 320.165,169.200 316.703 C 170.190 316.147,171.853 315.207,172.895 314.614 C 177.599 311.941,178.047 306.456,173.768 303.944 C 171.492 302.608,169.766 303.002,164.800 305.988 C 163.590 306.716,162.015 307.647,161.300 308.056 C 152.236 313.244,153.200 313.921,153.200 302.365 L 153.200 293.106 151.647 291.553 C 150.793 290.699,149.728 290.000,149.280 290.000 C 148.832 290.000,148.226 289.935,147.933 289.856 C 147.640 289.777,146.952 289.795,146.405 289.896 M211.800 289.931 C 208.095 290.335,207.200 292.965,207.200 303.449 C 207.200 308.704,207.051 312.000,206.812 312.000 C 206.451 312.000,205.881 311.704,202.200 309.600 C 200.656 308.718,198.625 307.565,197.155 306.738 C 196.630 306.442,196.110 306.110,196.000 306.000 C 193.759 303.759,189.148 302.702,187.032 303.944 C 183.355 306.102,183.122 311.938,186.639 313.804 C 187.057 314.026,188.570 314.907,190.000 315.761 C 191.430 316.616,193.590 317.862,194.800 318.531 C 201.042 321.980,201.698 322.620,199.916 323.519 C 199.412 323.773,198.172 324.480,197.161 325.090 C 196.150 325.701,193.353 327.320,190.947 328.688 C 185.091 332.019,184.200 332.974,184.200 335.926 C 184.200 340.366,188.608 343.120,192.400 341.049 C 194.171 340.081,203.755 334.555,205.172 333.685 C 207.184 332.448,207.199 332.507,207.209 341.724 C 207.220 352.826,208.239 355.197,213.000 355.197 C 217.872 355.197,218.797 353.113,218.799 342.124 C 218.799 337.242,218.943 333.159,219.118 333.050 C 219.472 332.832,220.891 333.589,228.800 338.216 C 237.267 343.169,242.000 342.444,242.000 336.192 C 242.000 332.963,241.280 332.087,236.274 329.230 C 235.573 328.830,233.380 327.556,231.400 326.399 C 229.420 325.243,227.272 323.996,226.627 323.629 C 224.934 322.666,224.977 322.271,226.893 321.204 C 227.832 320.681,230.310 319.248,232.400 318.020 C 234.490 316.792,236.734 315.521,237.386 315.194 C 240.359 313.704,242.000 311.521,242.000 309.054 C 242.000 303.092,235.867 301.503,230.200 305.998 C 229.980 306.172,229.125 306.694,228.300 307.157 C 227.475 307.621,226.170 308.360,225.400 308.800 C 224.630 309.240,223.325 309.977,222.500 310.438 C 221.675 310.898,220.829 311.438,220.620 311.638 C 218.971 313.210,218.800 312.397,218.800 302.980 C 218.800 291.118,217.811 289.275,211.800 289.931 M277.413 289.935 C 273.439 290.387,272.800 292.204,272.800 303.061 C 272.800 312.388,272.623 313.224,270.980 311.632 C 270.771 311.429,268.980 310.326,267.000 309.180 C 265.020 308.035,262.770 306.733,262.000 306.287 C 255.035 302.255,252.066 302.332,250.000 306.600 C 247.981 310.772,249.180 312.226,259.514 318.141 C 267.560 322.747,267.335 322.428,263.900 324.357 C 261.756 325.562,260.365 326.363,255.400 329.256 C 248.929 333.027,247.534 336.688,251.224 340.223 C 253.735 342.628,256.152 342.163,263.400 337.879 C 269.783 334.106,272.268 332.801,272.543 333.076 C 272.684 333.218,272.801 337.308,272.801 342.167 C 272.803 353.133,273.727 355.194,278.641 355.199 C 283.410 355.203,284.356 352.978,284.381 341.700 C 284.391 336.805,284.545 332.800,284.722 332.800 C 284.899 332.800,285.895 333.340,286.936 334.000 C 287.976 334.660,288.880 335.200,288.944 335.200 C 289.009 335.200,291.565 336.640,294.625 338.400 C 301.810 342.532,305.019 342.631,307.010 338.781 C 309.035 334.864,307.510 332.619,299.805 328.171 C 292.362 323.875,290.800 322.882,290.800 322.444 C 290.800 322.161,296.484 318.726,303.600 314.709 C 308.653 311.857,309.066 306.213,304.399 303.800 C 302.105 302.613,300.988 302.917,295.100 306.330 C 294.275 306.809,293.015 307.537,292.300 307.950 C 291.585 308.362,289.722 309.442,288.160 310.350 C 284.121 312.697,284.400 313.213,284.400 303.387 C 284.400 291.596,283.196 289.277,277.413 289.935 M342.671 289.905 C 342.034 289.992,340.856 290.744,339.971 291.629 L 338.400 293.200 338.400 302.413 C 338.400 313.285,338.683 312.824,333.763 309.967 C 331.804 308.829,329.615 307.560,328.900 307.149 C 328.185 306.737,326.925 306.010,326.100 305.532 C 321.723 303.001,320.000 302.674,317.800 303.959 C 313.831 306.277,313.949 312.273,318.001 314.110 C 318.330 314.260,319.430 314.881,320.444 315.491 C 321.459 316.101,324.458 317.840,327.110 319.356 C 332.138 322.230,332.484 322.682,330.461 323.729 C 329.877 324.031,327.780 325.229,325.800 326.391 C 323.820 327.553,321.390 328.953,320.400 329.502 C 313.089 333.559,312.818 340.819,319.951 341.505 C 321.979 341.700,322.406 341.558,326.000 339.497 C 334.722 334.495,337.775 332.861,338.063 333.039 C 338.248 333.153,338.400 337.296,338.400 342.243 C 338.400 353.498,339.143 355.203,344.047 355.199 C 348.887 355.194,349.763 353.183,349.927 341.700 C 349.998 336.805,350.120 332.800,350.198 332.800 C 350.277 332.800,353.640 334.730,357.671 337.089 C 367.606 342.903,371.228 343.005,372.872 337.517 C 373.911 334.050,372.705 332.479,366.000 328.572 C 359.080 324.539,358.685 324.313,357.539 323.725 C 355.476 322.666,355.868 322.280,363.342 317.995 C 373.519 312.162,375.251 309.624,371.935 305.409 C 369.685 302.548,367.003 302.581,361.900 305.532 C 361.075 306.010,359.770 306.760,359.000 307.200 C 355.535 309.180,354.876 309.562,352.882 310.744 C 351.718 311.435,350.593 312.000,350.382 312.000 C 350.152 312.000,349.988 308.691,349.969 303.700 C 349.925 291.758,348.524 289.110,342.671 289.905 " stroke="none" fill="#615961" fill-rule="evenodd"></path><path id="path1" d="M223.600 258.031 C 156.140 258.535,126.427 259.614,120.018 261.794 C 110.856 264.910,103.162 272.201,99.695 281.054 C 94.930 293.219,93.430 327.718,96.705 349.800 C 97.064 352.220,97.367 355.670,97.379 357.466 C 97.391 359.262,97.535 360.867,97.700 361.033 C 97.865 361.198,98.000 361.843,98.000 362.467 C 98.000 363.090,98.180 363.600,98.400 363.600 C 98.620 363.600,98.800 363.977,98.800 364.438 C 98.800 364.899,99.129 365.754,99.530 366.338 C 99.932 366.922,100.494 367.985,100.779 368.700 C 101.064 369.415,101.455 370.000,101.649 370.000 C 101.842 370.000,102.000 370.371,102.000 370.824 C 102.000 371.277,102.153 371.553,102.340 371.437 C 102.527 371.322,102.917 371.671,103.207 372.214 C 103.498 372.756,103.885 373.200,104.068 373.200 C 104.250 373.200,104.400 373.394,104.400 373.631 C 104.400 374.260,109.729 379.200,110.407 379.200 C 110.623 379.200,110.800 379.380,110.800 379.600 C 110.800 379.820,111.036 380.000,111.325 380.000 C 111.613 380.000,112.198 380.315,112.625 380.701 C 113.051 381.086,114.300 381.825,115.400 382.344 C 116.500 382.863,117.713 383.448,118.095 383.644 C 118.477 383.840,119.141 384.000,119.571 384.000 C 120.001 384.000,120.464 384.180,120.600 384.400 C 120.736 384.620,121.467 384.800,122.224 384.800 C 122.981 384.800,123.600 384.980,123.600 385.200 C 123.600 385.445,125.533 385.600,128.600 385.600 C 131.463 385.600,133.600 385.761,133.600 385.977 C 133.600 386.203,138.181 386.368,145.072 386.388 C 151.500 386.407,156.741 386.585,156.993 386.794 C 157.252 387.009,164.484 387.177,174.162 387.191 C 183.744 387.206,191.183 387.377,191.584 387.592 C 193.017 388.358,337.124 387.570,337.605 386.792 C 337.725 386.598,343.308 386.345,350.011 386.229 C 364.775 385.974,370.875 385.673,371.380 385.175 C 371.589 384.969,372.228 384.800,372.800 384.800 C 373.372 384.800,374.019 384.621,374.238 384.402 C 374.456 384.184,375.122 383.964,375.718 383.915 C 376.313 383.866,376.800 383.685,376.800 383.513 C 376.800 383.341,377.160 383.200,377.600 383.200 C 378.040 383.200,378.400 383.020,378.400 382.800 C 378.400 382.580,378.760 382.400,379.200 382.400 C 379.640 382.400,380.000 382.220,380.000 382.000 C 380.000 381.780,380.283 381.600,380.629 381.600 C 380.974 381.600,381.529 381.328,381.861 380.996 C 382.193 380.664,382.658 380.512,382.894 380.658 C 383.149 380.815,383.207 380.736,383.038 380.462 C 382.869 380.188,383.007 380.000,383.376 380.000 C 383.719 380.000,384.000 379.850,384.000 379.668 C 384.000 379.485,384.495 379.080,385.100 378.768 C 386.723 377.930,390.534 373.878,392.048 371.380 C 392.774 370.181,393.511 369.200,393.685 369.200 C 393.858 369.200,394.000 368.840,394.000 368.400 C 394.000 367.960,394.180 367.600,394.400 367.600 C 394.620 367.600,394.800 367.240,394.800 366.800 C 394.800 366.360,394.980 366.000,395.200 366.000 C 395.420 366.000,395.600 365.640,395.600 365.200 C 395.600 364.760,395.780 364.400,396.000 364.400 C 396.220 364.400,396.400 363.871,396.400 363.224 C 396.400 362.577,396.580 361.936,396.800 361.800 C 397.020 361.664,397.200 360.933,397.200 360.176 C 397.200 359.419,397.380 358.800,397.600 358.800 C 397.820 358.800,398.000 357.821,398.000 356.624 C 398.000 355.427,398.180 354.336,398.400 354.200 C 398.620 354.064,398.800 352.829,398.800 351.456 C 398.800 349.993,399.007 348.753,399.300 348.460 C 399.689 348.071,399.800 342.355,399.800 322.600 C 399.800 302.845,399.689 297.130,399.300 296.740 C 399.006 296.446,398.800 295.203,398.800 293.720 C 398.800 292.307,398.624 291.200,398.400 291.200 C 398.178 291.200,398.000 290.141,398.000 288.824 C 398.000 287.517,397.820 286.336,397.600 286.200 C 397.380 286.064,397.200 285.333,397.200 284.576 C 397.200 283.819,397.020 283.200,396.800 283.200 C 396.580 283.200,396.400 282.786,396.400 282.280 C 396.400 281.774,396.251 281.189,396.070 280.980 C 395.888 280.771,395.499 279.835,395.206 278.900 C 394.912 277.965,394.521 277.200,394.336 277.200 C 394.151 277.200,394.000 276.930,394.000 276.600 C 394.000 276.270,393.820 276.000,393.600 276.000 C 393.380 276.000,393.200 275.730,393.200 275.400 C 393.200 275.070,393.020 274.800,392.800 274.800 C 392.580 274.800,392.400 274.522,392.400 274.183 C 392.400 273.426,392.250 273.246,387.890 268.789 C 385.960 266.815,384.155 265.200,383.879 265.200 C 383.603 265.200,383.117 264.840,382.800 264.400 C 382.483 263.960,382.010 263.600,381.749 263.600 C 381.149 263.600,377.845 261.900,377.667 261.500 C 377.593 261.335,377.008 261.200,376.367 261.200 C 375.725 261.200,375.200 261.020,375.200 260.800 C 375.200 260.580,374.696 260.400,374.080 260.400 C 373.464 260.400,372.789 260.236,372.580 260.035 C 371.708 259.198,366.434 258.965,339.300 258.565 C 328.465 258.405,319.600 258.123,319.600 257.937 C 319.600 257.562,281.510 257.599,223.600 258.031 M150.841 290.508 C 153.390 292.211,153.599 293.150,153.599 302.900 C 153.600 312.979,153.319 312.502,157.707 309.854 C 159.298 308.893,161.950 307.341,163.600 306.404 C 165.250 305.467,167.190 304.363,167.912 303.950 C 173.148 300.957,179.090 306.364,176.303 311.587 C 175.262 313.538,175.504 313.371,164.528 319.675 C 161.958 321.151,160.172 322.417,160.328 322.652 C 160.566 323.009,167.459 327.200,167.808 327.200 C 168.166 327.200,174.716 331.378,175.504 332.109 C 177.744 334.186,177.512 337.965,174.995 340.405 C 172.728 342.602,170.128 342.402,165.468 339.670 C 163.526 338.532,161.874 337.600,161.798 337.600 C 161.721 337.600,160.205 336.708,158.428 335.617 C 153.405 332.534,153.832 331.916,153.600 342.600 C 153.376 352.896,153.320 353.111,150.449 354.724 C 147.643 356.302,144.769 355.547,142.637 352.672 C 141.858 351.621,141.792 350.947,141.686 342.872 C 141.624 338.102,141.492 333.968,141.393 333.684 C 141.195 333.117,141.649 332.888,132.116 338.374 C 123.458 343.357,119.249 342.908,118.541 336.929 C 118.192 333.989,121.077 329.600,123.359 329.600 C 123.540 329.600,131.431 325.078,134.300 323.330 C 135.651 322.507,135.489 322.308,131.739 320.172 C 129.836 319.087,127.451 317.707,126.439 317.104 C 125.428 316.501,124.015 315.716,123.300 315.358 C 118.573 312.997,116.933 308.352,119.700 305.163 C 122.506 301.929,124.495 302.254,133.409 307.400 C 137.410 309.710,140.890 311.600,141.142 311.600 C 141.471 311.600,141.600 309.244,141.600 303.208 C 141.600 293.607,141.897 292.243,144.345 290.579 C 146.260 289.278,148.955 289.248,150.841 290.508 M216.211 290.407 C 218.876 292.054,218.966 292.427,219.134 302.500 C 219.231 308.353,219.432 311.600,219.696 311.600 C 219.921 311.600,222.467 310.225,225.353 308.544 C 234.327 303.317,234.572 303.200,236.568 303.200 C 239.923 303.200,242.400 305.729,242.400 309.154 C 242.400 311.881,240.682 313.679,235.200 316.690 C 229.976 319.559,225.600 322.190,225.600 322.461 C 225.600 322.622,227.355 323.775,229.500 325.023 C 242.283 332.463,242.396 332.559,242.399 336.041 C 242.404 342.608,237.512 343.454,228.738 338.405 C 220.647 333.749,219.669 333.200,219.466 333.200 C 219.367 333.200,219.221 337.309,219.143 342.331 L 219.000 351.462 217.879 352.932 C 215.781 355.682,213.151 356.298,210.313 354.703 C 207.449 353.093,207.200 352.096,207.200 342.240 C 207.200 337.514,207.051 333.555,206.869 333.443 C 206.687 333.330,203.222 335.157,199.169 337.502 C 189.611 343.034,187.506 343.220,184.500 338.804 C 181.830 334.881,183.491 332.734,193.800 326.776 C 197.320 324.742,200.319 322.895,200.465 322.672 C 200.669 322.360,196.809 319.600,196.169 319.600 C 196.095 319.600,195.082 319.032,193.918 318.338 C 192.753 317.643,191.440 316.871,191.000 316.623 C 186.178 313.896,185.517 313.400,184.592 311.822 C 181.523 306.586,187.521 300.893,192.888 303.947 C 193.610 304.357,196.990 306.315,200.400 308.298 C 203.810 310.280,206.735 311.823,206.900 311.727 C 207.065 311.631,207.201 307.558,207.201 302.676 C 207.203 294.525,207.268 293.694,207.998 292.496 C 209.695 289.713,213.516 288.741,216.211 290.407 M281.504 290.398 C 284.230 292.060,284.397 292.768,284.399 302.700 C 284.400 310.013,284.499 311.600,284.954 311.600 C 285.258 311.600,288.798 309.710,292.819 307.400 C 301.763 302.262,304.011 301.945,306.754 305.433 C 308.977 308.259,307.019 314.800,303.950 314.800 C 303.802 314.800,302.469 315.537,300.988 316.437 C 299.506 317.337,297.687 318.417,296.947 318.837 C 296.206 319.257,294.925 319.988,294.100 320.463 C 293.275 320.937,292.196 321.541,291.703 321.804 C 290.449 322.472,292.810 324.172,301.200 328.642 C 307.494 331.996,309.275 335.153,307.033 338.980 C 304.747 342.881,301.718 342.840,294.800 338.812 C 287.202 334.388,287.071 334.312,286.000 333.740 C 285.450 333.446,284.865 333.204,284.700 333.202 C 284.535 333.201,284.400 337.259,284.400 342.220 C 284.400 352.484,284.295 352.924,281.463 354.584 C 278.648 356.234,275.820 355.684,273.853 353.105 L 272.800 351.724 272.800 342.686 C 272.800 332.346,272.913 332.623,269.504 334.634 C 268.127 335.446,266.190 336.561,265.200 337.113 C 264.210 337.664,261.960 338.945,260.200 339.958 C 255.280 342.790,251.635 342.358,249.824 338.729 C 247.810 334.690,249.364 332.390,257.055 328.029 C 264.438 323.842,266.000 322.873,266.000 322.480 C 266.000 322.221,263.813 320.841,259.800 318.569 C 255.456 316.109,251.666 313.810,251.059 313.266 C 247.169 309.779,249.776 303.188,255.038 303.207 C 256.957 303.214,257.653 303.505,262.400 306.279 C 268.803 310.021,272.246 311.879,272.500 311.730 C 272.665 311.632,272.800 307.502,272.800 302.550 C 272.800 293.602,272.927 292.616,274.253 291.290 C 276.044 289.498,279.360 289.091,281.504 290.398 M347.241 290.514 C 349.748 292.201,349.959 293.156,349.981 302.900 C 349.996 309.673,350.113 311.600,350.510 311.600 C 350.790 311.600,353.355 310.236,356.210 308.569 C 364.977 303.448,365.496 303.200,367.445 303.200 C 371.429 303.200,374.086 306.550,373.120 310.356 C 372.590 312.445,371.465 313.541,367.454 315.881 C 363.926 317.939,363.762 318.032,360.192 320.044 C 355.332 322.781,354.885 321.918,363.800 327.000 C 373.666 332.624,375.634 335.786,371.862 339.952 C 369.285 342.797,366.853 342.644,361.100 339.278 C 360.275 338.795,358.970 338.040,358.200 337.600 C 356.742 336.767,355.435 336.013,352.400 334.253 C 351.410 333.679,350.465 333.207,350.300 333.205 C 350.135 333.202,350.000 337.180,350.000 342.046 C 350.000 353.056,348.874 355.600,344.000 355.600 C 339.146 355.600,338.000 352.979,338.000 341.874 C 338.000 337.103,337.865 333.201,337.700 333.203 C 337.444 333.206,334.548 334.816,329.800 337.597 C 322.243 342.023,321.112 342.429,318.631 341.610 C 316.257 340.827,314.800 338.659,314.800 335.909 C 314.800 332.788,315.899 331.762,324.588 326.772 C 328.321 324.628,331.428 322.716,331.492 322.523 C 331.557 322.330,328.382 320.329,324.438 318.077 C 315.868 313.183,314.800 312.172,314.800 308.948 C 314.800 304.191,319.529 301.588,323.788 304.000 C 324.565 304.440,325.867 305.178,326.682 305.639 C 327.498 306.101,330.172 307.631,332.624 309.039 C 335.077 310.448,337.278 311.600,337.515 311.600 C 337.807 311.600,337.987 308.659,338.073 302.500 C 338.188 294.250,338.273 293.292,338.983 292.244 C 340.807 289.550,344.620 288.751,347.241 290.514 " stroke="none" fill="#f4ecf4" fill-rule="evenodd"></path><path id="path2" d="M125.862 147.500 C 125.760 147.665,127.982 147.800,130.800 147.800 C 133.618 147.800,135.840 147.665,135.738 147.500 C 135.636 147.335,133.414 147.200,130.800 147.200 C 128.186 147.200,125.964 147.335,125.862 147.500 M177.633 148.143 C 178.057 148.507,180.800 148.708,180.800 148.375 C 180.800 148.169,180.050 148.000,179.133 148.000 C 178.217 148.000,177.542 148.065,177.633 148.143 M199.745 149.078 C 200.177 149.511,201.200 149.571,201.200 149.165 C 201.200 148.964,200.810 148.800,200.333 148.800 C 199.857 148.800,199.592 148.925,199.745 149.078 M71.000 149.600 L 67.800 149.853 70.800 149.921 C 72.450 149.957,74.070 149.813,74.400 149.600 C 74.730 149.387,74.820 149.243,74.600 149.279 C 74.380 149.316,72.760 149.461,71.000 149.600 M215.600 150.000 C 217.036 150.460,217.684 150.460,217.400 150.000 C 217.264 149.780,216.578 149.618,215.876 149.640 C 214.657 149.678,214.645 149.694,215.600 150.000 M57.507 150.290 C 58.226 150.379,59.306 150.377,59.907 150.286 C 60.508 150.195,59.920 150.122,58.600 150.124 C 57.280 150.126,56.788 150.201,57.507 150.290 M43.600 150.820 C 38.152 151.131,35.180 151.591,32.400 152.553 C 31.295 152.936,30.021 153.084,29.100 152.937 C 28.112 152.779,27.600 152.852,27.600 153.149 C 27.600 153.397,27.229 153.600,26.776 153.600 C 26.323 153.600,26.064 153.780,26.200 154.000 C 26.337 154.222,26.036 154.403,25.524 154.406 C 24.781 154.411,24.717 154.488,25.200 154.800 C 25.655 155.094,25.486 155.189,24.500 155.194 C 23.785 155.197,23.200 155.380,23.200 155.600 C 23.200 155.820,22.840 156.000,22.400 156.000 C 21.960 156.000,21.600 156.180,21.600 156.400 C 21.600 156.620,21.357 156.800,21.059 156.800 C 20.762 156.800,19.952 157.342,19.259 158.003 C 18.567 158.665,18.000 159.103,18.000 158.976 C 18.000 158.583,15.600 160.431,13.959 162.089 C 13.099 162.958,12.514 163.861,12.659 164.096 C 12.810 164.340,12.736 164.408,12.486 164.253 C 12.092 164.009,10.000 165.845,10.000 166.435 C 10.000 166.568,9.640 167.093,9.200 167.600 C 8.760 168.107,8.400 168.815,8.400 169.173 C 8.400 169.531,8.040 170.083,7.600 170.400 C 7.160 170.717,6.800 171.297,6.800 171.688 C 6.800 172.080,6.620 172.400,6.400 172.400 C 6.180 172.400,6.000 172.760,6.000 173.200 C 6.000 173.640,5.820 174.000,5.600 174.000 C 5.380 174.000,5.200 174.360,5.200 174.800 C 5.200 175.240,5.020 175.600,4.800 175.600 C 4.580 175.600,4.400 176.050,4.400 176.600 C 4.400 177.150,4.220 177.600,4.000 177.600 C 3.780 177.600,3.600 178.140,3.600 178.800 C 3.600 179.460,3.420 180.000,3.200 180.000 C 2.980 180.000,2.800 180.191,2.800 180.424 C 2.800 180.657,2.984 180.733,3.210 180.594 C 3.435 180.455,3.255 180.989,2.810 181.782 C 2.364 182.575,2.000 183.928,2.000 184.789 C 2.000 185.649,1.820 186.464,1.600 186.600 C 1.366 186.745,1.200 189.063,1.200 192.200 C 1.200 195.144,1.031 197.657,0.825 197.785 C -0.097 198.355,-0.098 308.800,0.825 308.800 C 1.036 308.800,1.200 310.771,1.200 313.320 C 1.200 316.382,1.361 318.014,1.700 318.379 C 2.100 318.810,2.100 318.861,1.700 318.635 C 1.373 318.451,1.200 318.627,1.200 319.143 C 1.200 319.578,1.382 319.994,1.605 320.068 C 1.828 320.143,2.031 321.148,2.057 322.302 C 2.083 323.456,2.261 324.400,2.452 324.400 C 2.644 324.400,2.800 324.940,2.800 325.600 C 2.800 326.260,2.980 326.800,3.200 326.800 C 3.420 326.800,3.600 327.340,3.600 328.000 C 3.600 328.660,3.780 329.200,4.000 329.200 C 4.220 329.200,4.400 329.740,4.400 330.400 C 4.400 331.060,4.580 331.600,4.800 331.600 C 5.020 331.600,5.200 331.960,5.200 332.400 C 5.200 332.840,5.380 333.200,5.600 333.200 C 5.820 333.200,6.000 333.560,6.000 334.000 C 6.000 334.440,6.180 334.800,6.400 334.800 C 6.620 334.800,6.800 335.076,6.800 335.413 C 6.800 335.749,7.069 336.128,7.398 336.254 C 7.726 336.381,7.896 336.645,7.774 336.842 C 7.652 337.039,7.743 337.200,7.976 337.200 C 8.209 337.200,8.400 337.529,8.400 337.930 C 8.400 338.332,8.850 339.083,9.400 339.600 C 9.950 340.117,10.400 340.691,10.400 340.876 C 10.400 341.322,16.288 347.200,16.734 347.200 C 16.925 347.200,17.646 347.740,18.337 348.400 C 19.028 349.060,19.825 349.600,20.108 349.600 C 20.391 349.600,20.883 349.960,21.200 350.400 C 21.517 350.840,22.097 351.200,22.488 351.200 C 22.880 351.200,23.200 351.380,23.200 351.600 C 23.200 351.820,23.560 352.000,24.000 352.000 C 24.440 352.000,24.801 352.135,24.803 352.300 C 24.807 352.659,26.744 353.600,27.480 353.600 C 27.766 353.600,28.000 353.780,28.000 354.000 C 28.000 354.220,28.362 354.400,28.805 354.400 C 29.248 354.400,29.923 354.558,30.305 354.751 C 31.643 355.427,33.816 355.967,35.662 356.083 C 36.685 356.147,37.447 356.324,37.354 356.475 C 37.193 356.735,40.796 356.989,49.800 357.350 C 52.000 357.438,53.307 357.429,52.704 357.329 C 52.102 357.229,51.382 356.840,51.104 356.463 C 50.827 356.086,49.430 354.947,48.000 353.932 C 35.322 344.930,30.272 333.493,29.220 311.400 C 28.990 306.560,28.581 298.550,28.312 293.600 C 27.666 281.731,27.675 225.023,28.325 212.800 C 28.588 207.850,28.987 200.020,29.211 195.400 C 29.783 183.630,30.340 179.682,32.202 174.200 C 35.843 163.482,46.738 151.405,53.348 150.761 C 56.989 150.406,50.135 150.448,43.600 150.820 M246.015 161.184 C 246.777 161.835,247.559 162.375,247.754 162.384 C 247.949 162.393,247.499 161.863,246.754 161.206 C 246.009 160.550,245.227 160.010,245.015 160.006 C 244.803 160.003,245.253 160.533,246.015 161.184 M248.830 163.900 C 249.364 164.505,249.845 165.075,249.900 165.167 C 249.955 165.258,250.083 165.251,250.184 165.149 C 250.418 164.916,248.616 162.800,248.184 162.800 C 248.006 162.800,248.297 163.295,248.830 163.900 M253.153 169.478 C 253.401 169.960,253.783 170.466,254.002 170.601 C 254.687 171.025,254.437 170.405,253.551 169.483 L 252.701 168.600 253.153 169.478 M257.189 177.163 C 257.375 177.811,257.737 178.669,257.994 179.071 C 258.427 179.747,258.440 179.742,258.179 179.000 C 258.024 178.560,257.809 177.792,257.701 177.294 C 257.593 176.796,257.358 176.297,257.178 176.186 C 256.998 176.075,257.003 176.515,257.189 177.163 M62.046 358.037 C 62.565 358.365,65.929 358.572,65.567 358.253 C 65.475 358.172,64.521 358.012,63.446 357.896 C 62.251 357.768,61.707 357.822,62.046 358.037 " stroke="none" fill="#ecc42c" fill-rule="evenodd"></path><path id="path3" d="M123.800 147.846 C 122.480 147.929,112.580 148.081,101.800 148.183 C 80.187 148.390,75.835 148.590,74.632 149.433 C 74.033 149.852,72.464 149.999,68.611 149.997 C 65.745 149.996,60.630 150.207,57.244 150.465 L 51.088 150.936 48.696 152.533 C 35.686 161.221,30.295 173.082,29.211 195.400 C 28.987 200.020,28.588 207.850,28.325 212.800 C 27.675 225.023,27.666 281.731,28.312 293.600 C 28.581 298.550,28.990 306.560,29.220 311.400 C 30.272 333.494,35.302 344.887,48.000 353.939 C 49.430 354.958,50.870 356.116,51.200 356.512 C 51.695 357.107,52.602 357.263,56.400 357.411 C 58.930 357.509,61.632 357.691,62.404 357.814 C 63.858 358.046,67.182 358.161,86.360 358.644 L 97.720 358.930 97.479 356.365 C 97.347 354.954,97.052 352.630,96.825 351.200 C 93.941 333.062,94.497 303.703,98.056 286.200 C 100.262 275.349,109.126 265.498,120.018 261.794 C 124.075 260.414,127.428 260.073,141.600 259.601 C 171.448 258.605,187.604 258.302,223.600 258.058 L 261.800 257.800 261.900 239.600 C 261.961 228.277,261.851 221.098,261.606 220.600 C 261.390 220.160,261.119 215.840,261.005 211.000 C 260.629 195.083,260.365 189.405,259.980 189.020 C 259.771 188.811,259.600 187.774,259.600 186.715 C 259.600 185.656,259.439 184.477,259.242 184.095 C 259.046 183.713,258.704 182.500,258.483 181.400 C 258.056 179.277,257.056 176.258,256.397 175.105 C 256.179 174.723,256.000 174.138,256.000 173.805 C 256.000 173.472,255.850 173.200,255.668 173.200 C 255.485 173.200,255.080 172.707,254.768 172.104 C 253.032 168.752,249.752 164.484,247.037 162.045 C 246.398 161.470,245.228 160.416,244.437 159.702 C 243.647 158.988,242.803 158.403,242.562 158.402 C 242.321 158.401,241.798 158.040,241.400 157.600 C 241.002 157.160,240.449 156.800,240.171 156.800 C 239.894 156.800,239.607 156.665,239.533 156.500 C 239.345 156.076,234.401 153.600,233.744 153.600 C 233.445 153.600,233.200 153.464,233.200 153.297 C 233.200 152.931,230.333 152.000,229.206 152.000 C 228.763 152.000,228.400 151.820,228.400 151.600 C 228.400 151.380,227.626 151.200,226.680 151.200 C 225.734 151.200,224.789 151.037,224.580 150.838 C 224.371 150.640,222.220 150.391,219.800 150.286 C 217.380 150.181,214.976 149.990,214.458 149.862 C 213.940 149.734,210.476 149.608,206.760 149.581 C 203.045 149.553,199.916 149.388,199.808 149.212 C 199.699 149.037,195.357 148.863,190.158 148.826 C 184.959 148.789,179.872 148.599,178.853 148.403 C 177.834 148.208,168.900 148.037,159.000 148.024 C 149.100 148.010,137.670 147.931,133.600 147.847 C 129.530 147.764,125.120 147.763,123.800 147.846 " stroke="none" fill="#f4db44" fill-rule="evenodd"></path><path id="path4" d="M260.404 79.796 C 260.132 80.123,259.795 80.327,259.655 80.248 C 259.378 80.093,257.805 81.603,257.713 82.112 C 257.570 82.901,256.573 84.800,256.302 84.800 C 256.136 84.800,256.000 85.155,256.000 85.588 C 256.000 86.021,255.640 87.017,255.200 87.800 C 254.760 88.583,254.400 89.489,254.400 89.812 C 254.400 90.135,254.220 90.400,254.000 90.400 C 253.780 90.400,253.600 90.760,253.600 91.200 C 253.600 91.640,253.420 92.000,253.200 92.000 C 252.980 92.000,252.800 92.360,252.800 92.800 C 252.800 93.240,252.620 93.600,252.400 93.600 C 252.180 93.600,252.000 93.870,252.000 94.200 C 252.000 94.530,251.820 94.800,251.600 94.800 C 251.380 94.800,251.200 95.160,251.200 95.600 C 251.200 96.040,251.020 96.400,250.800 96.400 C 250.580 96.400,250.400 96.850,250.400 97.400 C 250.400 97.950,250.220 98.400,250.000 98.400 C 249.780 98.400,249.600 98.760,249.600 99.200 C 249.600 99.640,249.440 100.000,249.244 100.000 C 249.048 100.000,248.649 100.810,248.357 101.800 C 248.065 102.790,247.685 103.600,247.513 103.600 C 247.341 103.600,247.200 103.960,247.200 104.400 C 247.200 104.840,247.020 105.200,246.800 105.200 C 246.580 105.200,246.400 105.549,246.400 105.976 C 246.400 106.403,246.220 106.864,246.000 107.000 C 245.780 107.136,245.600 107.651,245.600 108.144 C 245.600 108.637,245.380 109.260,245.110 109.530 C 244.723 109.917,244.723 110.185,245.110 110.805 C 245.380 111.236,245.600 111.864,245.600 112.200 C 245.600 112.891,246.325 114.272,247.160 115.173 C 249.535 117.735,256.496 117.143,257.425 114.300 C 257.551 113.915,257.806 113.600,257.992 113.600 C 258.178 113.600,258.451 112.880,258.600 112.000 C 258.749 111.120,259.034 110.400,259.235 110.400 C 259.436 110.400,259.600 110.040,259.600 109.600 C 259.600 109.160,259.780 108.800,260.000 108.800 C 260.220 108.800,260.400 108.440,260.400 108.000 C 260.400 107.560,260.580 107.200,260.800 107.200 C 261.020 107.200,261.200 106.930,261.200 106.600 C 261.200 106.270,261.380 106.000,261.600 106.000 C 261.820 106.000,262.000 105.539,262.000 104.976 C 262.000 104.396,262.173 104.060,262.400 104.200 C 262.620 104.336,262.800 104.059,262.800 103.585 C 262.800 103.111,263.121 102.246,263.514 101.662 C 263.907 101.078,264.468 100.060,264.761 99.400 C 265.054 98.740,265.452 97.887,265.647 97.505 C 265.841 97.123,266.000 96.538,266.000 96.205 C 266.000 95.872,266.180 95.600,266.400 95.600 C 266.620 95.600,266.800 95.240,266.800 94.800 C 266.800 94.360,266.980 94.000,267.200 94.000 C 267.420 94.000,267.600 93.655,267.600 93.233 C 267.600 92.812,267.735 92.407,267.900 92.333 C 268.927 91.877,270.000 88.562,270.000 85.846 C 270.000 82.863,268.347 80.000,266.624 80.000 C 266.307 80.000,265.936 79.820,265.800 79.600 C 265.397 78.947,260.975 79.108,260.404 79.796 M287.103 108.630 C 286.977 108.757,286.632 108.903,286.337 108.954 C 285.031 109.184,282.756 110.007,281.105 110.847 C 280.723 111.041,280.136 111.200,279.800 111.200 C 279.464 111.200,278.787 111.408,278.295 111.662 C 276.369 112.658,275.983 112.800,275.205 112.800 C 274.762 112.800,274.400 112.980,274.400 113.200 C 274.400 113.420,274.127 113.600,273.794 113.600 C 272.824 113.600,270.000 114.566,270.000 114.897 C 270.000 115.064,269.460 115.200,268.800 115.200 C 268.140 115.200,267.600 115.380,267.600 115.600 C 267.600 115.820,267.060 116.000,266.400 116.000 C 265.740 116.000,265.200 116.180,265.200 116.400 C 265.200 116.620,264.935 116.800,264.612 116.800 C 262.898 116.800,259.554 118.873,258.936 120.319 C 258.587 121.133,258.144 122.113,257.951 122.495 C 257.475 123.437,257.506 125.200,258.000 125.200 C 258.220 125.200,258.400 125.738,258.400 126.397 C 258.400 127.769,260.433 130.000,261.683 130.000 C 262.103 130.000,262.336 130.180,262.200 130.400 C 262.046 130.650,262.863 130.800,264.376 130.800 C 265.725 130.800,266.800 130.623,266.800 130.400 C 266.800 130.180,267.340 130.000,268.000 130.000 C 268.660 130.000,269.200 129.853,269.200 129.672 C 269.200 129.492,270.111 129.096,271.225 128.793 C 272.339 128.490,273.340 128.097,273.449 127.921 C 273.558 127.744,273.997 127.600,274.424 127.600 C 274.851 127.600,275.200 127.420,275.200 127.200 C 275.200 126.980,275.740 126.800,276.400 126.800 C 277.060 126.800,277.600 126.620,277.600 126.400 C 277.600 126.180,278.140 126.000,278.800 126.000 C 279.460 126.000,280.000 125.820,280.000 125.600 C 280.000 125.380,280.495 125.199,281.100 125.198 C 281.705 125.196,282.650 124.965,283.200 124.685 C 283.750 124.404,285.010 123.924,286.000 123.617 C 286.990 123.311,287.971 122.912,288.180 122.730 C 288.389 122.549,289.064 122.400,289.680 122.400 C 290.296 122.400,290.800 122.220,290.800 122.000 C 290.800 121.780,291.072 121.600,291.405 121.600 C 292.725 121.600,295.600 119.299,295.600 118.242 C 295.600 117.915,295.780 117.536,296.000 117.400 C 297.708 116.344,295.552 110.238,293.053 109.052 C 291.749 108.433,287.595 108.139,287.103 108.630 M261.800 136.096 C 259.815 136.776,258.818 137.305,258.992 137.587 C 259.083 137.734,258.807 138.107,258.379 138.415 C 257.950 138.724,257.600 139.286,257.600 139.665 C 257.600 140.043,257.412 140.469,257.182 140.611 C 256.952 140.753,256.804 141.745,256.852 142.815 C 256.901 143.885,257.089 144.668,257.271 144.556 C 257.452 144.444,257.600 144.717,257.600 145.163 C 257.600 146.190,259.966 148.800,260.897 148.800 C 261.284 148.800,261.600 148.980,261.600 149.200 C 261.600 149.420,261.960 149.600,262.400 149.600 C 262.840 149.600,263.200 149.736,263.200 149.902 C 263.200 150.069,263.785 150.442,264.500 150.733 C 265.215 151.023,266.492 151.607,267.338 152.030 C 268.184 152.454,269.129 152.800,269.438 152.800 C 269.747 152.800,270.000 152.980,270.000 153.200 C 270.000 153.420,270.360 153.600,270.800 153.600 C 271.240 153.600,271.600 153.780,271.600 154.000 C 271.600 154.220,271.834 154.400,272.120 154.400 C 272.856 154.400,274.793 155.341,274.797 155.700 C 274.799 155.865,275.025 156.003,275.300 156.007 C 275.575 156.010,277.060 156.640,278.600 157.406 C 280.140 158.172,281.704 158.799,282.076 158.800 C 282.448 158.800,282.864 158.980,283.000 159.200 C 283.136 159.420,283.597 159.600,284.024 159.600 C 284.451 159.600,284.800 159.780,284.800 160.000 C 284.800 160.229,286.002 160.400,287.606 160.400 C 290.496 160.400,293.183 159.294,293.195 158.100 C 293.198 157.825,293.380 157.600,293.600 157.600 C 293.835 157.600,294.000 156.226,294.000 154.278 C 294.000 150.785,292.512 148.000,290.646 148.000 C 290.291 148.000,290.000 147.820,290.000 147.600 C 290.000 147.380,289.730 147.200,289.400 147.200 C 289.070 147.200,288.800 147.020,288.800 146.800 C 288.800 146.580,288.440 146.400,288.000 146.400 C 287.560 146.400,287.200 146.220,287.200 146.000 C 287.200 145.780,287.065 145.644,286.900 145.698 C 286.735 145.752,285.610 145.319,284.400 144.736 C 280.753 142.978,278.655 142.083,276.883 141.531 C 275.958 141.242,275.200 140.869,275.200 140.703 C 275.200 140.536,274.930 140.400,274.600 140.400 C 274.270 140.400,274.000 140.220,274.000 140.000 C 274.000 139.780,273.640 139.600,273.200 139.600 C 272.760 139.600,272.400 139.420,272.400 139.200 C 272.400 138.980,272.040 138.800,271.600 138.800 C 271.160 138.800,270.800 138.620,270.800 138.400 C 270.800 138.180,270.440 138.000,270.000 138.000 C 269.560 138.000,269.200 137.820,269.200 137.600 C 269.200 137.380,268.840 137.200,268.400 137.200 C 267.960 137.200,267.600 137.059,267.600 136.887 C 267.600 136.715,267.113 136.534,266.518 136.485 C 265.922 136.436,265.256 136.216,265.038 135.998 C 264.553 135.513,263.400 135.548,261.800 136.096 M71.500 149.482 C 71.995 149.578,72.805 149.578,73.300 149.482 C 73.795 149.387,73.390 149.309,72.400 149.309 C 71.410 149.309,71.005 149.387,71.500 149.482 M64.900 149.887 C 65.505 149.978,66.495 149.978,67.100 149.887 C 67.705 149.795,67.210 149.720,66.000 149.720 C 64.790 149.720,64.295 149.795,64.900 149.887 M53.900 150.282 C 54.395 150.378,55.205 150.378,55.700 150.282 C 56.195 150.187,55.790 150.109,54.800 150.109 C 53.810 150.109,53.405 150.187,53.900 150.282 M340.122 291.029 L 339.000 292.058 340.300 291.154 C 341.015 290.657,341.600 290.193,341.600 290.125 C 341.600 289.809,341.158 290.080,340.122 291.029 M346.600 290.257 C 348.637 292.064,349.387 292.591,348.602 291.663 C 348.166 291.148,347.447 290.541,347.004 290.314 C 346.562 290.087,346.380 290.062,346.600 290.257 M153.389 302.995 C 153.399 311.112,153.455 311.794,154.108 311.854 C 154.588 311.898,154.623 311.858,154.215 311.731 C 153.711 311.574,153.596 310.161,153.496 302.872 L 153.377 294.200 153.389 302.995 M141.600 303.047 C 141.600 311.690,141.600 311.693,140.742 311.469 C 140.130 311.309,140.008 311.368,140.315 311.675 C 140.552 311.912,141.028 311.998,141.373 311.866 C 141.979 311.633,142.400 294.400,141.800 294.400 C 141.690 294.400,141.600 298.291,141.600 303.047 M338.000 303.047 C 338.000 311.690,338.000 311.693,337.142 311.469 C 336.530 311.309,336.408 311.368,336.715 311.675 C 336.952 311.912,337.428 311.998,337.773 311.866 C 338.379 311.633,338.800 294.400,338.200 294.400 C 338.090 294.400,338.000 298.291,338.000 303.047 M218.891 303.700 C 218.804 311.681,218.830 312.000,219.576 312.000 C 220.003 312.000,220.454 311.837,220.577 311.637 C 220.700 311.438,220.445 311.368,220.009 311.482 C 219.241 311.682,219.213 311.437,219.100 303.544 L 218.982 295.400 218.891 303.700 M185.201 304.998 C 184.686 305.548,184.339 306.064,184.432 306.146 C 184.524 306.228,185.019 305.778,185.530 305.147 C 186.676 303.735,186.474 303.644,185.201 304.998 M305.994 305.003 C 307.587 306.921,307.721 307.045,307.286 306.196 C 307.059 305.753,306.452 305.034,305.937 304.598 C 305.033 303.834,305.035 303.848,305.994 305.003 M162.200 307.200 C 161.540 307.637,161.180 307.992,161.400 307.988 C 161.801 307.982,163.976 306.423,163.600 306.412 C 163.490 306.408,162.860 306.763,162.200 307.200 M183.843 307.433 C 183.512 308.295,183.547 310.098,183.906 310.662 C 184.068 310.916,184.200 310.151,184.200 308.962 C 184.200 306.571,184.190 306.528,183.843 307.433 M242.114 309.000 C 242.117 310.100,242.195 310.503,242.287 309.895 C 242.379 309.286,242.377 308.386,242.282 307.895 C 242.187 307.403,242.111 307.900,242.114 309.000 M307.701 309.000 C 307.705 309.880,307.787 310.193,307.883 309.695 C 307.979 309.198,307.975 308.478,307.875 308.095 C 307.775 307.713,307.696 308.120,307.701 309.000 M159.400 308.800 C 158.740 309.237,158.380 309.592,158.600 309.588 C 159.001 309.582,161.176 308.023,160.800 308.012 C 160.690 308.008,160.060 308.363,159.400 308.800 M270.400 311.164 C 270.950 311.614,271.580 311.983,271.800 311.985 C 272.228 311.988,271.505 311.434,270.200 310.760 C 269.669 310.485,269.736 310.621,270.400 311.164 M307.200 311.103 C 307.200 311.342,306.711 312.137,306.114 312.869 C 305.221 313.964,305.192 314.059,305.951 313.404 C 307.029 312.475,307.765 311.231,307.432 310.899 C 307.305 310.771,307.200 310.863,307.200 311.103 M239.800 313.468 C 238.920 314.257,238.560 314.716,239.000 314.488 C 239.741 314.104,241.951 311.979,241.570 312.017 C 241.476 312.026,240.680 312.679,239.800 313.468 M167.100 317.829 C 165.605 318.640,165.696 318.978,167.200 318.200 C 167.860 317.859,168.400 317.494,168.400 317.390 C 168.400 317.132,168.357 317.147,167.100 317.829 M198.000 320.579 C 198.000 320.689,198.540 321.059,199.200 321.400 C 199.860 321.741,200.400 321.931,200.400 321.821 C 200.400 321.711,199.860 321.341,199.200 321.000 C 198.540 320.659,198.000 320.469,198.000 320.579 M134.559 321.765 C 135.222 322.298,135.248 322.465,134.759 323.087 C 134.250 323.736,134.263 323.751,134.900 323.251 C 135.831 322.521,135.782 322.117,134.700 321.592 C 133.847 321.178,133.839 321.187,134.559 321.765 M265.359 321.765 C 266.022 322.298,266.048 322.465,265.559 323.087 C 265.050 323.736,265.063 323.751,265.700 323.251 C 266.631 322.521,266.582 322.117,265.500 321.592 C 264.647 321.178,264.639 321.187,265.359 321.765 M131.000 325.200 C 130.340 325.637,129.980 325.992,130.200 325.988 C 130.601 325.982,132.776 324.423,132.400 324.412 C 132.290 324.408,131.660 324.763,131.000 325.200 M168.000 327.620 C 169.387 328.561,170.178 328.835,169.200 328.036 C 168.650 327.586,168.020 327.217,167.800 327.215 C 167.580 327.213,167.670 327.396,168.000 327.620 M234.800 328.364 C 235.350 328.814,235.980 329.183,236.200 329.185 C 236.628 329.188,235.905 328.634,234.600 327.960 C 234.069 327.685,234.136 327.821,234.800 328.364 M321.800 328.400 C 321.140 328.837,320.780 329.192,321.000 329.188 C 321.401 329.182,323.576 327.623,323.200 327.612 C 323.090 327.608,322.460 327.963,321.800 328.400 M122.000 330.436 C 121.336 330.979,121.269 331.115,121.800 330.840 C 123.105 330.166,123.828 329.612,123.400 329.615 C 123.180 329.617,122.550 329.986,122.000 330.436 M253.100 330.229 C 251.605 331.040,251.696 331.378,253.200 330.600 C 253.860 330.259,254.400 329.894,254.400 329.790 C 254.400 329.532,254.357 329.547,253.100 330.229 M240.799 332.300 C 241.322 333.015,241.813 333.600,241.889 333.600 C 242.193 333.600,241.201 332.100,240.545 331.567 C 240.113 331.216,240.210 331.496,240.799 332.300 M140.607 333.189 C 140.460 333.426,140.579 333.570,140.870 333.510 C 141.292 333.422,141.444 335.159,141.616 342.000 L 141.832 350.600 141.816 341.833 C 141.801 333.428,141.553 331.658,140.607 333.189 M153.649 333.311 C 153.339 333.621,153.227 336.433,153.288 342.380 L 153.376 351.000 153.588 342.200 C 153.783 334.107,153.856 333.409,154.500 333.518 C 155.333 333.657,155.429 333.373,154.649 333.074 C 154.346 332.958,153.896 333.064,153.649 333.311 M205.500 333.429 C 204.035 334.223,204.080 334.586,205.549 333.826 C 206.181 333.499,206.840 333.360,207.013 333.516 C 207.187 333.672,207.199 333.575,207.041 333.300 C 206.882 333.025,206.718 332.807,206.676 332.816 C 206.634 332.825,206.105 333.101,205.500 333.429 M218.979 333.312 C 218.870 333.593,218.832 337.328,218.892 341.612 L 219.002 349.400 219.201 341.100 C 219.396 332.964,219.376 332.275,218.979 333.312 M337.999 341.919 L 338.199 351.000 338.307 342.228 C 338.367 337.403,338.277 333.317,338.108 333.147 C 337.939 332.978,337.890 336.925,337.999 341.919 M242.120 336.000 C 242.120 337.210,242.195 337.705,242.287 337.100 C 242.378 336.495,242.378 335.505,242.287 334.900 C 242.195 334.295,242.120 334.790,242.120 336.000 M307.709 336.000 C 307.709 336.990,307.787 337.395,307.882 336.900 C 307.978 336.405,307.978 335.595,307.882 335.100 C 307.787 334.605,307.709 335.010,307.709 336.000 M183.606 336.033 C 183.609 336.785,183.777 337.661,183.979 337.979 C 184.216 338.354,184.265 337.930,184.118 336.779 C 183.835 334.570,183.598 334.225,183.606 336.033 M266.600 336.000 C 265.940 336.437,265.580 336.792,265.800 336.788 C 266.201 336.782,268.376 335.223,268.000 335.212 C 267.890 335.208,267.260 335.563,266.600 336.000 M118.800 338.658 C 118.800 338.874,119.385 339.579,120.100 340.225 L 121.400 341.400 120.200 340.002 C 119.540 339.233,118.955 338.528,118.900 338.435 C 118.845 338.343,118.800 338.443,118.800 338.658 M371.429 339.962 L 370.258 341.400 371.609 340.113 C 372.351 339.405,372.878 338.758,372.779 338.675 C 372.681 338.592,372.073 339.171,371.429 339.962 M195.100 339.429 C 193.605 340.240,193.696 340.578,195.200 339.800 C 195.860 339.459,196.400 339.094,196.400 338.990 C 196.400 338.732,196.357 338.747,195.100 339.429 M324.400 340.436 C 323.736 340.979,323.669 341.115,324.200 340.840 C 325.505 340.166,326.228 339.612,325.800 339.615 C 325.580 339.617,324.950 339.986,324.400 340.436 M174.583 340.428 C 174.437 340.663,173.932 341.012,173.459 341.203 C 172.873 341.439,172.803 341.557,173.238 341.575 C 173.589 341.589,174.202 341.240,174.600 340.800 C 174.998 340.360,175.217 340.000,175.086 340.000 C 174.954 340.000,174.728 340.193,174.583 340.428 M305.000 340.800 C 304.340 341.237,303.980 341.592,304.200 341.588 C 304.601 341.582,306.776 340.023,306.400 340.012 C 306.290 340.008,305.660 340.363,305.000 340.800 M123.505 341.883 C 124.002 341.979,124.722 341.975,125.105 341.875 C 125.487 341.775,125.080 341.696,124.200 341.701 C 123.320 341.705,123.007 341.787,123.505 341.883 M170.500 341.876 C 170.885 341.976,171.515 341.976,171.900 341.876 C 172.285 341.775,171.970 341.693,171.200 341.693 C 170.430 341.693,170.115 341.775,170.500 341.876 M189.105 341.883 C 189.602 341.979,190.322 341.975,190.705 341.875 C 191.087 341.775,190.680 341.696,189.800 341.701 C 188.920 341.705,188.607 341.787,189.105 341.883 M235.905 341.883 C 236.402 341.979,237.122 341.975,237.505 341.875 C 237.887 341.775,237.480 341.696,236.600 341.701 C 235.720 341.705,235.407 341.787,235.905 341.883 M254.305 341.883 C 254.802 341.979,255.522 341.975,255.905 341.875 C 256.287 341.775,255.880 341.696,255.000 341.701 C 254.120 341.705,253.807 341.787,254.305 341.883 M301.300 341.876 C 301.685 341.976,302.315 341.976,302.700 341.876 C 303.085 341.775,302.770 341.693,302.000 341.693 C 301.230 341.693,300.915 341.775,301.300 341.876 M319.700 341.876 C 320.085 341.976,320.715 341.976,321.100 341.876 C 321.485 341.775,321.170 341.693,320.400 341.693 C 319.630 341.693,319.315 341.775,319.700 341.876 M366.705 341.883 C 367.202 341.979,367.922 341.975,368.305 341.875 C 368.687 341.775,368.280 341.696,367.400 341.701 C 366.520 341.705,366.207 341.787,366.705 341.883 M349.646 350.067 C 349.621 350.434,349.496 351.064,349.370 351.467 C 349.152 352.162,349.163 352.163,349.597 351.487 C 349.848 351.096,349.973 350.466,349.873 350.087 C 349.711 349.468,349.688 349.466,349.646 350.067 M217.182 353.422 C 216.381 354.387,215.163 354.939,213.200 355.228 L 211.400 355.493 212.920 355.547 C 214.604 355.606,216.207 354.919,217.363 353.641 C 217.782 353.178,218.028 352.800,217.911 352.800 C 217.794 352.800,217.466 353.080,217.182 353.422 M274.887 354.100 C 275.506 354.705,276.235 355.195,276.506 355.188 C 276.778 355.181,276.640 354.977,276.200 354.733 C 275.760 354.490,275.031 354.000,274.581 353.645 C 274.130 353.290,274.268 353.495,274.887 354.100 M145.646 355.237 C 146.165 355.565,149.529 355.772,149.167 355.453 C 149.075 355.372,148.121 355.212,147.046 355.096 C 145.851 354.968,145.307 355.022,145.646 355.237 M277.905 355.483 C 278.402 355.579,279.122 355.575,279.505 355.475 C 279.887 355.375,279.480 355.296,278.600 355.301 C 277.720 355.305,277.407 355.387,277.905 355.483 M343.100 355.482 C 343.595 355.578,344.405 355.578,344.900 355.482 C 345.395 355.387,344.990 355.309,344.000 355.309 C 343.010 355.309,342.605 355.387,343.100 355.482 M193.105 387.883 C 193.602 387.979,194.322 387.975,194.705 387.875 C 195.087 387.775,194.680 387.696,193.800 387.701 C 192.920 387.705,192.607 387.787,193.105 387.883 M300.100 387.876 C 300.485 387.976,301.115 387.976,301.500 387.876 C 301.885 387.775,301.570 387.693,300.800 387.693 C 300.030 387.693,299.715 387.775,300.100 387.876 " stroke="none" fill="#dc646c" fill-rule="evenodd"></path></g></svg>