<svg id="svg" version="1.1" xmlns="http://www.w3.org/2000/svg" xmlns:xlink="http://www.w3.org/1999/xlink" width="400" height="400" viewBox="0, 0, 400,400"><g id="svgg"><path id="path0" d="M163.000 57.816 C 144.080 60.061,130.365 72.547,125.893 91.600 C 125.631 92.716,125.415 102.402,125.323 117.100 L 125.176 140.800 131.904 140.800 C 141.575 140.800,145.149 139.614,147.906 135.489 C 149.905 132.497,150.083 131.708,150.395 124.400 C 150.787 115.208,152.776 111.168,158.156 108.640 C 162.347 106.671,163.975 106.768,174.400 109.607 C 184.240 112.287,196.427 113.527,205.843 112.806 C 215.211 112.089,219.358 111.341,229.470 108.546 C 236.348 106.645,239.406 106.881,243.400 109.622 C 248.185 112.905,249.215 115.353,249.610 124.376 C 250.190 137.652,253.240 140.501,267.110 140.724 L 274.819 140.848 274.710 118.124 L 274.600 95.400 273.307 92.670 C 270.337 86.400,263.700 82.051,257.000 81.985 C 252.771 81.944,250.016 79.687,249.986 76.241 C 249.912 67.700,243.811 59.974,235.413 57.787 C 232.314 56.979,169.837 57.005,163.000 57.816 M153.557 253.524 C 147.484 256.536,139.229 260.609,135.214 262.575 C 131.199 264.541,127.233 266.643,126.401 267.245 C 125.052 268.222,116.008 271.385,113.095 271.898 C 112.487 272.005,111.892 272.251,111.771 272.446 C 111.651 272.641,111.201 272.800,110.771 272.800 C 110.341 272.800,109.677 272.962,109.295 273.161 C 108.913 273.360,107.790 273.737,106.800 274.000 C 105.810 274.263,104.687 274.640,104.305 274.839 C 103.923 275.038,103.259 275.200,102.829 275.200 C 102.399 275.200,101.936 275.380,101.800 275.600 C 101.664 275.820,101.124 276.000,100.600 276.000 C 100.076 276.000,99.536 276.180,99.400 276.400 C 99.264 276.620,98.634 276.800,98.000 276.800 C 97.366 276.800,96.736 276.980,96.600 277.200 C 96.464 277.420,95.924 277.600,95.400 277.600 C 94.876 277.600,94.336 277.780,94.200 278.000 C 94.064 278.220,93.601 278.400,93.171 278.400 C 92.741 278.400,92.077 278.562,91.695 278.761 C 91.313 278.960,90.190 279.340,89.200 279.607 C 88.210 279.873,87.040 280.233,86.600 280.405 C 86.160 280.578,85.170 280.937,84.400 281.202 C 75.886 284.139,68.190 290.120,62.913 297.901 C 60.662 301.220,58.000 306.248,58.000 307.180 C 58.000 307.417,57.838 307.923,57.639 308.305 C 57.440 308.687,57.095 309.720,56.871 310.600 C 56.647 311.480,56.244 313.010,55.975 314.000 C 55.684 315.074,55.387 320.156,55.240 326.600 L 54.993 337.400 57.316 339.615 C 58.944 341.168,59.564 342.027,59.388 342.488 C 59.141 343.132,67.164 351.600,68.021 351.600 C 68.218 351.600,69.189 352.410,70.179 353.400 C 71.169 354.390,72.126 355.200,72.306 355.200 C 72.486 355.200,73.526 356.009,74.617 356.998 C 75.708 357.987,76.745 358.797,76.922 358.798 C 77.099 358.799,77.819 359.339,78.522 359.998 C 79.225 360.657,79.953 361.197,80.140 361.198 C 80.326 361.199,80.983 361.740,81.600 362.400 C 82.217 363.060,82.969 363.600,83.272 363.600 C 83.575 363.600,84.083 363.960,84.400 364.400 C 84.717 364.840,85.257 365.200,85.600 365.200 C 85.943 365.200,86.483 365.560,86.800 366.000 C 87.117 366.440,87.657 366.800,88.000 366.800 C 88.343 366.800,88.883 367.160,89.200 367.600 C 89.517 368.040,90.057 368.400,90.400 368.400 C 90.743 368.400,91.283 368.760,91.600 369.200 C 91.917 369.640,92.497 370.000,92.888 370.000 C 93.280 370.000,93.600 370.180,93.600 370.400 C 93.600 370.620,93.836 370.800,94.125 370.800 C 94.413 370.800,95.036 371.160,95.508 371.600 C 95.980 372.040,96.539 372.400,96.750 372.400 C 96.961 372.400,97.193 372.557,97.267 372.749 C 97.447 373.221,101.419 375.200,102.187 375.200 C 102.524 375.200,102.800 375.380,102.800 375.600 C 102.800 375.820,103.120 376.000,103.512 376.000 C 103.903 376.000,104.483 376.360,104.800 376.800 C 105.117 377.240,105.697 377.600,106.088 377.600 C 106.480 377.600,106.800 377.780,106.800 378.000 C 106.800 378.220,107.160 378.400,107.600 378.400 C 108.040 378.400,108.401 378.535,108.403 378.700 C 108.407 379.065,110.349 380.000,111.103 380.000 C 111.402 380.000,111.536 380.180,111.400 380.400 C 111.264 380.620,111.416 380.800,111.739 380.800 C 112.244 380.800,113.501 381.342,116.495 382.850 C 116.877 383.043,117.462 383.200,117.795 383.200 C 118.128 383.200,118.400 383.380,118.400 383.600 C 118.400 383.820,118.760 384.000,119.200 384.000 C 119.640 384.000,120.000 384.180,120.000 384.400 C 120.000 384.620,120.349 384.800,120.776 384.800 C 121.203 384.800,121.664 384.980,121.800 385.200 C 121.936 385.420,122.487 385.600,123.024 385.600 C 123.561 385.600,124.000 385.780,124.000 386.000 C 124.000 386.220,124.360 386.400,124.800 386.400 C 125.240 386.400,125.600 386.580,125.600 386.800 C 125.600 387.020,125.962 387.200,126.405 387.200 C 126.848 387.200,127.523 387.359,127.905 387.553 C 128.840 388.029,130.307 388.618,132.000 389.200 C 132.770 389.464,133.760 389.823,134.200 389.997 C 136.018 390.715,139.355 391.600,140.246 391.600 C 140.771 391.600,141.200 391.780,141.200 392.000 C 141.200 392.220,141.830 392.400,142.600 392.400 C 143.370 392.400,144.000 392.580,144.000 392.800 C 144.000 393.020,144.630 393.200,145.400 393.200 C 146.170 393.200,146.800 393.380,146.800 393.600 C 146.800 393.820,147.419 394.000,148.176 394.000 C 148.933 394.000,149.664 394.180,149.800 394.400 C 149.936 394.620,150.667 394.800,151.424 394.800 C 152.181 394.800,152.800 394.980,152.800 395.200 C 152.800 395.420,153.509 395.600,154.376 395.600 C 155.243 395.600,156.064 395.780,156.200 396.000 C 156.336 396.220,157.236 396.400,158.200 396.400 C 159.164 396.400,160.064 396.580,160.200 396.800 C 160.336 397.020,161.337 397.200,162.424 397.200 C 163.511 397.200,164.400 397.380,164.400 397.600 C 164.400 397.822,165.467 398.000,166.800 398.000 C 168.133 398.000,169.200 398.178,169.200 398.400 C 169.200 398.628,170.389 398.800,171.967 398.800 C 173.488 398.800,174.794 398.983,174.869 399.207 C 175.007 399.620,196.800 400.330,196.800 399.921 C 196.800 399.807,195.075 396.133,192.966 391.757 C 188.857 383.231,187.778 380.939,186.393 377.800 C 185.908 376.700,185.081 374.850,184.555 373.688 C 184.030 372.527,183.600 371.497,183.600 371.400 C 183.600 371.303,183.167 370.273,182.638 369.112 C 181.629 366.896,178.892 360.281,176.757 354.900 C 175.977 352.934,175.583 351.961,175.220 351.100 C 175.011 350.605,174.574 349.390,174.249 348.400 C 173.924 347.410,173.029 344.800,172.262 342.600 C 170.406 337.285,167.758 328.934,166.746 325.208 C 166.296 323.553,165.753 321.570,165.538 320.800 C 163.786 314.524,161.925 305.696,160.773 298.200 C 160.537 296.660,160.163 294.320,159.943 293.000 C 159.300 289.137,159.039 272.265,159.566 268.600 C 160.402 262.783,161.570 257.763,162.848 254.500 C 163.041 254.005,163.354 253.195,163.543 252.700 C 163.732 252.205,164.272 251.018,164.743 250.062 C 165.214 249.106,165.600 248.251,165.600 248.162 C 165.600 247.656,163.553 248.568,153.557 253.524 M234.470 248.300 C 234.545 248.465,235.074 249.590,235.646 250.800 C 236.713 253.055,237.965 256.562,238.717 259.400 C 239.118 260.917,239.363 262.165,240.369 267.824 C 240.891 270.761,240.943 286.994,240.439 290.027 C 240.241 291.222,239.866 293.820,239.606 295.800 C 239.347 297.780,238.964 300.300,238.755 301.400 C 237.308 309.036,236.809 311.414,235.546 316.700 C 234.219 322.257,229.801 337.349,228.784 339.800 C 228.602 340.240,228.069 341.770,227.600 343.200 C 227.131 344.630,226.597 346.160,226.414 346.600 C 226.231 347.040,225.864 348.030,225.600 348.800 C 225.149 350.115,224.937 350.669,224.037 352.900 C 223.837 353.395,223.192 355.060,222.603 356.600 C 222.014 358.140,221.278 359.985,220.966 360.700 C 220.655 361.415,220.144 362.585,219.831 363.300 C 219.518 364.015,218.874 365.590,218.400 366.800 C 217.492 369.116,216.888 370.521,215.392 373.800 C 214.889 374.900,213.900 377.150,213.193 378.800 C 212.485 380.450,209.947 385.833,207.553 390.761 C 205.159 395.690,203.200 399.814,203.200 399.926 C 203.200 400.325,224.998 399.603,225.133 399.199 C 225.207 398.980,226.512 398.800,228.033 398.800 C 229.611 398.800,230.800 398.628,230.800 398.400 C 230.800 398.178,231.867 398.000,233.200 398.000 C 234.533 398.000,235.600 397.822,235.600 397.600 C 235.600 397.380,236.590 397.200,237.800 397.200 C 239.010 397.200,240.000 397.020,240.000 396.800 C 240.000 396.580,240.720 396.400,241.600 396.400 C 242.480 396.400,243.200 396.220,243.200 396.000 C 243.200 395.780,244.100 395.600,245.200 395.600 C 246.300 395.600,247.200 395.420,247.200 395.200 C 247.200 394.980,247.920 394.800,248.800 394.800 C 249.680 394.800,250.400 394.620,250.400 394.400 C 250.400 394.180,251.030 394.000,251.800 394.000 C 252.570 394.000,253.200 393.820,253.200 393.600 C 253.200 393.380,253.830 393.200,254.600 393.200 C 255.370 393.200,256.000 393.020,256.000 392.800 C 256.000 392.580,256.630 392.400,257.400 392.400 C 258.170 392.400,258.800 392.220,258.800 392.000 C 258.800 391.780,259.229 391.600,259.754 391.600 C 260.706 391.600,264.462 390.591,265.600 390.030 C 265.930 389.868,267.055 389.485,268.100 389.180 C 269.145 388.875,270.000 388.485,270.000 388.313 C 270.000 388.141,270.439 388.000,270.976 388.000 C 271.513 388.000,272.064 387.820,272.200 387.600 C 272.336 387.380,272.887 387.200,273.424 387.200 C 273.961 387.200,274.400 387.020,274.400 386.800 C 274.400 386.580,274.760 386.400,275.200 386.400 C 275.640 386.400,276.000 386.220,276.000 386.000 C 276.000 385.780,276.439 385.600,276.976 385.600 C 277.513 385.600,278.064 385.420,278.200 385.200 C 278.336 384.980,278.797 384.800,279.224 384.800 C 279.651 384.800,280.000 384.620,280.000 384.400 C 280.000 384.180,280.360 384.000,280.800 384.000 C 281.240 384.000,281.600 383.820,281.600 383.600 C 281.600 383.380,281.872 383.200,282.205 383.200 C 282.538 383.200,283.123 383.038,283.505 382.841 C 283.887 382.643,285.820 381.700,287.800 380.745 C 289.780 379.789,291.460 378.871,291.533 378.704 C 291.607 378.537,292.012 378.400,292.433 378.400 C 292.855 378.400,293.200 378.220,293.200 378.000 C 293.200 377.780,293.478 377.600,293.817 377.600 C 294.156 377.600,294.820 377.240,295.292 376.800 C 295.764 376.360,296.387 376.000,296.675 376.000 C 296.964 376.000,297.200 375.843,297.200 375.650 C 297.200 375.457,297.755 375.189,298.434 375.053 C 299.112 374.918,300.175 374.445,300.795 374.003 C 301.416 373.561,302.121 373.200,302.362 373.200 C 302.603 373.200,302.800 373.020,302.800 372.800 C 302.800 372.580,302.993 372.400,303.228 372.400 C 303.463 372.400,304.441 371.860,305.400 371.200 C 306.359 370.540,307.297 370.000,307.484 370.000 C 307.671 370.000,308.083 369.640,308.400 369.200 C 308.717 368.760,309.257 368.400,309.600 368.400 C 309.943 368.400,310.483 368.040,310.800 367.600 C 311.117 367.160,311.657 366.800,312.000 366.800 C 312.343 366.800,312.883 366.440,313.200 366.000 C 313.517 365.560,314.057 365.200,314.400 365.200 C 314.743 365.200,315.283 364.840,315.600 364.400 C 315.917 363.960,316.380 363.600,316.629 363.600 C 316.878 363.600,317.646 363.060,318.337 362.400 C 319.028 361.740,319.792 361.200,320.036 361.200 C 320.280 361.200,320.983 360.660,321.600 360.000 C 322.217 359.340,322.874 358.800,323.061 358.800 C 323.247 358.800,324.188 358.080,325.151 357.200 C 326.113 356.320,327.042 355.600,327.215 355.600 C 327.387 355.600,328.558 354.610,329.818 353.400 C 331.077 352.190,332.265 351.200,332.458 351.200 C 333.093 351.200,341.238 342.786,340.991 342.385 C 340.613 341.773,341.857 340.775,342.670 341.039 C 343.199 341.210,343.255 341.171,342.874 340.898 C 342.468 340.606,342.671 340.190,343.774 339.053 L 345.200 337.585 345.200 329.000 C 345.200 316.295,343.979 309.946,340.084 302.402 C 337.481 297.358,330.431 288.400,329.066 288.400 C 328.894 288.400,327.574 287.575,326.132 286.567 C 324.690 285.559,321.955 284.011,320.055 283.127 C 318.155 282.243,316.287 281.358,315.905 281.160 C 315.523 280.962,314.859 280.800,314.429 280.800 C 313.999 280.800,313.536 280.620,313.400 280.400 C 313.264 280.180,312.724 280.000,312.200 280.000 C 311.676 280.000,311.136 279.820,311.000 279.600 C 310.864 279.380,310.401 279.200,309.971 279.200 C 309.541 279.200,308.877 279.038,308.495 278.839 C 308.113 278.640,306.990 278.263,306.000 278.000 C 305.010 277.737,303.887 277.360,303.505 277.161 C 303.123 276.962,302.459 276.800,302.029 276.800 C 301.599 276.800,301.136 276.620,301.000 276.400 C 300.864 276.180,300.324 276.000,299.800 276.000 C 299.276 276.000,298.736 275.820,298.600 275.600 C 298.464 275.380,297.834 275.200,297.200 275.200 C 296.566 275.200,295.936 275.020,295.800 274.800 C 295.664 274.580,295.124 274.400,294.600 274.400 C 294.076 274.400,293.536 274.220,293.400 274.000 C 293.264 273.780,292.801 273.600,292.371 273.600 C 291.941 273.600,291.277 273.438,290.895 273.241 C 290.513 273.044,288.940 272.511,287.400 272.057 C 279.454 269.716,275.205 268.191,273.400 267.034 C 272.300 266.328,268.250 264.206,264.400 262.317 C 260.550 260.428,252.410 256.434,246.310 253.442 C 235.882 248.324,234.136 247.567,234.470 248.300 " stroke="none" fill="#3e6c8f" fill-rule="evenodd"></path><path id="path1" d="M178.500 0.274 C 176.465 0.360,174.800 0.603,174.800 0.815 C 174.800 1.027,173.551 1.200,172.024 1.200 C 170.497 1.200,169.136 1.380,169.000 1.600 C 168.864 1.820,167.784 2.000,166.600 2.000 C 165.416 2.000,164.336 2.180,164.200 2.400 C 164.064 2.620,163.164 2.800,162.200 2.800 C 161.236 2.800,160.336 2.980,160.200 3.200 C 160.064 3.420,159.164 3.600,158.200 3.600 C 157.236 3.600,156.336 3.780,156.200 4.000 C 156.064 4.220,155.243 4.400,154.376 4.400 C 153.509 4.400,152.800 4.580,152.800 4.800 C 152.800 5.020,152.069 5.200,151.176 5.200 C 150.196 5.200,149.651 5.358,149.800 5.600 C 149.947 5.838,149.479 6.000,148.647 6.000 C 147.877 6.000,147.136 6.180,147.000 6.400 C 146.864 6.620,146.234 6.800,145.600 6.800 C 144.966 6.800,144.336 6.980,144.200 7.200 C 144.064 7.420,143.434 7.600,142.800 7.600 C 142.166 7.600,141.551 7.756,141.432 7.947 C 141.314 8.139,140.449 8.436,139.509 8.608 C 138.569 8.781,137.710 8.954,137.600 8.993 C 137.490 9.033,136.860 9.202,136.200 9.370 C 135.540 9.538,134.429 9.930,133.732 10.241 C 133.034 10.552,131.909 10.918,131.232 11.054 C 130.554 11.189,130.000 11.457,130.000 11.650 C 130.000 11.843,129.550 12.000,129.000 12.000 C 128.450 12.000,128.000 12.180,128.000 12.400 C 128.000 12.620,127.460 12.800,126.800 12.800 C 126.140 12.800,125.600 12.980,125.600 13.200 C 125.600 13.420,125.240 13.600,124.800 13.600 C 124.360 13.600,124.000 13.736,124.000 13.902 C 124.000 14.200,121.475 15.200,120.500 15.288 C 120.225 15.313,120.000 15.483,120.000 15.667 C 120.000 15.850,119.640 16.000,119.200 16.000 C 118.760 16.000,118.400 16.180,118.400 16.400 C 118.400 16.620,118.147 16.800,117.838 16.800 C 117.529 16.800,116.584 17.146,115.738 17.570 C 114.892 17.993,113.615 18.577,112.900 18.867 C 112.185 19.158,111.600 19.531,111.600 19.698 C 111.600 19.864,111.240 20.000,110.800 20.000 C 110.360 20.000,110.000 20.180,110.000 20.400 C 110.000 20.620,109.640 20.800,109.200 20.800 C 108.760 20.800,108.400 20.980,108.400 21.200 C 108.400 21.420,108.040 21.600,107.600 21.600 C 107.160 21.600,106.800 21.780,106.800 22.000 C 106.800 22.220,106.564 22.400,106.275 22.400 C 105.987 22.400,105.364 22.760,104.892 23.200 C 104.420 23.640,103.756 24.000,103.417 24.000 C 103.078 24.000,102.800 24.180,102.800 24.400 C 102.800 24.620,102.520 24.800,102.177 24.800 C 101.456 24.800,98.147 26.571,97.058 27.540 C 96.650 27.903,96.200 28.154,96.058 28.097 C 95.916 28.040,95.483 28.265,95.095 28.597 C 94.708 28.929,94.213 29.200,93.995 29.200 C 93.778 29.200,93.600 29.380,93.600 29.600 C 93.600 29.820,93.364 30.000,93.075 30.000 C 92.787 30.000,92.164 30.360,91.692 30.800 C 91.220 31.240,90.622 31.600,90.364 31.600 C 90.105 31.600,89.603 31.916,89.247 32.303 C 88.891 32.689,88.105 33.260,87.500 33.570 C 86.895 33.881,86.400 34.285,86.400 34.468 C 86.400 34.650,86.080 34.800,85.688 34.800 C 85.297 34.800,84.717 35.160,84.400 35.600 C 84.083 36.040,83.628 36.400,83.390 36.400 C 83.151 36.400,82.259 37.039,81.406 37.820 C 80.553 38.601,79.348 39.540,78.728 39.906 C 78.108 40.273,77.600 40.714,77.600 40.886 C 77.600 41.059,77.412 41.200,77.183 41.200 C 76.748 41.200,76.648 41.272,74.454 43.150 C 72.148 45.123,72.000 45.237,72.000 45.031 C 72.000 44.921,71.325 45.505,70.500 46.330 C 69.675 47.154,68.425 48.232,67.722 48.726 C 67.019 49.220,64.679 51.415,62.522 53.604 C 60.365 55.794,58.368 57.813,58.085 58.093 C 50.670 65.396,48.800 67.307,48.800 67.577 C 48.800 67.757,47.878 68.870,46.751 70.052 C 45.624 71.233,44.743 72.262,44.794 72.338 C 44.875 72.458,43.149 74.610,41.700 76.196 C 41.425 76.497,41.200 76.902,41.200 77.097 C 41.200 77.291,40.660 77.968,40.000 78.600 C 39.340 79.232,38.800 79.898,38.800 80.078 C 38.800 80.259,38.260 80.972,37.600 81.663 C 36.940 82.354,36.400 83.122,36.400 83.371 C 36.400 83.620,36.040 84.083,35.600 84.400 C 35.160 84.717,34.800 85.297,34.800 85.688 C 34.800 86.080,34.650 86.400,34.468 86.400 C 34.285 86.400,33.881 86.895,33.570 87.500 C 33.260 88.105,32.689 88.891,32.303 89.247 C 31.916 89.603,31.600 90.148,31.600 90.459 C 31.600 90.769,31.240 91.283,30.800 91.600 C 30.360 91.917,30.000 92.329,30.000 92.516 C 30.000 92.703,29.460 93.641,28.800 94.600 C 28.140 95.559,27.600 96.522,27.600 96.739 C 27.600 96.956,27.463 97.193,27.296 97.267 C 26.875 97.452,24.800 101.555,24.800 102.204 C 24.800 102.495,24.665 102.793,24.500 102.867 C 24.124 103.034,22.825 105.164,22.529 106.100 C 22.407 106.485,22.148 106.800,21.953 106.800 C 21.759 106.800,21.600 107.160,21.600 107.600 C 21.600 108.040,21.420 108.400,21.200 108.400 C 20.980 108.400,20.800 108.760,20.800 109.200 C 20.800 109.640,20.665 110.001,20.500 110.003 C 20.141 110.007,19.200 111.944,19.200 112.680 C 19.200 112.966,19.065 113.201,18.900 113.203 C 18.494 113.207,17.600 115.186,17.600 116.080 C 17.600 116.476,17.420 116.800,17.200 116.800 C 16.980 116.800,16.800 117.160,16.800 117.600 C 16.800 118.040,16.620 118.400,16.400 118.400 C 16.180 118.400,16.000 118.760,16.000 119.200 C 16.000 119.640,15.820 120.000,15.600 120.000 C 15.380 120.000,15.200 120.349,15.200 120.776 C 15.200 121.203,15.020 121.664,14.800 121.800 C 14.580 121.936,14.400 122.487,14.400 123.024 C 14.400 123.561,14.220 124.000,14.000 124.000 C 13.780 124.000,13.600 124.360,13.600 124.800 C 13.600 125.240,13.420 125.600,13.200 125.600 C 12.980 125.600,12.800 126.039,12.800 126.576 C 12.800 127.113,12.620 127.664,12.400 127.800 C 12.180 127.936,12.000 128.487,12.000 129.024 C 12.000 129.561,11.820 130.000,11.600 130.000 C 11.380 130.000,11.200 130.349,11.200 130.776 C 11.200 131.203,11.020 131.664,10.800 131.800 C 10.580 131.936,10.400 132.399,10.400 132.829 C 10.400 133.259,10.237 133.923,10.037 134.305 C 9.440 135.447,8.400 139.222,8.400 140.246 C 8.400 140.771,8.220 141.200,8.000 141.200 C 7.780 141.200,7.600 141.819,7.600 142.576 C 7.600 143.333,7.420 144.064,7.200 144.200 C 6.980 144.336,6.800 144.987,6.800 145.647 C 6.800 146.345,6.633 146.744,6.400 146.600 C 6.158 146.451,6.000 146.996,6.000 147.976 C 6.000 148.869,5.820 149.600,5.600 149.600 C 5.380 149.600,5.200 150.309,5.200 151.176 C 5.200 152.043,5.020 152.864,4.800 153.000 C 4.580 153.136,4.400 153.856,4.400 154.600 C 4.400 155.344,4.220 156.064,4.000 156.200 C 3.780 156.336,3.600 157.247,3.600 158.224 C 3.600 159.201,3.420 160.000,3.200 160.000 C 2.980 160.000,2.800 160.889,2.800 161.976 C 2.800 163.063,2.620 164.064,2.400 164.200 C 2.180 164.336,2.000 165.416,2.000 166.600 C 2.000 167.784,1.820 168.864,1.600 169.000 C 1.380 169.136,1.200 170.371,1.200 171.744 C 1.200 173.207,0.993 174.447,0.700 174.740 C 0.311 175.129,0.200 180.743,0.200 200.087 C 0.200 219.608,0.307 224.969,0.700 225.100 C 1.034 225.211,1.200 226.160,1.200 227.953 C 1.200 229.431,1.363 230.811,1.563 231.020 C 1.763 231.229,2.028 232.300,2.152 233.400 C 2.702 238.264,2.900 239.423,3.239 239.780 C 3.437 239.989,3.600 240.833,3.600 241.656 C 3.600 242.479,3.780 243.264,4.000 243.400 C 4.220 243.536,4.400 244.447,4.400 245.424 C 4.400 246.401,4.580 247.200,4.800 247.200 C 5.020 247.200,5.200 247.920,5.200 248.800 C 5.200 249.680,5.380 250.400,5.600 250.400 C 5.820 250.400,6.000 250.929,6.000 251.576 C 6.000 252.223,6.180 252.864,6.400 253.000 C 6.620 253.136,6.800 253.867,6.800 254.624 C 6.800 255.381,6.980 256.000,7.200 256.000 C 7.420 256.000,7.600 256.529,7.600 257.176 C 7.600 257.823,7.780 258.464,8.000 258.600 C 8.220 258.736,8.400 259.266,8.400 259.778 C 8.400 260.649,9.292 264.000,10.003 265.800 C 10.177 266.240,10.536 267.230,10.800 268.000 C 11.382 269.693,11.971 271.160,12.447 272.095 C 12.641 272.477,12.800 273.152,12.800 273.595 C 12.800 274.038,12.980 274.400,13.200 274.400 C 13.420 274.400,13.600 274.760,13.600 275.200 C 13.600 275.640,13.780 276.000,14.000 276.000 C 14.220 276.000,14.400 276.355,14.400 276.788 C 14.400 277.221,14.760 278.217,15.200 279.000 C 15.640 279.783,16.000 280.689,16.000 281.012 C 16.000 281.335,16.180 281.600,16.400 281.600 C 16.620 281.600,16.800 281.872,16.800 282.205 C 16.800 282.538,16.961 283.123,17.158 283.505 C 17.355 283.887,18.116 285.460,18.850 287.000 C 19.584 288.540,20.277 289.890,20.392 290.000 C 20.867 290.456,21.600 292.031,21.600 292.595 C 21.600 292.928,21.780 293.200,22.000 293.200 C 22.220 293.200,22.400 293.560,22.400 294.000 C 22.400 294.440,22.580 294.800,22.800 294.800 C 23.020 294.800,23.200 295.036,23.200 295.325 C 23.200 295.613,23.560 296.236,24.000 296.708 C 24.440 297.180,24.800 297.775,24.800 298.029 C 24.800 298.551,26.786 302.371,27.400 303.029 C 27.620 303.266,28.156 304.121,28.591 304.929 C 29.026 305.738,29.521 306.400,29.691 306.400 C 29.861 306.400,30.000 306.720,30.000 307.112 C 30.000 307.503,30.360 308.083,30.800 308.400 C 31.240 308.717,31.600 309.257,31.600 309.600 C 31.600 309.943,31.960 310.483,32.400 310.800 C 32.840 311.117,33.200 311.657,33.200 312.000 C 33.200 312.343,33.560 312.883,34.000 313.200 C 34.440 313.517,34.800 314.057,34.800 314.400 C 34.800 314.743,35.160 315.283,35.600 315.600 C 36.040 315.917,36.400 316.407,36.400 316.688 C 36.400 316.970,36.580 317.200,36.800 317.200 C 37.020 317.200,37.200 317.430,37.200 317.712 C 37.200 317.993,37.560 318.483,38.000 318.800 C 38.440 319.117,38.800 319.580,38.800 319.829 C 38.800 320.078,39.340 320.846,40.000 321.537 C 40.660 322.228,41.200 322.985,41.200 323.220 C 41.200 323.455,41.380 323.536,41.600 323.400 C 41.820 323.264,42.000 323.433,42.000 323.776 C 42.000 324.119,42.210 324.400,42.467 324.400 C 42.723 324.400,42.824 324.509,42.691 324.642 C 42.558 324.776,42.888 325.324,43.424 325.861 C 43.961 326.397,44.400 327.004,44.400 327.209 C 44.400 327.415,45.390 328.573,46.600 329.783 C 47.810 330.993,48.800 332.167,48.800 332.391 C 48.800 332.616,48.980 332.800,49.200 332.800 C 49.420 332.800,49.600 332.984,49.600 333.209 C 49.600 333.594,53.787 338.000,54.153 338.000 C 54.247 338.000,54.407 333.185,54.510 327.300 C 54.703 316.224,54.936 314.330,56.827 308.400 C 60.263 297.627,69.110 287.557,79.522 282.566 C 83.763 280.534,84.637 280.215,92.000 278.014 C 93.650 277.521,95.313 276.956,95.695 276.759 C 96.077 276.562,96.664 276.400,97.000 276.400 C 97.336 276.400,97.923 276.235,98.305 276.034 C 98.687 275.833,100.890 275.093,103.200 274.388 C 105.510 273.684,109.290 272.512,111.600 271.783 C 113.910 271.055,117.870 269.808,120.400 269.014 C 122.930 268.219,125.649 267.140,126.442 266.617 C 127.571 265.872,157.831 250.767,164.900 247.419 L 166.400 246.709 166.400 234.754 C 166.400 228.179,166.247 222.800,166.060 222.800 C 164.745 222.800,156.467 215.564,152.790 211.200 C 151.586 209.770,150.495 208.510,150.368 208.400 C 145.677 204.361,139.519 188.601,138.023 176.807 C 137.505 172.728,137.049 172.164,133.792 171.573 C 129.173 170.734,126.057 167.936,125.216 163.871 C 124.726 161.498,124.841 93.804,125.340 91.800 C 127.152 84.511,128.414 81.501,131.918 76.114 C 136.615 68.892,144.926 62.321,152.800 59.603 C 153.570 59.337,154.560 58.971,155.000 58.790 C 155.841 58.444,156.789 58.220,160.400 57.516 C 163.416 56.928,234.378 56.618,234.950 57.190 C 235.175 57.415,235.853 57.600,236.456 57.600 C 237.059 57.600,237.664 57.780,237.800 58.000 C 237.936 58.220,238.319 58.400,238.652 58.400 C 243.399 58.400,250.400 69.294,250.400 76.681 C 250.400 79.280,252.855 81.121,257.000 81.632 C 263.709 82.459,266.863 83.872,270.395 87.633 C 272.279 89.640,274.417 93.288,274.406 94.476 C 274.403 94.848,274.580 95.264,274.800 95.400 C 275.369 95.752,275.348 163.554,274.778 165.074 C 273.338 168.911,269.172 171.975,265.370 171.994 C 263.440 172.003,262.549 173.313,262.234 176.600 C 260.537 194.310,249.368 213.654,236.300 221.511 C 235.695 221.875,235.200 222.314,235.200 222.486 C 235.200 222.659,234.949 222.800,234.643 222.800 C 233.681 222.800,233.600 223.781,233.600 235.387 L 233.600 246.709 235.100 247.415 C 235.925 247.803,242.450 250.986,249.600 254.489 C 256.750 257.991,264.490 261.780,266.800 262.909 C 269.110 264.038,271.771 265.478,272.713 266.109 C 273.656 266.740,276.986 268.066,280.113 269.056 C 283.241 270.046,288.590 271.743,292.000 272.828 C 295.410 273.912,300.000 275.361,302.200 276.048 C 304.400 276.734,306.560 277.431,307.000 277.597 C 307.440 277.762,309.600 278.469,311.800 279.167 C 316.184 280.558,316.196 280.562,320.129 282.362 C 329.905 286.835,338.274 295.530,342.110 305.200 C 343.566 308.870,344.017 310.364,345.159 315.306 C 345.420 316.433,345.600 321.459,345.600 327.606 C 345.600 333.323,345.711 338.000,345.846 338.000 C 346.149 338.000,348.746 335.229,350.721 332.800 C 351.526 331.810,352.648 330.537,353.215 329.971 C 353.782 329.404,354.683 328.324,355.218 327.571 C 355.753 326.817,356.688 325.678,357.296 325.041 C 357.903 324.403,358.400 323.751,358.400 323.591 C 358.400 323.431,359.030 322.613,359.800 321.772 C 360.570 320.931,361.200 320.009,361.200 319.722 C 361.200 319.435,361.341 319.200,361.514 319.200 C 361.686 319.200,362.149 318.655,362.543 317.989 C 362.936 317.323,363.695 316.341,364.229 315.807 C 364.763 315.273,365.200 314.558,365.200 314.218 C 365.200 313.878,365.350 313.600,365.532 313.600 C 365.715 313.600,366.119 313.105,366.430 312.500 C 366.740 311.895,367.266 311.130,367.597 310.800 C 367.929 310.470,368.259 309.930,368.330 309.600 C 368.402 309.270,368.627 308.940,368.830 308.867 C 369.034 308.793,369.200 308.478,369.200 308.167 C 369.200 307.855,369.380 307.600,369.600 307.600 C 369.820 307.600,370.000 307.330,370.000 307.000 C 370.000 306.670,370.180 306.400,370.400 306.400 C 370.620 306.400,370.800 306.207,370.800 305.972 C 370.800 305.737,371.340 304.759,372.000 303.800 C 372.660 302.841,373.200 301.863,373.200 301.628 C 373.200 301.393,373.410 301.200,373.667 301.200 C 373.923 301.200,374.022 301.089,373.886 300.952 C 373.750 300.816,373.908 300.434,374.239 300.104 C 374.569 299.774,374.943 298.985,375.070 298.352 C 375.196 297.718,375.457 297.200,375.650 297.200 C 375.843 297.200,376.000 296.840,376.000 296.400 C 376.000 295.960,376.153 295.600,376.340 295.600 C 376.527 295.600,377.289 294.385,378.032 292.900 C 378.776 291.415,379.477 290.110,379.592 290.000 C 380.134 289.479,381.600 286.239,381.600 285.562 C 381.600 285.143,381.780 284.800,382.000 284.800 C 382.220 284.800,382.400 284.440,382.400 284.000 C 382.400 283.560,382.580 283.200,382.800 283.200 C 383.020 283.200,383.200 282.840,383.200 282.400 C 383.200 281.960,383.380 281.600,383.600 281.600 C 383.820 281.600,384.000 281.364,384.000 281.075 C 384.000 280.786,384.360 279.805,384.800 278.894 C 385.240 277.984,385.600 276.960,385.600 276.619 C 385.600 276.279,385.780 276.000,386.000 276.000 C 386.220 276.000,386.400 275.640,386.400 275.200 C 386.400 274.760,386.580 274.400,386.800 274.400 C 387.020 274.400,387.200 273.961,387.200 273.424 C 387.200 272.887,387.380 272.336,387.600 272.200 C 387.820 272.064,388.000 271.513,388.000 270.976 C 388.000 270.439,388.146 270.000,388.324 270.000 C 388.503 270.000,388.890 269.055,389.185 267.900 C 389.481 266.745,389.869 265.530,390.048 265.200 C 390.651 264.092,391.600 260.781,391.600 259.786 C 391.600 259.244,391.780 258.800,392.000 258.800 C 392.220 258.800,392.400 258.170,392.400 257.400 C 392.400 256.630,392.580 256.000,392.800 256.000 C 393.020 256.000,393.200 255.471,393.200 254.824 C 393.200 254.177,393.380 253.536,393.600 253.400 C 393.820 253.264,394.000 252.433,394.000 251.553 C 394.000 250.588,394.159 250.051,394.400 250.200 C 394.642 250.349,394.800 249.804,394.800 248.824 C 394.800 247.931,394.980 247.200,395.200 247.200 C 395.420 247.200,395.600 246.401,395.600 245.424 C 395.600 244.447,395.780 243.536,396.000 243.400 C 396.220 243.264,396.400 242.364,396.400 241.400 C 396.400 240.436,396.580 239.536,396.800 239.400 C 397.020 239.264,397.200 238.479,397.200 237.656 C 397.200 236.833,397.364 235.989,397.565 235.780 C 397.910 235.421,398.140 233.769,398.625 228.200 C 398.739 226.880,399.051 225.368,399.317 224.839 C 400.030 223.422,400.014 175.138,399.300 174.900 C 398.965 174.788,398.800 173.829,398.800 171.990 C 398.800 170.482,398.620 169.136,398.400 169.000 C 398.180 168.864,398.000 167.773,398.000 166.576 C 398.000 165.379,397.820 164.400,397.600 164.400 C 397.380 164.400,397.200 163.511,397.200 162.424 C 397.200 161.337,397.020 160.336,396.800 160.200 C 396.580 160.064,396.400 159.243,396.400 158.376 C 396.400 157.509,396.220 156.800,396.000 156.800 C 395.780 156.800,395.600 156.001,395.600 155.024 C 395.600 154.047,395.420 153.136,395.200 153.000 C 394.980 152.864,394.800 152.144,394.800 151.400 C 394.800 150.656,394.620 149.936,394.400 149.800 C 394.180 149.664,394.000 148.944,394.000 148.200 C 394.000 147.456,393.820 146.736,393.600 146.600 C 393.380 146.464,393.200 145.913,393.200 145.376 C 393.200 144.839,393.020 144.400,392.800 144.400 C 392.580 144.400,392.400 143.781,392.400 143.024 C 392.400 142.267,392.220 141.536,392.000 141.400 C 391.780 141.264,391.600 140.720,391.600 140.190 C 391.600 139.256,390.731 136.221,389.998 134.600 C 389.800 134.160,389.412 132.990,389.138 132.000 C 388.863 131.010,388.540 130.110,388.419 130.000 C 388.141 129.746,386.769 126.091,386.506 124.900 C 386.396 124.405,386.148 124.000,385.953 124.000 C 385.759 124.000,385.600 123.658,385.600 123.241 C 385.600 122.823,385.060 121.455,384.400 120.200 C 383.740 118.945,383.200 117.667,383.200 117.359 C 383.200 117.052,383.020 116.800,382.800 116.800 C 382.580 116.800,382.400 116.350,382.400 115.800 C 382.400 115.250,382.220 114.800,382.000 114.800 C 381.780 114.800,381.600 114.440,381.600 114.000 C 381.600 113.560,381.420 113.200,381.200 113.200 C 380.980 113.200,380.800 112.966,380.800 112.680 C 380.800 111.944,379.859 110.007,379.500 110.003 C 379.335 110.001,379.200 109.640,379.200 109.200 C 379.200 108.760,379.020 108.400,378.800 108.400 C 378.580 108.400,378.400 108.040,378.400 107.600 C 378.400 107.160,378.235 106.800,378.033 106.800 C 377.831 106.800,377.258 105.900,376.761 104.800 C 376.264 103.700,375.709 102.800,375.529 102.800 C 375.348 102.800,375.200 102.529,375.200 102.197 C 375.200 101.509,373.252 97.667,372.500 96.871 C 372.225 96.581,372.000 96.189,372.000 96.000 C 372.000 95.811,371.775 95.419,371.500 95.129 C 371.225 94.838,370.731 94.060,370.403 93.400 C 370.074 92.740,369.489 91.909,369.103 91.553 C 368.716 91.197,368.400 90.652,368.400 90.341 C 368.400 90.031,368.040 89.517,367.600 89.200 C 367.160 88.883,366.800 88.343,366.800 88.000 C 366.800 87.657,366.440 87.117,366.000 86.800 C 365.560 86.483,365.200 85.893,365.200 85.488 C 365.200 85.084,365.020 84.864,364.800 85.000 C 364.580 85.136,364.400 84.967,364.400 84.624 C 364.400 84.281,364.220 84.000,364.000 84.000 C 363.780 84.000,363.600 83.730,363.600 83.400 C 363.600 83.070,363.420 82.800,363.200 82.800 C 362.980 82.800,362.800 82.570,362.800 82.288 C 362.800 82.007,362.440 81.517,362.000 81.200 C 361.560 80.883,361.200 80.375,361.200 80.072 C 361.200 79.769,360.660 79.017,360.000 78.400 C 359.340 77.783,358.800 77.147,358.800 76.986 C 358.800 76.826,358.412 76.358,357.939 75.947 C 357.465 75.536,357.214 75.200,357.381 75.200 C 357.548 75.200,357.132 74.684,356.456 74.053 C 355.781 73.422,355.306 72.827,355.402 72.731 C 355.498 72.636,354.412 71.307,352.990 69.779 C 351.568 68.250,350.404 66.764,350.402 66.476 C 350.401 66.188,350.220 66.064,350.000 66.200 C 349.780 66.336,349.600 66.250,349.600 66.008 C 349.600 65.488,342.531 58.400,342.011 58.400 C 341.815 58.400,341.540 58.040,341.400 57.600 C 341.260 57.160,340.858 56.800,340.506 56.800 C 340.155 56.800,339.969 56.697,340.095 56.571 C 340.339 56.327,333.747 49.600,333.263 49.600 C 333.106 49.600,331.748 48.430,330.246 47.000 C 328.743 45.570,327.362 44.400,327.175 44.400 C 326.989 44.400,326.397 43.961,325.861 43.424 C 325.324 42.888,324.776 42.558,324.642 42.691 C 324.509 42.824,324.400 42.723,324.400 42.467 C 324.400 42.210,324.119 42.000,323.776 42.000 C 323.433 42.000,323.264 41.820,323.400 41.600 C 323.536 41.380,323.439 41.200,323.184 41.200 C 322.929 41.200,322.217 40.660,321.600 40.000 C 320.983 39.340,320.231 38.800,319.928 38.800 C 319.625 38.800,319.117 38.440,318.800 38.000 C 318.483 37.560,317.993 37.200,317.712 37.200 C 317.430 37.200,317.200 37.020,317.200 36.800 C 317.200 36.580,316.970 36.400,316.688 36.400 C 316.407 36.400,315.924 36.050,315.615 35.621 C 315.307 35.193,314.919 34.927,314.753 35.029 C 314.587 35.131,313.998 34.762,313.444 34.208 C 312.890 33.653,312.158 33.200,311.818 33.200 C 311.478 33.200,311.200 33.050,311.200 32.868 C 311.200 32.685,310.705 32.281,310.100 31.970 C 309.495 31.660,308.709 31.089,308.353 30.703 C 307.997 30.316,307.427 30.000,307.086 30.000 C 306.746 30.000,306.407 29.865,306.333 29.700 C 306.161 29.313,304.139 27.956,302.600 27.195 C 301.940 26.868,301.310 26.497,301.200 26.369 C 300.855 25.969,298.301 24.800,297.772 24.800 C 297.494 24.800,297.207 24.665,297.133 24.500 C 296.966 24.124,294.836 22.825,293.900 22.529 C 293.515 22.407,293.200 22.148,293.200 21.953 C 293.200 21.759,292.840 21.600,292.400 21.600 C 291.960 21.600,291.600 21.420,291.600 21.200 C 291.600 20.980,291.255 20.800,290.833 20.800 C 290.412 20.800,290.007 20.659,289.933 20.488 C 289.752 20.062,284.508 17.600,283.782 17.600 C 283.462 17.600,283.200 17.420,283.200 17.200 C 283.200 16.980,282.840 16.800,282.400 16.800 C 281.960 16.800,281.600 16.620,281.600 16.400 C 281.600 16.180,281.240 16.000,280.800 16.000 C 280.360 16.000,280.000 15.820,280.000 15.600 C 280.000 15.380,279.640 15.200,279.200 15.200 C 278.760 15.200,278.400 15.059,278.400 14.887 C 278.400 14.715,277.905 14.534,277.300 14.484 C 276.695 14.434,276.140 14.215,276.067 13.997 C 275.993 13.778,275.588 13.600,275.167 13.600 C 274.745 13.600,274.400 13.420,274.400 13.200 C 274.400 12.980,273.961 12.800,273.424 12.800 C 272.887 12.800,272.336 12.620,272.200 12.400 C 272.064 12.180,271.601 12.000,271.171 12.000 C 270.741 12.000,270.077 11.841,269.695 11.647 C 269.313 11.452,268.550 11.116,268.000 10.900 C 267.450 10.684,266.550 10.323,266.000 10.097 C 264.122 9.327,260.710 8.400,259.754 8.400 C 259.229 8.400,258.800 8.220,258.800 8.000 C 258.800 7.780,258.181 7.600,257.424 7.600 C 256.667 7.600,255.936 7.420,255.800 7.200 C 255.664 6.980,255.124 6.800,254.600 6.800 C 254.076 6.800,253.536 6.620,253.400 6.400 C 253.264 6.180,252.533 6.000,251.776 6.000 C 251.019 6.000,250.400 5.820,250.400 5.600 C 250.400 5.380,249.691 5.200,248.824 5.200 C 247.957 5.200,247.136 5.020,247.000 4.800 C 246.864 4.580,245.953 4.400,244.976 4.400 C 243.999 4.400,243.200 4.220,243.200 4.000 C 243.200 3.780,242.480 3.600,241.600 3.600 C 240.720 3.600,240.000 3.420,240.000 3.200 C 240.000 2.980,239.111 2.800,238.024 2.800 C 236.937 2.800,235.936 2.620,235.800 2.400 C 235.664 2.180,234.494 2.000,233.200 2.000 C 231.906 2.000,230.736 1.820,230.600 1.600 C 230.464 1.380,229.229 1.200,227.856 1.200 C 226.432 1.200,225.151 0.991,224.874 0.714 C 224.394 0.234,187.712 -0.114,178.500 0.274 M165.005 250.492 C 161.117 258.989,159.591 267.039,159.601 279.000 C 159.612 291.311,162.243 307.693,166.829 324.000 C 167.293 325.650,167.851 327.630,168.069 328.400 C 168.287 329.170,168.562 330.297,168.679 330.905 C 168.796 331.513,169.051 332.108,169.246 332.229 C 169.441 332.349,169.600 332.799,169.600 333.229 C 169.600 333.659,169.762 334.323,169.959 334.705 C 170.156 335.087,170.729 336.750,171.231 338.400 C 171.733 340.050,172.292 341.571,172.472 341.780 C 172.652 341.989,172.800 342.486,172.800 342.885 C 172.800 343.284,172.980 343.968,173.200 344.405 C 173.420 344.842,173.780 345.558,174.000 345.995 C 174.220 346.432,174.400 347.064,174.400 347.400 C 174.400 347.736,174.566 348.323,174.768 348.705 C 174.970 349.087,175.528 350.480,176.007 351.800 C 176.824 354.051,177.041 354.618,177.964 356.900 C 178.164 357.395,178.428 358.115,178.551 358.500 C 178.907 359.613,179.494 359.314,179.727 357.900 C 179.846 357.185,180.135 355.835,180.371 354.900 C 180.607 353.965,180.962 352.525,181.160 351.700 C 181.358 350.875,182.908 344.800,184.605 338.200 C 186.301 331.600,187.833 325.570,188.009 324.800 C 188.672 321.894,189.629 318.158,190.000 317.027 C 190.421 315.747,190.119 315.267,184.586 308.400 C 179.360 301.914,179.365 302.532,184.500 298.354 C 186.755 296.519,188.841 294.786,189.135 294.503 C 189.429 294.220,190.329 293.496,191.135 292.895 C 191.941 292.294,193.050 291.350,193.600 290.797 C 194.150 290.245,195.590 288.985,196.800 287.998 C 200.628 284.876,200.538 285.523,197.600 282.249 C 196.830 281.391,196.020 280.484,195.800 280.234 C 195.580 279.984,194.590 278.879,193.600 277.778 C 192.610 276.677,190.614 274.432,189.164 272.788 C 184.675 267.698,179.206 261.536,176.396 258.400 C 174.065 255.799,166.831 247.597,166.600 247.292 C 166.555 247.233,165.837 248.673,165.005 250.492 M230.712 250.553 C 229.235 252.339,227.616 254.250,227.113 254.800 C 226.611 255.350,225.393 256.790,224.407 258.000 C 223.421 259.210,222.340 260.470,222.004 260.800 C 221.668 261.130,220.049 263.020,218.408 265.000 C 216.766 266.980,214.338 269.863,213.011 271.407 C 211.685 272.951,209.700 275.280,208.600 276.582 C 207.500 277.885,205.475 280.252,204.100 281.844 C 201.076 285.343,201.090 284.999,203.878 287.421 C 205.130 288.510,206.881 290.030,207.768 290.800 C 208.655 291.570,209.786 292.593,210.281 293.073 C 210.776 293.553,211.861 294.451,212.691 295.068 C 213.521 295.686,214.470 296.469,214.800 296.810 C 215.130 297.150,216.264 298.126,217.321 298.979 C 220.341 301.418,220.342 301.467,217.535 305.269 C 216.182 307.101,214.960 308.690,214.819 308.800 C 214.677 308.910,214.129 309.630,213.600 310.400 C 213.071 311.170,212.531 311.890,212.400 312.000 C 212.269 312.110,211.729 312.830,211.200 313.600 C 210.671 314.370,210.069 315.117,209.861 315.260 C 209.653 315.402,209.622 315.852,209.792 316.260 C 209.961 316.667,210.258 317.675,210.450 318.500 C 211.098 321.278,211.528 322.979,212.800 327.800 C 213.497 330.440,214.211 333.230,214.388 334.000 C 214.914 336.289,218.784 351.683,219.215 353.200 C 219.434 353.970,219.855 355.590,220.152 356.800 C 220.944 360.031,221.070 359.864,224.077 351.600 C 224.518 350.390,225.029 349.040,225.213 348.600 C 225.397 348.160,225.776 347.080,226.055 346.200 C 226.335 345.320,226.707 344.429,226.882 344.220 C 227.057 344.011,227.200 343.462,227.200 343.000 C 227.200 342.538,227.348 341.989,227.528 341.780 C 227.708 341.571,228.267 340.050,228.769 338.400 C 229.271 336.750,229.844 335.087,230.041 334.705 C 230.238 334.323,230.400 333.659,230.400 333.229 C 230.400 332.799,230.559 332.349,230.754 332.229 C 230.949 332.108,231.204 331.513,231.321 330.905 C 231.520 329.874,231.947 328.285,232.800 325.400 C 234.140 320.868,235.087 317.135,236.349 311.400 C 237.610 305.672,237.836 304.431,239.255 295.400 C 241.943 278.297,239.834 258.639,234.257 248.821 L 233.397 247.307 230.712 250.553 " stroke="none" fill="#c9e2fb" fill-rule="evenodd"></path><path id="path2" d="M199.599 286.470 C 199.050 286.910,198.150 287.658,197.600 288.134 C 197.050 288.611,193.045 291.952,188.700 295.561 C 179.653 303.074,180.150 302.158,183.111 305.870 C 190.933 315.675,190.893 315.616,190.623 316.732 C 190.481 317.319,190.184 318.520,189.964 319.400 C 189.744 320.280,189.407 321.630,189.215 322.400 C 189.023 323.170,188.297 325.960,187.601 328.600 C 186.905 331.240,186.172 334.120,185.973 335.000 C 185.774 335.880,185.446 337.230,185.244 338.000 C 185.042 338.770,183.631 344.295,182.108 350.278 L 179.338 361.157 180.675 364.478 C 181.411 366.305,182.370 368.563,182.806 369.496 C 183.243 370.428,183.600 371.278,183.600 371.384 C 183.600 371.490,184.030 372.527,184.555 373.688 C 185.081 374.850,185.910 376.700,186.398 377.800 C 188.014 381.444,190.026 385.719,193.502 392.900 L 196.940 400.000 200.005 400.000 L 203.070 400.000 207.303 391.300 C 209.630 386.515,212.275 380.890,213.181 378.800 C 214.086 376.710,215.161 374.280,215.571 373.400 C 216.687 371.005,217.443 369.241,218.400 366.800 C 218.874 365.590,219.499 364.060,219.788 363.400 C 220.751 361.205,220.762 360.864,219.963 358.123 C 219.526 356.626,219.010 354.680,218.817 353.800 C 218.624 352.920,217.717 349.320,216.800 345.800 C 215.883 342.280,214.971 338.680,214.773 337.800 C 214.574 336.920,214.217 335.480,213.979 334.600 C 213.741 333.720,213.371 332.280,213.155 331.400 C 212.282 327.832,212.014 326.770,210.616 321.339 L 209.159 315.678 212.850 310.739 C 214.880 308.023,217.139 305.005,217.871 304.034 C 219.719 301.579,220.126 302.138,210.388 293.781 C 200.064 284.921,200.862 285.462,199.599 286.470 " stroke="none" fill="#e17c7e" fill-rule="evenodd"></path><path id="path3" d="M162.600 107.890 C 154.791 108.659,151.084 113.750,150.872 124.000 C 150.590 137.570,147.156 140.844,132.900 141.130 L 124.800 141.292 124.800 151.626 C 124.800 167.301,126.096 170.175,133.792 171.573 C 137.049 172.164,137.505 172.728,138.023 176.807 C 139.519 188.601,145.677 204.361,150.368 208.400 C 150.495 208.510,151.586 209.770,152.790 211.200 C 156.467 215.564,164.745 222.800,166.060 222.800 C 166.247 222.800,166.400 228.269,166.400 234.952 L 166.400 247.105 170.050 251.252 C 172.058 253.534,174.912 256.750,176.393 258.400 C 179.159 261.483,184.512 267.513,189.164 272.788 C 190.614 274.432,192.532 276.592,193.426 277.588 C 194.320 278.585,195.760 280.190,196.626 281.156 C 197.492 282.121,198.380 283.112,198.600 283.357 C 200.369 285.330,200.507 284.974,196.800 287.998 C 195.590 288.985,194.150 290.245,193.600 290.797 C 193.050 291.350,191.941 292.294,191.135 292.895 C 190.329 293.496,189.429 294.220,189.135 294.503 C 188.841 294.786,186.755 296.519,184.500 298.354 C 179.365 302.532,179.360 301.914,184.586 308.400 C 190.119 315.267,190.421 315.747,190.000 317.027 C 189.629 318.158,188.672 321.894,188.009 324.800 C 187.833 325.570,186.301 331.600,184.605 338.200 C 182.908 344.800,181.358 350.875,181.160 351.700 C 180.962 352.525,180.628 353.875,180.418 354.700 C 179.875 356.833,179.238 359.735,179.217 360.167 C 179.153 361.525,179.933 358.842,182.240 349.764 C 183.689 344.064,185.041 338.770,185.243 338.000 C 185.446 337.230,185.774 335.880,185.973 335.000 C 186.172 334.120,186.905 331.240,187.601 328.600 C 188.297 325.960,189.032 323.125,189.233 322.300 C 189.435 321.475,189.772 320.125,189.982 319.300 C 191.027 315.200,191.871 316.850,183.111 305.870 C 180.150 302.158,179.653 303.073,188.700 295.571 C 193.045 291.968,196.690 288.920,196.800 288.797 C 196.910 288.674,197.838 287.896,198.863 287.069 L 200.725 285.565 203.484 287.882 C 212.143 295.156,219.200 301.410,219.200 301.810 C 219.200 302.062,218.602 303.063,217.871 304.034 C 217.139 305.005,214.880 308.023,212.850 310.739 L 209.159 315.678 210.616 321.339 C 211.417 324.453,212.236 327.675,212.436 328.500 C 213.087 331.184,213.539 332.970,213.979 334.600 C 214.217 335.480,214.574 336.920,214.773 337.800 C 215.660 341.733,218.386 352.119,218.583 352.316 C 219.067 352.801,218.705 351.037,216.754 343.400 C 215.629 339.000,214.564 334.770,214.388 334.000 C 214.211 333.230,213.497 330.440,212.800 327.800 C 211.401 322.498,211.014 320.971,210.468 318.600 C 210.266 317.720,209.961 316.667,209.792 316.260 C 209.622 315.852,209.653 315.402,209.861 315.260 C 210.069 315.117,210.671 314.370,211.200 313.600 C 211.729 312.830,212.269 312.110,212.400 312.000 C 212.531 311.890,213.071 311.170,213.600 310.400 C 214.129 309.630,214.677 308.910,214.819 308.800 C 214.960 308.690,216.182 307.101,217.535 305.269 C 220.342 301.467,220.341 301.418,217.321 298.979 C 216.264 298.126,215.130 297.150,214.800 296.810 C 214.470 296.469,213.521 295.686,212.691 295.068 C 211.861 294.451,210.776 293.553,210.281 293.073 C 209.786 292.593,208.655 291.570,207.768 290.800 C 200.393 284.398,200.875 285.576,204.100 281.844 C 205.475 280.252,207.500 277.885,208.600 276.582 C 209.700 275.280,211.685 272.951,213.011 271.407 C 214.338 269.863,216.766 266.980,218.408 265.000 C 220.049 263.020,221.668 261.130,222.004 260.800 C 222.340 260.470,223.419 259.210,224.402 258.000 C 225.385 256.790,226.293 255.710,226.419 255.600 C 226.546 255.490,228.214 253.539,230.125 251.264 L 233.600 247.127 233.600 235.596 C 233.600 223.782,233.680 222.800,234.643 222.800 C 234.949 222.800,235.200 222.659,235.200 222.486 C 235.200 222.314,235.695 221.875,236.300 221.511 C 249.368 213.654,260.537 194.310,262.234 176.600 C 262.549 173.313,263.440 172.003,265.370 171.994 C 269.172 171.975,273.338 168.911,274.778 165.074 C 275.038 164.379,275.200 159.521,275.200 152.374 L 275.200 140.800 267.211 140.800 C 252.962 140.800,249.215 137.286,249.204 123.915 C 249.194 110.613,240.483 104.399,228.600 109.215 C 228.160 109.394,227.350 109.631,226.800 109.742 C 226.250 109.853,225.080 110.149,224.200 110.399 C 210.689 114.236,191.267 114.394,177.100 110.782 C 174.189 110.040,172.189 109.504,171.200 109.200 C 167.458 108.051,164.912 107.663,162.600 107.890 M218.810 353.433 C 218.821 354.395,220.737 360.819,220.768 360.000 C 220.797 359.221,219.316 353.182,219.024 352.890 C 218.901 352.767,218.804 353.012,218.810 353.433 " stroke="none" fill="#fadccf" fill-rule="evenodd"></path><path id="path4" d="M163.950 56.983 C 163.849 57.084,162.514 57.343,160.983 57.559 C 157.616 58.033,156.060 58.353,155.000 58.790 C 154.560 58.971,153.570 59.337,152.800 59.603 C 144.926 62.321,136.615 68.892,131.918 76.114 C 128.416 81.499,127.129 84.568,125.341 91.800 C 125.178 92.460,124.987 103.845,124.916 117.100 L 124.788 141.200 131.894 141.110 L 139.000 141.020 132.088 140.901 L 125.176 140.781 125.323 117.091 C 125.415 102.399,125.631 92.716,125.893 91.600 C 130.490 72.018,144.728 59.507,164.569 57.616 C 171.918 56.916,232.632 57.062,235.413 57.787 C 242.494 59.631,247.536 64.782,249.430 72.105 L 249.972 74.200 249.748 72.200 C 249.189 67.206,242.108 58.400,238.652 58.400 C 238.319 58.400,237.936 58.220,237.800 58.000 C 237.664 57.780,237.034 57.600,236.400 57.600 C 235.766 57.600,235.136 57.420,235.000 57.200 C 234.755 56.803,164.345 56.589,163.950 56.983 M250.072 75.926 C 249.995 77.769,250.405 78.857,251.720 80.300 C 253.187 81.911,253.303 81.248,251.851 79.551 C 250.773 78.292,250.405 77.465,250.292 76.051 L 250.144 74.200 250.072 75.926 M254.000 81.577 C 254.539 81.946,257.968 82.210,257.567 81.851 C 257.475 81.769,256.500 81.582,255.400 81.435 C 253.980 81.245,253.574 81.286,254.000 81.577 M260.600 82.400 C 261.796 82.914,262.795 82.914,262.000 82.400 C 261.670 82.187,261.040 82.022,260.600 82.034 L 259.800 82.056 260.600 82.400 M264.788 83.875 C 267.796 85.287,271.681 89.254,273.199 92.462 C 273.859 93.858,274.402 94.730,274.406 94.400 C 274.441 91.237,266.204 82.710,263.224 82.824 C 262.881 82.837,263.585 83.310,264.788 83.875 M274.702 111.938 C 274.758 121.102,274.852 131.390,274.913 134.800 C 274.973 138.210,275.062 130.796,275.111 118.324 C 275.160 105.852,275.065 95.564,274.900 95.462 C 274.735 95.359,274.646 102.774,274.702 111.938 M160.475 107.825 C 155.841 109.072,150.721 114.523,150.827 118.096 C 150.845 118.709,151.016 118.486,151.360 117.400 C 152.737 113.043,155.774 109.799,159.744 108.444 C 161.338 107.899,167.269 107.748,168.052 108.232 C 168.295 108.382,169.148 108.672,169.947 108.875 C 170.746 109.079,172.030 109.427,172.800 109.649 C 187.647 113.934,202.879 114.559,219.400 111.562 C 220.720 111.322,222.250 110.978,222.800 110.796 C 223.350 110.614,224.316 110.352,224.947 110.213 C 225.578 110.074,226.023 109.890,225.936 109.803 C 225.849 109.716,225.063 109.814,224.189 110.021 C 207.085 114.077,190.404 113.940,174.400 109.612 C 172.750 109.166,170.062 108.441,168.427 108.001 C 164.974 107.071,163.405 107.036,160.475 107.825 M233.116 107.528 C 232.739 107.678,234.061 107.808,236.053 107.819 C 238.046 107.829,239.344 107.706,238.938 107.547 C 238.006 107.180,234.024 107.167,233.116 107.528 M230.000 108.400 C 229.176 108.664,229.141 108.726,229.800 108.754 C 230.240 108.773,230.870 108.613,231.200 108.400 C 231.901 107.947,231.414 107.947,230.000 108.400 M240.400 108.183 C 240.400 108.363,242.802 109.600,243.150 109.600 C 243.497 109.600,241.894 108.567,241.100 108.279 C 240.715 108.139,240.400 108.096,240.400 108.183 M227.200 109.200 L 226.200 109.520 227.276 109.560 C 227.868 109.582,228.464 109.420,228.600 109.200 C 228.881 108.745,228.620 108.745,227.200 109.200 M244.286 110.605 C 244.762 110.938,245.702 111.879,246.375 112.697 C 247.049 113.514,247.600 114.047,247.600 113.882 C 247.600 113.390,244.334 110.000,243.860 110.000 C 243.619 110.000,243.811 110.272,244.286 110.605 M150.484 123.800 C 150.433 126.440,150.291 129.320,150.169 130.200 C 149.996 131.452,150.043 131.651,150.385 131.116 C 150.665 130.678,150.778 128.375,150.699 124.716 L 150.576 119.000 150.484 123.800 M249.275 124.400 C 249.264 127.370,249.394 130.152,249.562 130.581 C 249.845 131.305,249.714 120.939,249.423 119.600 C 249.351 119.270,249.285 121.430,249.275 124.400 M149.408 132.800 C 148.389 136.008,144.829 139.179,141.125 140.175 C 139.556 140.598,139.299 140.754,140.142 140.774 C 143.496 140.851,150.684 134.611,149.898 132.305 C 149.803 132.027,149.582 132.250,149.408 132.800 M251.040 134.400 C 252.035 136.550,255.998 140.040,257.378 139.982 C 257.610 139.973,257.143 139.618,256.340 139.193 C 254.773 138.365,252.616 136.419,251.470 134.800 C 251.081 134.250,250.888 134.070,251.040 134.400 M165.200 247.222 C 164.870 247.428,156.337 251.663,146.238 256.633 C 136.139 261.604,127.229 266.098,126.438 266.620 C 125.647 267.142,122.930 268.219,120.400 269.014 C 117.870 269.808,113.910 271.055,111.600 271.783 C 109.290 272.512,105.510 273.684,103.200 274.388 C 100.890 275.093,98.687 275.833,98.305 276.034 C 97.923 276.235,97.336 276.400,97.000 276.400 C 96.664 276.400,96.077 276.562,95.695 276.759 C 95.313 276.956,93.650 277.521,92.000 278.014 C 84.637 280.215,83.763 280.534,79.522 282.566 C 69.110 287.557,60.263 297.627,56.827 308.400 C 54.927 314.356,54.702 316.208,54.516 327.400 C 54.315 339.474,54.043 338.152,57.340 341.110 C 58.143 341.830,58.805 342.640,58.812 342.910 C 58.819 343.179,59.022 343.060,59.263 342.645 C 59.640 341.996,59.370 341.573,57.347 339.645 L 54.993 337.400 55.240 326.600 C 55.387 320.156,55.684 315.074,55.975 314.000 C 56.244 313.010,56.647 311.480,56.871 310.600 C 57.095 309.720,57.440 308.687,57.639 308.305 C 57.838 307.923,58.000 307.417,58.000 307.180 C 58.000 306.248,60.662 301.220,62.913 297.901 C 68.190 290.120,75.886 284.139,84.400 281.202 C 85.170 280.937,86.160 280.578,86.600 280.405 C 87.040 280.233,88.210 279.873,89.200 279.607 C 90.190 279.340,91.313 278.960,91.695 278.761 C 92.077 278.562,92.741 278.400,93.171 278.400 C 93.601 278.400,94.064 278.220,94.200 278.000 C 94.336 277.780,94.876 277.600,95.400 277.600 C 95.924 277.600,96.464 277.420,96.600 277.200 C 96.736 276.980,97.366 276.800,98.000 276.800 C 98.634 276.800,99.264 276.620,99.400 276.400 C 99.536 276.180,100.076 276.000,100.600 276.000 C 101.124 276.000,101.664 275.820,101.800 275.600 C 101.936 275.380,102.399 275.200,102.829 275.200 C 103.259 275.200,103.923 275.038,104.305 274.839 C 104.687 274.640,105.810 274.263,106.800 274.000 C 107.790 273.737,108.913 273.360,109.295 273.161 C 109.677 272.962,110.341 272.800,110.771 272.800 C 111.201 272.800,111.651 272.641,111.771 272.446 C 111.892 272.251,112.487 272.005,113.095 271.898 C 116.219 271.347,125.053 268.222,126.544 267.139 C 127.455 266.478,129.100 265.520,130.200 265.012 C 131.300 264.504,139.542 260.468,148.516 256.044 C 163.498 248.658,165.600 247.688,165.600 248.162 C 165.600 248.303,164.651 250.310,163.550 252.495 C 163.357 252.877,163.210 253.417,163.223 253.695 C 163.247 254.231,166.400 247.729,166.400 247.143 C 166.400 246.711,165.973 246.739,165.200 247.222 M233.600 247.220 C 233.600 247.929,234.844 250.090,235.103 249.831 C 235.237 249.696,235.134 249.374,234.873 249.113 C 234.291 248.531,234.261 248.000,234.810 248.000 C 235.036 248.000,240.211 250.449,246.310 253.442 C 252.410 256.434,260.550 260.428,264.400 262.317 C 268.250 264.206,272.300 266.328,273.400 267.034 C 275.205 268.191,279.454 269.716,287.400 272.057 C 288.940 272.511,290.513 273.044,290.895 273.241 C 291.277 273.438,291.941 273.600,292.371 273.600 C 292.801 273.600,293.264 273.780,293.400 274.000 C 293.536 274.220,294.076 274.400,294.600 274.400 C 295.124 274.400,295.664 274.580,295.800 274.800 C 295.936 275.020,296.566 275.200,297.200 275.200 C 297.834 275.200,298.464 275.380,298.600 275.600 C 298.736 275.820,299.276 276.000,299.800 276.000 C 300.324 276.000,300.864 276.180,301.000 276.400 C 301.136 276.620,301.599 276.800,302.029 276.800 C 302.459 276.800,303.123 276.962,303.505 277.161 C 303.887 277.360,305.010 277.737,306.000 278.000 C 306.990 278.263,308.113 278.640,308.495 278.839 C 308.877 279.038,309.541 279.200,309.971 279.200 C 310.401 279.200,310.864 279.380,311.000 279.600 C 311.136 279.820,311.676 280.000,312.200 280.000 C 312.724 280.000,313.264 280.180,313.400 280.400 C 313.536 280.620,313.999 280.800,314.429 280.800 C 314.859 280.800,315.523 280.962,315.905 281.160 C 316.287 281.358,318.155 282.243,320.055 283.127 C 321.955 284.011,324.690 285.559,326.132 286.567 C 327.574 287.575,328.894 288.400,329.066 288.400 C 330.431 288.400,337.481 297.358,340.084 302.402 C 343.981 309.950,345.200 316.294,345.200 329.025 L 345.200 337.635 342.966 339.851 C 341.738 341.069,340.827 342.160,340.942 342.276 C 341.057 342.391,341.593 342.061,342.133 341.542 C 342.673 341.024,343.674 340.090,344.357 339.466 L 345.600 338.332 345.600 327.772 C 345.600 321.504,345.421 316.437,345.159 315.306 C 344.146 310.922,343.538 308.813,342.706 306.800 C 342.479 306.250,342.163 305.440,342.003 305.000 C 338.776 296.088,329.780 286.778,320.129 282.362 C 316.196 280.562,316.184 280.558,311.800 279.167 C 309.600 278.469,307.440 277.762,307.000 277.597 C 306.560 277.431,304.400 276.734,302.200 276.048 C 300.000 275.361,295.410 273.912,292.000 272.828 C 288.590 271.743,283.241 270.046,280.113 269.056 C 276.986 268.066,273.656 266.738,272.713 266.104 C 271.771 265.470,268.930 263.945,266.400 262.714 C 263.870 261.484,257.030 258.138,251.200 255.279 C 231.417 245.579,233.600 246.578,233.600 247.220 M235.200 250.531 C 235.200 250.603,235.661 251.795,236.223 253.181 C 236.786 254.566,237.673 257.252,238.194 259.149 C 238.715 261.047,239.155 262.163,239.171 261.628 C 239.201 260.637,239.067 260.141,237.551 255.610 C 236.225 251.649,235.200 249.434,235.200 250.531 M162.667 254.667 C 162.520 254.813,162.411 255.308,162.425 255.767 C 162.449 256.533,162.482 256.523,162.834 255.642 C 163.226 254.663,163.144 254.189,162.667 254.667 M161.478 258.878 C 160.844 261.078,160.351 263.519,159.625 268.046 C 159.100 271.317,159.065 286.858,159.575 290.167 C 159.781 291.505,160.149 294.040,160.393 295.800 C 161.080 300.770,162.100 306.245,163.577 312.900 C 163.785 313.835,164.064 315.116,164.197 315.747 C 164.330 316.378,164.526 316.807,164.632 316.701 C 164.739 316.595,164.448 314.818,163.987 312.754 C 159.084 290.822,158.292 274.822,161.426 261.000 C 162.417 256.629,162.444 255.519,161.478 258.878 M239.339 264.200 C 240.339 271.152,240.483 273.794,240.285 281.650 C 240.084 289.637,239.712 293.139,238.002 303.150 C 237.762 304.552,237.652 305.786,237.757 305.891 C 237.862 305.996,238.063 305.388,238.203 304.541 C 238.343 303.693,238.615 302.100,238.808 301.000 C 239.191 298.816,239.710 295.271,240.420 290.000 C 241.231 283.974,240.473 263.905,239.395 262.874 C 239.237 262.723,239.212 263.320,239.339 264.200 M237.022 308.222 C 236.872 309.025,236.838 309.772,236.948 309.882 C 237.058 309.992,237.272 309.425,237.422 308.622 C 237.573 307.819,237.606 307.073,237.496 306.963 C 237.386 306.853,237.173 307.419,237.022 308.222 M236.222 311.822 C 236.072 312.625,236.038 313.372,236.148 313.482 C 236.258 313.592,236.472 313.025,236.622 312.222 C 236.773 311.419,236.806 310.673,236.696 310.563 C 236.586 310.453,236.373 311.019,236.222 311.822 M235.422 315.422 C 235.272 316.225,235.238 316.972,235.348 317.082 C 235.458 317.192,235.672 316.625,235.822 315.822 C 235.973 315.019,236.006 314.273,235.896 314.163 C 235.786 314.053,235.573 314.619,235.422 315.422 M164.846 318.000 C 164.827 318.550,164.987 319.270,165.200 319.600 C 165.694 320.364,165.694 319.542,165.200 318.000 L 164.880 317.000 164.846 318.000 M234.600 318.800 C 234.448 319.491,234.414 320.147,234.524 320.257 C 234.634 320.367,234.848 319.891,235.000 319.200 C 235.152 318.509,235.186 317.853,235.076 317.743 C 234.966 317.633,234.752 318.109,234.600 318.800 M165.634 321.000 C 165.622 321.440,165.787 322.070,166.000 322.400 C 166.514 323.195,166.514 322.196,166.000 321.000 L 165.656 320.200 165.634 321.000 M233.873 321.353 C 233.723 321.745,233.611 322.366,233.625 322.733 C 233.642 323.175,233.781 323.074,234.037 322.434 C 234.249 321.903,234.361 321.282,234.285 321.054 C 234.209 320.827,234.024 320.961,233.873 321.353 M166.456 323.800 C 166.456 324.240,166.611 324.960,166.800 325.400 L 167.144 326.200 167.144 325.400 C 167.144 324.960,166.989 324.240,166.800 323.800 L 166.456 323.000 166.456 323.800 M232.987 324.653 C 232.848 325.284,232.590 326.250,232.414 326.800 C 231.424 329.883,231.093 331.226,231.278 331.411 C 231.392 331.525,231.976 329.890,232.576 327.776 C 233.176 325.662,233.570 323.837,233.453 323.719 C 233.335 323.602,233.126 324.022,232.987 324.653 M167.234 326.800 C 167.246 327.130,167.411 327.760,167.600 328.200 L 167.944 329.000 167.966 328.200 C 167.978 327.760,167.813 327.130,167.600 326.800 C 167.255 326.267,167.215 326.267,167.234 326.800 M168.012 329.600 C 168.012 329.930,168.187 330.470,168.400 330.800 C 168.745 331.333,168.788 331.333,168.788 330.800 C 168.788 330.470,168.613 329.930,168.400 329.600 C 168.055 329.067,168.012 329.067,168.012 329.600 M168.828 332.276 C 168.918 333.315,169.544 334.196,169.572 333.324 C 169.587 332.842,169.420 332.336,169.200 332.200 C 168.980 332.064,168.813 332.098,168.828 332.276 M230.667 332.267 C 230.520 332.413,230.400 332.866,230.400 333.272 C 230.400 333.678,230.238 334.323,230.041 334.705 C 229.844 335.087,229.271 336.750,228.769 338.400 C 228.267 340.050,227.708 341.571,227.528 341.780 C 227.348 341.989,227.200 342.538,227.200 343.000 C 227.200 343.462,227.057 344.011,226.882 344.220 C 226.707 344.429,226.335 345.320,226.055 346.200 C 225.776 347.080,225.397 348.160,225.213 348.600 C 225.029 349.040,224.500 350.435,224.039 351.700 C 222.131 356.931,221.458 358.620,221.138 358.980 C 220.952 359.189,220.809 359.729,220.819 360.180 C 220.835 360.864,221.664 358.982,223.983 353.000 C 224.153 352.560,224.479 351.750,224.706 351.200 C 224.933 350.650,225.336 349.570,225.600 348.800 C 225.864 348.030,226.231 347.040,226.414 346.600 C 226.597 346.160,227.131 344.630,227.600 343.200 C 228.069 341.770,228.600 340.240,228.781 339.800 C 230.165 336.431,231.387 331.546,230.667 332.267 M169.628 334.676 C 169.718 335.715,170.344 336.596,170.372 335.724 C 170.387 335.242,170.220 334.736,170.000 334.600 C 169.780 334.464,169.613 334.498,169.628 334.676 M170.612 337.700 C 171.610 341.086,172.621 343.634,172.733 343.051 C 172.806 342.672,172.701 342.145,172.499 341.881 C 172.297 341.616,171.815 340.365,171.428 339.100 C 171.042 337.835,170.640 336.800,170.536 336.800 C 170.431 336.800,170.466 337.205,170.612 337.700 M172.800 344.108 C 172.800 344.289,174.706 349.821,175.175 351.000 C 175.350 351.440,175.721 352.340,176.000 353.000 C 176.279 353.660,176.645 354.560,176.815 355.000 C 176.984 355.440,177.522 356.838,178.010 358.107 C 178.499 359.376,179.084 360.528,179.311 360.669 C 179.538 360.809,179.642 360.761,179.543 360.562 C 179.241 359.956,178.148 357.367,177.239 355.100 C 177.040 354.605,176.486 353.120,176.007 351.800 C 175.528 350.480,174.970 349.087,174.768 348.705 C 174.566 348.323,174.400 347.659,174.400 347.229 C 174.400 346.799,174.220 346.336,174.000 346.200 C 173.780 346.064,173.600 345.614,173.600 345.200 C 173.600 344.786,173.420 344.336,173.200 344.200 C 172.980 344.064,172.800 344.023,172.800 344.108 " stroke="none" fill="#8cacc8" fill-rule="evenodd"></path></g></svg>