<svg id="svg" version="1.1" xmlns="http://www.w3.org/2000/svg" xmlns:xlink="http://www.w3.org/1999/xlink" width="400" height="400" viewBox="0, 0, 400,400"><g id="svgg"><path id="path0" d="M192.400 63.237 C 177.266 65.207,162.975 70.974,153.832 78.800 C 147.714 84.036,143.855 87.873,142.051 90.514 C 141.717 91.001,141.164 91.670,140.822 92.000 C 138.778 93.968,133.587 102.891,131.397 108.200 C 130.580 110.180,129.752 112.113,129.556 112.495 C 129.360 112.877,129.200 113.464,129.200 113.800 C 129.200 114.136,129.038 114.723,128.839 115.105 C 127.899 116.914,126.330 124.550,125.562 131.049 C 124.807 137.443,125.765 149.119,127.585 155.700 C 128.997 160.806,129.223 161.491,130.753 165.308 C 144.036 198.456,179.162 217.612,214.200 210.818 C 215.300 210.605,216.830 210.321,217.600 210.188 C 218.370 210.055,219.360 209.801,219.800 209.625 C 220.240 209.449,221.860 208.912,223.400 208.432 C 227.016 207.305,226.927 207.342,232.844 204.470 C 236.952 202.476,245.157 197.463,246.000 196.432 C 246.110 196.297,246.830 195.676,247.600 195.051 C 251.547 191.847,257.427 185.656,259.995 182.000 C 260.536 181.230,261.298 180.251,261.689 179.825 C 262.080 179.398,262.400 178.813,262.400 178.525 C 262.400 178.236,262.580 178.000,262.800 178.000 C 263.020 178.000,263.200 177.803,263.200 177.562 C 263.200 177.321,263.569 176.605,264.021 175.970 C 272.466 164.110,276.697 141.381,273.545 124.800 C 271.345 113.225,263.830 95.712,259.642 92.400 C 259.503 92.290,258.588 91.210,257.610 90.000 C 255.334 87.186,249.981 81.830,247.400 79.785 C 246.300 78.913,245.310 78.095,245.200 77.966 C 244.482 77.127,237.104 72.586,233.629 70.845 C 221.147 64.589,204.961 61.602,192.400 63.237 M193.800 237.793 C 193.580 237.896,190.430 238.171,186.800 238.403 C 176.319 239.073,168.164 240.209,158.400 242.360 C 156.739 242.726,155.921 242.923,151.700 243.973 C 150.875 244.179,149.570 244.527,148.800 244.746 C 148.030 244.966,146.950 245.263,146.400 245.406 C 141.279 246.738,128.308 251.376,123.000 253.773 C 121.900 254.269,120.201 255.019,119.224 255.438 C 110.742 259.078,94.401 268.550,87.200 274.000 C 86.430 274.582,84.720 275.855,83.400 276.829 C 82.080 277.802,80.910 278.699,80.800 278.822 C 80.690 278.944,79.759 279.679,78.732 280.454 C 69.567 287.368,56.244 300.816,47.498 311.980 L 44.850 315.361 45.525 316.566 C 45.896 317.229,46.605 318.191,47.100 318.704 C 47.595 319.217,48.000 319.771,48.000 319.935 C 48.000 320.099,48.585 320.867,49.300 321.641 C 50.015 322.415,51.224 323.847,51.986 324.824 C 52.749 325.801,54.098 327.381,54.985 328.336 C 55.872 329.291,56.958 330.536,57.399 331.104 C 58.451 332.459,67.561 341.564,68.927 342.626 C 69.511 343.080,71.026 344.444,72.294 345.657 C 73.562 346.871,75.140 348.209,75.800 348.632 C 76.460 349.054,77.668 350.075,78.484 350.900 C 79.300 351.725,80.122 352.400,80.309 352.400 C 80.496 352.400,80.998 352.720,81.425 353.111 C 81.851 353.502,82.830 354.261,83.600 354.798 C 84.370 355.334,85.232 355.998,85.515 356.273 C 85.798 356.547,86.563 357.087,87.215 357.472 C 87.867 357.857,88.400 358.314,88.400 358.486 C 88.400 358.659,88.670 358.800,89.000 358.800 C 89.330 358.800,89.600 358.980,89.600 359.200 C 89.600 359.420,89.870 359.600,90.200 359.600 C 90.530 359.600,90.800 359.780,90.800 360.000 C 90.800 360.220,90.988 360.400,91.217 360.400 C 91.446 360.400,92.020 360.760,92.492 361.200 C 92.964 361.640,93.587 362.000,93.875 362.000 C 94.164 362.000,94.400 362.152,94.400 362.337 C 94.400 362.523,95.210 363.091,96.200 363.600 C 97.190 364.109,98.000 364.677,98.000 364.863 C 98.000 365.048,98.241 365.200,98.535 365.200 C 98.829 365.200,100.075 365.920,101.304 366.800 C 102.533 367.680,103.660 368.400,103.809 368.400 C 104.197 368.400,106.962 369.711,107.200 370.008 C 107.310 370.146,107.734 370.382,108.142 370.533 C 108.580 370.695,108.791 371.045,108.659 371.391 C 108.536 371.712,108.635 372.098,108.879 372.249 C 109.138 372.409,109.212 372.342,109.055 372.089 C 108.908 371.851,108.945 371.558,109.137 371.439 C 109.551 371.183,111.592 372.064,111.597 372.500 C 111.599 372.665,111.960 372.800,112.400 372.800 C 112.840 372.800,113.200 372.980,113.200 373.200 C 113.200 373.420,113.560 373.600,114.000 373.600 C 114.440 373.600,114.800 373.780,114.800 374.000 C 114.800 374.220,115.160 374.400,115.600 374.400 C 116.040 374.400,116.400 374.580,116.400 374.800 C 116.400 375.020,116.772 375.200,117.227 375.200 C 117.884 375.200,118.008 375.385,117.831 376.100 C 117.708 376.595,117.711 376.775,117.837 376.500 C 118.109 375.908,120.000 375.820,120.000 376.400 C 120.000 376.620,120.360 376.800,120.800 376.800 C 121.240 376.800,121.600 376.980,121.600 377.200 C 121.600 377.420,121.960 377.600,122.400 377.600 C 122.840 377.600,123.200 377.780,123.200 378.000 C 123.200 378.220,123.650 378.400,124.200 378.400 C 124.750 378.400,125.200 378.580,125.200 378.800 C 125.200 379.020,125.650 379.200,126.200 379.200 C 126.750 379.200,127.200 379.380,127.200 379.600 C 127.200 379.820,127.560 380.000,128.000 380.000 C 128.440 380.000,128.800 380.180,128.800 380.400 C 128.800 380.620,129.340 380.800,130.000 380.800 C 130.660 380.800,131.200 380.999,131.200 381.243 C 131.200 381.486,131.465 381.584,131.788 381.460 C 132.112 381.336,132.651 381.508,132.985 381.842 C 133.320 382.177,133.742 382.359,133.923 382.247 C 134.366 381.974,137.338 383.015,137.500 383.500 C 137.570 383.711,138.069 383.799,138.609 383.696 C 139.237 383.576,139.671 383.720,139.815 384.095 C 139.955 384.460,140.393 384.614,140.973 384.503 C 141.486 384.405,142.028 384.522,142.177 384.762 C 142.325 385.003,142.892 385.200,143.436 385.200 C 143.980 385.200,144.515 385.433,144.624 385.718 C 144.752 386.052,145.317 386.179,146.211 386.075 C 147.254 385.953,147.600 386.063,147.600 386.515 C 147.600 386.941,147.982 387.101,148.900 387.059 C 149.615 387.027,150.170 387.180,150.133 387.400 C 150.094 387.634,150.801 387.742,151.833 387.660 C 152.937 387.572,153.600 387.685,153.600 387.960 C 153.600 388.207,154.302 388.400,155.200 388.400 C 156.268 388.400,156.800 388.578,156.800 388.935 C 156.800 389.302,157.330 389.458,158.493 389.435 C 159.533 389.413,160.189 389.580,160.193 389.867 C 160.197 390.123,160.335 390.468,160.500 390.633 C 160.665 390.798,160.800 390.723,160.800 390.467 C 160.800 390.179,161.505 390.000,162.643 390.000 C 164.099 390.000,164.438 390.123,164.260 390.587 C 164.136 390.910,164.207 391.281,164.417 391.411 C 164.628 391.541,164.800 391.457,164.800 391.224 C 164.800 390.982,165.659 390.800,166.800 390.800 C 167.900 390.800,168.800 390.980,168.800 391.200 C 168.800 391.426,169.933 391.600,171.400 391.600 C 172.867 391.600,174.000 391.774,174.000 392.000 C 174.000 392.233,175.333 392.400,177.200 392.400 C 179.067 392.400,180.400 392.567,180.400 392.800 C 180.400 393.046,182.392 393.200,185.576 393.200 C 188.596 393.200,190.856 393.367,191.000 393.600 C 191.153 393.847,194.604 394.000,200.024 394.000 C 205.608 394.000,208.800 393.855,208.800 393.600 C 208.800 393.353,210.867 393.200,214.200 393.200 C 217.533 393.200,219.600 393.047,219.600 392.800 C 219.600 392.567,220.933 392.400,222.800 392.400 C 224.667 392.400,226.000 392.233,226.000 392.000 C 226.000 391.775,227.125 391.600,228.576 391.600 C 229.993 391.600,231.264 391.420,231.400 391.200 C 231.753 390.628,235.200 390.689,235.200 391.267 C 235.200 391.523,235.335 391.598,235.500 391.433 C 235.665 391.268,235.802 390.923,235.805 390.667 C 235.808 390.370,236.563 390.206,237.877 390.216 C 239.094 390.225,239.914 390.060,239.872 389.816 C 239.832 389.584,240.509 389.404,241.400 389.410 C 242.326 389.415,243.185 389.178,243.440 388.848 C 243.747 388.449,244.320 388.347,245.331 388.511 C 246.337 388.675,246.754 388.602,246.691 388.273 C 246.641 388.012,247.138 387.749,247.800 387.686 C 248.460 387.623,249.393 387.374,249.874 387.132 C 250.354 386.891,251.108 386.787,251.548 386.902 C 252.022 387.026,252.435 386.885,252.562 386.556 C 252.679 386.250,253.310 386.000,253.964 386.000 C 254.618 386.000,255.275 385.803,255.423 385.562 C 255.572 385.322,256.127 385.208,256.657 385.309 C 257.256 385.423,257.748 385.264,257.959 384.887 C 258.167 384.517,258.620 384.364,259.124 384.496 C 259.642 384.632,260.034 384.489,260.179 384.110 C 260.323 383.735,260.754 383.574,261.326 383.684 C 261.830 383.780,262.472 383.613,262.753 383.313 C 263.033 383.012,263.588 382.869,263.984 382.995 C 264.412 383.131,264.794 382.991,264.925 382.652 C 265.046 382.337,265.915 381.950,266.857 381.790 C 267.799 381.631,268.891 381.343,269.285 381.151 C 269.678 380.958,270.358 380.620,270.795 380.400 C 271.232 380.180,271.862 380.000,272.195 380.000 C 272.528 380.000,272.800 379.820,272.800 379.600 C 272.800 379.380,273.250 379.200,273.800 379.200 C 274.350 379.200,274.800 379.020,274.800 378.800 C 274.800 378.580,275.250 378.400,275.800 378.400 C 276.350 378.400,276.800 378.220,276.800 378.000 C 276.800 377.780,277.160 377.600,277.600 377.600 C 278.040 377.600,278.400 377.420,278.400 377.200 C 278.400 376.980,278.850 376.800,279.400 376.800 C 279.950 376.800,280.400 376.620,280.400 376.400 C 280.400 376.180,280.760 376.000,281.200 376.000 C 281.640 376.000,282.000 375.820,282.000 375.600 C 282.000 375.380,282.360 375.200,282.800 375.200 C 283.240 375.200,283.600 375.020,283.600 374.800 C 283.600 374.580,283.960 374.400,284.400 374.400 C 284.840 374.400,285.200 374.220,285.200 374.000 C 285.200 373.780,285.560 373.600,286.000 373.600 C 286.440 373.600,286.800 373.420,286.800 373.200 C 286.800 372.980,287.160 372.800,287.600 372.800 C 288.040 372.800,288.400 372.620,288.400 372.400 C 288.400 372.180,288.745 372.000,289.167 372.000 C 289.588 372.000,289.993 371.865,290.067 371.700 C 290.140 371.535,291.640 370.680,293.400 369.800 C 295.160 368.920,296.744 367.975,296.920 367.700 C 297.096 367.425,297.414 367.200,297.628 367.200 C 297.841 367.200,298.777 366.711,299.708 366.114 C 300.639 365.517,301.514 365.060,301.652 365.098 C 301.791 365.137,302.224 364.815,302.614 364.384 C 303.005 363.953,303.616 363.600,303.974 363.600 C 304.331 363.600,304.883 363.240,305.200 362.800 C 305.517 362.360,305.973 362.000,306.213 362.000 C 306.453 362.000,306.998 361.685,307.425 361.300 C 307.851 360.915,308.695 360.345,309.300 360.032 C 309.905 359.720,310.400 359.315,310.400 359.132 C 310.400 358.950,310.670 358.800,311.000 358.800 C 311.330 358.800,311.600 358.620,311.600 358.400 C 311.600 358.180,311.778 358.000,311.995 358.000 C 312.213 358.000,312.768 357.685,313.229 357.300 C 315.190 355.662,315.637 355.322,317.826 353.800 C 319.091 352.920,320.613 351.724,321.209 351.142 C 321.804 350.560,323.007 349.565,323.882 348.932 C 329.008 345.218,344.373 329.872,348.200 324.643 C 348.860 323.741,349.985 322.380,350.700 321.618 C 351.415 320.857,352.000 320.099,352.000 319.935 C 352.000 319.771,352.450 319.186,353.000 318.636 C 353.550 318.086,354.000 317.448,354.000 317.218 C 354.000 316.988,354.167 316.800,354.371 316.800 C 355.600 316.800,353.408 312.359,351.213 310.400 C 351.090 310.290,350.182 309.210,349.195 308.000 C 340.101 296.849,323.715 281.479,313.800 274.800 C 312.700 274.059,311.710 273.336,311.600 273.194 C 309.689 270.723,285.361 257.104,276.600 253.601 C 276.160 253.425,275.170 253.007,274.400 252.672 C 270.772 251.092,260.163 247.295,256.400 246.229 C 255.850 246.073,254.860 245.788,254.200 245.596 C 243.607 242.502,234.404 240.631,222.600 239.171 C 215.462 238.289,194.842 237.301,193.800 237.793 " stroke="none" fill="#4494fc" fill-rule="evenodd"></path><path id="path1" d="M182.800 6.400 C 182.800 6.640,181.211 6.800,178.833 6.800 C 176.652 6.800,174.807 6.967,174.733 7.171 C 174.660 7.374,173.430 7.584,172.000 7.637 C 170.570 7.689,169.306 7.871,169.191 8.042 C 169.077 8.212,167.952 8.393,166.691 8.444 C 165.431 8.495,164.400 8.670,164.400 8.834 C 164.400 8.997,163.866 9.046,163.214 8.943 C 162.562 8.841,161.672 8.948,161.236 9.181 C 160.799 9.414,159.938 9.631,159.321 9.662 C 158.705 9.692,157.432 9.960,156.493 10.256 C 155.554 10.553,154.654 10.768,154.493 10.734 C 154.332 10.701,153.930 10.786,153.600 10.924 C 153.270 11.062,152.550 11.243,152.000 11.326 C 151.450 11.409,150.730 11.569,150.400 11.682 C 148.070 12.478,146.831 12.800,146.095 12.800 C 145.629 12.800,145.136 12.980,145.000 13.200 C 144.864 13.420,144.234 13.600,143.600 13.600 C 142.966 13.600,142.336 13.780,142.200 14.000 C 142.064 14.220,141.503 14.400,140.953 14.400 C 140.388 14.400,140.060 14.574,140.200 14.800 C 140.349 15.042,139.804 15.200,138.824 15.200 C 137.931 15.200,137.200 15.380,137.200 15.600 C 137.200 15.820,136.845 16.000,136.412 16.000 C 135.979 16.000,134.983 16.360,134.200 16.800 C 133.417 17.240,132.432 17.600,132.011 17.600 C 131.591 17.600,131.158 17.744,131.049 17.921 C 130.940 18.097,129.939 18.490,128.825 18.793 C 127.711 19.096,126.800 19.492,126.800 19.672 C 126.800 19.853,126.350 20.000,125.800 20.000 C 125.250 20.000,124.800 20.180,124.800 20.400 C 124.800 20.620,124.440 20.800,124.000 20.800 C 123.560 20.800,123.200 20.980,123.200 21.200 C 123.200 21.420,122.840 21.600,122.400 21.600 C 121.960 21.600,121.600 21.780,121.600 22.000 C 121.600 22.220,121.240 22.400,120.800 22.400 C 120.360 22.400,120.000 22.580,120.000 22.800 C 120.000 23.020,119.449 23.200,118.776 23.200 C 118.063 23.200,117.656 23.367,117.800 23.600 C 117.936 23.820,117.764 24.000,117.418 24.000 C 117.072 24.000,116.477 24.159,116.095 24.352 C 115.713 24.546,113.960 25.389,112.200 26.225 C 110.440 27.061,108.940 27.893,108.867 28.073 C 108.793 28.253,108.388 28.400,107.967 28.400 C 107.545 28.400,107.200 28.580,107.200 28.800 C 107.200 29.020,106.930 29.200,106.600 29.200 C 106.270 29.200,106.000 29.380,106.000 29.600 C 106.000 29.820,105.722 30.000,105.383 30.000 C 105.044 30.000,104.380 30.360,103.908 30.800 C 103.436 31.240,102.757 31.600,102.400 31.600 C 102.043 31.600,101.364 31.960,100.892 32.400 C 100.420 32.840,99.917 33.200,99.775 33.200 C 99.632 33.200,98.770 33.695,97.858 34.300 C 96.946 34.905,95.705 35.655,95.100 35.968 C 94.495 36.280,94.000 36.685,94.000 36.868 C 94.000 37.050,93.764 37.200,93.475 37.200 C 93.187 37.200,92.564 37.560,92.092 38.000 C 91.620 38.440,91.112 38.800,90.964 38.800 C 90.815 38.800,90.403 39.116,90.047 39.503 C 89.691 39.889,88.905 40.460,88.300 40.770 C 87.695 41.081,87.200 41.485,87.200 41.668 C 87.200 41.850,86.870 42.000,86.467 42.000 C 86.063 42.000,85.044 42.675,84.203 43.500 C 83.361 44.325,82.804 44.730,82.966 44.400 C 83.127 44.070,82.976 44.149,82.630 44.576 C 82.283 45.004,82.000 45.209,82.000 45.034 C 82.000 44.859,81.505 45.229,80.900 45.858 C 80.295 46.486,79.311 47.252,78.714 47.560 C 78.116 47.868,77.722 48.273,77.837 48.460 C 77.953 48.647,77.767 48.800,77.424 48.800 C 77.081 48.800,76.800 48.980,76.800 49.200 C 76.800 49.420,76.530 49.600,76.200 49.600 C 75.870 49.600,75.600 49.870,75.600 50.200 C 75.600 50.530,75.462 50.800,75.293 50.800 C 75.124 50.800,73.832 51.871,72.422 53.180 C 71.012 54.489,69.755 55.502,69.629 55.432 C 69.280 55.239,67.617 57.084,67.893 57.359 C 68.025 57.492,67.940 57.600,67.704 57.600 C 67.468 57.600,66.358 58.484,65.238 59.564 C 64.117 60.644,63.200 61.441,63.200 61.335 C 63.200 61.229,62.930 61.413,62.600 61.743 C 62.270 62.073,62.000 62.546,62.000 62.795 C 62.000 63.044,61.820 63.136,61.600 63.000 C 61.380 62.864,61.200 62.916,61.200 63.115 C 61.200 63.314,60.570 64.126,59.800 64.919 C 59.030 65.712,58.400 66.579,58.400 66.847 C 58.400 67.114,58.299 67.232,58.176 67.109 C 57.915 66.848,56.000 68.671,56.000 69.180 C 56.000 69.369,54.695 70.876,53.100 72.528 C 49.477 76.281,48.800 77.091,48.800 77.671 C 48.800 77.925,48.681 78.014,48.535 77.869 C 48.390 77.723,47.818 78.278,47.264 79.102 C 46.710 79.926,45.902 80.915,45.467 81.300 C 45.033 81.685,44.830 82.000,45.015 82.000 C 45.201 82.000,45.004 82.283,44.576 82.630 C 44.149 82.976,44.070 83.142,44.400 82.999 C 44.730 82.856,44.595 83.097,44.100 83.534 C 43.605 83.971,43.200 84.505,43.200 84.721 C 43.200 84.938,42.930 85.218,42.600 85.345 C 42.270 85.471,42.000 85.941,42.000 86.387 C 42.000 86.834,41.820 87.200,41.600 87.200 C 41.380 87.200,41.200 87.481,41.200 87.824 C 41.200 88.167,41.020 88.336,40.800 88.200 C 40.580 88.064,40.400 88.284,40.400 88.688 C 40.400 89.093,40.040 89.683,39.600 90.000 C 39.160 90.317,38.800 90.807,38.800 91.088 C 38.800 91.370,38.650 91.600,38.468 91.600 C 38.285 91.600,37.880 92.095,37.568 92.700 C 37.255 93.305,36.685 94.149,36.300 94.575 C 35.915 95.002,35.600 95.572,35.600 95.842 C 35.600 96.112,35.433 96.393,35.230 96.467 C 35.026 96.540,34.801 96.863,34.730 97.184 C 34.658 97.506,34.285 98.125,33.900 98.560 C 33.515 98.995,33.200 99.587,33.200 99.875 C 33.200 100.164,33.020 100.400,32.800 100.400 C 32.580 100.400,32.400 100.670,32.400 101.000 C 32.400 101.330,32.220 101.600,32.000 101.600 C 31.780 101.600,31.600 101.870,31.600 102.200 C 31.600 102.530,31.409 102.800,31.176 102.800 C 30.943 102.800,30.855 102.965,30.980 103.168 C 31.105 103.370,30.936 103.807,30.604 104.139 C 30.272 104.471,30.000 105.026,30.000 105.371 C 30.000 105.717,29.820 106.000,29.600 106.000 C 29.380 106.000,29.200 106.270,29.200 106.600 C 29.200 106.930,29.020 107.200,28.800 107.200 C 28.580 107.200,28.400 107.560,28.400 108.000 C 28.400 108.440,28.209 108.800,27.976 108.800 C 27.743 108.800,27.651 108.960,27.772 109.155 C 27.893 109.350,27.725 109.730,27.400 110.000 C 27.075 110.270,26.907 110.650,27.028 110.845 C 27.149 111.040,27.089 111.200,26.895 111.200 C 26.516 111.200,24.800 114.746,24.800 115.528 C 24.800 115.788,24.620 116.000,24.400 116.000 C 24.180 116.000,24.000 116.360,24.000 116.800 C 24.000 117.240,23.820 117.600,23.600 117.600 C 23.380 117.600,23.200 118.140,23.200 118.800 C 23.200 119.460,23.020 120.000,22.800 120.000 C 22.580 120.000,22.400 120.360,22.400 120.800 C 22.400 121.240,22.220 121.600,22.000 121.600 C 21.780 121.600,21.600 121.960,21.600 122.400 C 21.600 122.840,21.420 123.200,21.200 123.200 C 20.980 123.200,20.800 123.560,20.800 124.000 C 20.800 124.440,20.620 124.800,20.400 124.800 C 20.180 124.800,20.000 125.250,20.000 125.800 C 20.000 126.350,19.820 126.800,19.600 126.800 C 19.380 126.800,19.200 127.149,19.200 127.576 C 19.200 128.003,19.020 128.464,18.800 128.600 C 18.580 128.736,18.400 129.199,18.400 129.629 C 18.400 130.059,18.241 130.723,18.047 131.105 C 17.852 131.487,17.471 132.340,17.200 133.000 C 16.929 133.660,16.548 134.513,16.353 134.895 C 16.159 135.277,16.000 136.052,16.000 136.618 C 16.000 137.202,15.827 137.540,15.600 137.400 C 15.358 137.250,15.200 137.804,15.200 138.800 C 15.200 139.796,15.042 140.350,14.800 140.200 C 14.574 140.060,14.400 140.388,14.400 140.953 C 14.400 141.503,14.220 142.064,14.000 142.200 C 13.780 142.336,13.600 142.898,13.600 143.450 C 13.600 144.001,13.430 144.770,13.223 145.157 C 13.016 145.545,12.782 146.336,12.705 146.916 C 12.627 147.495,12.437 148.097,12.282 148.252 C 12.127 148.407,12.000 148.943,12.000 149.443 C 12.000 149.943,11.859 150.440,11.687 150.546 C 11.515 150.652,11.330 151.326,11.275 152.043 C 11.221 152.760,11.003 153.555,10.792 153.810 C 10.580 154.065,10.501 154.368,10.617 154.483 C 10.732 154.599,10.562 155.482,10.239 156.447 C 9.916 157.411,9.695 158.785,9.749 159.500 C 9.802 160.215,9.720 160.800,9.566 160.800 C 9.072 160.800,8.840 161.894,8.571 165.488 C 8.426 167.420,8.148 169.171,7.954 169.380 C 7.759 169.589,7.600 170.894,7.600 172.280 C 7.600 173.693,7.424 174.800,7.200 174.800 C 6.963 174.800,6.800 176.259,6.800 178.376 C 6.800 180.343,6.620 182.064,6.400 182.200 C 5.852 182.539,5.852 217.061,6.400 217.400 C 6.620 217.536,6.800 219.242,6.800 221.190 C 6.800 223.139,6.970 224.793,7.178 224.867 C 7.386 224.940,7.593 226.299,7.638 227.886 C 7.684 229.474,7.847 230.695,8.001 230.600 C 8.155 230.504,8.393 232.134,8.530 234.220 C 8.667 236.307,8.976 238.382,9.217 238.832 C 9.458 239.282,9.666 240.224,9.681 240.925 C 9.695 241.626,9.875 242.526,10.081 242.925 C 10.286 243.324,10.470 244.185,10.489 244.839 C 10.507 245.493,10.675 246.123,10.861 246.238 C 11.048 246.353,11.200 247.067,11.200 247.824 C 11.200 248.581,11.380 249.200,11.600 249.200 C 11.820 249.200,12.000 249.682,12.000 250.272 C 12.000 251.363,12.615 253.640,13.249 254.895 C 13.442 255.277,13.600 256.031,13.600 256.571 C 13.600 257.111,13.780 257.664,14.000 257.800 C 14.220 257.936,14.400 258.451,14.400 258.944 C 14.400 259.437,14.579 260.019,14.798 260.238 C 15.016 260.456,15.236 261.122,15.285 261.718 C 15.334 262.313,15.515 262.800,15.687 262.800 C 15.859 262.800,16.000 263.162,16.000 263.605 C 16.000 264.048,16.164 264.723,16.364 265.105 C 17.304 266.900,17.925 268.597,17.748 268.884 C 17.641 269.058,17.743 269.200,17.976 269.200 C 18.209 269.200,18.400 269.639,18.400 270.176 C 18.400 270.713,18.580 271.264,18.800 271.400 C 19.020 271.536,19.200 272.007,19.200 272.447 C 19.200 272.887,19.380 273.136,19.600 273.000 C 19.833 272.856,20.000 273.263,20.000 273.976 C 20.000 274.649,20.180 275.200,20.400 275.200 C 20.620 275.200,20.800 275.560,20.800 276.000 C 20.800 276.440,20.980 276.800,21.200 276.800 C 21.420 276.800,21.600 277.160,21.600 277.600 C 21.600 278.040,21.780 278.400,22.000 278.400 C 22.220 278.400,22.400 278.760,22.400 279.200 C 22.400 279.640,22.580 280.000,22.800 280.000 C 23.020 280.000,23.200 280.540,23.200 281.200 C 23.200 281.860,23.336 282.400,23.502 282.400 C 23.669 282.400,24.049 282.985,24.348 283.700 C 25.953 287.545,26.575 288.800,26.871 288.800 C 27.052 288.800,27.164 288.935,27.120 289.100 C 26.976 289.642,28.644 292.822,28.925 292.541 C 29.076 292.390,29.200 292.657,29.200 293.133 C 29.200 293.610,29.380 294.000,29.600 294.000 C 29.820 294.000,30.000 294.345,30.000 294.767 C 30.000 295.188,30.135 295.593,30.300 295.667 C 30.465 295.740,31.033 296.655,31.563 297.700 C 32.092 298.745,32.677 299.600,32.863 299.600 C 33.048 299.600,33.200 299.960,33.200 300.400 C 33.200 300.840,33.380 301.200,33.600 301.200 C 33.820 301.200,34.000 301.436,34.000 301.725 C 34.000 302.013,34.360 302.636,34.800 303.108 C 35.240 303.580,35.600 304.109,35.600 304.283 C 35.601 304.457,36.051 305.123,36.600 305.762 C 37.150 306.401,37.600 307.049,37.600 307.201 C 37.600 307.353,37.915 307.850,38.300 308.305 C 40.165 310.510,40.400 310.840,40.400 311.258 C 40.400 311.504,40.719 311.997,41.109 312.353 C 41.499 312.709,42.035 313.495,42.301 314.100 C 42.566 314.705,42.977 315.200,43.215 315.200 C 43.453 315.200,43.536 315.380,43.400 315.600 C 43.264 315.820,43.349 316.000,43.589 316.000 C 43.829 316.000,44.144 315.685,44.290 315.300 C 44.436 314.915,44.745 314.404,44.978 314.163 C 45.210 313.923,45.850 313.126,46.400 312.392 C 46.950 311.658,47.850 310.507,48.400 309.834 C 48.950 309.161,49.760 308.171,50.200 307.634 C 58.022 298.079,71.914 284.617,80.592 278.181 C 82.563 276.719,83.535 275.946,84.216 275.300 C 84.506 275.025,84.921 274.800,85.138 274.800 C 85.355 274.800,85.593 274.648,85.667 274.461 C 85.836 274.030,95.471 267.600,100.200 264.762 C 111.930 257.722,125.612 251.439,138.000 247.404 C 140.530 246.580,142.913 245.747,143.295 245.553 C 143.677 245.359,144.431 245.200,144.971 245.200 C 145.511 245.200,146.051 245.041,146.171 244.846 C 146.292 244.651,146.887 244.393,147.495 244.271 C 148.565 244.056,150.477 243.598,153.800 242.760 C 157.844 241.740,165.233 240.242,169.400 239.598 C 189.847 236.436,210.738 236.443,230.600 239.616 C 234.973 240.315,237.243 240.723,239.300 241.179 C 243.988 242.218,244.703 242.382,246.400 242.807 C 247.390 243.055,248.787 243.355,249.504 243.473 C 250.221 243.592,250.906 243.849,251.027 244.044 C 251.148 244.240,251.689 244.400,252.229 244.400 C 252.769 244.400,253.523 244.562,253.905 244.761 C 254.287 244.960,255.410 245.347,256.400 245.623 C 267.645 248.751,281.018 254.409,294.800 261.870 C 302.000 265.767,310.913 271.708,319.997 278.662 C 330.519 286.718,341.239 297.433,353.149 311.800 C 353.514 312.240,354.349 313.361,355.006 314.291 C 356.490 316.394,356.395 316.404,357.817 314.008 C 358.468 312.912,359.135 312.012,359.300 312.008 C 359.465 312.004,359.600 311.680,359.600 311.288 C 359.600 310.897,359.960 310.317,360.400 310.000 C 360.840 309.683,361.200 309.221,361.200 308.974 C 361.200 308.726,361.560 308.198,362.000 307.800 C 362.440 307.402,362.800 306.834,362.800 306.538 C 362.800 306.242,362.950 306.000,363.132 306.000 C 363.315 306.000,363.720 305.505,364.032 304.900 C 364.345 304.295,365.095 303.054,365.700 302.142 C 366.305 301.230,366.800 300.368,366.800 300.225 C 366.800 300.083,367.160 299.580,367.600 299.108 C 368.040 298.636,368.400 298.013,368.400 297.725 C 368.400 297.436,368.580 297.200,368.800 297.200 C 369.020 297.200,369.200 296.840,369.200 296.400 C 369.200 295.960,369.380 295.600,369.600 295.600 C 369.820 295.600,370.000 295.274,370.000 294.875 C 370.000 294.477,370.360 293.764,370.800 293.292 C 371.240 292.820,371.600 292.156,371.600 291.817 C 371.600 291.478,371.780 291.200,372.000 291.200 C 372.220 291.200,372.400 290.855,372.400 290.433 C 372.400 290.012,372.557 289.607,372.749 289.533 C 373.221 289.353,375.200 285.381,375.200 284.613 C 375.200 284.276,375.380 284.000,375.600 284.000 C 375.820 284.000,376.000 283.640,376.000 283.200 C 376.000 282.760,376.180 282.400,376.400 282.400 C 376.620 282.400,376.800 281.860,376.800 281.200 C 376.800 280.540,376.980 280.000,377.200 280.000 C 377.420 280.000,377.600 279.640,377.600 279.200 C 377.600 278.760,377.780 278.400,378.000 278.400 C 378.220 278.400,378.400 278.040,378.400 277.600 C 378.400 277.160,378.580 276.800,378.800 276.800 C 379.020 276.800,379.200 276.440,379.200 276.000 C 379.200 275.560,379.380 275.200,379.600 275.200 C 379.820 275.200,380.000 274.750,380.000 274.200 C 380.000 273.650,380.180 273.200,380.400 273.200 C 380.620 273.200,380.800 272.761,380.800 272.224 C 380.800 271.687,380.980 271.136,381.200 271.000 C 381.420 270.864,381.600 270.403,381.600 269.976 C 381.600 269.549,381.780 269.200,382.000 269.200 C 382.220 269.200,382.400 268.755,382.400 268.212 C 382.400 267.669,382.760 266.583,383.200 265.800 C 383.640 265.017,384.000 264.032,384.000 263.611 C 384.000 263.191,384.180 262.736,384.400 262.600 C 384.620 262.464,384.800 261.924,384.800 261.400 C 384.800 260.876,384.980 260.336,385.200 260.200 C 385.420 260.064,385.600 259.524,385.600 259.000 C 385.600 258.476,385.780 257.936,386.000 257.800 C 386.220 257.664,386.400 257.122,386.400 256.595 C 386.400 256.069,386.561 255.224,386.758 254.719 C 386.955 254.213,387.333 252.990,387.597 252.000 C 387.862 251.010,388.240 249.887,388.439 249.505 C 388.638 249.123,388.800 248.178,388.800 247.405 C 388.800 246.632,388.961 246.000,389.158 246.000 C 389.355 246.000,389.618 245.325,389.743 244.500 C 389.867 243.675,390.079 242.280,390.212 241.400 C 390.345 240.520,390.565 239.530,390.699 239.200 C 391.033 238.381,391.102 237.899,391.432 234.100 C 391.590 232.285,391.844 230.800,391.996 230.800 C 392.149 230.800,392.312 229.585,392.359 228.100 C 392.406 226.615,392.614 225.340,392.822 225.267 C 393.030 225.193,393.200 223.438,393.200 221.367 C 393.200 219.075,393.360 217.600,393.608 217.600 C 393.879 217.600,394.007 211.701,393.992 200.000 C 393.977 189.035,393.823 182.400,393.584 182.400 C 393.366 182.400,393.200 180.762,393.200 178.600 C 393.200 176.333,393.039 174.800,392.800 174.800 C 392.578 174.800,392.400 173.733,392.400 172.400 C 392.400 171.080,392.245 170.000,392.055 170.000 C 391.775 170.000,391.195 164.772,391.158 161.908 C 391.153 161.527,390.981 161.112,390.775 160.984 C 390.569 160.857,390.400 160.122,390.400 159.350 C 390.400 158.579,390.224 157.619,390.010 157.218 C 389.795 156.817,389.576 155.915,389.522 155.214 C 389.469 154.513,389.285 153.852,389.113 153.746 C 388.941 153.640,388.800 152.944,388.800 152.200 C 388.800 151.456,388.620 150.736,388.400 150.600 C 388.180 150.464,388.000 149.971,388.000 149.505 C 388.000 148.604,387.335 146.261,386.751 145.105 C 386.558 144.723,386.400 143.969,386.400 143.429 C 386.400 142.889,386.220 142.336,386.000 142.200 C 385.780 142.064,385.600 141.524,385.600 141.000 C 385.600 140.476,385.420 139.936,385.200 139.800 C 384.980 139.664,384.800 139.023,384.800 138.376 C 384.800 137.729,384.620 137.200,384.400 137.200 C 384.180 137.200,384.000 136.838,384.000 136.395 C 384.000 135.952,383.820 135.232,383.600 134.795 C 383.380 134.358,383.020 133.642,382.800 133.205 C 382.580 132.768,382.400 132.038,382.400 131.582 C 382.400 131.126,382.220 130.864,382.000 131.000 C 381.774 131.140,381.600 130.812,381.600 130.247 C 381.600 129.697,381.420 129.136,381.200 129.000 C 380.980 128.864,380.800 128.313,380.800 127.776 C 380.800 127.239,380.620 126.800,380.400 126.800 C 380.180 126.800,380.000 126.350,380.000 125.800 C 380.000 125.250,379.820 124.800,379.600 124.800 C 379.380 124.800,379.200 124.440,379.200 124.000 C 379.200 123.560,379.020 123.200,378.800 123.200 C 378.580 123.200,378.400 122.840,378.400 122.400 C 378.400 121.960,378.220 121.600,378.000 121.600 C 377.780 121.600,377.600 121.251,377.600 120.824 C 377.600 120.397,377.420 119.936,377.200 119.800 C 376.980 119.664,376.800 119.113,376.800 118.576 C 376.800 118.039,376.620 117.600,376.400 117.600 C 376.180 117.600,376.000 117.240,376.000 116.800 C 376.000 116.360,375.820 116.000,375.600 116.000 C 375.380 116.000,375.200 115.794,375.200 115.542 C 375.200 114.871,372.347 109.023,371.944 108.867 C 371.755 108.793,371.600 108.422,371.600 108.042 C 371.600 107.662,371.240 106.964,370.800 106.492 C 370.360 106.020,370.000 105.356,370.000 105.017 C 370.000 104.678,369.820 104.400,369.600 104.400 C 369.380 104.400,369.200 104.040,369.200 103.600 C 369.200 103.160,369.020 102.800,368.800 102.800 C 368.580 102.800,368.400 102.564,368.400 102.275 C 368.400 101.987,368.040 101.364,367.600 100.892 C 367.160 100.420,366.800 99.771,366.800 99.450 C 366.800 99.129,366.665 98.807,366.500 98.733 C 366.135 98.571,364.793 96.600,364.027 95.100 C 363.718 94.495,363.315 94.000,363.132 94.000 C 362.950 94.000,362.800 93.764,362.800 93.475 C 362.800 93.187,362.440 92.564,362.000 92.092 C 361.560 91.620,361.200 91.086,361.200 90.905 C 361.200 90.724,360.840 90.317,360.400 90.000 C 359.960 89.683,359.600 89.103,359.600 88.712 C 359.600 88.320,359.432 88.000,359.227 88.000 C 359.022 88.000,358.746 87.660,358.614 87.245 C 358.482 86.829,357.939 86.019,357.406 85.445 C 356.874 84.870,356.532 84.400,356.648 84.400 C 356.763 84.400,356.619 84.136,356.329 83.814 C 355.173 82.533,354.778 82.000,354.983 82.000 C 355.102 82.000,354.569 81.332,353.799 80.517 C 353.030 79.701,352.400 78.899,352.400 78.735 C 352.400 78.571,351.950 77.986,351.400 77.436 C 350.850 76.886,350.400 76.357,350.400 76.260 C 350.400 76.164,349.140 74.787,347.600 73.200 C 346.060 71.613,344.800 70.054,344.800 69.734 C 344.800 69.414,344.620 69.264,344.400 69.400 C 344.180 69.536,344.000 69.453,344.000 69.216 C 344.000 68.979,342.830 67.615,341.400 66.185 C 339.970 64.755,338.800 63.409,338.800 63.193 C 338.800 62.977,338.519 62.800,338.176 62.800 C 337.833 62.800,337.635 62.665,337.734 62.500 C 337.971 62.109,336.960 61.174,336.643 61.491 C 336.509 61.624,336.400 61.433,336.400 61.067 C 336.400 60.700,336.252 60.400,336.072 60.400 C 335.892 60.400,334.697 59.410,333.418 58.200 C 332.138 56.990,330.925 56.000,330.722 56.000 C 330.519 56.000,330.447 55.847,330.563 55.660 C 330.678 55.473,330.287 55.068,329.692 54.760 C 329.098 54.452,327.689 53.300,326.562 52.200 C 324.425 50.116,324.151 49.881,321.200 47.594 C 320.211 46.828,319.086 45.857,318.700 45.439 C 318.315 45.020,318.000 44.802,318.000 44.955 C 318.000 45.107,317.775 45.043,317.500 44.811 C 317.225 44.580,316.370 43.856,315.600 43.202 C 314.830 42.548,313.885 42.010,313.500 42.006 C 313.115 42.003,312.800 41.850,312.800 41.668 C 312.800 41.485,312.308 41.080,311.707 40.768 C 311.106 40.455,310.095 39.711,309.462 39.114 C 308.828 38.516,307.790 37.797,307.155 37.516 C 306.520 37.235,306.000 36.869,306.000 36.702 C 306.000 36.536,305.719 36.400,305.376 36.400 C 305.033 36.400,304.864 36.220,305.000 36.000 C 305.136 35.780,304.949 35.600,304.585 35.600 C 303.914 35.600,301.511 34.090,301.267 33.514 C 301.193 33.342,300.788 33.200,300.367 33.200 C 299.945 33.200,299.600 33.042,299.600 32.849 C 299.600 32.655,299.060 32.273,298.400 32.000 C 297.740 31.727,297.200 31.345,297.200 31.151 C 297.200 30.958,297.065 30.842,296.900 30.893 C 296.409 31.046,292.415 28.918,292.685 28.648 C 292.822 28.512,292.633 28.400,292.267 28.400 C 291.900 28.400,291.600 28.220,291.600 28.000 C 291.600 27.780,291.354 27.600,291.053 27.600 C 290.752 27.600,289.275 26.970,287.772 26.200 C 286.268 25.430,284.805 24.800,284.519 24.800 C 284.234 24.800,284.000 24.620,284.000 24.400 C 284.000 24.180,283.728 24.000,283.395 24.000 C 283.062 24.000,282.432 23.820,281.995 23.600 C 281.558 23.380,280.842 23.020,280.405 22.800 C 279.968 22.580,279.338 22.400,279.005 22.400 C 278.672 22.400,278.400 22.220,278.400 22.000 C 278.400 21.780,278.040 21.600,277.600 21.600 C 277.160 21.600,276.800 21.420,276.800 21.200 C 276.800 20.980,276.451 20.800,276.024 20.800 C 275.597 20.800,275.136 20.620,275.000 20.400 C 274.864 20.180,274.303 20.000,273.753 20.000 C 273.188 20.000,272.860 19.826,273.000 19.600 C 273.136 19.380,272.887 19.200,272.447 19.200 C 272.007 19.200,271.536 19.020,271.400 18.800 C 271.264 18.580,270.713 18.400,270.176 18.400 C 269.639 18.400,269.200 18.220,269.200 18.000 C 269.200 17.780,268.838 17.600,268.395 17.600 C 267.952 17.600,267.232 17.420,266.795 17.200 C 266.358 16.980,265.642 16.620,265.205 16.400 C 264.768 16.180,263.948 16.000,263.382 16.000 C 262.816 16.000,262.441 15.857,262.549 15.683 C 262.656 15.509,262.184 15.323,261.499 15.271 C 260.814 15.219,260.061 15.034,259.827 14.860 C 259.592 14.686,258.590 14.311,257.600 14.025 C 256.610 13.740,255.049 13.273,254.132 12.988 C 253.214 12.703,252.359 12.574,252.232 12.702 C 252.104 12.829,252.000 12.763,252.000 12.554 C 252.000 12.345,251.513 12.134,250.918 12.085 C 250.322 12.036,249.656 11.816,249.438 11.598 C 249.219 11.379,248.457 11.200,247.744 11.200 C 247.031 11.200,246.350 11.043,246.231 10.850 C 246.112 10.658,245.563 10.500,245.011 10.500 C 244.459 10.500,243.460 10.273,242.791 9.996 C 242.122 9.719,241.472 9.595,241.346 9.721 C 241.220 9.846,240.641 9.760,240.059 9.530 C 239.476 9.299,238.141 9.067,237.091 9.014 C 236.042 8.960,235.067 8.800,234.925 8.658 C 234.783 8.516,233.696 8.400,232.510 8.400 C 231.174 8.400,230.447 8.248,230.600 8.000 C 230.756 7.747,229.737 7.600,227.824 7.600 C 226.075 7.600,224.800 7.431,224.800 7.200 C 224.800 6.963,223.341 6.800,221.224 6.800 C 219.257 6.800,217.536 6.620,217.400 6.400 C 217.060 5.850,182.800 5.850,182.800 6.400 M212.000 63.134 C 220.716 64.761,226.187 66.527,233.600 70.104 C 236.460 71.484,244.946 76.756,245.600 77.559 C 245.710 77.694,246.520 78.330,247.400 78.973 C 249.470 80.485,257.115 88.130,258.627 90.200 C 259.270 91.080,259.908 91.890,260.046 92.000 C 260.632 92.466,265.678 100.475,266.751 102.640 C 268.670 106.513,270.255 110.099,270.799 111.800 C 271.081 112.680,271.441 113.760,271.600 114.200 C 272.379 116.355,272.800 117.936,272.800 118.705 C 272.800 119.171,272.961 119.652,273.158 119.774 C 273.355 119.895,273.608 120.671,273.721 121.497 C 273.833 122.324,274.164 124.350,274.456 126.000 C 275.120 129.758,275.152 144.704,274.505 148.600 C 274.064 151.251,273.727 152.909,272.874 156.600 C 271.111 164.236,265.245 176.513,260.550 182.391 C 255.799 188.339,251.716 192.583,247.400 196.060 C 240.624 201.519,231.534 206.520,224.200 208.825 C 222.660 209.309,221.040 209.848,220.600 210.022 C 220.160 210.197,219.260 210.453,218.600 210.591 C 217.940 210.730,216.590 211.015,215.600 211.225 C 206.835 213.087,192.599 213.271,186.200 211.604 C 185.540 211.432,183.920 211.072,182.600 210.804 C 181.280 210.536,179.840 210.176,179.400 210.004 C 178.960 209.832,177.790 209.458,176.800 209.173 C 175.810 208.889,174.190 208.310,173.200 207.888 C 172.210 207.466,171.040 206.980,170.600 206.809 C 165.445 204.804,155.973 199.052,151.800 195.393 C 140.229 185.245,132.239 173.378,128.373 160.600 C 128.107 159.720,127.748 158.640,127.575 158.200 C 127.402 157.760,127.147 156.860,127.009 156.200 C 126.870 155.540,126.577 154.190,126.357 153.200 C 125.297 148.422,125.057 145.548,125.057 137.600 C 125.057 128.465,125.345 125.890,127.203 118.400 C 127.448 117.410,127.749 116.103,127.871 115.495 C 127.993 114.887,128.251 114.292,128.446 114.171 C 128.641 114.051,128.800 113.601,128.800 113.171 C 128.800 112.741,128.959 112.077,129.153 111.695 C 129.348 111.313,129.689 110.550,129.913 110.000 C 132.067 104.691,134.033 100.917,137.101 96.200 C 138.532 94.000,139.825 92.110,139.974 92.000 C 140.124 91.890,140.510 91.413,140.833 90.940 C 142.768 88.101,149.111 81.789,153.902 77.934 C 161.032 72.196,173.317 66.285,182.000 64.413 C 183.210 64.152,184.753 63.772,185.428 63.569 C 186.104 63.366,187.274 63.182,188.028 63.160 C 188.783 63.138,189.850 62.970,190.400 62.787 C 191.748 62.337,209.238 62.619,212.000 63.134 " stroke="none" fill="#e3ebfc" fill-rule="evenodd"></path><path id="path2" d="M197.900 62.695 C 199.055 62.776,200.945 62.776,202.100 62.695 C 203.255 62.614,202.310 62.548,200.000 62.548 C 197.690 62.548,196.745 62.614,197.900 62.695 M192.705 63.083 C 193.202 63.179,193.922 63.175,194.305 63.075 C 194.687 62.975,194.280 62.896,193.400 62.901 C 192.520 62.905,192.207 62.987,192.705 63.083 M205.905 63.083 C 206.402 63.179,207.122 63.175,207.505 63.075 C 207.887 62.975,207.480 62.896,206.600 62.901 C 205.720 62.905,205.407 62.987,205.905 63.083 M189.100 63.482 C 189.595 63.578,190.405 63.578,190.900 63.482 C 191.395 63.387,190.990 63.309,190.000 63.309 C 189.010 63.309,188.605 63.387,189.100 63.482 M209.100 63.482 C 209.595 63.578,210.405 63.578,210.900 63.482 C 211.395 63.387,210.990 63.309,210.000 63.309 C 209.010 63.309,208.605 63.387,209.100 63.482 M184.500 64.276 C 184.885 64.376,185.515 64.376,185.900 64.276 C 186.285 64.175,185.970 64.093,185.200 64.093 C 184.430 64.093,184.115 64.175,184.500 64.276 M180.200 65.200 C 179.696 65.417,179.622 65.544,180.000 65.544 C 180.330 65.544,180.960 65.389,181.400 65.200 C 181.904 64.983,181.978 64.856,181.600 64.856 C 181.270 64.856,180.640 65.011,180.200 65.200 M151.281 80.603 C 149.676 82.031,148.529 83.200,148.732 83.200 C 148.936 83.200,149.349 82.900,149.651 82.534 C 149.953 82.168,151.244 80.998,152.521 79.934 C 153.797 78.870,154.697 78.001,154.521 78.003 C 154.344 78.005,152.887 79.175,151.281 80.603 M248.488 80.613 C 249.086 81.243,249.647 81.677,249.735 81.579 C 249.823 81.480,249.333 80.965,248.647 80.434 L 247.400 79.469 248.488 80.613 M252.820 84.621 C 253.799 85.733,254.681 86.581,254.781 86.507 C 254.880 86.433,254.079 85.523,253.001 84.486 L 251.040 82.600 252.820 84.621 M142.260 89.693 C 141.486 90.625,140.931 91.465,141.027 91.560 C 141.122 91.655,141.247 91.658,141.304 91.567 C 141.361 91.475,142.000 90.635,142.723 89.700 C 144.425 87.499,144.086 87.495,142.260 89.693 M257.640 90.000 C 258.587 91.210,259.415 92.275,259.481 92.367 C 259.546 92.458,259.596 92.368,259.592 92.167 C 259.587 91.965,258.759 90.900,257.751 89.800 L 255.919 87.800 257.640 90.000 M135.800 98.800 C 135.459 99.460,135.269 100.000,135.379 100.000 C 135.489 100.000,135.859 99.460,136.200 98.800 C 136.541 98.140,136.731 97.600,136.621 97.600 C 136.511 97.600,136.141 98.140,135.800 98.800 M134.200 101.600 C 133.859 102.260,133.669 102.800,133.779 102.800 C 133.889 102.800,134.259 102.260,134.600 101.600 C 134.941 100.940,135.131 100.400,135.021 100.400 C 134.911 100.400,134.541 100.940,134.200 101.600 M131.665 106.617 C 130.995 108.088,131.123 108.402,131.847 107.065 C 132.186 106.440,132.388 105.854,132.296 105.763 C 132.205 105.671,131.921 106.056,131.665 106.617 M271.444 115.800 C 271.773 117.271,272.002 117.590,271.994 116.567 C 271.991 116.145,271.805 115.530,271.582 115.200 C 271.285 114.762,271.248 114.924,271.444 115.800 M272.258 118.800 C 272.575 120.525,272.802 120.851,272.794 119.567 C 272.791 119.035,272.611 118.330,272.394 118.000 C 272.118 117.578,272.077 117.815,272.258 118.800 M127.050 120.050 C 126.717 121.717,127.040 122.040,127.400 120.400 C 127.552 119.709,127.593 119.059,127.491 118.958 C 127.389 118.856,127.191 119.347,127.050 120.050 M273.228 123.033 C 273.244 123.675,273.416 124.560,273.610 125.000 C 273.847 125.534,273.886 125.202,273.727 124.000 C 273.446 121.880,273.188 121.380,273.228 123.033 M126.449 123.000 C 126.416 123.440,126.296 124.250,126.183 124.800 L 125.977 125.800 126.406 124.819 C 126.642 124.279,126.761 123.469,126.672 123.019 C 126.513 122.221,126.507 122.221,126.449 123.000 M274.109 128.000 C 274.109 128.990,274.187 129.395,274.282 128.900 C 274.378 128.405,274.378 127.595,274.282 127.100 C 274.187 126.605,274.109 127.010,274.109 128.000 M125.429 129.629 C 125.276 130.979,125.233 132.166,125.333 132.267 C 125.434 132.367,125.644 131.347,125.800 130.000 C 125.956 128.653,125.999 127.466,125.895 127.362 C 125.791 127.258,125.581 128.278,125.429 129.629 M274.493 131.200 C 274.493 131.970,274.575 132.285,274.676 131.900 C 274.776 131.515,274.776 130.885,274.676 130.500 C 274.575 130.115,274.493 130.430,274.493 131.200 M125.276 143.400 C 125.267 144.060,125.403 145.410,125.580 146.400 C 125.878 148.078,125.902 148.105,125.927 146.800 C 125.942 146.030,125.805 144.680,125.623 143.800 C 125.337 142.420,125.290 142.365,125.276 143.400 M274.188 145.388 C 274.031 147.064,273.989 148.523,274.095 148.629 C 274.201 148.734,274.412 147.446,274.565 145.765 C 274.717 144.084,274.759 142.626,274.658 142.524 C 274.557 142.423,274.345 143.712,274.188 145.388 M126.258 150.800 C 126.575 152.525,126.802 152.851,126.794 151.567 C 126.791 151.035,126.611 150.330,126.394 150.000 C 126.118 149.578,126.077 149.815,126.258 150.800 M273.456 150.484 C 273.321 150.988,273.228 151.850,273.249 152.400 C 273.272 152.989,273.431 152.671,273.636 151.625 C 274.003 149.752,273.873 148.927,273.456 150.484 M127.844 157.800 C 128.173 159.271,128.402 159.590,128.394 158.567 C 128.391 158.145,128.205 157.530,127.982 157.200 C 127.685 156.762,127.648 156.924,127.844 157.800 M129.233 162.096 C 129.182 162.553,131.273 167.749,131.688 168.200 C 131.891 168.420,131.704 167.700,131.272 166.600 C 130.072 163.543,129.269 161.768,129.233 162.096 M267.872 168.619 C 266.932 170.589,267.064 170.924,268.047 169.062 C 268.493 168.216,268.787 167.454,268.701 167.367 C 268.614 167.281,268.241 167.844,267.872 168.619 M132.000 168.947 C 132.000 169.380,133.988 173.200,134.213 173.200 C 134.323 173.200,133.939 172.255,133.359 171.100 C 132.243 168.879,132.000 168.494,132.000 168.947 M265.400 173.600 C 265.059 174.260,264.869 174.800,264.979 174.800 C 265.089 174.800,265.459 174.260,265.800 173.600 C 266.141 172.940,266.331 172.400,266.221 172.400 C 266.111 172.400,265.741 172.940,265.400 173.600 M134.415 173.800 C 134.417 174.020,134.786 174.650,135.236 175.200 C 135.779 175.864,135.915 175.931,135.640 175.400 C 134.966 174.095,134.412 173.372,134.415 173.800 M263.814 176.235 C 263.441 176.804,263.227 177.361,263.339 177.472 C 263.450 177.583,263.829 177.118,264.181 176.437 C 264.959 174.933,264.744 174.815,263.814 176.235 M137.328 178.600 C 137.674 179.260,138.427 180.340,139.001 181.000 C 139.669 181.769,139.520 181.410,138.586 180.000 C 136.859 177.394,136.465 176.955,137.328 178.600 M260.092 181.829 C 259.597 182.583,259.272 183.200,259.369 183.200 C 259.647 183.200,261.304 180.771,261.139 180.606 C 261.057 180.524,260.586 181.074,260.092 181.829 M255.422 187.575 L 253.844 189.400 255.603 187.714 C 256.570 186.786,257.280 185.965,257.180 185.888 C 257.081 185.812,256.290 186.571,255.422 187.575 M146.980 190.287 C 149.168 192.535,151.043 194.290,151.146 194.187 C 151.249 194.084,151.253 193.955,151.154 193.900 C 151.056 193.845,149.181 192.090,146.987 190.000 L 143.000 186.200 146.980 190.287 M250.987 192.100 L 248.600 194.600 251.100 192.213 C 252.475 190.899,253.600 189.774,253.600 189.713 C 253.600 189.417,253.205 189.778,250.987 192.100 M240.927 199.927 C 239.787 200.730,238.911 201.444,238.979 201.513 C 239.146 201.680,242.715 199.261,243.013 198.779 C 243.347 198.239,243.233 198.301,240.927 199.927 M161.600 201.779 C 161.600 201.889,162.140 202.259,162.800 202.600 C 163.460 202.941,164.000 203.131,164.000 203.021 C 164.000 202.911,163.460 202.541,162.800 202.200 C 162.140 201.859,161.600 201.669,161.600 201.779 M237.000 202.400 C 236.340 202.837,235.980 203.192,236.200 203.188 C 236.601 203.182,238.776 201.623,238.400 201.612 C 238.290 201.608,237.660 201.963,237.000 202.400 M233.200 204.400 C 231.990 205.039,231.141 205.571,231.313 205.581 C 231.738 205.607,235.600 203.636,235.600 203.393 C 235.600 203.126,235.655 203.103,233.200 204.400 M166.200 204.356 C 166.420 204.577,167.320 205.057,168.200 205.421 C 170.290 206.287,169.713 205.701,167.505 204.715 C 166.567 204.296,165.980 204.135,166.200 204.356 M182.400 210.400 C 183.768 210.838,184.819 210.838,183.800 210.400 C 183.360 210.211,182.640 210.062,182.200 210.068 C 181.557 210.077,181.596 210.143,182.400 210.400 M216.400 210.418 C 215.962 210.715,216.124 210.752,217.000 210.556 C 218.471 210.227,218.790 209.998,217.767 210.006 C 217.345 210.009,216.730 210.195,216.400 210.418 M186.400 211.200 C 187.768 211.638,188.819 211.638,187.800 211.200 C 187.360 211.011,186.640 210.862,186.200 210.868 C 185.557 210.877,185.596 210.943,186.400 211.200 M212.200 211.219 C 211.642 211.471,211.885 211.507,213.000 211.338 C 213.880 211.204,214.675 211.028,214.767 210.947 C 215.110 210.644,212.968 210.871,212.200 211.219 M191.600 212.020 C 194.150 212.474,196.421 212.436,194.200 211.977 C 193.320 211.795,191.970 211.658,191.200 211.673 C 189.895 211.698,189.922 211.722,191.600 212.020 M205.600 212.000 C 203.512 212.439,205.946 212.457,208.400 212.020 L 210.200 211.700 208.600 211.703 C 207.720 211.704,206.370 211.838,205.600 212.000 M186.800 238.000 L 184.600 238.270 186.800 238.288 C 188.010 238.298,190.170 238.175,191.600 238.014 L 194.200 237.722 191.600 237.726 C 190.170 237.729,188.010 237.852,186.800 238.000 M208.200 238.013 C 209.740 238.171,211.900 238.297,213.000 238.292 L 215.000 238.282 212.600 237.985 C 211.280 237.821,209.120 237.696,207.800 237.706 L 205.400 237.726 208.200 238.013 M178.200 238.800 L 176.600 239.086 178.000 239.096 C 178.770 239.101,179.940 238.968,180.600 238.800 C 182.228 238.386,180.513 238.386,178.200 238.800 M219.400 238.780 C 220.634 239.115,223.464 239.318,223.167 239.050 C 223.075 238.968,221.920 238.800,220.600 238.677 C 219.022 238.530,218.611 238.565,219.400 238.780 M226.000 239.580 C 226.999 239.920,229.482 240.132,229.167 239.851 C 229.075 239.769,228.100 239.599,227.000 239.472 C 225.651 239.316,225.326 239.351,226.000 239.580 M167.000 240.400 C 165.911 240.677,165.893 240.707,166.800 240.725 C 167.350 240.735,168.160 240.589,168.600 240.400 C 169.586 239.976,168.666 239.976,167.000 240.400 M231.400 240.381 C 232.168 240.729,234.310 240.956,233.967 240.653 C 233.875 240.572,233.080 240.396,232.200 240.262 C 231.085 240.093,230.842 240.129,231.400 240.381 M162.800 241.200 C 161.996 241.457,161.957 241.523,162.600 241.532 C 163.040 241.538,163.760 241.389,164.200 241.200 C 165.219 240.762,164.168 240.762,162.800 241.200 M236.000 241.200 C 236.330 241.413,236.960 241.578,237.400 241.566 L 238.200 241.544 237.400 241.200 C 236.204 240.686,235.205 240.686,236.000 241.200 M158.600 242.000 C 157.493 242.282,157.477 242.309,158.400 242.347 C 158.950 242.369,159.670 242.213,160.000 242.000 C 160.681 241.560,160.329 241.560,158.600 242.000 M240.000 241.982 C 240.330 242.205,240.945 242.391,241.367 242.394 C 242.390 242.402,242.071 242.173,240.600 241.844 C 239.724 241.648,239.562 241.685,240.000 241.982 M155.200 242.800 C 154.376 243.064,154.341 243.126,155.000 243.154 C 155.440 243.173,156.070 243.013,156.400 242.800 C 157.101 242.347,156.614 242.347,155.200 242.800 M243.600 242.782 C 243.930 243.005,244.545 243.191,244.967 243.194 C 245.990 243.202,245.671 242.973,244.200 242.644 C 243.324 242.448,243.162 242.485,243.600 242.782 M151.800 243.600 C 150.693 243.882,150.677 243.909,151.600 243.947 C 152.150 243.969,152.870 243.813,153.200 243.600 C 153.881 243.160,153.529 243.160,151.800 243.600 M148.800 244.400 C 147.976 244.664,147.941 244.726,148.600 244.754 C 149.040 244.773,149.670 244.613,150.000 244.400 C 150.701 243.947,150.214 243.947,148.800 244.400 M250.000 244.382 C 250.330 244.605,250.945 244.791,251.367 244.794 C 252.390 244.802,252.071 244.573,250.600 244.244 C 249.724 244.048,249.562 244.085,250.000 244.382 M146.000 245.200 C 145.176 245.464,145.141 245.526,145.800 245.554 C 146.240 245.573,146.870 245.413,147.200 245.200 C 147.901 244.747,147.414 244.747,146.000 245.200 M255.600 245.982 C 255.930 246.205,256.545 246.391,256.967 246.394 C 257.990 246.402,257.671 246.173,256.200 245.844 C 255.324 245.648,255.162 245.685,255.600 245.982 M141.200 246.625 C 140.430 246.916,140.094 247.165,140.454 247.177 C 140.814 247.190,141.714 246.937,142.454 246.616 C 144.120 245.892,143.116 245.900,141.200 246.625 M110.300 259.429 C 109.695 259.757,109.200 260.110,109.200 260.213 C 109.200 260.599,109.832 260.357,110.800 259.600 C 111.989 258.670,111.811 258.609,110.300 259.429 M289.200 259.564 C 289.750 260.014,290.380 260.383,290.600 260.385 C 291.028 260.388,290.305 259.834,289.000 259.160 C 288.469 258.885,288.536 259.021,289.200 259.564 M295.200 262.820 C 296.587 263.761,297.378 264.035,296.400 263.236 C 295.850 262.786,295.220 262.417,295.000 262.415 C 294.780 262.413,294.870 262.596,295.200 262.820 M303.000 267.407 C 303.440 267.766,304.160 268.235,304.600 268.451 L 305.400 268.844 304.600 268.193 C 304.160 267.834,303.440 267.365,303.000 267.149 L 302.200 266.756 303.000 267.407 M86.600 274.032 C 84.230 275.824,83.927 276.302,86.080 274.854 C 87.113 274.159,88.069 273.412,88.203 273.195 C 88.574 272.594,88.339 272.717,86.600 274.032 M311.605 273.073 C 311.608 273.253,312.257 273.819,313.048 274.332 C 313.840 274.845,314.372 275.078,314.231 274.851 C 313.841 274.218,311.599 272.701,311.605 273.073 M82.400 277.249 C 81.006 278.471,81.005 278.472,82.288 277.619 C 82.996 277.148,83.682 276.591,83.812 276.381 C 84.197 275.757,83.877 275.954,82.400 277.249 M316.000 276.087 C 316.000 276.202,318.265 278.127,321.033 280.364 C 323.801 282.600,325.951 284.244,325.810 284.016 C 325.669 283.788,323.719 282.132,321.477 280.335 C 319.235 278.538,317.085 276.799,316.700 276.472 C 316.315 276.144,316.000 275.971,316.000 276.087 M72.770 285.100 L 71.800 286.200 73.000 285.200 C 73.660 284.650,74.275 284.155,74.367 284.100 C 74.458 284.045,74.355 284.000,74.136 284.000 C 73.918 284.000,73.303 284.495,72.770 285.100 M327.774 285.893 C 328.640 286.824,329.435 287.499,329.541 287.393 C 329.647 287.287,329.656 287.155,329.562 287.100 C 329.468 287.045,328.673 286.370,327.796 285.601 L 326.200 284.201 327.774 285.893 M69.385 288.100 L 67.400 290.200 69.500 288.215 C 70.655 287.123,71.600 286.178,71.600 286.115 C 71.600 285.817,71.229 286.149,69.385 288.100 M330.000 287.725 C 330.000 287.794,330.585 288.379,331.300 289.025 L 332.600 290.200 331.425 288.900 C 330.330 287.688,330.000 287.416,330.000 287.725 M62.611 294.389 C 61.089 295.922,59.924 297.231,60.022 297.297 C 60.120 297.363,61.447 296.108,62.971 294.508 C 66.501 290.803,66.252 290.720,62.611 294.389 M338.873 296.388 C 339.052 296.879,344.072 302.061,344.223 301.910 C 344.291 301.842,343.087 300.493,341.547 298.913 C 340.007 297.333,338.804 296.197,338.873 296.388 M57.044 300.337 L 54.688 303.000 57.200 300.489 C 58.582 299.109,59.642 297.911,59.556 297.827 C 59.470 297.743,58.340 298.873,57.044 300.337 M345.654 303.931 C 346.394 304.773,347.068 305.409,347.152 305.345 C 347.378 305.173,345.057 302.462,344.654 302.429 C 344.463 302.413,344.913 303.089,345.654 303.931 M52.077 305.827 C 49.324 309.163,49.648 309.146,52.585 305.800 C 53.840 304.370,54.717 303.212,54.534 303.227 C 54.350 303.242,53.244 304.412,52.077 305.827 M46.800 312.400 C 46.103 313.280,45.623 314.000,45.733 314.000 C 45.843 314.000,46.503 313.280,47.200 312.400 C 47.897 311.520,48.377 310.800,48.267 310.800 C 48.157 310.800,47.497 311.520,46.800 312.400 M354.429 314.607 C 355.074 315.418,355.037 316.800,354.371 316.800 C 354.167 316.800,354.000 316.988,354.000 317.218 C 354.000 317.448,353.550 318.086,353.000 318.636 C 352.450 319.186,352.000 319.771,352.000 319.935 C 352.000 320.099,351.415 320.861,350.700 321.627 C 348.242 324.263,347.244 325.824,347.627 326.430 C 347.918 326.890,347.989 326.860,347.994 326.271 C 348.002 325.290,349.058 324.215,349.336 324.904 C 349.447 325.177,349.551 325.038,349.568 324.596 C 349.586 324.154,349.960 323.568,350.400 323.293 C 350.840 323.018,351.200 322.602,351.200 322.368 C 351.200 321.779,352.250 320.783,352.552 321.086 C 352.689 321.222,352.800 321.048,352.800 320.700 C 352.800 320.352,352.966 320.007,353.170 319.933 C 353.374 319.860,353.599 319.532,353.670 319.204 C 353.742 318.876,354.306 318.119,354.923 317.521 C 356.131 316.354,356.027 315.542,354.522 314.374 C 353.844 313.848,353.839 313.862,354.429 314.607 M44.518 315.469 C 44.004 316.253,43.948 316.583,44.308 316.703 C 44.579 316.793,44.800 317.132,44.800 317.457 C 44.800 317.782,44.980 317.936,45.200 317.800 C 45.420 317.664,45.600 317.844,45.600 318.200 C 45.600 318.556,45.780 318.736,46.000 318.600 C 46.220 318.464,46.402 318.678,46.404 319.076 C 46.406 319.474,46.944 320.224,47.601 320.743 C 48.257 321.261,48.695 321.846,48.574 322.043 C 48.452 322.239,48.644 322.400,49.000 322.400 C 49.356 322.400,49.535 322.581,49.398 322.803 C 49.261 323.024,49.431 323.314,49.775 323.446 C 50.119 323.578,50.400 323.966,50.400 324.309 C 50.400 324.653,50.514 324.820,50.653 324.681 C 50.928 324.405,53.200 326.673,53.200 327.224 C 53.200 327.411,53.650 328.014,54.200 328.564 C 54.750 329.114,55.200 329.782,55.200 330.048 C 55.200 330.315,55.308 330.425,55.441 330.293 C 55.752 329.981,57.549 331.705,57.324 332.100 C 57.230 332.265,57.455 332.400,57.825 332.400 C 58.602 332.400,58.427 332.124,55.931 329.402 C 53.678 326.944,52.802 325.922,51.655 324.411 C 51.075 323.647,50.015 322.394,49.300 321.627 C 48.585 320.861,48.000 320.099,48.000 319.935 C 48.000 319.771,47.595 319.217,47.100 318.704 C 45.573 317.122,44.762 315.398,45.295 314.865 C 45.551 314.609,45.638 314.400,45.489 314.400 C 45.340 314.400,44.903 314.881,44.518 315.469 M344.655 328.841 C 343.366 330.162,342.407 331.341,342.526 331.460 C 342.827 331.760,347.284 327.247,347.127 326.801 C 347.057 326.601,345.945 327.519,344.655 328.841 M58.400 333.400 C 58.400 333.740,58.759 334.000,59.229 334.000 C 59.965 334.000,59.990 333.933,59.457 333.400 C 59.127 333.070,58.754 332.800,58.629 332.800 C 58.503 332.800,58.400 333.070,58.400 333.400 M336.900 337.027 C 334.645 339.317,332.800 341.455,332.800 341.777 C 332.800 342.172,333.158 342.009,333.894 341.282 C 334.495 340.687,334.945 340.065,334.894 339.900 C 334.842 339.735,335.081 339.600,335.424 339.600 C 335.767 339.600,335.936 339.420,335.800 339.200 C 335.664 338.980,335.863 338.800,336.243 338.800 C 336.623 338.800,336.822 338.689,336.686 338.552 C 336.413 338.280,337.009 337.651,338.217 336.937 C 338.648 336.683,338.955 336.278,338.900 336.037 C 338.845 335.797,339.025 335.645,339.300 335.700 C 339.575 335.755,339.755 335.575,339.700 335.300 C 339.645 335.025,339.881 334.800,340.224 334.800 C 340.567 334.800,340.736 334.620,340.600 334.400 C 340.464 334.180,340.524 334.000,340.734 334.000 C 340.943 334.000,341.218 333.730,341.345 333.400 C 341.796 332.225,340.947 332.917,336.900 337.027 M59.730 334.744 C 60.131 334.902,60.401 335.204,60.330 335.416 C 60.258 335.627,60.575 335.965,61.034 336.166 C 61.492 336.368,62.039 336.908,62.248 337.366 C 62.458 337.825,62.861 338.151,63.144 338.090 C 63.428 338.030,63.560 338.141,63.439 338.337 C 63.141 338.820,64.579 340.080,64.997 339.701 C 65.179 339.535,65.219 339.593,65.085 339.829 C 64.951 340.064,65.160 340.514,65.549 340.829 C 66.296 341.431,67.200 341.741,67.200 341.394 C 67.200 340.810,60.309 334.404,59.706 334.428 C 59.051 334.454,59.052 334.477,59.730 334.744 M67.600 341.863 C 67.600 342.061,67.960 342.483,68.400 342.800 C 68.840 343.117,69.200 343.637,69.200 343.955 C 69.200 344.273,69.312 344.421,69.449 344.285 C 69.585 344.148,70.355 344.703,71.158 345.518 C 71.961 346.333,72.884 347.052,73.209 347.116 C 73.534 347.180,72.720 346.187,71.400 344.910 C 68.507 342.112,67.600 341.385,67.600 341.863 M328.856 344.668 C 327.028 346.356,324.802 348.265,323.911 348.910 C 323.020 349.556,321.804 350.560,321.209 351.142 C 320.613 351.724,319.091 352.920,317.826 353.800 C 315.637 355.322,315.190 355.662,313.229 357.300 C 312.768 357.685,312.213 358.000,311.995 358.000 C 311.778 358.000,311.600 358.180,311.600 358.400 C 311.600 359.132,312.751 358.813,313.764 357.800 C 314.314 357.250,314.854 356.800,314.964 356.800 C 315.469 356.800,317.938 354.871,317.716 354.650 C 317.579 354.512,317.740 354.400,318.074 354.400 C 318.408 354.400,319.246 353.860,319.937 353.200 C 320.628 352.540,321.353 352.000,321.548 352.000 C 321.744 352.000,322.510 351.310,323.252 350.466 C 323.993 349.622,325.037 348.698,325.570 348.414 C 326.104 348.129,327.756 346.665,329.240 345.159 C 330.852 343.524,332.020 342.618,332.139 342.911 C 332.248 343.180,332.351 342.995,332.368 342.500 C 332.410 341.317,332.645 341.171,328.856 344.668 M74.367 348.429 C 73.922 348.711,73.972 348.790,74.600 348.798 C 75.040 348.803,75.825 349.346,76.345 350.004 C 76.865 350.662,77.550 351.200,77.869 351.200 C 78.187 351.200,78.336 351.380,78.200 351.600 C 78.064 351.820,78.244 352.000,78.600 352.000 C 78.956 352.000,79.136 352.180,79.000 352.400 C 78.864 352.620,78.951 352.800,79.193 352.800 C 79.435 352.800,80.020 353.160,80.492 353.600 C 80.964 354.040,81.598 354.400,81.899 354.400 C 82.201 354.400,82.336 354.580,82.200 354.800 C 82.064 355.020,82.233 355.200,82.576 355.200 C 82.919 355.200,83.200 355.380,83.200 355.600 C 83.200 355.820,83.470 356.000,83.800 356.000 C 84.130 356.000,84.400 356.180,84.400 356.400 C 84.400 356.620,84.579 356.800,84.797 356.800 C 85.158 356.800,86.489 357.812,87.825 359.100 C 88.110 359.375,88.626 359.600,88.971 359.600 C 89.317 359.600,89.600 359.780,89.600 360.000 C 89.600 360.220,89.870 360.400,90.200 360.400 C 90.530 360.400,90.800 360.220,90.800 360.000 C 90.800 359.780,90.530 359.600,90.200 359.600 C 89.870 359.600,89.600 359.420,89.600 359.200 C 89.600 358.980,89.330 358.800,89.000 358.800 C 88.670 358.800,88.400 358.659,88.400 358.486 C 88.400 358.314,87.867 357.857,87.215 357.472 C 86.563 357.087,85.798 356.547,85.515 356.273 C 85.232 355.998,84.370 355.334,83.600 354.798 C 82.830 354.261,81.851 353.502,81.425 353.111 C 80.998 352.720,80.496 352.400,80.309 352.400 C 80.122 352.400,79.300 351.725,78.484 350.900 C 76.406 348.800,75.059 347.991,74.367 348.429 M309.830 359.624 C 309.359 360.098,309.254 360.400,309.559 360.400 C 310.063 360.400,311.200 359.450,311.200 359.029 C 311.200 358.590,310.594 358.853,309.830 359.624 M91.200 360.629 C 91.200 360.982,92.301 362.000,92.683 362.000 C 92.870 362.000,93.283 362.360,93.600 362.800 C 93.917 363.240,94.497 363.600,94.888 363.600 C 95.280 363.600,95.600 363.780,95.600 364.000 C 95.600 364.220,95.881 364.400,96.224 364.400 C 96.593 364.400,96.731 364.588,96.562 364.862 C 96.393 365.136,96.451 365.215,96.706 365.058 C 96.942 364.912,97.407 365.064,97.739 365.396 C 98.071 365.728,98.626 366.000,98.971 366.000 C 99.317 366.000,99.600 366.180,99.600 366.400 C 99.600 366.620,99.851 366.800,100.158 366.800 C 100.464 366.800,101.293 367.340,102.000 368.000 C 102.749 368.700,103.725 369.203,104.342 369.206 C 105.172 369.211,105.271 369.296,104.800 369.600 C 104.336 369.900,104.462 369.989,105.353 369.994 C 105.987 369.997,106.799 370.315,107.157 370.700 C 107.982 371.587,109.419 372.400,110.161 372.400 C 110.476 372.400,110.793 372.544,110.867 372.720 C 111.258 373.660,114.800 375.147,114.800 374.372 C 114.800 373.867,114.524 373.600,114.000 373.600 C 113.560 373.600,113.200 373.420,113.200 373.200 C 113.200 372.980,112.840 372.800,112.400 372.800 C 111.960 372.800,111.600 372.641,111.600 372.447 C 111.600 372.120,110.339 371.546,109.400 371.443 C 109.180 371.420,108.856 371.175,108.680 370.900 C 108.504 370.625,108.099 370.400,107.780 370.400 C 107.461 370.400,107.200 370.262,107.200 370.094 C 107.200 369.819,104.324 368.400,103.767 368.400 C 103.641 368.400,102.533 367.680,101.304 366.800 C 100.075 365.920,98.829 365.200,98.535 365.200 C 98.241 365.200,98.000 365.048,98.000 364.863 C 98.000 364.677,97.190 364.109,96.200 363.600 C 95.210 363.091,94.400 362.523,94.400 362.337 C 94.400 362.152,94.164 362.000,93.875 362.000 C 93.587 362.000,92.964 361.640,92.492 361.200 C 91.628 360.395,91.200 360.206,91.200 360.629 M308.000 360.732 C 308.000 360.915,307.505 361.320,306.900 361.632 C 305.585 362.311,304.800 363.010,304.800 363.503 C 304.800 363.701,304.395 363.849,303.900 363.832 C 303.381 363.813,303.042 364.012,303.100 364.300 C 303.155 364.575,303.065 364.779,302.900 364.753 C 302.735 364.727,302.465 364.749,302.300 364.803 C 302.135 364.856,301.865 364.928,301.700 364.963 C 301.535 364.998,300.680 365.484,299.800 366.043 C 298.920 366.601,297.885 367.175,297.500 367.317 C 297.115 367.459,296.800 367.861,296.800 368.211 C 296.800 368.561,296.623 368.738,296.406 368.604 C 296.009 368.359,290.316 371.140,290.067 371.700 C 289.993 371.865,289.588 372.000,289.167 372.000 C 288.745 372.000,288.400 372.180,288.400 372.400 C 288.400 372.620,288.040 372.800,287.600 372.800 C 287.160 372.800,286.800 372.980,286.800 373.200 C 286.800 373.420,286.440 373.600,286.000 373.600 C 285.560 373.600,285.200 373.866,285.200 374.190 C 285.200 374.667,285.409 374.701,286.286 374.367 C 287.824 373.782,290.575 372.256,290.733 371.900 C 290.807 371.735,291.212 371.600,291.633 371.600 C 292.055 371.600,292.400 371.409,292.400 371.176 C 292.400 370.943,292.580 370.864,292.800 371.000 C 293.020 371.136,293.200 370.967,293.200 370.624 C 293.200 370.188,293.592 369.998,294.500 369.994 C 295.486 369.989,295.655 369.894,295.200 369.600 C 294.728 369.295,294.822 369.211,295.641 369.206 C 296.245 369.203,297.208 368.697,297.937 368.000 C 298.628 367.340,299.464 366.800,299.796 366.800 C 300.128 366.800,300.400 366.620,300.400 366.400 C 300.400 366.180,300.672 366.000,301.005 366.000 C 301.561 366.000,303.124 365.277,303.600 364.799 C 303.710 364.689,304.295 364.344,304.900 364.032 C 305.505 363.720,306.000 363.315,306.000 363.132 C 306.000 362.950,306.281 362.800,306.624 362.800 C 306.967 362.800,307.136 362.620,307.000 362.400 C 306.864 362.180,307.104 362.000,307.534 362.000 C 307.963 362.000,308.424 361.715,308.557 361.367 C 308.885 360.514,308.866 360.400,308.400 360.400 C 308.180 360.400,308.000 360.550,308.000 360.732 M118.400 376.400 C 118.400 376.620,118.760 376.800,119.200 376.800 C 119.640 376.800,120.000 376.980,120.000 377.200 C 120.000 377.420,120.360 377.600,120.800 377.600 C 121.240 377.600,121.600 377.401,121.600 377.157 C 121.600 376.914,121.323 376.821,120.985 376.950 C 120.635 377.085,120.272 376.931,120.142 376.593 C 119.889 375.934,118.400 375.769,118.400 376.400 M280.400 376.400 C 280.400 376.620,280.670 376.800,281.000 376.800 C 281.330 376.800,281.600 376.620,281.600 376.400 C 281.600 376.180,281.330 376.000,281.000 376.000 C 280.670 376.000,280.400 376.180,280.400 376.400 M274.800 378.800 C 274.800 379.020,275.070 379.200,275.400 379.200 C 275.730 379.200,276.000 379.020,276.000 378.800 C 276.000 378.580,275.730 378.400,275.400 378.400 C 275.070 378.400,274.800 378.580,274.800 378.800 M126.400 379.429 C 126.400 379.847,127.391 380.598,128.100 380.718 C 128.485 380.782,128.800 380.647,128.800 380.418 C 128.800 380.188,128.440 380.000,128.000 380.000 C 127.560 380.000,127.200 379.820,127.200 379.600 C 127.200 379.380,127.020 379.200,126.800 379.200 C 126.580 379.200,126.400 379.303,126.400 379.429 M272.800 379.600 C 272.800 379.820,273.070 380.000,273.400 380.000 C 273.730 380.000,274.000 379.820,274.000 379.600 C 274.000 379.380,273.730 379.200,273.400 379.200 C 273.070 379.200,272.800 379.380,272.800 379.600 M130.000 381.200 C 130.000 381.420,130.270 381.600,130.600 381.600 C 130.930 381.600,131.200 381.420,131.200 381.200 C 131.200 380.980,130.930 380.800,130.600 380.800 C 130.270 380.800,130.000 380.980,130.000 381.200 M269.067 381.067 C 268.581 381.553,268.790 381.979,269.400 381.745 C 269.730 381.618,270.000 381.354,270.000 381.157 C 270.000 380.738,269.449 380.684,269.067 381.067 M132.000 381.813 C 132.000 382.136,132.270 382.400,132.600 382.400 C 132.930 382.400,133.200 382.239,133.200 382.043 C 133.200 381.846,132.930 381.582,132.600 381.455 C 132.235 381.315,132.000 381.455,132.000 381.813 M266.030 381.951 C 264.902 382.266,264.424 383.200,265.390 383.200 C 265.752 383.200,265.936 383.020,265.800 382.800 C 265.656 382.567,266.063 382.400,266.776 382.400 C 267.449 382.400,268.000 382.220,268.000 382.000 C 268.000 381.557,267.485 381.544,266.030 381.951 M134.255 382.600 C 134.387 382.942,134.983 383.200,135.643 383.200 C 136.279 383.200,136.800 383.380,136.800 383.600 C 136.800 383.820,136.995 384.000,137.233 384.000 C 138.558 384.000,135.598 382.108,134.113 382.006 C 134.064 382.003,134.129 382.270,134.255 382.600 M262.900 383.065 C 262.144 383.370,262.301 384.000,263.133 384.000 C 263.537 384.000,263.867 383.730,263.867 383.400 C 263.867 382.775,263.733 382.729,262.900 383.065 M138.345 383.934 C 138.806 384.246,138.806 384.337,138.345 384.520 C 138.045 384.639,138.310 384.751,138.933 384.768 C 140.333 384.807,140.189 383.855,138.769 383.683 C 138.071 383.598,137.953 383.669,138.345 383.934 M260.267 383.867 C 259.858 384.275,259.949 384.800,260.429 384.800 C 260.664 384.800,261.127 384.530,261.457 384.200 C 261.990 383.667,261.972 383.600,261.295 383.600 C 260.876 383.600,260.413 383.720,260.267 383.867 M140.943 385.000 C 141.273 385.330,142.016 385.600,142.595 385.600 C 143.195 385.600,143.541 385.772,143.400 386.000 C 143.264 386.220,143.538 386.400,144.010 386.400 C 145.176 386.400,144.802 385.437,143.569 385.266 C 143.036 385.193,142.429 384.968,142.220 384.766 C 141.500 384.072,140.245 384.302,140.943 385.000 M257.855 385.000 C 257.702 385.401,257.872 385.600,258.370 385.600 C 258.779 385.600,259.218 385.330,259.345 385.000 C 259.498 384.599,259.328 384.400,258.830 384.400 C 258.421 384.400,257.982 384.670,257.855 385.000 M255.400 385.600 C 255.264 385.820,254.634 386.000,254.000 386.000 C 253.366 386.000,252.729 386.192,252.584 386.427 C 252.151 387.126,252.779 387.406,253.613 386.885 C 254.040 386.618,254.764 386.400,255.223 386.400 C 255.682 386.400,256.327 386.130,256.657 385.800 C 257.190 385.267,257.168 385.200,256.452 385.200 C 256.009 385.200,255.536 385.380,255.400 385.600 M145.906 386.283 C 146.404 386.379,146.709 386.624,146.582 386.829 C 146.456 387.033,146.633 387.200,146.976 387.200 C 147.319 387.200,147.600 386.930,147.600 386.600 C 147.600 386.179,147.213 386.016,146.300 386.054 C 145.350 386.094,145.244 386.156,145.906 386.283 M148.533 387.342 C 148.533 387.640,148.908 387.888,149.367 387.894 C 152.130 387.926,152.596 388.015,152.000 388.400 C 151.561 388.684,151.863 388.789,153.124 388.794 C 154.169 388.798,154.750 388.957,154.600 389.200 C 154.456 389.433,154.863 389.600,155.576 389.600 C 156.397 389.600,156.800 389.403,156.800 389.000 C 156.800 388.567,156.356 388.400,155.200 388.400 C 154.320 388.400,153.600 388.220,153.600 388.000 C 153.600 387.780,152.891 387.600,152.024 387.600 C 151.157 387.600,150.336 387.420,150.200 387.200 C 149.832 386.605,148.533 386.716,148.533 387.342 M249.780 387.171 C 249.571 387.376,248.770 387.601,248.000 387.671 C 246.385 387.820,246.270 388.537,247.830 388.731 C 248.507 388.814,248.790 388.707,248.619 388.431 C 248.445 388.149,248.949 387.998,250.076 387.994 C 251.230 387.990,251.615 387.871,251.242 387.634 C 250.794 387.350,250.833 387.243,251.442 387.087 C 252.017 386.940,251.954 386.882,251.180 386.846 C 250.619 386.821,249.989 386.967,249.780 387.171 M243.467 388.667 C 242.890 389.243,243.256 389.600,244.424 389.600 C 245.097 389.600,245.545 389.435,245.421 389.234 C 245.297 389.033,245.421 388.777,245.698 388.666 C 245.974 388.554,245.645 388.449,244.967 388.432 C 244.288 388.414,243.613 388.520,243.467 388.667 M157.902 389.449 C 158.179 389.569,158.295 389.847,158.160 390.065 C 158.014 390.301,158.376 390.409,159.057 390.331 C 160.667 390.147,160.482 389.417,158.800 389.314 C 158.030 389.267,157.626 389.328,157.902 389.449 M239.878 389.456 C 239.420 389.913,240.023 390.400,241.047 390.400 C 241.597 390.400,241.945 390.235,241.821 390.034 C 241.697 389.833,241.821 389.577,242.098 389.466 C 242.374 389.354,242.045 389.249,241.367 389.232 C 240.688 389.214,240.018 389.315,239.878 389.456 M161.506 390.283 C 162.004 390.379,162.300 390.638,162.163 390.859 C 162.013 391.102,162.356 391.210,163.027 391.131 C 165.070 390.890,164.659 389.995,162.533 390.054 C 161.470 390.084,161.008 390.187,161.506 390.283 M235.878 390.256 C 235.431 390.702,236.013 391.200,236.981 391.200 C 237.494 391.200,238.018 390.930,238.145 390.600 C 238.380 389.986,236.442 389.691,235.878 390.256 M165.600 391.200 C 167.050 391.664,168.800 391.664,168.800 391.200 C 168.800 390.979,167.860 390.818,166.700 390.840 C 165.048 390.871,164.813 390.948,165.600 391.200 M231.400 391.200 C 231.110 391.670,232.933 391.670,234.400 391.200 C 235.219 390.938,235.060 390.873,233.524 390.840 C 232.492 390.818,231.536 390.980,231.400 391.200 M171.200 392.000 C 171.200 392.220,171.830 392.400,172.600 392.400 C 173.370 392.400,174.000 392.220,174.000 392.000 C 174.000 391.780,173.370 391.600,172.600 391.600 C 171.830 391.600,171.200 391.780,171.200 392.000 M226.000 392.000 C 226.000 392.220,226.630 392.400,227.400 392.400 C 228.170 392.400,228.800 392.220,228.800 392.000 C 228.800 391.780,228.170 391.600,227.400 391.600 C 226.630 391.600,226.000 391.780,226.000 392.000 M176.400 392.800 C 176.400 393.020,177.300 393.200,178.400 393.200 C 179.500 393.200,180.400 393.020,180.400 392.800 C 180.400 392.580,179.500 392.400,178.400 392.400 C 177.300 392.400,176.400 392.580,176.400 392.800 M219.600 392.800 C 219.600 393.021,220.629 393.197,221.900 393.194 C 223.533 393.190,224.026 393.075,223.600 392.800 C 222.808 392.288,219.600 392.288,219.600 392.800 M184.600 393.600 C 184.442 393.855,185.604 394.000,187.800 394.000 C 189.996 394.000,191.158 393.855,191.000 393.600 C 190.864 393.380,189.424 393.200,187.800 393.200 C 186.176 393.200,184.736 393.380,184.600 393.600 M208.800 393.600 C 208.800 393.837,210.275 394.000,212.424 394.000 C 214.737 394.000,215.958 393.855,215.800 393.600 C 215.664 393.380,214.033 393.200,212.176 393.200 C 210.192 393.200,208.800 393.365,208.800 393.600 " stroke="none" fill="#8bbcfc" fill-rule="evenodd"></path><path id="path3" d="M190.400 62.816 C 189.773 63.026,190.370 63.066,192.000 62.923 C 193.430 62.797,194.675 62.628,194.767 62.547 C 195.095 62.258,191.380 62.486,190.400 62.816 M205.633 62.550 C 205.725 62.632,206.880 62.804,208.200 62.931 C 209.755 63.080,210.248 63.042,209.600 62.821 C 208.614 62.484,205.310 62.259,205.633 62.550 M185.600 63.600 C 184.836 64.094,185.658 64.094,187.200 63.600 L 188.200 63.280 187.200 63.246 C 186.650 63.227,185.930 63.387,185.600 63.600 M212.800 63.600 C 214.342 64.094,215.164 64.094,214.400 63.600 C 214.070 63.387,213.350 63.227,212.800 63.246 L 211.800 63.280 212.800 63.600 M181.800 64.400 C 180.781 64.838,181.832 64.838,183.200 64.400 C 184.004 64.143,184.043 64.077,183.400 64.068 C 182.960 64.062,182.240 64.211,181.800 64.400 M216.800 64.400 C 218.168 64.838,219.219 64.838,218.200 64.400 C 217.760 64.211,217.040 64.062,216.600 64.068 C 215.957 64.077,215.996 64.143,216.800 64.400 M178.800 65.200 C 178.267 65.545,178.267 65.588,178.800 65.588 C 179.130 65.588,179.670 65.413,180.000 65.200 C 180.533 64.855,180.533 64.812,180.000 64.812 C 179.670 64.812,179.130 64.987,178.800 65.200 M220.000 65.200 C 220.330 65.413,220.870 65.588,221.200 65.588 C 221.733 65.588,221.733 65.545,221.200 65.200 C 220.870 64.987,220.330 64.812,220.000 64.812 C 219.467 64.812,219.467 64.855,220.000 65.200 M162.000 72.453 C 160.570 73.337,159.220 74.259,159.000 74.503 C 158.780 74.747,159.103 74.634,159.718 74.253 C 160.332 73.871,161.772 73.009,162.918 72.337 C 165.250 70.968,165.492 70.790,164.967 70.823 C 164.765 70.836,163.430 71.570,162.000 72.453 M234.833 70.958 C 235.253 71.356,238.953 73.251,238.600 72.887 C 238.137 72.410,235.298 70.800,234.921 70.800 C 234.781 70.800,234.742 70.871,234.833 70.958 M155.705 76.525 C 154.993 77.006,154.408 77.544,154.405 77.720 C 154.402 77.897,155.030 77.560,155.800 76.973 C 156.570 76.386,157.200 75.836,157.200 75.753 C 157.200 75.527,157.119 75.569,155.705 76.525 M151.951 79.631 L 150.200 81.262 152.100 79.746 C 153.145 78.913,154.000 78.179,154.000 78.115 C 154.000 77.807,153.563 78.130,151.951 79.631 M247.600 79.508 C 248.590 80.394,249.477 81.045,249.571 80.955 C 249.748 80.786,249.057 80.191,247.000 78.742 C 246.340 78.278,246.610 78.622,247.600 79.508 M146.978 84.110 C 144.371 86.820,144.346 86.862,146.572 84.799 C 147.876 83.589,149.202 82.366,149.519 82.081 C 149.836 81.795,150.019 81.486,149.926 81.392 C 149.832 81.299,148.506 82.522,146.978 84.110 M253.000 84.400 C 254.750 86.160,256.271 87.600,256.381 87.600 C 256.491 87.600,255.150 86.160,253.400 84.400 C 251.650 82.640,250.129 81.200,250.019 81.200 C 249.909 81.200,251.250 82.640,253.000 84.400 M142.355 89.100 C 141.081 90.508,140.256 91.600,140.466 91.600 C 140.557 91.600,141.308 90.790,142.135 89.800 C 143.787 87.824,143.935 87.353,142.355 89.100 M257.865 89.800 C 259.531 91.794,260.113 92.214,258.833 90.500 C 257.284 88.424,256.911 88.000,256.636 88.000 C 256.484 88.000,257.037 88.810,257.865 89.800 M138.193 94.486 C 135.807 98.132,135.017 99.445,135.477 99.000 C 136.161 98.339,140.079 92.346,139.927 92.194 C 139.849 92.116,139.069 93.148,138.193 94.486 M260.002 92.233 C 260.003 92.435,260.468 93.140,261.035 93.800 L 262.066 95.000 261.163 93.600 C 260.004 91.804,260.000 91.799,260.002 92.233 M263.149 97.000 C 263.365 97.440,263.834 98.160,264.193 98.600 L 264.844 99.400 264.451 98.600 C 264.235 98.160,263.766 97.440,263.407 97.000 L 262.756 96.200 263.149 97.000 M134.200 100.800 C 133.859 101.460,133.669 102.000,133.779 102.000 C 133.889 102.000,134.259 101.460,134.600 100.800 C 134.941 100.140,135.131 99.600,135.021 99.600 C 134.911 99.600,134.541 100.140,134.200 100.800 M265.646 101.196 C 266.139 102.073,266.608 102.726,266.687 102.646 C 266.859 102.474,265.206 99.600,264.935 99.600 C 264.833 99.600,265.152 100.318,265.646 101.196 M126.649 120.215 C 126.512 120.573,126.415 121.166,126.434 121.533 C 126.453 121.900,126.627 121.669,126.821 121.020 C 127.198 119.758,127.065 119.133,126.649 120.215 M272.828 119.876 C 272.918 120.915,273.544 121.796,273.572 120.924 C 273.587 120.442,273.420 119.936,273.200 119.800 C 272.980 119.664,272.813 119.698,272.828 119.876 M273.862 124.200 C 273.996 125.080,274.172 125.875,274.253 125.967 C 274.556 126.310,274.329 124.168,273.981 123.400 C 273.729 122.842,273.693 123.085,273.862 124.200 M125.849 123.815 C 125.712 124.173,125.618 124.856,125.641 125.333 C 125.667 125.881,125.803 125.686,126.010 124.803 C 126.360 123.316,126.265 122.733,125.849 123.815 M274.702 131.000 C 274.817 132.980,274.976 134.675,275.055 134.767 C 275.338 135.093,275.115 129.383,274.806 128.400 C 274.634 127.850,274.587 129.020,274.702 131.000 M125.056 128.884 C 124.921 129.388,124.834 130.880,124.861 132.200 C 124.911 134.574,124.915 134.565,125.218 131.400 C 125.534 128.097,125.482 127.294,125.056 128.884 M124.828 143.033 C 124.844 144.555,125.004 146.160,125.184 146.600 C 125.369 147.053,125.420 145.927,125.302 144.000 C 125.045 139.821,124.790 139.302,124.828 143.033 M274.876 142.450 C 274.834 143.688,274.711 145.308,274.601 146.050 L 274.403 147.400 274.820 146.070 C 275.050 145.339,275.174 143.719,275.095 142.470 L 274.951 140.200 274.876 142.450 M125.606 149.833 C 125.609 150.475,125.796 151.270,126.021 151.600 C 126.314 152.030,126.354 151.746,126.162 150.600 C 125.830 148.616,125.598 148.296,125.606 149.833 M274.054 149.867 C 274.025 150.344,273.896 151.064,273.770 151.467 C 273.552 152.161,273.564 152.162,273.996 151.488 C 274.247 151.097,274.375 150.377,274.281 149.888 C 274.109 149.001,274.109 149.001,274.054 149.867 M126.406 153.833 C 126.409 154.255,126.595 154.870,126.818 155.200 C 127.115 155.638,127.152 155.476,126.956 154.600 C 126.627 153.129,126.398 152.810,126.406 153.833 M133.000 172.000 C 133.557 173.100,134.103 174.000,134.213 174.000 C 134.323 174.000,133.957 173.100,133.400 172.000 C 132.843 170.900,132.297 170.000,132.187 170.000 C 132.077 170.000,132.443 170.900,133.000 172.000 M265.753 173.700 C 264.376 176.036,264.286 176.235,264.987 175.400 C 265.800 174.432,266.500 173.200,266.238 173.200 C 266.133 173.200,265.915 173.425,265.753 173.700 M262.326 179.244 C 261.295 180.760,260.575 181.996,260.726 181.992 C 261.043 181.982,264.521 176.782,264.328 176.606 C 264.258 176.542,263.357 177.729,262.326 179.244 M137.964 180.333 C 138.180 180.736,138.671 181.321,139.055 181.633 C 139.487 181.984,139.390 181.704,138.801 180.900 C 137.751 179.465,137.357 179.198,137.964 180.333 M140.044 183.000 C 141.038 184.481,142.400 186.064,142.394 185.731 C 142.391 185.549,141.740 184.680,140.948 183.800 C 140.156 182.920,139.749 182.560,140.044 183.000 M258.975 183.868 C 258.359 184.676,258.059 185.211,258.309 185.056 C 258.821 184.740,260.553 182.400,260.275 182.400 C 260.176 182.400,259.591 183.061,258.975 183.868 M256.181 187.300 L 254.600 189.000 256.300 187.419 C 257.881 185.948,258.184 185.600,257.881 185.600 C 257.816 185.600,257.051 186.365,256.181 187.300 M144.200 188.000 C 145.059 188.880,145.852 189.600,145.962 189.600 C 146.072 189.600,145.459 188.880,144.600 188.000 C 143.741 187.120,142.948 186.400,142.838 186.400 C 142.728 186.400,143.341 187.120,144.200 188.000 M252.860 190.642 C 252.562 190.978,252.399 191.332,252.495 191.429 C 252.592 191.526,252.998 191.244,253.398 190.802 C 253.797 190.361,253.961 190.007,253.762 190.015 C 253.563 190.024,253.157 190.305,252.860 190.642 M149.000 192.800 C 150.083 193.900,151.060 194.800,151.170 194.800 C 151.280 194.800,150.483 193.900,149.400 192.800 C 148.317 191.700,147.340 190.800,147.230 190.800 C 147.120 190.800,147.917 191.700,149.000 192.800 M249.374 194.107 L 247.800 195.799 249.396 194.399 C 250.273 193.630,251.068 192.955,251.162 192.900 C 251.256 192.845,251.247 192.713,251.141 192.607 C 251.035 192.501,250.240 193.176,249.374 194.107 M152.669 196.109 C 154.760 197.791,155.414 198.105,153.800 196.652 C 152.920 195.860,152.051 195.209,151.869 195.206 C 151.687 195.203,152.047 195.609,152.669 196.109 M245.800 197.044 L 244.200 198.476 245.900 197.204 C 247.363 196.110,247.891 195.583,247.500 195.606 C 247.445 195.609,246.680 196.256,245.800 197.044 M237.900 202.229 C 237.295 202.557,236.800 202.910,236.800 203.013 C 236.800 203.399,237.432 203.157,238.400 202.400 C 239.589 201.470,239.411 201.409,237.900 202.229 M179.400 210.000 C 179.536 210.220,180.042 210.387,180.524 210.372 C 181.369 210.345,181.371 210.331,180.600 210.000 C 179.499 209.527,179.108 209.527,179.400 210.000 M182.600 210.800 C 183.040 210.989,183.760 211.138,184.200 211.132 C 184.843 211.123,184.804 211.057,184.000 210.800 C 182.632 210.362,181.581 210.362,182.600 210.800 M216.200 210.800 C 215.093 211.082,215.077 211.109,216.000 211.147 C 216.550 211.169,217.270 211.013,217.600 210.800 C 218.281 210.360,217.929 210.360,216.200 210.800 M186.200 211.597 C 186.964 211.928,189.914 212.155,189.567 211.856 C 189.475 211.777,188.500 211.609,187.400 211.482 C 186.113 211.333,185.685 211.374,186.200 211.597 M211.800 211.600 L 210.200 211.886 211.600 211.915 C 212.370 211.931,213.360 211.789,213.800 211.600 C 214.743 211.195,214.062 211.195,211.800 211.600 M196.300 212.698 C 198.335 212.771,201.665 212.771,203.700 212.698 C 205.735 212.625,204.070 212.566,200.000 212.566 C 195.930 212.566,194.265 212.625,196.300 212.698 M194.900 237.499 C 197.705 237.568,202.295 237.568,205.100 237.499 C 207.905 237.430,205.610 237.374,200.000 237.374 C 194.390 237.374,192.095 237.430,194.900 237.499 M185.500 237.882 C 185.995 237.978,186.805 237.978,187.300 237.882 C 187.795 237.787,187.390 237.709,186.400 237.709 C 185.410 237.709,185.005 237.787,185.500 237.882 M212.700 237.882 C 213.195 237.978,214.005 237.978,214.500 237.882 C 214.995 237.787,214.590 237.709,213.600 237.709 C 212.610 237.709,212.205 237.787,212.700 237.882 M180.307 238.290 C 181.026 238.379,182.106 238.377,182.707 238.286 C 183.308 238.195,182.720 238.122,181.400 238.124 C 180.080 238.126,179.588 238.201,180.307 238.290 M216.033 238.144 C 216.125 238.224,217.820 238.385,219.800 238.503 C 222.248 238.649,222.888 238.610,221.800 238.382 C 220.220 238.050,215.710 237.865,216.033 238.144 M172.000 239.202 C 171.400 239.395,172.040 239.437,173.600 239.306 C 175.030 239.186,176.275 239.023,176.367 238.944 C 176.689 238.665,172.988 238.884,172.000 239.202 M223.633 238.944 C 223.725 239.023,224.970 239.186,226.400 239.306 C 227.960 239.437,228.600 239.395,228.000 239.202 C 227.012 238.884,223.311 238.665,223.633 238.944 M166.800 240.012 C 166.381 240.291,166.742 240.333,168.000 240.150 C 170.241 239.825,170.560 239.598,168.767 239.606 C 168.015 239.609,167.130 239.792,166.800 240.012 M230.033 239.744 C 230.125 239.824,231.010 239.996,232.000 240.127 C 233.202 240.286,233.534 240.247,233.000 240.010 C 232.236 239.672,229.686 239.443,230.033 239.744 M162.800 240.806 C 162.378 241.082,162.615 241.123,163.600 240.942 C 165.325 240.625,165.651 240.398,164.367 240.406 C 163.835 240.409,163.130 240.589,162.800 240.806 M234.433 240.544 C 234.525 240.624,235.410 240.806,236.400 240.950 C 237.658 241.133,238.019 241.091,237.600 240.812 C 237.060 240.453,234.032 240.197,234.433 240.544 M158.800 241.595 C 158.391 241.855,158.710 241.899,159.800 241.732 C 161.777 241.429,162.114 241.198,160.567 241.206 C 159.925 241.209,159.130 241.384,158.800 241.595 M238.833 241.343 C 238.925 241.421,239.630 241.601,240.400 241.742 C 241.385 241.923,241.622 241.882,241.200 241.606 C 240.658 241.250,238.437 241.003,238.833 241.343 M155.200 242.418 C 154.762 242.715,154.924 242.752,155.800 242.556 C 157.271 242.227,157.590 241.998,156.567 242.006 C 156.145 242.009,155.530 242.195,155.200 242.418 M243.200 242.400 C 244.742 242.894,245.564 242.894,244.800 242.400 C 244.470 242.187,243.750 242.027,243.200 242.046 L 242.200 242.080 243.200 242.400 M152.000 243.218 C 151.562 243.515,151.724 243.552,152.600 243.356 C 154.071 243.027,154.390 242.798,153.367 242.806 C 152.945 242.809,152.330 242.995,152.000 243.218 M246.033 242.944 C 246.125 243.023,246.740 243.208,247.400 243.356 C 248.276 243.552,248.438 243.515,248.000 243.218 C 247.460 242.853,245.632 242.598,246.033 242.944 M249.800 244.000 C 250.901 244.473,251.292 244.473,251.000 244.000 C 250.864 243.780,250.358 243.613,249.876 243.628 C 249.031 243.655,249.029 243.669,249.800 244.000 M125.600 251.890 C 125.270 252.015,123.870 252.631,122.490 253.259 C 121.109 253.886,119.815 254.400,119.614 254.400 C 119.412 254.400,119.136 254.579,119.001 254.799 C 118.675 255.326,119.973 254.827,126.000 252.106 C 127.016 251.647,126.697 251.475,125.600 251.890 M274.758 252.437 C 275.725 252.866,276.588 253.145,276.675 253.058 C 276.848 252.886,273.765 251.582,273.292 251.628 C 273.131 251.644,273.791 252.008,274.758 252.437 M277.401 253.601 C 277.536 253.821,277.819 254.000,278.028 254.000 C 278.337 254.000,281.220 255.218,282.500 255.890 C 282.665 255.976,282.800 255.951,282.800 255.834 C 282.800 255.623,280.183 254.354,278.178 253.592 C 277.501 253.334,277.238 253.337,277.401 253.601 M105.600 261.633 L 104.600 262.448 105.900 261.814 C 106.615 261.465,107.200 261.094,107.200 260.990 C 107.200 260.592,106.563 260.848,105.600 261.633 M295.600 262.590 C 295.600 262.694,296.185 263.065,296.900 263.414 L 298.200 264.048 297.200 263.233 C 296.237 262.448,295.600 262.192,295.600 262.590 M299.200 264.767 C 300.163 265.552,300.800 265.808,300.800 265.410 C 300.800 265.306,300.215 264.935,299.500 264.586 L 298.200 263.952 299.200 264.767 M95.600 267.600 C 94.610 268.258,93.939 268.797,94.109 268.798 C 94.457 268.800,97.600 266.774,97.600 266.547 C 97.600 266.292,97.442 266.375,95.600 267.600 M302.400 266.529 C 302.400 266.627,303.615 267.491,305.100 268.450 C 306.585 269.409,309.330 271.247,311.200 272.535 C 313.070 273.824,314.240 274.520,313.800 274.083 C 312.673 272.963,302.400 266.157,302.400 266.529 M87.507 272.926 C 86.466 273.626,85.611 274.335,85.607 274.499 C 85.603 274.664,86.500 274.152,87.600 273.362 C 88.700 272.572,89.600 271.852,89.600 271.762 C 89.600 271.521,89.558 271.545,87.507 272.926 M78.800 279.634 L 77.000 281.265 78.900 279.784 C 80.566 278.486,81.059 277.997,80.700 278.001 C 80.645 278.002,79.790 278.736,78.800 279.634 M74.400 283.257 L 72.200 285.289 74.299 283.608 C 76.139 282.134,77.113 281.173,76.724 281.213 C 76.656 281.220,75.610 282.140,74.400 283.257 M324.600 282.594 C 330.500 288.087,334.000 291.224,334.000 291.021 C 334.000 290.690,329.567 286.582,326.000 283.607 C 324.350 282.231,323.720 281.775,324.600 282.594 M69.680 287.256 C 68.515 288.377,67.625 289.358,67.704 289.437 C 67.783 289.516,68.820 288.595,70.010 287.390 C 72.733 284.633,72.505 284.540,69.680 287.256 M60.234 296.485 C 56.585 300.272,53.600 303.496,53.600 303.650 C 53.600 303.805,54.718 302.731,56.084 301.265 C 57.451 299.799,60.553 296.575,62.978 294.100 C 65.403 291.625,67.270 289.600,67.127 289.600 C 66.984 289.600,63.882 292.698,60.234 296.485 M337.200 294.189 C 338.850 295.942,340.245 297.457,340.300 297.555 C 340.355 297.653,340.485 297.649,340.588 297.545 C 340.691 297.442,339.296 295.927,337.488 294.179 L 334.200 291.000 337.200 294.189 M343.400 300.800 C 344.483 301.900,345.460 302.800,345.570 302.800 C 345.680 302.800,344.883 301.900,343.800 300.800 C 342.717 299.700,341.740 298.800,341.630 298.800 C 341.520 298.800,342.317 299.700,343.400 300.800 M52.159 305.300 C 50.407 307.321,49.887 308.000,50.090 308.000 C 50.207 308.000,50.967 307.190,51.779 306.200 C 53.281 304.366,53.579 303.663,52.159 305.300 M351.355 310.119 C 352.203 311.153,352.980 312.000,353.082 312.000 C 353.355 312.000,350.821 308.860,350.277 308.524 C 350.022 308.366,350.507 309.084,351.355 310.119 M353.642 313.100 C 356.124 316.321,356.670 316.700,354.800 313.905 C 354.250 313.083,353.643 312.408,353.451 312.405 C 353.259 312.402,353.345 312.715,353.642 313.100 M342.813 331.491 C 342.289 332.082,342.303 332.123,342.946 331.876 C 343.342 331.724,343.741 331.600,343.833 331.600 C 343.925 331.600,344.000 331.420,344.000 331.200 C 344.000 330.612,343.481 330.739,342.813 331.491 M229.520 392.080 C 229.893 392.453,230.107 392.453,230.480 392.080 C 230.853 391.707,230.747 391.600,230.000 391.600 C 229.253 391.600,229.147 391.707,229.520 392.080 " stroke="none" fill="#a4c9fc" fill-rule="evenodd"></path><path id="path4" d="M124.937 137.400 C 124.939 139.160,125.009 139.830,125.093 138.889 C 125.178 137.949,125.177 136.509,125.091 135.689 C 125.005 134.870,124.936 135.640,124.937 137.400 M274.934 137.600 C 274.934 139.250,275.005 139.925,275.091 139.100 C 275.178 138.275,275.178 136.925,275.091 136.100 C 275.005 135.275,274.934 135.950,274.934 137.600 M52.000 326.229 C 52.000 326.354,52.270 326.727,52.600 327.057 C 53.251 327.708,53.333 327.611,52.957 326.633 C 52.729 326.038,52.000 325.730,52.000 326.229 M73.400 347.600 C 73.798 348.040,74.304 348.400,74.523 348.400 C 74.743 348.400,74.507 348.040,74.000 347.600 C 73.493 347.160,72.987 346.800,72.877 346.800 C 72.766 346.800,73.002 347.160,73.400 347.600 M183.051 393.517 C 182.944 393.691,183.199 393.860,183.620 393.892 C 184.040 393.923,184.488 393.781,184.616 393.575 C 184.743 393.369,184.487 393.200,184.047 393.200 C 183.607 393.200,183.159 393.343,183.051 393.517 " stroke="none" fill="#94bcfc" fill-rule="evenodd"></path></g></svg>