<svg id="svg" version="1.1" xmlns="http://www.w3.org/2000/svg" xmlns:xlink="http://www.w3.org/1999/xlink" width="400" height="400" viewBox="0, 0, 400,400"><g id="svgg"><path id="path0" d="M43.806 0.293 C 43.369 0.404,42.739 0.790,42.406 1.150 C 42.073 1.511,41.305 2.060,40.700 2.370 C 40.095 2.681,39.600 3.225,39.600 3.579 C 39.600 3.934,39.240 4.483,38.800 4.800 C 38.360 5.117,38.000 5.697,38.000 6.088 C 38.000 6.480,37.820 6.800,37.600 6.800 C 37.339 6.800,37.200 13.200,37.200 25.200 L 37.200 43.600 200.000 43.600 L 362.800 43.600 362.800 25.200 C 362.800 13.200,362.661 6.800,362.400 6.800 C 362.180 6.800,362.000 6.480,362.000 6.088 C 362.000 5.697,361.640 5.117,361.200 4.800 C 360.760 4.483,360.400 4.023,360.400 3.778 C 360.400 3.263,358.188 1.200,357.637 1.200 C 357.433 1.200,357.192 0.975,357.100 0.700 C 356.933 0.199,45.763 -0.205,43.806 0.293 M66.993 16.531 C 68.701 18.168,68.800 18.381,68.799 20.431 C 68.794 26.972,60.817 29.238,57.647 23.598 C 54.245 17.545,61.961 11.710,66.993 16.531 M84.193 16.531 C 85.901 18.168,86.000 18.381,85.999 20.431 C 85.994 26.972,78.017 29.238,74.847 23.598 C 71.445 17.545,79.161 11.710,84.193 16.531 M99.998 15.647 C 102.954 17.308,104.033 21.046,102.299 23.619 C 98.748 28.887,91.302 26.565,91.702 20.315 C 91.990 15.832,96.157 13.488,99.998 15.647 M339.387 15.700 C 345.706 19.834,340.581 29.282,333.800 26.000 C 328.240 23.309,330.113 14.800,336.265 14.800 C 337.402 14.800,338.491 15.114,339.387 15.700 " stroke="none" fill="#0482fb" fill-rule="evenodd"></path><path id="path1" d="M94.814 15.519 C 90.826 17.479,90.435 23.273,94.138 25.561 C 99.159 28.665,105.214 23.093,102.353 18.002 C 100.771 15.187,97.610 14.146,94.814 15.519 M196.000 67.858 C 191.863 68.111,187.826 68.990,183.000 70.690 C 181.460 71.233,179.840 71.782,179.400 71.910 C 173.167 73.731,162.137 82.524,156.800 89.927 C 150.969 98.013,148.134 105.538,146.775 116.528 C 144.679 133.487,153.448 153.997,167.000 163.834 C 167.880 164.473,168.690 165.113,168.800 165.256 C 169.210 165.789,175.491 169.473,178.000 170.651 C 184.425 173.669,188.308 174.559,199.000 175.461 C 220.174 177.248,244.155 160.387,251.427 138.600 C 259.685 113.862,248.080 85.508,224.920 73.840 C 220.029 71.375,212.933 68.800,211.033 68.800 C 210.493 68.800,209.635 68.644,209.126 68.454 C 208.063 68.057,199.271 67.658,196.000 67.858 M232.700 104.274 C 235.005 105.988,235.780 108.590,234.727 111.081 C 233.859 113.138,201.244 145.517,199.289 146.264 C 195.913 147.553,195.617 147.340,182.071 133.865 C 175.400 127.229,169.685 121.314,169.371 120.720 C 167.599 117.369,169.684 113.044,173.467 112.225 C 176.452 111.579,177.283 112.183,187.573 122.471 L 197.240 132.138 199.850 129.569 C 201.286 128.156,207.729 121.745,214.168 115.323 C 222.436 107.077,226.217 103.571,227.038 103.388 C 227.677 103.246,228.380 103.077,228.600 103.013 C 229.489 102.752,231.475 103.363,232.700 104.274 M126.239 300.855 C 107.597 307.157,108.589 333.945,127.653 339.019 C 130.875 339.877,267.659 339.870,271.708 339.012 C 291.904 334.733,292.384 305.914,272.348 300.581 C 268.409 299.533,129.379 299.794,126.239 300.855 M259.472 314.699 C 263.318 316.900,262.922 323.032,258.800 325.098 C 256.631 326.186,143.369 326.186,141.200 325.098 C 137.244 323.115,136.720 317.247,140.288 314.904 C 141.892 313.850,147.358 313.775,206.200 314.000 C 247.041 314.156,258.792 314.310,259.472 314.699 " stroke="none" fill="#49bc24" fill-rule="evenodd"></path><path id="path2" d="M334.200 15.396 C 328.133 18.077,330.249 26.939,336.805 26.309 C 338.994 26.099,340.528 25.104,341.387 23.340 C 343.722 18.540,338.970 13.288,334.200 15.396 M37.346 177.600 C 37.376 251.080,37.535 311.200,37.700 311.200 C 37.865 311.200,38.000 311.560,38.000 312.000 C 38.000 312.440,38.180 312.800,38.400 312.800 C 38.620 312.800,38.800 313.036,38.800 313.325 C 38.800 313.613,39.160 314.236,39.600 314.708 C 40.040 315.180,40.400 315.720,40.400 315.908 C 40.400 316.096,40.736 316.609,41.146 317.049 C 41.556 317.490,42.206 318.514,42.591 319.325 C 42.976 320.136,43.439 320.800,43.620 320.800 C 43.801 320.800,44.353 321.520,44.848 322.400 C 45.343 323.280,45.894 324.000,46.074 324.000 C 46.253 324.000,46.400 324.198,46.400 324.440 C 46.400 324.681,46.940 325.383,47.600 326.000 C 48.260 326.617,48.800 327.287,48.800 327.490 C 48.800 327.693,49.700 328.822,50.800 330.000 C 51.900 331.178,52.800 332.298,52.800 332.490 C 52.800 332.682,54.060 334.081,55.600 335.600 C 57.140 337.119,58.400 338.523,58.400 338.721 C 58.400 339.207,69.548 350.400,70.032 350.400 C 70.243 350.400,71.572 351.525,72.986 352.900 C 76.381 356.202,79.433 358.800,79.915 358.800 C 80.129 358.800,81.045 359.520,81.952 360.400 C 82.859 361.280,83.798 362.000,84.040 362.000 C 84.281 362.000,84.983 362.540,85.600 363.200 C 86.217 363.860,86.943 364.400,87.214 364.400 C 87.484 364.400,87.997 364.716,88.353 365.103 C 88.709 365.489,89.495 366.060,90.100 366.370 C 90.705 366.681,91.200 367.085,91.200 367.268 C 91.200 367.450,91.378 367.600,91.595 367.600 C 91.813 367.600,92.308 367.872,92.696 368.204 C 93.321 368.739,105.527 368.807,199.965 368.807 C 316.366 368.807,307.264 368.980,309.247 366.733 C 309.603 366.330,310.148 366.000,310.459 366.000 C 310.769 366.000,311.283 365.640,311.600 365.200 C 311.917 364.760,312.425 364.400,312.728 364.400 C 313.031 364.400,313.783 363.860,314.400 363.200 C 315.017 362.540,315.737 362.000,316.000 362.000 C 316.263 362.000,316.983 361.460,317.600 360.800 C 318.217 360.140,318.919 359.600,319.160 359.600 C 319.402 359.600,319.600 359.420,319.600 359.200 C 319.600 358.980,319.860 358.800,320.177 358.800 C 320.495 358.800,320.990 358.477,321.277 358.082 C 321.565 357.687,322.520 356.832,323.400 356.182 C 324.280 355.532,325.810 354.185,326.800 353.189 C 327.790 352.193,329.230 350.937,330.000 350.399 C 331.584 349.291,341.600 339.173,341.600 338.681 C 341.600 338.505,342.860 337.119,344.400 335.600 C 345.940 334.081,347.200 332.651,347.200 332.421 C 347.200 332.192,348.100 331.085,349.200 329.961 C 350.300 328.838,351.200 327.739,351.200 327.520 C 351.200 327.301,351.740 326.617,352.400 326.000 C 353.060 325.383,353.600 324.752,353.600 324.597 C 353.600 324.442,354.005 323.807,354.500 323.185 C 354.995 322.564,355.850 321.408,356.400 320.617 C 356.950 319.826,357.715 318.796,358.100 318.328 C 358.485 317.860,358.800 317.280,358.801 317.039 C 358.801 316.797,359.341 315.970,360.000 315.200 C 360.659 314.430,361.199 313.575,361.199 313.300 C 361.200 313.025,361.380 312.800,361.600 312.800 C 361.820 312.800,362.000 312.440,362.000 312.000 C 362.000 311.560,362.135 311.200,362.300 311.200 C 362.465 311.200,362.624 251.080,362.654 177.600 L 362.707 44.000 200.000 44.000 L 37.293 44.000 37.346 177.600 M206.271 67.613 C 214.737 68.731,219.840 70.520,229.100 75.613 C 230.035 76.128,230.800 76.695,230.800 76.874 C 230.800 77.053,231.070 77.200,231.400 77.200 C 231.730 77.200,232.000 77.341,232.000 77.514 C 232.000 77.686,232.567 78.162,233.259 78.571 C 234.450 79.275,241.027 85.638,242.470 87.482 C 251.697 99.279,255.814 113.672,254.258 128.700 L 253.917 132.000 264.208 132.000 L 274.499 132.000 274.270 134.100 C 274.144 135.255,273.842 137.010,273.599 138.000 C 273.355 138.990,272.986 140.565,272.778 141.500 C 272.570 142.435,272.228 143.965,272.017 144.900 C 271.807 145.835,271.448 147.500,271.220 148.600 C 270.992 149.700,270.620 151.410,270.394 152.400 C 270.168 153.390,269.874 154.872,269.740 155.694 C 269.354 158.058,269.583 158.021,256.152 157.906 L 243.800 157.800 243.837 156.800 C 243.857 156.250,244.022 155.262,244.204 154.604 C 244.513 153.487,244.491 153.452,243.867 154.075 C 243.500 154.442,243.200 154.854,243.200 154.990 C 243.200 155.125,242.795 155.653,242.300 156.163 C 241.805 156.673,240.667 157.879,239.771 158.845 C 236.705 162.149,234.135 164.326,230.425 166.762 L 226.712 169.200 228.456 169.206 C 231.485 169.217,231.417 168.722,229.975 180.200 C 229.754 181.960,229.468 184.750,229.339 186.400 C 228.970 191.103,229.916 190.800,215.618 190.800 C 206.617 190.800,203.232 190.672,202.880 190.320 C 202.544 189.984,202.400 187.769,202.400 182.920 L 202.400 176.000 198.624 176.000 C 196.537 176.000,194.737 175.821,194.600 175.600 C 194.464 175.380,193.733 175.200,192.976 175.200 L 191.600 175.200 191.600 182.586 C 191.600 191.741,193.142 190.802,178.126 190.794 C 164.421 190.787,165.162 190.989,164.712 187.131 C 164.524 185.519,164.192 182.670,163.975 180.800 C 163.107 173.342,162.838 169.802,163.120 169.520 C 163.282 169.358,165.751 169.175,168.607 169.113 C 172.173 169.035,173.549 168.884,173.000 168.630 C 171.610 167.988,166.665 164.497,165.000 162.983 C 164.120 162.182,162.950 161.127,162.400 160.638 C 161.850 160.150,160.590 158.786,159.600 157.609 C 158.610 156.431,157.610 155.272,157.378 155.034 C 156.596 154.230,153.600 149.647,153.600 149.255 C 153.600 149.042,153.447 148.807,153.260 148.733 C 152.848 148.572,149.901 142.432,149.165 140.200 C 147.980 136.609,147.677 137.929,148.412 143.484 C 148.639 145.198,148.994 147.860,149.202 149.400 C 149.409 150.940,149.697 153.505,149.841 155.100 L 150.103 158.000 137.468 158.000 L 124.832 158.000 124.384 156.300 C 123.777 153.994,123.359 152.212,122.813 149.600 C 122.560 148.390,122.012 145.960,121.597 144.200 C 119.851 136.810,119.140 133.133,119.351 132.584 C 119.541 132.088,121.623 132.000,133.169 132.000 L 146.762 132.000 146.481 129.900 C 145.539 122.862,146.740 109.811,148.809 104.600 C 148.984 104.160,149.609 102.540,150.199 101.000 C 152.509 94.970,156.621 88.688,161.432 83.839 C 163.801 81.451,167.289 78.393,168.373 77.752 C 169.048 77.354,169.600 76.886,169.600 76.714 C 169.600 76.541,169.793 76.400,170.028 76.400 C 170.263 76.400,171.208 75.892,172.128 75.272 C 180.914 69.345,195.170 66.147,206.271 67.613 M227.000 103.807 C 226.340 104.105,219.501 110.660,211.802 118.374 C 204.103 126.088,197.631 132.400,197.419 132.400 C 197.208 132.400,192.617 128.016,187.217 122.657 C 176.866 112.384,176.484 112.106,173.500 112.662 C 171.771 112.984,169.670 115.020,169.360 116.674 C 168.735 120.003,168.774 120.053,182.162 133.472 L 194.661 146.000 197.327 146.000 L 199.993 146.000 216.856 129.106 C 227.392 118.550,233.934 111.697,234.292 110.841 C 236.142 106.415,231.386 101.827,227.000 103.807 M151.060 169.506 C 151.312 169.668,151.725 171.600,151.976 173.800 C 152.227 176.000,152.605 178.901,152.816 180.246 C 153.027 181.591,153.200 183.333,153.200 184.116 C 153.200 184.898,153.409 186.444,153.664 187.551 C 154.435 190.889,154.735 190.800,142.741 190.800 L 132.380 190.800 131.935 189.700 C 131.691 189.095,131.335 187.835,131.145 186.900 C 130.955 185.965,130.620 184.390,130.400 183.400 C 130.180 182.410,129.820 180.790,129.600 179.800 C 129.380 178.810,129.020 177.190,128.800 176.200 C 128.580 175.210,128.254 173.628,128.076 172.685 C 127.898 171.742,127.605 170.732,127.425 170.441 C 127.225 170.117,127.312 169.774,127.649 169.561 C 128.314 169.140,150.406 169.088,151.060 169.506 M266.141 170.701 C 266.088 171.859,264.958 177.369,263.988 181.200 C 263.793 181.970,263.422 183.590,263.165 184.800 C 262.907 186.010,262.435 187.855,262.116 188.900 L 261.536 190.800 251.268 190.794 C 245.621 190.791,240.769 190.641,240.486 190.462 C 239.973 190.136,240.094 188.229,241.201 179.200 C 241.376 177.770,241.652 175.160,241.814 173.400 C 242.233 168.827,241.163 169.172,254.554 169.294 L 266.200 169.400 266.141 170.701 M155.104 202.100 C 155.325 202.375,155.611 203.680,155.740 205.000 C 155.976 207.410,156.486 211.849,157.211 217.800 C 157.426 219.560,157.712 222.129,157.848 223.508 L 158.094 226.016 149.190 225.908 C 141.753 225.818,140.236 225.701,139.982 225.200 C 139.511 224.272,138.965 222.060,136.972 213.000 C 134.967 203.886,134.749 202.709,134.962 202.156 C 135.258 201.383,154.485 201.330,155.104 202.100 M191.405 202.500 C 191.525 202.995,191.574 208.440,191.512 214.600 L 191.400 225.800 180.627 225.907 C 174.701 225.965,169.724 225.875,169.565 225.707 C 169.407 225.538,168.985 222.970,168.628 220.000 C 168.271 217.030,167.648 211.900,167.244 208.600 C 166.839 205.300,166.593 202.375,166.697 202.100 C 166.842 201.715,169.683 201.600,179.035 201.600 L 191.185 201.600 191.405 202.500 M226.982 205.300 C 226.846 207.335,226.634 209.270,226.511 209.600 C 226.388 209.930,226.144 211.640,225.969 213.400 C 225.248 220.665,224.867 223.859,224.596 224.906 L 224.310 226.013 213.455 225.906 L 202.600 225.800 202.494 214.205 C 202.435 207.828,202.475 202.383,202.581 202.105 C 202.731 201.714,205.526 201.600,215.002 201.600 L 227.229 201.600 226.982 205.300 M258.671 203.700 C 258.560 204.855,258.273 206.655,258.034 207.700 C 257.795 208.745,257.420 210.410,257.200 211.400 C 256.980 212.390,256.620 214.010,256.400 215.000 C 256.180 215.990,255.830 217.565,255.622 218.500 C 255.414 219.435,255.072 220.920,254.863 221.800 C 254.654 222.680,254.351 223.988,254.190 224.707 L 253.897 226.015 244.849 225.907 L 235.800 225.800 235.837 224.800 C 235.858 224.250,236.082 222.090,236.336 220.000 C 237.245 212.504,237.613 209.346,237.979 205.901 C 238.184 203.977,238.463 202.222,238.599 202.001 C 238.754 201.750,242.595 201.600,248.861 201.600 L 258.874 201.600 258.671 203.700 M262.718 245.800 C 262.506 257.393,259.999 261.578,253.251 261.606 C 250.742 261.617,250.553 262.049,252.097 264.247 C 258.935 273.983,251.681 287.991,239.800 287.991 C 229.550 287.991,221.211 275.931,225.635 267.505 C 225.836 267.123,226.000 266.538,226.000 266.205 C 226.000 265.872,226.180 265.600,226.400 265.600 C 226.620 265.600,226.800 265.401,226.800 265.158 C 226.800 264.915,227.261 264.167,227.825 263.497 C 229.428 261.592,229.757 261.612,196.600 261.612 C 163.419 261.612,163.771 261.591,165.383 263.507 C 169.735 268.679,169.288 278.157,164.460 283.053 C 156.033 291.600,143.522 288.682,138.851 277.081 C 138.268 275.635,138.268 269.965,138.851 268.519 C 139.826 266.097,140.943 263.997,141.674 263.213 C 143.002 261.788,142.253 261.600,135.236 261.600 C 128.918 261.600,128.437 261.546,127.159 260.692 C 123.587 258.306,123.587 253.294,127.159 250.908 L 128.518 250.000 189.649 250.000 L 250.780 250.000 250.890 243.700 L 251.000 237.400 255.626 237.200 C 258.976 237.055,260.520 236.820,261.226 236.347 C 262.733 235.337,262.892 236.342,262.718 245.800 M268.212 299.778 C 291.959 300.765,294.858 333.325,271.754 339.556 C 269.557 340.148,128.566 340.192,128.200 339.600 C 128.064 339.380,127.547 339.200,127.051 339.200 C 122.268 339.200,115.062 332.078,112.856 325.172 C 112.292 323.404,112.247 314.942,112.800 314.600 C 113.020 314.464,113.200 314.019,113.200 313.611 C 113.200 308.628,121.739 301.122,128.859 299.846 C 131.666 299.344,256.283 299.283,268.212 299.778 M139.938 316.017 C 137.781 318.285,137.712 321.071,139.754 323.433 L 141.109 325.000 200.000 325.000 L 258.891 325.000 260.246 323.433 C 262.646 320.656,262.006 316.494,258.926 314.863 C 258.276 314.518,243.129 314.400,199.764 314.400 L 141.476 314.400 139.938 316.017 " stroke="none" fill="#f1f0fb" fill-rule="evenodd"></path><path id="path3" d="M59.589 15.700 C 55.785 18.276,56.004 23.706,60.002 25.953 C 64.227 28.328,68.795 25.460,68.799 20.431 C 68.802 15.910,63.387 13.128,59.589 15.700 M76.789 15.700 C 72.985 18.276,73.204 23.706,77.202 25.953 C 81.427 28.328,85.995 25.460,85.999 20.431 C 86.002 15.910,80.587 13.128,76.789 15.700 M82.838 15.819 C 86.502 17.714,86.498 23.474,82.831 25.534 C 76.937 28.847,71.441 21.096,76.462 16.551 C 78.112 15.058,80.774 14.752,82.838 15.819 M342.101 20.600 C 342.105 21.480,342.187 21.793,342.283 21.295 C 342.379 20.798,342.375 20.078,342.275 19.695 C 342.175 19.313,342.096 19.720,342.101 20.600 M335.700 26.676 C 336.085 26.776,336.715 26.776,337.100 26.676 C 337.485 26.575,337.170 26.493,336.400 26.493 C 335.630 26.493,335.315 26.575,335.700 26.676 M118.500 43.900 C 163.325 43.956,236.675 43.956,281.500 43.900 C 326.325 43.844,289.650 43.798,200.000 43.798 C 110.350 43.798,73.675 43.844,118.500 43.900 M236.000 81.325 C 236.000 81.394,236.585 81.979,237.300 82.625 L 238.600 83.800 237.425 82.500 C 236.330 81.288,236.000 81.016,236.000 81.325 M214.600 114.800 C 211.967 117.440,209.903 119.600,210.013 119.600 C 210.123 119.600,212.367 117.440,215.000 114.800 C 217.633 112.160,219.697 110.000,219.587 110.000 C 219.477 110.000,217.233 112.160,214.600 114.800 M146.901 113.800 C 146.905 114.680,146.987 114.993,147.083 114.495 C 147.179 113.998,147.175 113.278,147.075 112.895 C 146.975 112.513,146.896 112.920,146.901 113.800 M146.028 123.233 C 146.044 125.085,146.214 126.960,146.408 127.400 C 146.622 127.886,146.667 126.630,146.525 124.200 C 146.233 119.236,145.991 118.764,146.028 123.233 M254.128 123.200 C 254.128 124.630,254.201 125.215,254.289 124.500 C 254.378 123.785,254.378 122.615,254.289 121.900 C 254.201 121.185,254.128 121.770,254.128 123.200 M199.787 129.700 L 197.400 132.200 199.900 129.813 C 202.222 127.595,202.583 127.200,202.287 127.200 C 202.226 127.200,201.101 128.325,199.787 129.700 M253.398 130.100 C 253.037 133.314,251.756 138.192,250.429 141.400 C 246.118 151.823,239.795 159.392,228.786 167.309 C 227.805 168.014,227.807 168.015,229.062 167.418 C 231.998 166.023,239.613 159.271,242.286 155.692 C 244.297 152.999,244.585 152.807,244.218 154.402 C 244.041 155.171,243.875 156.250,243.848 156.800 L 243.800 157.800 256.152 157.906 C 269.583 158.021,269.354 158.058,269.740 155.694 C 269.874 154.872,270.168 153.390,270.394 152.400 C 270.620 151.410,270.992 149.700,271.220 148.600 C 271.448 147.500,271.807 145.835,272.017 144.900 C 272.228 143.965,272.570 142.435,272.778 141.500 C 272.986 140.565,273.355 138.990,273.599 138.000 C 273.842 137.010,274.144 135.255,274.270 134.100 L 274.499 132.000 264.078 132.000 L 253.658 132.000 253.885 129.800 C 254.010 128.590,254.014 127.600,253.895 127.600 C 253.776 127.600,253.552 128.725,253.398 130.100 M146.846 130.500 L 146.800 132.000 133.187 132.000 C 121.625 132.000,119.541 132.088,119.351 132.584 C 119.140 133.133,119.851 136.810,121.597 144.200 C 122.012 145.960,122.560 148.390,122.813 149.600 C 123.359 152.212,123.777 153.994,124.384 156.300 L 124.832 158.000 137.416 158.000 L 150.000 158.000 149.997 157.100 C 149.994 156.253,149.759 154.148,148.760 146.000 C 147.928 139.221,147.735 136.596,148.053 136.384 C 148.231 136.265,148.266 135.486,148.131 134.653 C 147.954 133.561,147.781 133.287,147.510 133.669 C 147.250 134.038,147.196 133.894,147.335 133.200 C 147.445 132.650,147.391 131.480,147.214 130.600 L 146.892 129.000 146.846 130.500 M148.430 137.500 C 148.461 138.243,149.920 141.628,149.970 141.075 C 150.011 140.626,148.744 136.800,148.554 136.800 C 148.469 136.800,148.413 137.115,148.430 137.500 M150.000 141.823 C 150.000 143.295,156.357 153.974,158.569 156.217 C 159.026 156.681,160.210 157.952,161.200 159.042 C 164.482 162.656,173.205 169.328,173.830 168.703 C 173.944 168.590,173.064 167.948,171.876 167.278 C 170.688 166.607,169.464 165.820,169.158 165.529 C 168.851 165.238,167.880 164.476,167.000 163.836 C 163.191 161.066,156.571 153.535,154.038 149.089 C 152.011 145.532,150.800 143.098,150.800 142.583 C 150.800 142.288,150.620 141.936,150.400 141.800 C 150.180 141.664,150.000 141.674,150.000 141.823 M224.000 169.803 C 216.913 173.469,205.983 175.959,199.200 175.454 C 188.684 174.671,184.586 173.726,177.614 170.475 L 174.628 169.082 169.014 169.167 C 165.926 169.213,163.270 169.378,163.112 169.533 C 162.838 169.803,163.112 173.387,163.975 180.800 C 164.192 182.670,164.524 185.519,164.712 187.131 C 165.162 190.989,164.421 190.787,178.126 190.794 C 193.146 190.802,191.600 191.748,191.600 182.546 L 191.600 175.119 193.500 175.370 C 194.545 175.508,196.975 175.724,198.900 175.850 L 202.400 176.080 202.400 182.960 C 202.400 187.778,202.544 189.984,202.880 190.320 C 203.232 190.672,206.617 190.800,215.618 190.800 C 229.916 190.800,228.970 191.103,229.339 186.400 C 229.468 184.750,229.754 181.960,229.975 180.200 C 231.428 168.634,231.520 169.216,228.224 169.206 C 226.399 169.200,226.307 169.155,227.024 168.613 C 228.259 167.678,227.631 167.925,224.000 169.803 M127.649 169.561 C 127.312 169.774,127.225 170.117,127.425 170.441 C 127.605 170.732,127.898 171.742,128.076 172.685 C 128.254 173.628,128.580 175.210,128.800 176.200 C 129.020 177.190,129.380 178.810,129.600 179.800 C 129.820 180.790,130.180 182.410,130.400 183.400 C 130.620 184.390,130.955 185.965,131.145 186.900 C 131.335 187.835,131.691 189.095,131.935 189.700 L 132.380 190.800 142.741 190.800 C 154.735 190.800,154.435 190.889,153.664 187.551 C 153.409 186.444,153.200 184.898,153.200 184.116 C 153.200 183.333,153.027 181.591,152.816 180.246 C 152.605 178.901,152.227 176.000,151.976 173.800 C 151.725 171.600,151.312 169.668,151.060 169.506 C 150.406 169.088,128.314 169.140,127.649 169.561 M242.508 169.694 C 242.287 169.972,241.975 171.640,241.814 173.400 C 241.652 175.160,241.376 177.770,241.201 179.200 C 240.094 188.229,239.973 190.136,240.486 190.462 C 240.769 190.641,245.621 190.791,251.268 190.794 L 261.536 190.800 262.116 188.900 C 262.435 187.855,262.907 186.010,263.165 184.800 C 263.422 183.590,263.793 181.970,263.988 181.200 C 264.958 177.369,266.088 171.859,266.141 170.701 L 266.200 169.400 254.554 169.294 C 245.539 169.212,242.817 169.302,242.508 169.694 M134.962 202.156 C 134.749 202.709,134.967 203.886,136.972 213.000 C 138.965 222.060,139.511 224.272,139.982 225.200 C 140.236 225.701,141.753 225.818,149.190 225.908 L 158.094 226.016 157.848 223.508 C 157.712 222.129,157.426 219.560,157.211 217.800 C 156.486 211.849,155.976 207.410,155.740 205.000 C 155.611 203.680,155.325 202.375,155.104 202.100 C 154.485 201.330,135.258 201.383,134.962 202.156 M166.697 202.100 C 166.593 202.375,166.839 205.300,167.244 208.600 C 167.648 211.900,168.271 217.030,168.628 220.000 C 168.985 222.970,169.407 225.538,169.565 225.707 C 169.724 225.875,174.701 225.965,180.627 225.907 L 191.400 225.800 191.512 214.600 C 191.574 208.440,191.525 202.995,191.405 202.500 L 191.185 201.600 179.035 201.600 C 169.683 201.600,166.842 201.715,166.697 202.100 M202.581 202.105 C 202.475 202.383,202.435 207.828,202.494 214.205 L 202.600 225.800 213.455 225.906 L 224.310 226.013 224.596 224.906 C 224.867 223.859,225.248 220.665,225.969 213.400 C 226.144 211.640,226.388 209.930,226.511 209.600 C 226.634 209.270,226.846 207.335,226.982 205.300 L 227.229 201.600 215.002 201.600 C 205.526 201.600,202.731 201.714,202.581 202.105 M238.599 202.001 C 238.463 202.222,238.184 203.977,237.979 205.901 C 237.613 209.346,237.245 212.504,236.336 220.000 C 236.082 222.090,235.858 224.250,235.837 224.800 L 235.800 225.800 244.849 225.907 L 253.897 226.015 254.190 224.707 C 254.351 223.988,254.654 222.680,254.863 221.800 C 255.072 220.920,255.414 219.435,255.622 218.500 C 255.830 217.565,256.180 215.990,256.400 215.000 C 256.620 214.010,256.980 212.390,257.200 211.400 C 257.420 210.410,257.795 208.745,258.034 207.700 C 258.273 206.655,258.560 204.855,258.671 203.700 L 258.874 201.600 248.861 201.600 C 242.595 201.600,238.754 201.750,238.599 202.001 M261.226 236.347 C 260.520 236.820,258.976 237.055,255.626 237.200 L 251.000 237.400 250.890 243.700 L 250.780 250.000 189.649 250.000 L 128.518 250.000 127.159 250.908 C 123.587 253.294,123.587 258.306,127.159 260.692 C 128.437 261.546,128.918 261.600,135.236 261.600 C 142.253 261.600,143.002 261.788,141.674 263.213 C 140.943 263.997,139.826 266.097,138.851 268.519 C 138.268 269.965,138.268 275.635,138.851 277.081 C 143.522 288.682,156.033 291.600,164.460 283.053 C 169.288 278.157,169.735 268.679,165.383 263.507 C 163.771 261.591,163.419 261.612,196.600 261.612 C 229.757 261.612,229.428 261.592,227.825 263.497 C 227.261 264.167,226.800 264.915,226.800 265.158 C 226.800 265.401,226.620 265.600,226.400 265.600 C 226.180 265.600,226.000 265.872,226.000 266.205 C 226.000 266.538,225.836 267.123,225.635 267.505 C 221.871 274.674,227.395 285.104,236.200 287.456 C 249.315 290.960,259.951 275.430,252.097 264.247 C 250.553 262.049,250.742 261.617,253.251 261.606 C 259.999 261.578,262.506 257.393,262.718 245.800 C 262.892 236.342,262.733 235.337,261.226 236.347 M141.528 299.900 C 147.098 299.963,156.098 299.962,161.528 299.900 C 166.958 299.837,162.400 299.785,151.400 299.786 C 140.400 299.786,135.958 299.837,141.528 299.900 M117.375 306.500 L 116.200 307.800 117.500 306.625 C 118.712 305.530,118.984 305.200,118.675 305.200 C 118.606 305.200,118.021 305.785,117.375 306.500 M112.546 319.800 C 112.547 322.000,112.614 322.849,112.695 321.687 C 112.776 320.524,112.776 318.724,112.693 317.687 C 112.611 316.649,112.545 317.600,112.546 319.800 M171.731 325.900 C 187.313 325.958,212.693 325.958,228.131 325.900 C 243.569 325.842,230.820 325.795,199.800 325.795 C 168.780 325.795,156.149 325.842,171.731 325.900 M140.100 339.900 C 145.545 339.963,154.455 339.963,159.900 339.900 C 165.345 339.837,160.890 339.785,150.000 339.785 C 139.110 339.785,134.655 339.837,140.100 339.900 " stroke="none" fill="#9484b4" fill-rule="evenodd"></path><path id="path4" d="M78.000 15.482 C 75.079 16.550,73.687 20.271,75.119 23.186 C 77.764 28.570,85.604 26.590,85.599 20.540 C 85.595 16.809,81.615 14.161,78.000 15.482 M196.433 67.345 C 196.525 67.424,199.120 67.577,202.200 67.685 C 205.460 67.798,206.964 67.752,205.800 67.575 C 203.775 67.266,196.126 67.078,196.433 67.345 M193.500 67.882 C 193.995 67.978,194.805 67.978,195.300 67.882 C 195.795 67.787,195.390 67.709,194.400 67.709 C 193.410 67.709,193.005 67.787,193.500 67.882 M209.800 68.400 C 210.240 68.589,210.960 68.738,211.400 68.732 C 212.043 68.723,212.004 68.657,211.200 68.400 C 209.832 67.962,208.781 67.962,209.800 68.400 M214.244 69.382 C 214.928 69.698,216.008 70.059,216.644 70.184 C 217.633 70.379,217.598 70.333,216.400 69.863 C 214.240 69.016,212.713 68.676,214.244 69.382 M182.900 70.048 C 182.185 70.254,181.600 70.511,181.600 70.619 C 181.600 70.909,183.738 70.353,184.180 69.948 C 184.616 69.549,184.630 69.548,182.900 70.048 M218.000 70.517 C 218.307 70.849,222.400 72.414,222.400 72.200 C 222.400 71.994,220.313 71.075,218.765 70.598 C 218.234 70.434,217.890 70.398,218.000 70.517 M179.300 71.434 C 178.585 71.746,178.000 72.094,178.000 72.207 C 178.000 72.415,180.806 71.327,181.146 70.987 C 181.486 70.647,180.620 70.857,179.300 71.434 M222.833 72.549 C 223.245 72.917,225.600 74.000,225.600 73.821 C 225.600 73.590,223.382 72.400,222.953 72.400 C 222.796 72.400,222.742 72.467,222.833 72.549 M229.594 76.382 C 230.141 76.802,230.668 77.066,230.765 76.969 C 230.991 76.742,229.529 75.627,229.000 75.622 C 228.780 75.620,229.047 75.961,229.594 76.382 M234.000 79.530 C 234.989 80.412,235.876 81.057,235.970 80.963 C 236.150 80.784,235.410 80.149,233.400 78.756 C 232.740 78.299,233.010 78.647,234.000 79.530 M237.983 82.900 C 239.641 84.666,240.000 84.984,240.000 84.683 C 240.000 84.619,239.145 83.764,238.100 82.783 L 236.200 81.000 237.983 82.900 M159.375 86.100 L 158.200 87.400 159.500 86.225 C 160.712 85.130,160.984 84.800,160.675 84.800 C 160.606 84.800,160.021 85.385,159.375 86.100 M240.400 85.502 C 240.400 85.699,240.890 86.297,241.488 86.830 C 242.286 87.542,242.419 87.587,241.988 87.002 C 241.050 85.728,240.400 85.114,240.400 85.502 M243.427 89.400 C 244.800 91.200,245.068 91.203,243.904 89.405 C 243.407 88.638,242.856 88.008,242.680 88.005 C 242.503 88.002,242.840 88.630,243.427 89.400 M246.285 93.580 C 247.103 94.889,247.834 95.899,247.909 95.824 C 248.074 95.659,245.255 91.200,244.986 91.200 C 244.882 91.200,245.467 92.271,246.285 93.580 M248.074 96.600 C 248.179 96.820,248.574 97.675,248.952 98.500 C 249.329 99.325,249.722 100.000,249.824 100.000 C 250.116 100.000,248.810 97.047,248.320 96.600 C 248.029 96.333,247.946 96.333,248.074 96.600 M250.812 102.800 C 250.812 103.130,250.987 103.670,251.200 104.000 C 251.545 104.533,251.588 104.533,251.588 104.000 C 251.588 103.670,251.413 103.130,251.200 102.800 C 250.855 102.267,250.812 102.267,250.812 102.800 M211.800 118.000 C 204.102 125.700,197.631 132.000,197.419 132.000 C 197.208 132.000,192.617 127.616,187.217 122.257 C 177.716 112.829,175.553 111.114,174.495 112.171 C 174.398 112.269,175.012 112.474,175.859 112.627 C 177.198 112.869,178.686 114.182,187.217 122.653 C 192.617 128.014,197.208 132.400,197.419 132.400 C 197.631 132.400,204.192 126.010,212.000 118.200 C 219.808 110.390,226.106 104.000,225.996 104.000 C 225.886 104.000,219.498 110.300,211.800 118.000 M233.219 105.095 C 233.727 105.807,234.236 106.297,234.350 106.183 C 234.464 106.069,234.049 105.486,233.426 104.888 L 232.295 103.800 233.219 105.095 M36.400 107.417 C 36.400 107.756,36.040 108.420,35.600 108.892 C 35.160 109.364,34.800 109.987,34.800 110.275 C 34.800 110.564,34.664 110.800,34.498 110.800 C 34.331 110.800,33.941 111.385,33.630 112.100 C 33.319 112.815,32.960 113.490,32.832 113.600 C 32.578 113.819,30.881 116.867,30.217 118.297 C 29.987 118.790,29.665 119.195,29.500 119.197 C 29.335 119.199,29.200 119.560,29.200 120.000 C 29.200 120.440,29.020 120.800,28.800 120.800 C 28.580 120.800,28.400 121.160,28.400 121.600 C 28.400 122.040,28.220 122.400,28.000 122.400 C 27.780 122.400,27.600 122.634,27.600 122.920 C 27.600 123.680,26.654 125.593,26.276 125.597 C 26.098 125.599,26.039 125.739,26.144 125.909 C 26.249 126.079,25.809 127.290,25.167 128.599 C 24.525 129.908,24.000 131.299,24.000 131.690 C 24.000 132.080,23.820 132.400,23.600 132.400 C 23.380 132.400,23.200 132.760,23.200 133.200 C 23.200 133.640,23.020 134.000,22.800 134.000 C 22.580 134.000,22.400 134.439,22.400 134.976 C 22.400 135.513,22.220 136.064,22.000 136.200 C 21.780 136.336,21.600 136.797,21.600 137.224 C 21.600 137.651,21.420 138.000,21.200 138.000 C 20.980 138.000,20.800 138.349,20.800 138.776 C 20.800 139.203,20.620 139.664,20.400 139.800 C 20.180 139.936,20.000 140.487,20.000 141.024 C 20.000 141.561,19.820 142.000,19.600 142.000 C 19.380 142.000,19.200 142.540,19.200 143.200 C 19.200 143.860,19.020 144.400,18.800 144.400 C 18.580 144.400,18.400 144.839,18.400 145.376 C 18.400 145.913,18.220 146.464,18.000 146.600 C 17.780 146.736,17.600 147.287,17.600 147.824 C 17.600 148.361,17.420 148.800,17.200 148.800 C 16.980 148.800,16.800 149.329,16.800 149.976 C 16.800 150.623,16.620 151.264,16.400 151.400 C 16.180 151.536,16.000 152.187,16.000 152.847 C 16.000 153.545,15.833 153.944,15.600 153.800 C 15.358 153.651,15.200 154.196,15.200 155.176 C 15.200 156.069,15.020 156.800,14.800 156.800 C 14.580 156.800,14.400 157.419,14.400 158.176 C 14.400 158.933,14.240 159.652,14.044 159.773 C 13.708 159.980,13.472 160.993,12.942 164.503 C 12.818 165.329,12.555 166.105,12.358 166.226 C 12.161 166.348,12.000 167.247,12.000 168.224 C 12.000 169.201,11.837 170.000,11.639 170.000 C 11.297 170.000,11.097 171.156,10.581 176.100 C 10.460 177.255,10.198 178.560,9.999 179.000 C 9.799 179.440,9.558 180.790,9.464 182.000 C 9.369 183.210,9.167 184.740,9.015 185.400 C 8.863 186.060,8.645 194.790,8.530 204.800 C 8.328 222.364,8.507 227.376,9.616 235.200 C 9.819 236.630,10.103 239.015,10.246 240.500 C 10.390 241.985,10.646 243.200,10.815 243.200 C 10.984 243.200,11.230 244.100,11.361 245.200 C 11.493 246.300,11.707 248.100,11.839 249.200 C 11.970 250.300,12.221 251.200,12.397 251.200 C 12.572 251.200,12.825 251.920,12.958 252.800 C 13.091 253.680,13.309 255.121,13.442 256.003 C 13.575 256.884,13.845 257.705,14.042 257.826 C 14.239 257.948,14.400 258.577,14.400 259.224 C 14.400 259.871,14.580 260.400,14.800 260.400 C 15.020 260.400,15.200 260.792,15.200 261.272 C 15.200 262.192,15.860 264.528,16.449 265.695 C 16.642 266.077,16.800 266.842,16.800 267.395 C 16.800 267.948,16.980 268.400,17.200 268.400 C 17.420 268.400,17.600 268.940,17.600 269.600 C 17.600 270.260,17.780 270.800,18.000 270.800 C 18.220 270.800,18.400 271.250,18.400 271.800 C 18.400 272.350,18.580 272.800,18.800 272.800 C 19.020 272.800,19.200 273.340,19.200 274.000 C 19.200 274.660,19.380 275.200,19.600 275.200 C 19.820 275.200,20.000 275.560,20.000 276.000 C 20.000 276.440,20.180 276.800,20.400 276.800 C 20.620 276.800,20.800 277.340,20.800 278.000 C 20.800 278.660,20.980 279.200,21.200 279.200 C 21.420 279.200,21.600 279.639,21.600 280.176 C 21.600 280.713,21.780 281.264,22.000 281.400 C 22.220 281.536,22.400 281.997,22.400 282.424 C 22.400 282.851,22.580 283.200,22.800 283.200 C 23.020 283.200,23.200 283.560,23.200 284.000 C 23.200 284.440,23.380 284.800,23.600 284.800 C 23.820 284.800,24.000 285.239,24.000 285.776 C 24.000 286.313,24.180 286.864,24.400 287.000 C 24.620 287.136,24.800 287.597,24.800 288.024 C 24.800 288.451,24.960 288.800,25.157 288.800 C 25.481 288.800,26.073 290.434,25.973 291.053 C 25.950 291.195,26.082 291.421,26.266 291.555 C 26.797 291.944,27.600 293.532,27.600 294.195 C 27.600 294.528,27.735 294.801,27.900 294.803 C 28.259 294.807,29.200 296.744,29.200 297.480 C 29.200 297.766,29.380 298.000,29.600 298.000 C 29.820 298.000,30.000 298.360,30.000 298.800 C 30.000 299.240,30.180 299.600,30.400 299.600 C 30.620 299.600,30.800 299.960,30.800 300.400 C 30.800 300.840,30.980 301.200,31.200 301.200 C 31.420 301.200,31.600 301.470,31.600 301.800 C 31.600 302.130,31.780 302.400,32.000 302.400 C 32.220 302.400,32.400 302.655,32.400 302.967 C 32.400 303.278,32.535 303.593,32.700 303.667 C 32.865 303.740,33.429 304.647,33.954 305.682 C 34.478 306.718,35.243 307.925,35.654 308.366 C 36.064 308.806,36.400 309.444,36.400 309.783 C 36.400 310.721,37.075 310.519,37.348 309.500 C 37.663 308.323,37.663 108.877,37.348 107.700 C 37.075 106.681,36.400 106.479,36.400 107.417 M234.618 108.035 C 235.078 110.709,234.308 111.622,216.760 129.203 C 207.432 138.549,200.340 145.804,201.000 145.326 C 203.209 143.725,233.906 112.617,234.558 111.320 C 235.287 109.867,235.383 108.086,234.779 107.200 C 234.482 106.764,234.438 106.992,234.618 108.035 M362.650 108.050 C 362.513 108.738,362.400 153.985,362.400 208.600 C 362.400 263.215,362.513 308.463,362.650 309.150 C 362.906 310.430,363.600 310.893,363.600 309.783 C 363.600 309.444,363.960 308.780,364.400 308.308 C 364.840 307.836,365.200 307.213,365.200 306.925 C 365.200 306.636,365.346 306.400,365.525 306.400 C 365.704 306.400,366.098 305.770,366.400 305.000 C 366.702 304.230,367.096 303.600,367.275 303.600 C 367.454 303.600,367.600 303.330,367.600 303.000 C 367.600 302.670,367.735 302.399,367.900 302.399 C 368.065 302.398,368.650 301.408,369.200 300.200 C 369.750 298.992,370.335 298.002,370.500 298.001 C 370.665 298.001,370.800 297.640,370.800 297.200 C 370.800 296.760,370.980 296.400,371.200 296.400 C 371.420 296.400,371.600 296.040,371.600 295.600 C 371.600 295.160,371.780 294.800,372.000 294.800 C 372.220 294.800,372.400 294.440,372.400 294.000 C 372.400 293.560,372.580 293.200,372.800 293.200 C 373.020 293.200,373.200 292.840,373.200 292.400 C 373.200 291.960,373.380 291.600,373.600 291.600 C 373.820 291.600,374.000 291.358,374.000 291.061 C 374.000 290.560,374.757 288.717,375.626 287.105 C 375.832 286.723,376.000 286.048,376.000 285.605 C 376.000 285.162,376.180 284.800,376.400 284.800 C 376.620 284.800,376.800 284.440,376.800 284.000 C 376.800 283.560,376.980 283.200,377.200 283.200 C 377.420 283.200,377.600 282.761,377.600 282.224 C 377.600 281.687,377.780 281.136,378.000 281.000 C 378.220 280.864,378.400 280.403,378.400 279.976 C 378.400 279.549,378.580 279.200,378.800 279.200 C 379.020 279.200,379.200 278.660,379.200 278.000 C 379.200 277.340,379.380 276.800,379.600 276.800 C 379.820 276.800,380.000 276.440,380.000 276.000 C 380.000 275.560,380.180 275.200,380.400 275.200 C 380.620 275.200,380.800 274.660,380.800 274.000 C 380.800 273.340,380.980 272.800,381.200 272.800 C 381.420 272.800,381.600 272.361,381.600 271.824 C 381.600 271.287,381.780 270.736,382.000 270.600 C 382.220 270.464,382.400 269.924,382.400 269.400 C 382.400 268.876,382.580 268.336,382.800 268.200 C 383.020 268.064,383.200 267.513,383.200 266.976 C 383.200 266.439,383.380 266.000,383.600 266.000 C 383.820 266.000,384.000 265.471,384.000 264.824 C 384.000 264.177,384.180 263.536,384.400 263.400 C 384.620 263.264,384.800 262.533,384.800 261.776 C 384.800 261.019,384.980 260.400,385.200 260.400 C 385.420 260.400,385.600 259.781,385.600 259.024 C 385.600 258.267,385.780 257.536,386.000 257.400 C 386.220 257.264,386.400 256.634,386.400 256.000 C 386.400 255.366,386.580 254.736,386.800 254.600 C 387.020 254.464,387.200 253.643,387.200 252.776 C 387.200 251.909,387.363 251.200,387.561 251.200 C 387.760 251.200,388.030 250.300,388.161 249.200 C 388.293 248.100,388.507 246.300,388.639 245.200 C 388.770 244.100,389.024 243.200,389.203 243.200 C 389.382 243.200,389.628 242.165,389.749 240.900 C 389.870 239.635,390.153 237.250,390.379 235.600 C 390.604 233.950,390.961 230.800,391.172 228.600 C 391.679 223.304,391.664 193.736,391.152 188.400 C 390.930 186.090,390.662 183.210,390.556 182.000 C 390.451 180.790,390.204 179.440,390.008 179.000 C 389.813 178.560,389.557 177.210,389.440 176.000 C 389.324 174.790,389.030 172.900,388.788 171.800 C 388.546 170.700,388.251 169.080,388.133 168.200 C 388.015 167.320,387.756 166.429,387.559 166.220 C 387.362 166.011,387.200 165.257,387.200 164.544 C 387.200 163.831,387.020 163.136,386.800 163.000 C 386.580 162.864,386.400 162.054,386.400 161.200 C 386.400 160.346,386.220 159.536,386.000 159.400 C 385.780 159.264,385.600 158.638,385.600 158.010 C 385.600 157.381,385.428 156.807,385.218 156.733 C 385.007 156.660,384.790 155.925,384.736 155.100 C 384.681 154.275,384.493 153.600,384.318 153.600 C 384.143 153.600,384.000 153.161,384.000 152.624 C 384.000 152.087,383.820 151.536,383.600 151.400 C 383.380 151.264,383.200 150.623,383.200 149.976 C 383.200 149.329,383.020 148.800,382.800 148.800 C 382.580 148.800,382.400 148.260,382.400 147.600 C 382.400 146.940,382.220 146.400,382.000 146.400 C 381.780 146.400,381.600 145.961,381.600 145.424 C 381.600 144.887,381.420 144.336,381.200 144.200 C 380.980 144.064,380.800 143.513,380.800 142.976 C 380.800 142.439,380.620 142.000,380.400 142.000 C 380.180 142.000,380.000 141.561,380.000 141.024 C 380.000 140.487,379.820 139.936,379.600 139.800 C 379.380 139.664,379.200 139.203,379.200 138.776 C 379.200 138.349,379.020 138.000,378.800 138.000 C 378.580 138.000,378.400 137.651,378.400 137.224 C 378.400 136.797,378.220 136.336,378.000 136.200 C 377.780 136.064,377.600 135.513,377.600 134.976 C 377.600 134.439,377.420 134.000,377.200 134.000 C 376.980 134.000,376.800 133.640,376.800 133.200 C 376.800 132.760,376.620 132.400,376.400 132.400 C 376.180 132.400,376.000 132.068,376.000 131.661 C 376.000 130.939,375.521 129.759,373.970 126.662 C 373.547 125.816,373.200 124.871,373.200 124.562 C 373.200 124.253,373.020 124.000,372.800 124.000 C 372.580 124.000,372.400 123.640,372.400 123.200 C 372.400 122.760,372.220 122.400,372.000 122.400 C 371.780 122.400,371.600 122.040,371.600 121.600 C 371.600 121.160,371.465 120.799,371.300 120.797 C 370.941 120.793,370.000 118.856,370.000 118.120 C 370.000 117.834,369.854 117.600,369.675 117.600 C 369.496 117.600,369.102 116.970,368.800 116.200 C 368.498 115.430,368.104 114.800,367.925 114.800 C 367.746 114.800,367.600 114.530,367.600 114.200 C 367.600 113.870,367.420 113.600,367.200 113.600 C 366.980 113.600,366.800 113.240,366.800 112.800 C 366.800 112.360,366.620 112.000,366.400 112.000 C 366.180 112.000,366.000 111.764,366.000 111.475 C 366.000 111.187,365.640 110.564,365.200 110.092 C 364.760 109.620,364.400 109.046,364.400 108.817 C 364.400 108.588,364.220 108.400,364.000 108.400 C 363.780 108.400,363.600 108.040,363.600 107.600 C 363.600 106.345,362.927 106.664,362.650 108.050 M252.456 108.000 C 252.456 108.330,252.611 108.960,252.800 109.400 C 253.017 109.904,253.144 109.978,253.144 109.600 C 253.144 109.270,252.989 108.640,252.800 108.200 C 252.583 107.696,252.456 107.622,252.456 108.000 M253.275 111.800 C 253.286 112.240,253.432 113.140,253.600 113.800 L 253.905 115.000 253.925 113.800 C 253.935 113.140,253.789 112.240,253.600 111.800 L 253.256 111.000 253.275 111.800 M170.575 114.100 L 169.400 115.400 170.700 114.225 C 171.415 113.579,172.000 112.994,172.000 112.925 C 172.000 112.616,171.670 112.888,170.575 114.100 M146.249 116.215 C 146.112 116.573,146.022 117.616,146.050 118.533 C 146.098 120.131,146.113 120.110,146.418 118.002 C 146.747 115.734,146.685 115.081,146.249 116.215 M169.043 116.233 C 168.710 117.101,168.748 119.299,169.106 119.862 C 169.268 120.116,169.400 119.261,169.400 117.962 C 169.400 115.361,169.392 115.323,169.043 116.233 M254.282 121.200 C 254.403 123.290,254.569 125.075,254.651 125.167 C 254.929 125.478,254.743 121.010,254.402 119.200 C 254.164 117.938,254.128 118.537,254.282 121.200 M170.306 121.800 C 171.225 123.119,194.081 146.000,194.479 146.000 C 194.615 146.000,190.685 141.995,185.745 137.100 C 180.805 132.205,175.122 126.490,173.117 124.400 C 171.111 122.310,169.846 121.140,170.306 121.800 M254.109 127.200 C 254.109 128.190,254.187 128.595,254.282 128.100 C 254.378 127.605,254.378 126.795,254.282 126.300 C 254.187 125.805,254.109 126.210,254.109 127.200 M146.501 129.400 C 146.505 130.280,146.587 130.593,146.683 130.095 C 146.779 129.598,146.775 128.878,146.675 128.495 C 146.575 128.113,146.496 128.520,146.501 129.400 M196.213 146.425 C 196.914 146.629,197.926 146.628,198.613 146.423 C 199.612 146.125,199.419 146.069,197.400 146.070 C 195.363 146.072,195.183 146.125,196.213 146.425 M160.834 159.047 C 161.365 159.733,161.880 160.223,161.979 160.135 C 162.077 160.047,161.643 159.486,161.013 158.888 L 159.869 157.800 160.834 159.047 M130.631 299.557 C 129.988 299.691,161.128 299.868,199.831 299.951 C 238.534 300.034,270.110 300.013,270.000 299.906 C 269.705 299.616,132.002 299.272,130.631 299.557 M272.200 300.400 C 272.640 300.589,273.270 300.744,273.600 300.744 C 273.978 300.744,273.904 300.617,273.400 300.400 C 272.960 300.211,272.330 300.056,272.000 300.056 C 271.622 300.056,271.696 300.183,272.200 300.400 M121.493 302.614 C 120.672 303.172,120.000 303.715,120.000 303.820 C 120.000 303.925,120.720 303.535,121.600 302.953 C 122.997 302.028,123.470 301.600,123.093 301.600 C 123.034 301.600,122.314 302.056,121.493 302.614 M279.185 303.571 C 279.947 304.247,280.742 304.800,280.952 304.800 C 281.162 304.800,281.258 304.748,281.167 304.684 C 281.075 304.620,280.280 304.067,279.400 303.455 L 277.800 302.342 279.185 303.571 M118.175 305.300 L 117.000 306.600 118.300 305.425 C 119.512 304.330,119.784 304.000,119.475 304.000 C 119.406 304.000,118.821 304.585,118.175 305.300 M283.785 308.300 C 284.402 309.235,284.983 310.000,285.076 310.000 C 285.364 310.000,283.833 307.566,283.232 307.069 C 282.920 306.811,283.168 307.365,283.785 308.300 M141.462 314.300 C 141.360 314.465,167.404 314.550,199.338 314.490 C 259.209 314.376,258.711 314.368,259.791 315.448 C 260.147 315.804,260.540 315.994,260.664 315.869 C 260.788 315.745,260.285 315.274,259.545 314.823 C 258.156 313.976,141.980 313.461,141.462 314.300 M286.868 314.800 C 286.888 315.839,287.518 317.546,287.532 316.600 C 287.538 316.160,287.389 315.440,287.200 315.000 C 286.989 314.510,286.861 314.432,286.868 314.800 M139.404 315.996 C 138.774 316.654,138.342 317.275,138.444 317.377 C 138.546 317.479,139.126 316.941,139.732 316.181 C 141.087 314.483,140.936 314.397,139.404 315.996 M261.647 319.633 C 261.606 321.561,261.415 322.081,260.246 323.433 L 258.891 325.000 200.070 325.000 C 167.718 325.000,141.618 325.137,142.069 325.304 C 142.521 325.471,168.968 325.561,200.839 325.504 L 258.787 325.400 260.221 323.966 C 261.773 322.413,262.397 320.497,261.967 318.600 C 261.752 317.651,261.685 317.868,261.647 319.633 M138.109 319.600 C 138.109 320.590,138.187 320.995,138.282 320.500 C 138.378 320.005,138.378 319.195,138.282 318.700 C 138.187 318.205,138.109 318.610,138.109 319.600 M138.714 322.604 C 138.941 323.047,139.548 323.766,140.063 324.202 C 140.967 324.966,140.965 324.952,140.006 323.797 C 138.413 321.879,138.279 321.755,138.714 322.604 M287.249 322.600 C 287.216 323.040,287.096 323.850,286.983 324.400 L 286.777 325.400 287.206 324.419 C 287.442 323.879,287.561 323.069,287.472 322.619 C 287.313 321.821,287.307 321.821,287.249 322.600 M286.200 326.400 C 286.050 326.873,286.017 327.350,286.127 327.460 C 286.237 327.570,286.450 327.273,286.600 326.800 C 286.750 326.327,286.783 325.850,286.673 325.740 C 286.563 325.630,286.350 325.927,286.200 326.400 M281.781 333.633 C 280.912 334.531,279.427 335.723,278.482 336.281 C 277.537 336.840,276.849 337.383,276.954 337.487 C 277.253 337.786,280.441 335.438,282.181 333.637 C 283.051 332.737,283.672 332.000,283.562 332.000 C 283.452 332.000,282.651 332.735,281.781 333.633 M118.000 334.200 C 118.517 334.750,119.006 335.200,119.088 335.200 C 119.421 335.200,117.772 333.224,117.430 333.213 C 117.227 333.206,117.483 333.650,118.000 334.200 M128.341 339.701 C 128.543 339.903,129.133 340.001,129.654 339.919 C 130.455 339.793,130.398 339.737,129.287 339.552 C 128.493 339.421,128.119 339.479,128.341 339.701 M220.000 339.600 L 169.400 339.805 220.000 339.874 C 247.830 339.912,270.960 339.789,271.400 339.600 L 272.200 339.256 271.400 339.326 C 270.960 339.364,247.830 339.487,220.000 339.600 M94.876 369.144 C 94.360 369.472,95.841 370.800,96.724 370.800 C 96.918 370.800,97.402 371.160,97.800 371.600 C 98.198 372.040,98.654 372.400,98.814 372.400 C 98.973 372.400,100.149 373.030,101.428 373.800 C 102.707 374.570,103.996 375.200,104.293 375.200 C 104.590 375.200,105.220 375.560,105.692 376.000 C 106.164 376.440,106.787 376.800,107.075 376.800 C 107.364 376.800,107.600 376.980,107.600 377.200 C 107.600 377.420,107.960 377.600,108.400 377.600 C 108.840 377.600,109.200 377.746,109.200 377.925 C 109.200 378.104,109.830 378.498,110.600 378.800 C 111.370 379.102,112.000 379.496,112.000 379.675 C 112.000 379.854,112.360 380.000,112.800 380.000 C 113.240 380.000,113.600 380.180,113.600 380.400 C 113.600 380.620,113.960 380.800,114.400 380.800 C 114.840 380.800,115.200 380.980,115.200 381.200 C 115.200 381.420,115.560 381.600,116.000 381.600 C 116.440 381.600,116.800 381.780,116.800 382.000 C 116.800 382.220,117.160 382.400,117.600 382.400 C 118.040 382.400,118.400 382.580,118.400 382.800 C 118.400 383.020,118.636 383.200,118.925 383.200 C 119.214 383.200,120.195 383.560,121.106 384.000 C 122.016 384.440,123.040 384.800,123.381 384.800 C 123.721 384.800,124.000 384.980,124.000 385.200 C 124.000 385.420,124.360 385.600,124.800 385.600 C 125.240 385.600,125.600 385.780,125.600 386.000 C 125.600 386.220,125.872 386.400,126.205 386.400 C 126.538 386.400,127.123 386.559,127.505 386.753 C 130.460 388.256,140.347 391.600,141.836 391.600 C 142.366 391.600,142.800 391.780,142.800 392.000 C 142.800 392.220,143.329 392.400,143.976 392.400 C 144.623 392.400,145.264 392.580,145.400 392.800 C 145.536 393.020,146.177 393.200,146.824 393.200 C 147.471 393.200,148.000 393.380,148.000 393.600 C 148.000 393.820,148.720 394.000,149.600 394.000 C 150.480 394.000,151.200 394.180,151.200 394.400 C 151.200 394.620,151.920 394.800,152.800 394.800 C 153.680 394.800,154.400 394.980,154.400 395.200 C 154.400 395.420,155.120 395.600,156.000 395.600 C 156.880 395.600,157.600 395.780,157.600 396.000 C 157.600 396.220,158.410 396.400,159.400 396.400 C 160.390 396.400,161.200 396.580,161.200 396.800 C 161.200 397.020,162.089 397.200,163.176 397.200 C 164.263 397.200,165.264 397.380,165.400 397.600 C 165.536 397.820,166.627 398.000,167.824 398.000 C 169.021 398.000,170.000 398.180,170.000 398.400 C 170.000 398.628,171.189 398.800,172.767 398.800 C 174.624 398.800,175.588 398.964,175.700 399.300 C 175.831 399.693,181.049 399.800,200.000 399.800 C 218.951 399.800,224.169 399.693,224.300 399.300 C 224.412 398.964,225.376 398.800,227.233 398.800 C 228.811 398.800,230.000 398.628,230.000 398.400 C 230.000 398.178,231.067 398.000,232.400 398.000 C 233.733 398.000,234.800 397.822,234.800 397.600 C 234.800 397.380,235.599 397.200,236.576 397.200 C 237.553 397.200,238.464 397.020,238.600 396.800 C 238.736 396.580,239.647 396.400,240.624 396.400 C 241.601 396.400,242.400 396.220,242.400 396.000 C 242.400 395.780,243.120 395.600,244.000 395.600 C 244.880 395.600,245.600 395.420,245.600 395.200 C 245.600 394.980,246.410 394.800,247.400 394.800 C 248.390 394.800,249.200 394.620,249.200 394.400 C 249.200 394.180,249.830 394.000,250.600 394.000 C 251.370 394.000,252.000 393.820,252.000 393.600 C 252.000 393.380,252.630 393.200,253.400 393.200 C 254.170 393.200,254.800 393.020,254.800 392.800 C 254.800 392.580,255.329 392.400,255.976 392.400 C 256.623 392.400,257.251 392.241,257.371 392.046 C 257.492 391.852,258.447 391.565,259.495 391.409 C 260.543 391.253,261.580 390.994,261.800 390.835 C 262.020 390.675,263.010 390.300,264.000 390.002 C 264.990 389.705,265.971 389.312,266.180 389.130 C 266.389 388.949,266.974 388.800,267.480 388.800 C 267.986 388.800,268.400 388.620,268.400 388.400 C 268.400 388.180,268.839 388.000,269.376 388.000 C 269.913 388.000,270.464 387.820,270.600 387.600 C 270.736 387.380,271.197 387.200,271.624 387.200 C 272.051 387.200,272.400 387.020,272.400 386.800 C 272.400 386.580,272.850 386.400,273.400 386.400 C 273.950 386.400,274.400 386.220,274.400 386.000 C 274.400 385.780,274.760 385.600,275.200 385.600 C 275.640 385.600,276.000 385.420,276.000 385.200 C 276.000 384.980,276.349 384.800,276.776 384.800 C 277.203 384.800,277.664 384.620,277.800 384.400 C 277.936 384.180,278.487 384.000,279.024 384.000 C 279.561 384.000,280.000 383.820,280.000 383.600 C 280.000 383.380,280.360 383.200,280.800 383.200 C 281.240 383.200,281.600 383.020,281.600 382.800 C 281.600 382.580,281.960 382.400,282.400 382.400 C 282.840 382.400,283.200 382.220,283.200 382.000 C 283.200 381.780,283.560 381.600,284.000 381.600 C 284.440 381.600,284.800 381.420,284.800 381.200 C 284.800 380.980,285.160 380.800,285.600 380.800 C 286.040 380.800,286.400 380.620,286.400 380.400 C 286.400 380.180,286.760 380.000,287.200 380.000 C 287.640 380.000,288.000 379.820,288.000 379.600 C 288.000 379.380,288.360 379.200,288.800 379.200 C 289.240 379.200,289.600 379.054,289.600 378.875 C 289.600 378.696,290.230 378.302,291.000 378.000 C 291.770 377.698,292.400 377.304,292.400 377.125 C 292.400 376.946,292.720 376.800,293.112 376.800 C 293.503 376.800,294.083 376.440,294.400 376.000 C 294.717 375.560,295.201 375.200,295.475 375.200 C 296.138 375.200,298.800 373.920,298.800 373.601 C 298.800 373.462,299.430 373.102,300.200 372.800 C 300.970 372.498,301.600 372.133,301.600 371.988 C 301.600 371.844,302.415 371.307,303.411 370.795 C 304.406 370.282,305.156 369.669,305.077 369.432 C 304.903 368.908,95.699 368.621,94.876 369.144 " stroke="none" fill="#fbd4a4" fill-rule="evenodd"></path></g></svg>