<svg id="svg" version="1.1" xmlns="http://www.w3.org/2000/svg" xmlns:xlink="http://www.w3.org/1999/xlink" width="400" height="400" viewBox="0, 0, 400,400"><g id="svgg"><path id="path0" d="M198.600 138.625 C 197.720 139.397,196.601 140.382,196.114 140.814 C 195.627 141.246,195.042 141.600,194.814 141.600 C 194.586 141.600,194.400 141.780,194.400 142.000 C 194.400 142.220,194.202 142.400,193.960 142.400 C 193.719 142.400,193.044 142.902,192.460 143.515 C 191.877 144.129,190.770 145.070,190.000 145.607 C 189.230 146.143,188.218 146.947,187.750 147.391 C 186.671 148.418,185.600 149.297,182.824 151.435 C 181.601 152.376,179.880 153.785,179.000 154.566 C 178.120 155.346,177.288 155.988,177.150 155.992 C 177.013 155.997,176.203 156.644,175.350 157.432 C 173.652 159.001,171.776 159.119,166.000 158.021 C 162.116 157.283,159.492 156.842,155.400 156.237 C 149.858 155.419,143.923 154.411,140.960 153.786 C 139.611 153.501,139.898 153.002,136.815 161.000 C 136.406 162.061,135.810 163.550,135.254 164.900 C 135.004 165.505,134.599 166.495,134.353 167.100 C 134.108 167.705,133.748 168.513,133.553 168.895 C 133.359 169.277,133.200 169.952,133.200 170.395 C 133.200 170.838,133.020 171.200,132.800 171.200 C 132.580 171.200,132.400 171.562,132.400 172.005 C 132.400 172.448,132.241 173.123,132.047 173.505 C 131.852 173.887,131.492 174.695,131.247 175.300 C 131.001 175.905,130.599 176.895,130.353 177.500 C 130.108 178.105,129.748 178.913,129.553 179.295 C 129.359 179.677,129.200 180.352,129.200 180.795 C 129.200 181.238,129.020 181.600,128.800 181.600 C 128.580 181.600,128.400 182.050,128.400 182.600 C 128.400 183.150,128.220 183.600,128.000 183.600 C 127.780 183.600,127.600 183.973,127.600 184.429 C 127.600 185.374,126.720 186.400,125.909 186.400 C 125.607 186.400,125.189 186.547,124.980 186.726 C 124.771 186.905,122.710 187.733,120.400 188.566 C 118.090 189.399,115.210 190.437,114.000 190.872 C 112.790 191.308,111.487 191.830,111.105 192.032 C 110.723 192.234,110.048 192.400,109.605 192.400 C 109.162 192.400,108.800 192.580,108.800 192.800 C 108.800 193.020,108.438 193.200,107.995 193.200 C 107.217 193.200,106.831 193.342,104.905 194.338 C 104.413 194.592,103.648 194.800,103.205 194.800 C 102.762 194.800,102.400 194.980,102.400 195.200 C 102.400 195.420,102.038 195.600,101.595 195.600 C 101.152 195.600,100.477 195.759,100.095 195.953 C 99.713 196.148,98.860 196.529,98.200 196.800 C 95.840 197.769,95.804 197.815,95.677 199.998 C 95.610 201.162,95.745 202.305,95.977 202.537 C 96.210 202.770,96.400 203.968,96.400 205.200 C 96.400 206.432,96.564 207.611,96.765 207.820 C 96.965 208.029,97.235 209.235,97.365 210.500 C 97.494 211.765,97.706 213.835,97.835 215.100 C 97.965 216.365,98.235 217.571,98.435 217.780 C 98.636 217.989,98.800 219.078,98.800 220.200 C 98.800 221.322,98.964 222.411,99.165 222.620 C 99.510 222.980,99.750 224.686,100.228 230.200 C 100.411 232.300,100.322 232.732,99.518 233.657 C 99.013 234.238,98.240 235.157,97.800 235.700 C 95.254 238.838,94.042 240.260,92.700 241.679 C 91.875 242.551,91.200 243.387,91.200 243.537 C 91.200 243.686,90.788 244.256,90.284 244.804 C 89.781 245.352,87.761 247.780,85.797 250.200 C 83.832 252.620,81.736 255.130,81.138 255.778 C 79.249 257.827,78.949 258.683,79.839 259.496 C 80.262 259.883,81.081 260.830,81.659 261.600 C 82.237 262.370,83.045 263.390,83.455 263.866 C 84.588 265.184,85.206 265.941,87.804 269.200 C 89.120 270.850,90.296 272.290,90.418 272.400 C 90.539 272.510,91.076 273.230,91.611 274.000 C 92.145 274.770,92.947 275.774,93.391 276.231 C 93.836 276.688,94.650 277.659,95.200 278.390 C 95.750 279.121,96.650 280.214,97.200 280.819 C 101.055 285.062,100.967 284.613,99.582 292.900 C 99.353 294.275,99.066 296.300,98.946 297.400 C 98.825 298.500,98.563 299.571,98.363 299.780 C 98.163 299.989,98.000 301.078,98.000 302.200 C 98.000 303.322,97.837 304.411,97.637 304.620 C 97.296 304.977,97.180 305.690,96.570 311.200 C 96.436 312.410,96.163 313.571,95.963 313.780 C 95.161 314.619,95.531 319.200,96.400 319.200 C 96.840 319.200,97.200 319.380,97.200 319.600 C 97.200 319.820,97.562 320.000,98.005 320.000 C 98.448 320.000,99.123 320.159,99.505 320.353 C 99.887 320.548,100.740 320.929,101.400 321.200 C 102.060 321.471,102.913 321.852,103.295 322.047 C 103.677 322.241,104.222 322.400,104.506 322.400 C 105.191 322.400,106.486 323.937,106.196 324.407 C 106.070 324.610,106.470 324.883,107.084 325.012 C 107.698 325.142,108.513 325.417,108.895 325.624 C 109.277 325.831,109.862 326.000,110.195 326.000 C 110.528 326.000,110.800 326.180,110.800 326.400 C 110.800 326.620,111.250 326.800,111.800 326.800 C 112.350 326.800,112.800 326.980,112.800 327.200 C 112.800 327.420,113.239 327.600,113.776 327.600 C 114.313 327.600,114.864 327.780,115.000 328.000 C 115.136 328.220,115.597 328.400,116.024 328.400 C 116.451 328.400,116.800 328.580,116.800 328.800 C 116.800 329.020,117.340 329.200,118.000 329.200 C 118.660 329.200,119.200 329.380,119.200 329.600 C 119.200 329.820,119.560 330.000,120.000 330.000 C 120.440 330.000,120.800 330.180,120.800 330.400 C 120.800 330.620,121.340 330.800,122.000 330.800 C 122.660 330.800,123.200 330.980,123.200 331.200 C 123.200 331.420,123.619 331.600,124.130 331.600 C 125.393 331.600,126.578 333.014,127.232 335.300 C 127.530 336.345,127.915 337.200,128.087 337.200 C 128.259 337.200,128.400 337.639,128.400 338.176 C 128.400 338.713,128.580 339.264,128.800 339.400 C 129.020 339.536,129.200 340.087,129.200 340.624 C 129.200 341.161,129.380 341.600,129.600 341.600 C 129.820 341.600,130.000 341.960,130.000 342.400 C 130.000 342.840,130.180 343.200,130.400 343.200 C 130.620 343.200,130.800 343.740,130.800 344.400 C 130.800 345.060,130.980 345.600,131.200 345.600 C 131.420 345.600,131.600 346.140,131.600 346.800 C 131.600 347.460,131.780 348.000,132.000 348.000 C 132.220 348.000,132.400 348.349,132.400 348.776 C 132.400 349.203,132.580 349.664,132.800 349.800 C 133.020 349.936,133.200 350.487,133.200 351.024 C 133.200 351.561,133.380 352.000,133.600 352.000 C 133.820 352.000,134.000 352.439,134.000 352.976 C 134.000 353.513,134.180 354.064,134.400 354.200 C 134.620 354.336,134.800 354.797,134.800 355.224 C 134.800 355.651,134.980 356.000,135.200 356.000 C 135.420 356.000,135.600 356.439,135.600 356.976 C 135.600 357.513,135.780 358.064,136.000 358.200 C 136.220 358.336,136.400 358.887,136.400 359.424 C 136.400 359.961,136.580 360.400,136.800 360.400 C 137.020 360.400,137.200 360.839,137.200 361.376 C 137.200 361.913,137.380 362.464,137.600 362.600 C 137.820 362.736,138.000 363.197,138.000 363.624 C 138.000 364.313,138.293 364.400,140.600 364.400 C 142.067 364.400,143.200 364.226,143.200 364.000 C 143.200 363.778,144.259 363.600,145.576 363.600 C 146.883 363.600,148.064 363.420,148.200 363.200 C 148.336 362.980,149.506 362.800,150.800 362.800 C 152.094 362.800,153.264 362.620,153.400 362.400 C 153.536 362.180,154.627 362.000,155.824 362.000 C 157.021 362.000,158.000 361.820,158.000 361.600 C 158.000 361.378,159.059 361.200,160.376 361.200 C 161.683 361.200,162.864 361.020,163.000 360.800 C 163.136 360.580,164.281 360.400,165.544 360.400 C 166.807 360.400,168.011 360.230,168.220 360.023 C 169.067 359.183,173.542 359.410,174.343 360.334 C 174.756 360.811,175.418 361.200,175.814 361.200 C 176.209 361.200,176.425 361.308,176.293 361.440 C 176.001 361.733,178.608 364.400,179.187 364.400 C 179.414 364.400,179.600 364.580,179.600 364.800 C 179.600 365.020,179.794 365.200,180.031 365.200 C 180.269 365.200,181.154 365.920,182.000 366.800 C 182.846 367.680,183.700 368.400,183.898 368.400 C 184.096 368.400,185.222 369.300,186.400 370.400 C 187.578 371.500,188.696 372.400,188.884 372.400 C 189.073 372.400,189.841 372.985,190.592 373.700 C 192.383 375.406,193.112 376.000,193.414 376.000 C 193.551 376.000,194.354 376.720,195.200 377.600 C 196.046 378.480,196.931 379.200,197.169 379.200 C 197.406 379.200,197.600 379.380,197.600 379.600 C 197.600 379.820,197.870 380.000,198.200 380.000 C 198.530 380.000,198.800 380.180,198.800 380.400 C 198.800 381.139,201.006 380.824,201.600 380.000 C 201.917 379.560,202.385 379.200,202.640 379.200 C 202.895 379.200,203.845 378.480,204.752 377.600 C 205.659 376.720,206.581 376.000,206.800 376.000 C 207.020 376.000,207.200 375.820,207.200 375.600 C 207.200 375.380,207.406 375.200,207.657 375.200 C 207.908 375.200,208.629 374.660,209.260 374.000 C 209.891 373.340,210.567 372.800,210.762 372.800 C 210.957 372.800,211.974 371.990,213.022 371.000 C 214.070 370.010,215.093 369.200,215.295 369.200 C 215.497 369.200,216.354 368.480,217.200 367.600 C 218.046 366.720,218.946 366.000,219.200 366.000 C 219.454 366.000,220.354 365.280,221.200 364.400 C 222.046 363.520,222.931 362.800,223.169 362.800 C 223.406 362.800,223.600 362.620,223.600 362.400 C 223.600 362.180,223.870 362.000,224.200 362.000 C 224.530 362.000,224.800 361.848,224.800 361.661 C 224.800 361.046,226.282 359.600,226.914 359.600 C 227.254 359.600,227.638 359.375,227.767 359.100 C 227.953 358.700,228.047 358.700,228.233 359.100 C 228.381 359.417,229.331 359.600,230.833 359.600 C 232.144 359.600,233.200 359.778,233.200 360.000 C 233.200 360.222,234.267 360.400,235.600 360.400 C 236.933 360.400,238.000 360.578,238.000 360.800 C 238.000 361.020,238.979 361.200,240.176 361.200 C 241.373 361.200,242.464 361.380,242.600 361.600 C 242.736 361.820,243.827 362.000,245.024 362.000 C 246.221 362.000,247.200 362.180,247.200 362.400 C 247.200 362.622,248.267 362.800,249.600 362.800 C 250.933 362.800,252.000 362.978,252.000 363.200 C 252.000 363.420,252.889 363.600,253.976 363.600 C 255.063 363.600,256.064 363.780,256.200 364.000 C 256.336 364.220,257.697 364.400,259.224 364.400 L 262.000 364.400 262.000 363.200 C 262.000 362.540,262.180 362.000,262.400 362.000 C 262.620 362.000,262.800 361.640,262.800 361.200 C 262.800 360.760,262.980 360.400,263.200 360.400 C 263.420 360.400,263.600 360.038,263.600 359.595 C 263.600 358.817,263.742 358.431,264.738 356.505 C 264.992 356.013,265.200 355.338,265.200 355.005 C 265.200 354.672,265.380 354.400,265.600 354.400 C 265.820 354.400,266.000 353.860,266.000 353.200 C 266.000 352.540,266.180 352.000,266.400 352.000 C 266.620 352.000,266.800 351.640,266.800 351.200 C 266.800 350.760,266.980 350.400,267.200 350.400 C 267.420 350.400,267.600 349.860,267.600 349.200 C 267.600 348.540,267.747 348.000,267.928 348.000 C 268.108 348.000,268.500 347.100,268.800 346.000 C 269.100 344.900,269.492 344.000,269.672 344.000 C 269.853 344.000,270.000 343.460,270.000 342.800 C 270.000 342.140,270.180 341.600,270.400 341.600 C 270.620 341.600,270.800 341.328,270.800 340.995 C 270.800 340.662,270.980 340.032,271.200 339.595 C 271.420 339.158,271.780 338.442,272.000 338.005 C 272.220 337.568,272.400 336.848,272.400 336.405 C 272.400 335.962,272.580 335.600,272.800 335.600 C 273.020 335.600,273.200 335.390,273.200 335.134 C 273.200 333.978,274.598 331.600,275.277 331.600 C 275.675 331.600,276.000 331.420,276.000 331.200 C 276.000 330.980,276.540 330.800,277.200 330.800 C 277.860 330.800,278.400 330.620,278.400 330.400 C 278.400 330.180,278.940 330.000,279.600 330.000 C 280.260 330.000,280.800 329.820,280.800 329.600 C 280.800 329.380,281.160 329.200,281.600 329.200 C 282.040 329.200,282.400 329.020,282.400 328.800 C 282.400 328.580,282.940 328.400,283.600 328.400 C 284.260 328.400,284.800 328.220,284.800 328.000 C 284.800 327.780,285.340 327.600,286.000 327.600 C 286.660 327.600,287.200 327.420,287.200 327.200 C 287.200 326.980,287.560 326.800,288.000 326.800 C 288.440 326.800,288.800 326.620,288.800 326.400 C 288.800 326.180,289.340 326.000,290.000 326.000 C 290.660 326.000,291.200 325.840,291.200 325.645 C 291.200 325.450,292.013 325.169,293.008 325.020 C 294.002 324.871,294.724 324.600,294.611 324.418 C 294.283 323.887,295.906 323.027,300.553 321.271 C 302.948 320.367,305.001 319.532,305.117 319.416 C 305.367 319.166,304.393 312.019,302.796 302.400 C 302.595 301.190,302.235 298.940,301.995 297.400 C 301.755 295.860,301.377 293.430,301.153 292.000 C 300.930 290.570,300.564 288.446,300.341 287.281 C 299.860 284.775,299.156 285.874,308.261 274.922 C 321.184 259.376,321.600 258.866,321.600 258.562 C 321.600 258.412,318.405 254.328,314.500 249.486 C 310.595 244.644,306.961 240.124,306.425 239.441 C 305.889 238.759,304.224 236.726,302.725 234.924 C 299.867 231.487,299.644 230.837,300.356 228.000 C 300.549 227.230,300.913 225.340,301.166 223.800 C 301.419 222.260,301.902 219.380,302.239 217.400 C 302.952 213.219,303.410 210.430,303.979 206.800 C 304.204 205.370,304.634 202.805,304.936 201.101 C 305.598 197.361,306.053 197.829,299.200 195.200 C 296.230 194.060,293.037 192.784,292.104 192.364 C 291.172 191.944,290.272 191.601,290.104 191.602 C 289.787 191.604,284.987 189.783,280.700 188.033 C 280.205 187.831,278.252 187.074,276.359 186.351 L 272.918 185.037 270.833 179.419 C 269.687 176.328,268.418 172.900,268.014 171.800 C 266.975 168.971,264.784 163.150,264.401 162.200 C 264.223 161.760,263.686 160.320,263.207 159.000 C 262.728 157.680,262.170 156.287,261.968 155.905 C 261.766 155.523,261.600 154.960,261.600 154.654 C 261.600 153.350,260.501 153.056,257.485 153.554 C 255.898 153.815,253.430 154.210,252.000 154.430 C 250.570 154.650,248.365 155.003,247.100 155.215 C 242.806 155.934,240.207 156.349,237.200 156.796 C 235.550 157.042,233.300 157.401,232.200 157.594 C 226.391 158.614,226.770 158.680,223.683 156.119 C 222.145 154.843,220.109 153.170,219.156 152.400 C 218.204 151.630,216.349 150.100,215.035 149.000 C 213.721 147.900,211.105 145.752,209.223 144.226 C 207.340 142.701,205.710 141.343,205.600 141.209 C 205.146 140.657,200.706 137.201,200.463 137.211 C 200.318 137.217,199.480 137.853,198.600 138.625 M227.460 223.424 C 235.809 229.703,237.547 231.200,236.486 231.200 C 236.314 231.200,235.857 231.733,235.472 232.385 C 235.087 233.037,234.547 233.802,234.273 234.085 C 233.998 234.368,233.332 235.230,232.793 236.000 C 232.253 236.770,231.588 237.670,231.315 238.000 C 231.042 238.330,225.773 245.350,219.606 253.600 C 213.438 261.850,208.167 268.870,207.891 269.200 C 207.614 269.530,206.950 270.430,206.414 271.200 C 205.877 271.970,205.339 272.690,205.217 272.800 C 204.243 273.679,199.968 279.788,199.767 280.588 C 199.628 281.145,199.392 281.600,199.243 281.600 C 199.094 281.600,198.657 282.133,198.272 282.785 C 197.887 283.437,197.353 284.202,197.086 284.485 C 196.819 284.768,195.790 286.080,194.801 287.400 C 193.812 288.720,192.903 289.890,192.782 290.000 C 192.661 290.110,192.125 290.830,191.592 291.600 C 191.058 292.370,190.479 293.180,190.305 293.400 C 190.131 293.620,188.339 296.005,186.323 298.700 C 183.095 303.014,181.200 304.711,181.200 303.286 C 181.200 303.114,180.667 302.657,180.015 302.272 C 179.363 301.887,178.598 301.347,178.315 301.073 C 178.032 300.798,177.170 300.138,176.400 299.606 C 175.630 299.074,174.910 298.531,174.800 298.400 C 174.690 298.269,173.970 297.729,173.200 297.200 C 172.430 296.671,171.710 296.139,171.600 296.018 C 171.490 295.897,170.320 294.988,169.000 293.999 C 167.680 293.010,166.368 291.981,166.085 291.714 C 165.802 291.447,165.037 290.913,164.385 290.528 C 163.733 290.143,163.200 289.492,163.200 289.083 C 163.200 288.500,169.381 279.679,170.405 278.800 C 170.534 278.690,171.071 277.970,171.600 277.200 C 172.129 276.430,172.886 275.509,173.281 275.153 C 173.676 274.797,174.000 274.329,174.000 274.112 C 174.000 273.896,174.540 273.154,175.200 272.463 C 175.860 271.772,176.400 271.060,176.400 270.879 C 176.400 270.699,176.720 270.202,177.110 269.775 C 177.501 269.349,179.210 267.100,180.908 264.778 C 182.606 262.455,184.357 260.168,184.798 259.694 C 185.239 259.221,185.600 258.673,185.600 258.476 C 185.600 258.279,186.140 257.554,186.800 256.863 C 187.460 256.172,188.001 255.471,188.002 255.304 C 188.003 255.137,188.543 254.425,189.202 253.722 C 189.861 253.019,190.400 252.346,190.400 252.226 C 190.400 252.009,191.362 250.772,192.300 249.784 C 192.575 249.494,192.800 249.064,192.800 248.829 C 192.800 248.593,192.941 248.400,193.114 248.400 C 193.286 248.400,193.743 247.867,194.128 247.215 C 194.513 246.563,195.059 245.798,195.342 245.515 C 195.624 245.232,196.528 244.042,197.350 242.872 C 198.172 241.702,199.540 239.992,200.389 239.072 C 201.239 238.152,204.329 234.160,207.258 230.200 C 210.186 226.240,212.685 222.910,212.810 222.800 C 212.936 222.690,213.471 221.970,214.000 221.200 C 214.529 220.430,215.061 219.710,215.183 219.600 C 215.305 219.490,215.908 218.725,216.523 217.900 C 217.954 215.980,216.759 215.376,227.460 223.424 M182.544 217.538 C 183.142 218.198,183.201 219.504,183.106 229.838 L 183.000 241.400 170.700 241.506 L 158.400 241.612 158.400 229.439 C 158.400 220.075,158.515 217.220,158.900 217.065 C 160.561 216.395,181.896 216.822,182.544 217.538 M242.800 287.400 L 242.800 299.200 230.800 299.200 L 218.800 299.200 218.800 287.667 C 218.800 281.323,218.920 276.013,219.067 275.867 C 219.213 275.720,224.613 275.600,231.067 275.600 L 242.800 275.600 242.800 287.400 M26.069 324.700 C 40.517 324.758,64.277 324.758,78.869 324.700 C 93.461 324.642,81.640 324.594,52.600 324.594 C 23.560 324.594,11.621 324.642,26.069 324.700 " stroke="none" fill="#db208f" fill-rule="evenodd"></path><path id="path1" d="M0.000 171.800 L 0.000 324.400 52.700 324.375 C 84.543 324.359,105.044 324.206,104.500 323.988 C 104.005 323.789,103.600 323.440,103.600 323.213 C 103.600 322.986,103.375 322.801,103.100 322.802 C 102.825 322.803,100.740 322.057,98.466 321.144 L 94.333 319.485 94.542 317.442 C 94.658 316.319,94.948 314.320,95.187 313.000 C 95.426 311.680,95.798 309.520,96.014 308.200 C 96.229 306.880,96.578 304.810,96.789 303.600 C 96.999 302.390,97.349 300.320,97.566 299.000 C 97.783 297.680,98.143 295.520,98.366 294.200 C 98.589 292.880,98.957 290.589,99.183 289.108 C 99.409 287.628,99.640 286.278,99.696 286.108 C 99.791 285.818,98.002 283.236,96.894 282.065 C 96.616 281.771,95.896 280.871,95.294 280.065 C 94.692 279.259,93.972 278.359,93.694 278.065 C 93.416 277.771,92.697 276.871,92.096 276.065 C 91.496 275.259,90.905 274.510,90.783 274.400 C 90.612 274.245,83.943 266.008,81.067 262.400 C 80.804 262.070,79.976 261.035,79.228 260.100 L 77.866 258.400 79.208 256.700 C 81.246 254.117,88.644 245.107,89.471 244.200 C 89.872 243.759,90.692 242.740,91.294 241.934 C 91.896 241.129,92.618 240.229,92.899 239.935 C 93.179 239.641,94.803 237.728,96.507 235.684 C 100.042 231.443,99.916 232.406,98.184 222.800 C 98.046 222.030,97.765 220.230,97.561 218.800 C 97.356 217.370,97.014 215.120,96.800 213.800 C 96.586 212.480,96.216 210.140,95.978 208.600 C 95.740 207.060,95.359 204.630,95.132 203.200 C 94.116 196.820,93.773 197.388,100.000 195.122 C 102.569 194.188,103.435 193.858,104.800 193.294 C 105.350 193.067,106.430 192.664,107.200 192.400 C 108.789 191.854,109.762 191.488,111.200 190.894 C 111.750 190.667,112.830 190.264,113.600 190.000 C 114.370 189.736,115.360 189.375,115.800 189.198 C 116.561 188.892,121.223 187.137,124.546 185.905 C 126.375 185.227,126.737 184.639,128.800 179.000 C 129.283 177.680,129.827 176.240,130.009 175.800 C 130.191 175.360,131.082 173.020,131.988 170.600 C 132.895 168.180,133.890 165.570,134.200 164.800 C 134.510 164.030,135.590 161.248,136.600 158.619 C 139.144 151.998,138.575 152.314,145.600 153.610 C 146.810 153.833,148.970 154.193,150.400 154.409 C 151.830 154.626,153.990 154.975,155.200 155.186 C 156.410 155.396,158.570 155.772,160.000 156.021 C 164.873 156.870,166.599 157.148,168.600 157.405 C 169.700 157.546,171.112 157.856,171.737 158.094 C 172.469 158.373,172.968 158.389,173.137 158.137 C 173.282 157.923,177.180 154.706,181.800 150.990 C 186.420 147.274,190.290 144.127,190.400 143.997 C 190.510 143.868,191.230 143.324,192.000 142.789 C 192.770 142.255,193.775 141.453,194.234 141.009 C 194.692 140.564,196.177 139.345,197.534 138.300 L 200.000 136.401 200.000 124.600 L 200.000 112.800 175.800 112.800 L 151.600 112.800 151.600 66.000 L 151.600 19.200 75.800 19.200 L 0.000 19.200 0.000 171.800 M159.383 218.500 C 159.275 218.781,159.235 223.869,159.293 229.806 L 159.400 240.600 170.600 240.600 L 181.800 240.600 181.800 229.400 L 181.800 218.200 170.690 218.094 C 161.951 218.010,159.538 218.097,159.383 218.500 M197.400 244.442 C 196.080 246.251,194.814 247.927,194.587 248.166 C 194.360 248.405,193.738 249.230,193.206 250.000 C 192.674 250.770,192.131 251.490,192.000 251.600 C 191.869 251.710,191.323 252.430,190.786 253.200 C 190.250 253.970,189.595 254.870,189.330 255.200 C 179.861 267.015,163.706 289.600,164.725 289.600 C 164.903 289.600,165.398 289.920,165.825 290.311 C 166.251 290.702,167.230 291.458,168.000 291.992 C 168.770 292.525,169.490 293.069,169.600 293.200 C 169.710 293.331,170.430 293.871,171.200 294.400 C 171.970 294.929,172.690 295.461,172.800 295.582 C 172.981 295.782,175.123 297.396,180.123 301.100 C 181.089 301.815,181.974 302.400,182.090 302.400 C 182.207 302.400,184.154 299.925,186.419 296.900 C 188.683 293.875,190.641 291.310,190.771 291.200 C 190.901 291.090,191.456 290.326,192.004 289.503 C 192.552 288.679,193.135 288.004,193.300 288.003 C 193.465 288.001,193.600 287.822,193.600 287.605 C 193.600 287.387,193.858 286.892,194.174 286.505 C 194.490 286.117,195.420 284.900,196.242 283.800 C 197.063 282.700,198.247 281.160,198.872 280.378 L 200.008 278.957 199.904 260.054 L 199.800 241.152 197.400 244.442 M321.300 324.300 C 335.765 324.358,359.435 324.358,373.900 324.300 C 388.365 324.242,376.530 324.194,347.600 324.194 C 318.670 324.194,306.835 324.242,321.300 324.300 " stroke="none" fill="#fced69" fill-rule="evenodd"></path><path id="path2" d="M151.600 66.000 L 151.600 112.800 175.800 112.800 L 200.000 112.800 200.012 124.500 L 200.025 136.200 201.712 137.485 C 202.641 138.192,203.940 139.247,204.600 139.830 C 205.260 140.413,206.430 141.362,207.200 141.940 C 207.970 142.518,208.870 143.265,209.200 143.600 C 209.530 143.935,210.459 144.699,211.265 145.298 C 212.071 145.898,212.971 146.620,213.265 146.904 C 213.559 147.188,215.780 149.034,218.200 151.005 C 220.620 152.976,222.841 154.819,223.135 155.101 C 225.973 157.815,226.979 157.981,233.800 156.851 C 235.120 156.632,237.460 156.256,239.000 156.014 C 242.126 155.523,244.935 155.074,248.800 154.448 C 256.210 153.247,257.555 153.067,259.353 153.035 C 260.716 153.011,261.397 153.181,261.607 153.600 C 262.039 154.463,262.647 155.988,263.200 157.600 C 263.464 158.370,263.825 159.360,264.002 159.800 C 264.553 161.170,266.679 166.859,267.814 170.000 C 269.854 175.646,271.262 179.400,271.564 180.000 C 271.730 180.330,272.121 181.479,272.433 182.553 C 273.075 184.763,272.985 184.707,279.800 187.200 C 282.629 188.235,283.945 188.764,284.895 189.247 C 285.277 189.441,285.780 189.600,286.014 189.600 C 286.248 189.600,287.184 189.960,288.094 190.400 C 289.005 190.840,289.989 191.200,290.281 191.200 C 290.572 191.200,291.123 191.359,291.505 191.553 C 292.469 192.043,295.554 193.324,297.400 194.000 C 297.840 194.161,298.695 194.497,299.300 194.746 C 299.905 194.996,300.805 195.356,301.300 195.546 C 301.795 195.737,302.650 196.081,303.200 196.310 C 303.750 196.540,304.531 196.834,304.935 196.965 C 305.572 197.170,305.642 197.513,305.458 199.501 C 305.257 201.666,305.084 202.810,303.988 209.200 C 303.039 214.731,302.852 215.895,302.444 218.800 C 302.212 220.450,301.638 223.918,301.167 226.506 C 300.606 229.599,300.445 231.382,300.698 231.706 C 302.189 233.616,308.283 241.102,308.699 241.535 C 308.981 241.829,309.703 242.729,310.304 243.535 C 310.904 244.341,311.499 245.090,311.625 245.200 C 311.751 245.310,314.002 248.100,316.627 251.400 C 319.252 254.700,321.535 257.460,321.700 257.533 C 322.238 257.772,322.016 259.031,321.297 259.825 C 320.910 260.251,319.219 262.310,317.538 264.400 C 315.857 266.490,314.149 268.560,313.741 269.000 C 313.334 269.441,312.493 270.480,311.873 271.309 C 311.253 272.139,310.353 273.220,309.873 273.712 C 309.393 274.203,308.508 275.264,307.906 276.068 C 307.304 276.873,306.578 277.771,306.291 278.065 C 306.005 278.359,304.590 280.068,303.148 281.862 L 300.525 285.125 301.076 288.462 C 301.566 291.433,301.972 294.086,303.236 302.600 C 303.842 306.679,304.365 310.097,304.768 312.600 C 305.937 319.864,305.926 319.918,303.106 320.804 C 302.168 321.098,301.229 321.488,301.020 321.670 C 300.811 321.851,300.237 322.000,299.744 322.000 C 299.251 322.000,298.736 322.180,298.600 322.400 C 298.464 322.620,298.025 322.800,297.625 322.800 C 297.225 322.800,296.674 323.070,296.400 323.400 C 295.958 323.933,301.731 324.000,347.951 324.000 L 400.000 324.000 400.000 171.600 L 400.000 19.200 312.400 19.200 C 255.162 19.200,224.800 19.337,224.800 19.594 C 224.800 19.841,229.158 20.027,236.500 20.094 L 248.200 20.200 248.302 66.300 L 248.403 112.400 224.402 112.400 L 200.400 112.400 200.400 66.200 C 200.400 35.667,200.536 20.000,200.800 20.000 C 201.020 20.000,201.200 19.820,201.200 19.600 C 201.200 19.338,192.667 19.200,176.400 19.200 L 151.600 19.200 151.600 66.000 M216.966 218.100 C 216.539 218.595,215.750 219.630,215.214 220.400 C 214.677 221.170,214.131 221.890,214.000 222.000 C 213.869 222.110,213.329 222.830,212.800 223.600 C 212.271 224.370,211.731 225.090,211.600 225.200 C 211.469 225.310,210.923 226.030,210.386 226.800 C 209.850 227.570,209.183 228.470,208.903 228.800 C 208.623 229.130,206.510 231.920,204.206 235.000 L 200.019 240.600 200.009 259.748 L 200.000 278.897 203.303 274.548 C 205.120 272.157,207.046 269.570,207.584 268.800 C 208.122 268.030,208.669 267.310,208.800 267.200 C 208.931 267.090,209.471 266.370,210.000 265.600 C 210.529 264.830,211.069 264.110,211.200 264.000 C 211.331 263.890,211.871 263.170,212.400 262.400 C 212.929 261.630,213.463 260.910,213.586 260.800 C 213.710 260.690,216.502 257.000,219.789 252.600 C 223.077 248.200,225.873 244.510,226.003 244.400 C 226.133 244.290,226.675 243.570,227.208 242.800 C 227.742 242.030,228.319 241.220,228.491 241.000 C 230.587 238.322,235.733 231.320,235.872 230.957 C 235.972 230.696,235.367 229.970,234.527 229.343 C 233.687 228.717,232.910 228.105,232.800 227.983 C 232.690 227.861,231.970 227.329,231.200 226.800 C 230.430 226.271,229.710 225.732,229.600 225.603 C 229.100 225.013,218.398 217.200,218.090 217.200 C 217.900 217.200,217.394 217.605,216.966 218.100 M219.600 287.400 L 219.600 298.800 231.000 298.800 L 242.400 298.800 242.400 287.400 L 242.400 276.000 231.000 276.000 L 219.600 276.000 219.600 287.400 M295.141 324.501 C 295.307 324.667,319.013 324.757,347.821 324.701 L 400.200 324.600 347.520 324.400 C 318.546 324.290,294.976 324.336,295.141 324.501 " stroke="none" fill="#fcd324" fill-rule="evenodd"></path><path id="path3" d="M194.759 140.931 C 191.987 143.169,185.997 148.015,181.448 151.700 C 176.271 155.893,172.845 158.399,172.289 158.397 C 171.800 158.396,168.880 157.949,165.800 157.404 C 162.720 156.858,159.855 156.410,159.433 156.406 C 157.922 156.394,159.260 156.955,161.508 157.276 C 162.768 157.456,164.790 157.791,166.000 158.021 C 171.776 159.119,173.652 159.001,175.350 157.432 C 176.203 156.644,177.013 155.997,177.150 155.992 C 177.288 155.988,178.120 155.346,179.000 154.566 C 179.880 153.785,181.601 152.376,182.824 151.435 C 185.600 149.297,186.671 148.418,187.750 147.391 C 188.218 146.947,189.230 146.143,190.000 145.607 C 190.770 145.070,191.877 144.129,192.460 143.515 C 193.044 142.902,193.719 142.400,193.960 142.400 C 194.202 142.400,194.400 142.220,194.400 142.000 C 194.400 141.780,194.586 141.600,194.814 141.600 C 195.042 141.600,195.627 141.245,196.114 140.811 C 199.432 137.855,200.414 137.160,200.885 137.435 C 201.365 137.715,205.155 140.738,205.600 141.195 C 206.473 142.092,210.400 145.207,210.400 145.002 C 210.400 144.394,201.027 136.790,200.327 136.831 C 200.037 136.848,197.532 138.693,194.759 140.931 M211.861 146.265 C 212.932 147.229,218.052 151.516,220.000 153.079 C 220.330 153.343,221.922 154.658,223.539 155.999 C 226.790 158.696,226.366 158.618,232.200 157.594 C 233.300 157.401,235.550 157.042,237.200 156.796 C 240.647 156.283,244.126 155.720,247.000 155.210 C 248.100 155.015,249.871 154.739,250.937 154.597 C 252.002 154.456,252.794 154.260,252.696 154.163 C 252.599 154.066,251.278 154.177,249.760 154.411 C 248.242 154.644,245.920 154.999,244.600 155.200 C 243.280 155.401,241.030 155.762,239.600 156.003 C 236.947 156.450,233.682 156.945,229.400 157.549 C 226.223 157.997,225.843 157.770,217.166 150.244 C 213.664 147.207,209.133 143.808,211.861 146.265 M259.757 153.147 C 260.394 153.286,261.048 153.670,261.211 154.000 C 261.775 155.141,263.409 159.423,264.171 161.757 C 264.308 162.174,264.512 162.421,264.626 162.307 C 264.807 162.126,264.272 160.433,263.200 157.800 C 263.021 157.360,262.571 156.191,262.201 155.201 C 261.440 153.169,261.025 152.795,259.600 152.853 C 258.667 152.892,258.678 152.912,259.757 153.147 M138.386 155.033 C 137.954 156.041,137.600 157.034,137.600 157.239 C 137.600 157.443,137.441 157.923,137.247 158.305 C 137.052 158.687,136.716 159.450,136.500 160.000 C 136.284 160.550,135.920 161.450,135.691 162.000 C 135.462 162.550,134.376 165.340,133.277 168.200 C 132.179 171.060,130.362 175.740,129.239 178.600 C 128.116 181.460,127.198 183.997,127.199 184.238 C 127.201 184.879,125.999 185.796,124.400 186.374 C 123.630 186.653,122.640 187.034,122.200 187.220 C 121.760 187.407,118.880 188.479,115.800 189.602 C 112.720 190.725,107.500 192.654,104.200 193.890 C 100.900 195.125,97.609 196.345,96.887 196.601 C 94.433 197.470,94.430 197.525,96.398 209.200 C 96.602 210.410,96.956 212.615,97.184 214.100 C 97.413 215.585,97.787 218.015,98.016 219.500 C 98.602 223.312,99.127 226.414,99.659 229.222 C 100.176 231.949,100.200 231.897,96.393 236.400 C 94.551 238.579,85.084 250.021,80.691 255.380 C 77.937 258.739,76.826 256.595,89.369 272.116 C 94.666 278.670,99.258 284.452,99.574 284.965 C 100.161 285.921,100.110 286.495,98.800 293.600 C 98.617 294.590,98.257 296.750,98.000 298.400 C 97.743 300.050,97.381 302.210,97.196 303.200 C 95.906 310.120,94.800 317.127,94.800 318.384 C 94.800 319.502,94.697 319.447,101.391 321.902 C 104.200 322.932,105.200 323.580,105.200 324.371 C 105.200 324.903,105.870 324.935,106.188 324.419 C 106.484 323.940,105.200 322.400,104.506 322.400 C 104.222 322.400,103.677 322.241,103.295 322.047 C 102.913 321.852,102.060 321.471,101.400 321.200 C 100.740 320.929,99.887 320.548,99.505 320.353 C 99.123 320.159,98.448 320.000,98.005 320.000 C 97.562 320.000,97.200 319.820,97.200 319.600 C 97.200 319.380,96.840 319.200,96.400 319.200 C 95.531 319.200,95.161 314.619,95.963 313.780 C 96.163 313.571,96.433 312.455,96.563 311.300 C 96.693 310.145,96.907 308.255,97.037 307.100 C 97.167 305.945,97.437 304.829,97.637 304.620 C 97.837 304.411,98.000 303.322,98.000 302.200 C 98.000 301.078,98.163 299.989,98.363 299.780 C 98.563 299.571,98.825 298.500,98.946 297.400 C 99.066 296.300,99.353 294.275,99.582 292.900 C 100.967 284.613,101.055 285.062,97.200 280.819 C 96.650 280.214,95.750 279.121,95.200 278.390 C 94.650 277.659,93.836 276.688,93.391 276.231 C 92.947 275.774,92.145 274.770,91.611 274.000 C 91.076 273.230,90.539 272.510,90.418 272.400 C 90.296 272.290,89.120 270.850,87.804 269.200 C 85.206 265.941,84.588 265.184,83.455 263.866 C 83.045 263.390,82.237 262.370,81.659 261.600 C 81.081 260.830,80.262 259.883,79.839 259.496 C 78.949 258.683,79.249 257.827,81.138 255.778 C 81.736 255.130,83.832 252.620,85.797 250.200 C 87.761 247.780,89.781 245.352,90.284 244.804 C 90.788 244.256,91.200 243.686,91.200 243.537 C 91.200 243.387,91.875 242.551,92.700 241.679 C 94.042 240.260,95.254 238.838,97.800 235.700 C 98.240 235.157,99.013 234.238,99.518 233.657 C 100.322 232.732,100.411 232.300,100.228 230.200 C 99.750 224.686,99.510 222.980,99.165 222.620 C 98.964 222.411,98.800 221.322,98.800 220.200 C 98.800 219.078,98.636 217.989,98.435 217.780 C 98.235 217.571,97.965 216.365,97.835 215.100 C 97.706 213.835,97.494 211.765,97.365 210.500 C 97.235 209.235,96.965 208.029,96.765 207.820 C 96.564 207.611,96.400 206.432,96.400 205.200 C 96.400 203.968,96.210 202.770,95.977 202.537 C 95.745 202.305,95.610 201.162,95.677 199.998 C 95.804 197.815,95.840 197.769,98.200 196.800 C 98.860 196.529,99.713 196.148,100.095 195.953 C 100.477 195.759,101.152 195.600,101.595 195.600 C 102.038 195.600,102.400 195.420,102.400 195.200 C 102.400 194.980,102.762 194.800,103.205 194.800 C 103.648 194.800,104.368 194.620,104.805 194.400 C 105.242 194.180,105.958 193.820,106.395 193.600 C 106.832 193.380,107.552 193.200,107.995 193.200 C 108.438 193.200,108.800 193.020,108.800 192.800 C 108.800 192.580,109.162 192.400,109.605 192.400 C 110.048 192.400,110.723 192.234,111.105 192.032 C 111.487 191.830,112.790 191.308,114.000 190.872 C 115.210 190.437,118.090 189.399,120.400 188.566 C 122.710 187.733,124.771 186.905,124.980 186.726 C 125.189 186.547,125.607 186.400,125.909 186.400 C 126.720 186.400,127.600 185.374,127.600 184.429 C 127.600 183.973,127.780 183.600,128.000 183.600 C 128.220 183.600,128.400 183.150,128.400 182.600 C 128.400 182.050,128.580 181.600,128.800 181.600 C 129.020 181.600,129.200 181.238,129.200 180.795 C 129.200 180.352,129.359 179.677,129.553 179.295 C 129.748 178.913,130.108 178.105,130.353 177.500 C 130.599 176.895,131.001 175.905,131.247 175.300 C 131.492 174.695,131.852 173.887,132.047 173.505 C 132.241 173.123,132.400 172.448,132.400 172.005 C 132.400 171.562,132.580 171.200,132.800 171.200 C 133.020 171.200,133.200 170.838,133.200 170.395 C 133.200 169.952,133.359 169.277,133.553 168.895 C 133.748 168.513,134.084 167.750,134.300 167.200 C 134.516 166.650,134.897 165.705,135.146 165.100 C 135.396 164.495,135.804 163.505,136.054 162.900 C 136.303 162.295,136.646 161.440,136.815 161.000 C 139.898 153.002,139.611 153.501,140.960 153.786 C 143.334 154.287,147.961 155.087,153.800 156.006 C 155.120 156.214,156.740 156.369,157.400 156.351 C 159.296 156.298,157.473 155.925,147.600 154.344 C 146.170 154.115,144.245 153.764,143.323 153.564 C 139.881 152.817,139.256 153.003,138.386 155.033 M255.000 153.600 L 253.400 153.886 255.000 153.903 C 255.880 153.913,257.050 153.776,257.600 153.600 L 258.600 153.280 257.600 153.297 C 257.050 153.306,255.880 153.442,255.000 153.600 M264.821 162.990 C 264.791 163.551,266.899 168.835,267.080 168.653 C 267.163 168.570,266.694 167.174,266.036 165.551 C 265.379 163.928,264.832 162.776,264.821 162.990 M267.212 169.600 C 267.212 169.930,267.387 170.470,267.600 170.800 C 267.945 171.333,267.988 171.333,267.988 170.800 C 267.988 170.470,267.813 169.930,267.600 169.600 C 267.255 169.067,267.212 169.067,267.212 169.600 M268.830 174.300 C 268.890 174.911,270.342 177.784,270.370 177.349 C 270.407 176.790,269.261 174.000,268.995 174.000 C 268.888 174.000,268.813 174.135,268.830 174.300 M274.000 185.310 C 274.316 185.642,279.291 187.602,279.769 187.583 C 280.006 187.574,279.162 187.135,277.892 186.608 C 275.294 185.528,273.702 184.998,274.000 185.310 M280.600 188.000 C 280.736 188.220,281.109 188.400,281.429 188.400 C 281.749 188.400,282.323 188.567,282.705 188.770 C 284.979 189.982,291.330 192.134,290.984 191.574 C 290.857 191.368,290.491 191.200,290.171 191.200 C 289.851 191.200,289.277 191.041,288.895 190.847 C 287.606 190.191,280.964 187.600,280.572 187.600 C 280.452 187.600,280.464 187.780,280.600 188.000 M292.411 192.533 C 293.779 193.247,295.252 193.609,294.977 193.163 C 294.854 192.963,294.414 192.800,294.000 192.800 C 293.586 192.800,293.136 192.620,293.000 192.400 C 292.864 192.180,292.448 192.001,292.076 192.002 C 291.608 192.004,291.712 192.168,292.411 192.533 M298.351 194.836 C 299.974 195.494,301.378 195.955,301.471 195.862 C 301.565 195.769,301.047 195.465,300.320 195.186 C 299.594 194.908,298.370 194.440,297.600 194.146 C 294.838 193.092,295.462 193.666,298.351 194.836 M304.623 197.367 C 305.461 197.980,305.840 197.913,305.416 197.227 C 305.271 196.992,304.859 196.800,304.500 196.800 C 303.954 196.800,303.974 196.893,304.623 197.367 M305.264 199.050 C 305.229 199.518,305.105 200.508,304.989 201.250 C 304.796 202.486,304.815 202.517,305.208 201.614 C 305.445 201.072,305.568 200.082,305.483 199.414 C 305.391 198.697,305.302 198.548,305.264 199.050 M304.464 203.650 C 304.429 204.008,304.298 204.907,304.173 205.650 C 303.988 206.755,304.029 206.871,304.398 206.291 C 304.646 205.902,304.777 205.002,304.689 204.291 C 304.600 203.581,304.499 203.293,304.464 203.650 M303.453 209.741 C 303.286 210.588,303.241 211.375,303.355 211.488 C 303.658 211.791,304.097 209.785,303.914 208.932 C 303.820 208.490,303.637 208.811,303.453 209.741 M302.622 214.622 C 302.472 215.425,302.438 216.172,302.548 216.282 C 302.658 216.392,302.872 215.825,303.022 215.022 C 303.173 214.219,303.206 213.473,303.096 213.363 C 302.986 213.253,302.773 213.819,302.622 214.622 M217.144 217.100 C 215.896 218.607,215.579 219.325,216.723 218.055 L 217.934 216.709 219.467 217.797 L 221.000 218.886 219.615 217.643 C 218.002 216.195,217.911 216.175,217.144 217.100 M158.900 217.065 C 158.515 217.220,158.400 220.075,158.400 229.439 L 158.400 241.612 170.700 241.506 L 183.000 241.400 183.106 229.838 C 183.201 219.504,183.142 218.198,182.544 217.538 C 181.896 216.822,160.561 216.395,158.900 217.065 M301.818 219.418 C 301.665 220.439,301.630 221.363,301.740 221.473 C 301.850 221.583,302.065 220.839,302.218 219.818 C 302.371 218.798,302.406 217.873,302.296 217.763 C 302.186 217.653,301.971 218.398,301.818 219.418 M182.312 228.800 C 182.374 234.630,182.326 239.805,182.205 240.300 L 181.985 241.200 170.392 241.200 L 158.800 241.200 158.800 229.594 L 158.800 217.988 170.500 218.094 L 182.200 218.200 182.312 228.800 M214.071 221.043 C 212.800 223.006,213.138 223.097,214.526 221.167 C 215.145 220.305,215.505 219.602,215.326 219.605 C 215.147 219.608,214.582 220.255,214.071 221.043 M222.405 219.880 C 222.408 220.056,223.038 220.607,223.805 221.104 C 225.603 222.268,225.600 222.000,223.800 220.627 C 223.030 220.040,222.402 219.703,222.405 219.880 M225.605 222.280 C 225.608 222.456,226.238 223.007,227.005 223.504 C 228.803 224.668,228.800 224.400,227.000 223.027 C 226.230 222.440,225.602 222.103,225.605 222.280 M211.504 224.444 C 210.901 225.300,210.541 225.999,210.704 225.997 C 211.068 225.994,212.977 223.240,212.758 223.035 C 212.671 222.954,212.107 223.588,211.504 224.444 M301.022 224.222 C 300.872 225.025,300.838 225.772,300.948 225.882 C 301.058 225.992,301.272 225.425,301.422 224.622 C 301.573 223.819,301.606 223.073,301.496 222.963 C 301.386 222.853,301.173 223.419,301.022 224.222 M228.805 224.680 C 228.808 224.856,229.438 225.407,230.205 225.904 C 232.003 227.068,232.000 226.800,230.200 225.427 C 229.430 224.840,228.802 224.503,228.805 224.680 M209.035 227.789 C 208.444 228.565,208.148 229.200,208.380 229.200 C 208.611 229.200,208.800 229.054,208.800 228.875 C 208.800 228.697,209.178 228.145,209.640 227.649 C 210.102 227.153,210.397 226.664,210.296 226.563 C 210.195 226.461,209.627 227.013,209.035 227.789 M232.033 227.330 C 232.125 227.401,232.830 227.866,233.600 228.363 L 235.000 229.266 233.800 228.235 C 233.140 227.668,232.435 227.203,232.233 227.202 C 232.032 227.201,231.942 227.258,232.033 227.330 M300.250 228.450 C 299.737 231.017,299.974 231.745,302.063 234.000 C 303.184 235.210,303.853 235.840,303.550 235.400 C 303.248 234.960,302.907 234.510,302.794 234.400 C 300.781 232.451,300.331 231.413,300.592 229.326 C 300.881 227.015,300.653 226.433,300.250 228.450 M205.984 231.889 C 205.033 233.160,203.817 234.785,203.280 235.500 C 202.744 236.215,202.406 236.800,202.530 236.800 C 202.654 236.800,203.795 235.405,205.066 233.700 C 206.338 231.995,207.557 230.475,207.777 230.322 C 207.997 230.169,208.072 229.939,207.944 229.811 C 207.817 229.683,206.934 230.619,205.984 231.889 M235.500 229.865 C 235.775 229.976,236.000 230.322,236.000 230.633 C 236.000 230.945,236.180 231.200,236.400 231.200 C 236.620 231.200,236.800 231.056,236.800 230.880 C 236.800 230.406,235.903 229.595,235.420 229.632 C 235.189 229.649,235.225 229.754,235.500 229.865 M235.144 232.300 C 233.852 233.860,233.519 234.400,233.851 234.395 C 234.043 234.392,234.607 233.762,235.104 232.995 C 236.072 231.501,236.092 231.156,235.144 232.300 M232.744 235.500 C 231.452 237.060,231.119 237.600,231.451 237.595 C 231.643 237.592,232.207 236.962,232.704 236.195 C 233.672 234.701,233.692 234.356,232.744 235.500 M305.669 238.436 C 309.407 243.264,320.100 256.400,320.293 256.400 C 320.550 256.400,320.865 256.807,313.772 248.000 C 310.495 243.930,307.540 240.255,307.206 239.834 C 306.873 239.413,306.001 238.423,305.269 237.634 C 304.360 236.654,304.487 236.908,305.669 238.436 M200.513 238.972 C 199.596 239.947,198.172 241.702,197.350 242.872 C 196.528 244.042,195.624 245.232,195.342 245.515 C 195.059 245.798,194.513 246.563,194.128 247.215 C 193.743 247.867,193.286 248.400,193.114 248.400 C 192.941 248.400,192.800 248.593,192.800 248.829 C 192.800 249.064,192.575 249.494,192.300 249.784 C 191.362 250.772,190.400 252.009,190.400 252.226 C 190.400 252.346,189.861 253.019,189.202 253.722 C 188.543 254.425,188.003 255.137,188.002 255.304 C 188.001 255.471,187.460 256.172,186.800 256.863 C 186.140 257.554,185.600 258.279,185.600 258.476 C 185.600 258.673,185.239 259.221,184.798 259.694 C 184.357 260.168,182.606 262.455,180.908 264.778 C 179.210 267.100,177.501 269.349,177.110 269.775 C 176.720 270.202,176.400 270.699,176.400 270.879 C 176.400 271.060,175.860 271.772,175.200 272.463 C 174.540 273.154,174.000 273.896,174.000 274.112 C 174.000 274.329,173.676 274.797,173.281 275.153 C 172.886 275.509,172.129 276.430,171.600 277.200 C 171.071 277.970,170.534 278.690,170.405 278.800 C 169.381 279.679,163.200 288.500,163.200 289.083 C 163.200 289.492,163.733 290.143,164.385 290.528 C 165.037 290.913,165.802 291.447,166.085 291.714 C 166.368 291.981,167.680 293.010,169.000 293.999 C 170.320 294.988,171.490 295.897,171.600 296.018 C 171.710 296.139,172.430 296.671,173.200 297.200 C 173.970 297.729,174.690 298.269,174.800 298.400 C 174.910 298.531,175.630 299.074,176.400 299.606 C 177.170 300.138,178.032 300.798,178.315 301.073 C 178.598 301.347,179.363 301.887,180.015 302.272 C 180.667 302.657,181.200 303.114,181.200 303.286 C 181.200 304.711,183.095 303.014,186.323 298.700 C 188.339 296.005,190.131 293.620,190.305 293.400 C 190.479 293.180,191.058 292.370,191.592 291.600 C 192.125 290.830,192.661 290.110,192.782 290.000 C 192.903 289.890,193.811 288.720,194.800 287.400 C 195.789 286.080,196.697 284.910,196.818 284.800 C 196.939 284.690,197.471 283.970,198.000 283.200 C 198.529 282.430,199.081 281.710,199.227 281.600 C 199.373 281.490,199.616 280.950,199.767 280.400 C 200.110 279.149,200.917 278.127,190.691 291.889 C 185.424 298.978,182.391 302.732,182.000 302.646 C 180.889 302.402,164.000 289.495,164.000 288.891 C 164.000 288.414,169.112 281.195,170.012 280.400 C 170.137 280.290,170.677 279.570,171.214 278.800 C 171.750 278.030,172.409 277.130,172.678 276.800 C 173.699 275.550,202.357 237.200,202.271 237.200 C 202.221 237.200,201.430 237.997,200.513 238.972 M229.002 240.440 C 227.981 241.782,227.216 242.949,227.302 243.035 C 227.387 243.120,227.881 242.607,228.399 241.895 C 228.918 241.183,229.782 240.015,230.319 239.300 C 230.856 238.585,231.196 238.000,231.076 238.000 C 230.956 238.000,230.022 239.098,229.002 240.440 M222.997 248.502 C 218.121 255.064,216.955 256.708,217.678 256.000 C 218.651 255.048,226.884 243.951,226.732 243.798 C 226.656 243.723,224.975 245.839,222.997 248.502 M216.344 257.500 C 215.075 259.032,214.619 259.742,215.081 259.465 C 215.593 259.158,217.369 256.800,217.089 256.800 C 216.998 256.800,216.663 257.115,216.344 257.500 M320.938 257.531 C 321.302 257.934,321.600 258.392,321.600 258.549 C 321.600 258.867,321.229 259.322,308.261 274.922 C 299.289 285.714,299.835 284.901,300.351 286.692 L 300.784 288.200 300.603 286.598 C 300.439 285.143,300.606 284.778,302.438 282.598 C 303.547 281.279,304.667 279.927,304.927 279.594 C 305.542 278.806,308.757 274.894,309.851 273.604 C 310.319 273.052,312.555 270.350,314.819 267.600 C 317.084 264.850,319.651 261.735,320.524 260.678 C 322.088 258.785,322.163 256.800,320.670 256.800 C 320.453 256.800,320.574 257.129,320.938 257.531 M213.296 261.405 C 212.132 263.203,212.400 263.200,213.773 261.400 C 214.360 260.630,214.697 260.002,214.520 260.005 C 214.344 260.008,213.793 260.638,213.296 261.405 M211.072 264.385 C 210.687 265.037,210.147 265.802,209.873 266.085 C 209.139 266.842,207.600 269.081,207.600 269.392 C 207.600 269.639,208.049 269.072,211.320 264.698 C 211.937 263.874,212.290 263.200,212.107 263.200 C 211.923 263.200,211.457 263.733,211.072 264.385 M206.115 270.929 C 205.634 271.628,204.590 273.100,203.795 274.200 C 203.001 275.300,202.767 275.729,203.275 275.154 C 205.356 272.799,207.359 270.026,207.139 269.806 C 207.057 269.724,206.597 270.229,206.115 270.929 M219.067 275.867 C 218.697 276.237,218.729 299.200,219.100 299.200 C 219.265 299.200,219.350 293.983,219.288 287.606 L 219.176 276.012 231.088 275.900 L 243.000 275.788 231.167 275.694 C 224.658 275.642,219.213 275.720,219.067 275.867 M200.975 277.868 C 200.359 278.676,200.059 279.211,200.309 279.056 C 200.821 278.740,202.553 276.400,202.275 276.400 C 202.176 276.400,201.591 277.061,200.975 277.868 M300.868 290.400 C 300.887 292.050,301.517 293.756,301.532 292.200 C 301.538 291.540,301.389 290.640,301.200 290.200 C 300.887 289.473,300.857 289.491,300.868 290.400 M301.687 295.200 C 301.691 295.750,301.832 296.740,302.000 297.400 L 302.305 298.600 302.313 297.400 C 302.317 296.740,302.176 295.750,302.000 295.200 L 301.680 294.200 301.687 295.200 M302.446 300.600 C 302.515 302.231,303.115 303.587,303.154 302.200 C 303.173 301.540,303.013 300.730,302.800 300.400 C 302.481 299.906,302.418 299.941,302.446 300.600 M303.275 305.400 C 303.286 305.840,303.432 306.740,303.600 307.400 L 303.905 308.600 303.925 307.400 C 303.935 306.740,303.789 305.840,303.600 305.400 L 303.256 304.600 303.275 305.400 M304.268 312.000 C 304.400 313.210,304.574 314.275,304.654 314.367 C 304.964 314.721,304.725 311.357,304.386 310.600 C 304.152 310.078,304.112 310.563,304.268 312.000 M305.066 317.219 C 305.273 319.264,305.217 319.473,304.346 319.891 C 303.747 320.179,303.627 320.356,304.020 320.373 C 305.452 320.435,306.107 317.881,305.192 315.800 C 304.965 315.283,304.920 315.784,305.066 317.219 " stroke="none" fill="#f8816c" fill-rule="evenodd"></path><path id="path4" d="M200.900 19.798 C 200.506 20.246,200.400 30.139,200.400 66.383 L 200.400 112.400 224.402 112.400 L 248.403 112.400 248.302 66.300 L 248.200 20.200 236.500 20.094 C 229.158 20.027,224.800 19.841,224.800 19.594 C 224.800 18.907,201.510 19.106,200.900 19.798 M197.800 138.064 C 193.860 141.242,193.450 141.600,193.754 141.600 C 193.924 141.600,195.354 140.548,196.931 139.262 C 198.509 137.977,200.070 136.821,200.400 136.694 C 200.933 136.489,200.933 136.463,200.400 136.457 C 200.070 136.454,198.900 137.177,197.800 138.064 M191.705 142.925 C 190.993 143.406,190.408 143.944,190.405 144.120 C 190.402 144.297,191.030 143.960,191.800 143.373 C 192.570 142.786,193.200 142.236,193.200 142.153 C 193.200 141.927,193.119 141.969,191.705 142.925 M181.522 151.123 C 176.969 154.795,173.234 157.933,173.222 158.096 C 173.200 158.398,187.395 147.066,189.191 145.348 C 191.291 143.339,189.509 144.680,181.522 151.123 M138.923 153.253 C 138.271 154.042,135.127 162.061,135.374 162.307 C 135.488 162.421,135.692 162.174,135.827 161.757 C 135.962 161.341,136.260 160.550,136.490 160.000 C 136.719 159.450,137.045 158.640,137.213 158.200 C 139.310 152.708,138.718 153.057,144.800 153.725 C 146.926 153.959,146.939 153.954,145.200 153.594 C 141.328 152.791,139.393 152.686,138.923 153.253 M148.400 154.394 C 149.170 154.580,151.150 154.943,152.800 155.200 C 154.450 155.458,156.610 155.824,157.600 156.016 C 158.590 156.207,160.210 156.455,161.200 156.567 C 163.970 156.880,161.315 156.166,157.600 155.598 C 155.950 155.345,153.880 154.982,153.000 154.791 C 150.739 154.300,146.491 153.933,148.400 154.394 M163.233 156.946 C 163.325 157.026,164.390 157.200,165.600 157.332 C 167.037 157.488,167.522 157.448,167.000 157.214 C 166.243 156.875,162.879 156.636,163.233 156.946 M168.033 157.749 C 168.125 157.831,169.100 158.018,170.200 158.165 C 171.620 158.355,172.026 158.314,171.600 158.023 C 171.061 157.654,167.632 157.390,168.033 157.749 M133.860 165.660 C 133.254 167.217,132.829 168.562,132.915 168.648 C 133.001 168.734,133.570 167.534,134.180 165.980 C 134.790 164.426,135.215 163.082,135.125 162.992 C 135.035 162.902,134.466 164.103,133.860 165.660 M130.600 174.000 C 130.450 174.473,130.417 174.950,130.527 175.060 C 130.637 175.170,130.850 174.873,131.000 174.400 C 131.150 173.927,131.183 173.450,131.073 173.340 C 130.963 173.230,130.750 173.527,130.600 174.000 M126.468 184.672 C 126.250 185.080,125.381 185.648,124.536 185.936 C 123.691 186.223,121.650 186.968,120.000 187.591 C 118.350 188.213,116.659 188.834,116.243 188.971 C 115.826 189.107,115.579 189.313,115.694 189.427 C 115.869 189.602,119.147 188.475,122.200 187.190 C 122.640 187.004,123.682 186.622,124.516 186.340 C 126.056 185.820,127.519 184.585,127.097 184.163 C 126.969 184.036,126.686 184.265,126.468 184.672 M113.400 189.994 C 112.960 190.180,112.259 190.442,111.843 190.576 C 111.426 190.710,111.178 190.911,111.290 191.023 C 111.403 191.136,112.373 190.872,113.447 190.436 C 114.521 190.000,115.130 189.646,114.800 189.649 C 114.470 189.652,113.840 189.807,113.400 189.994 M96.400 196.400 C 95.867 196.745,95.867 196.788,96.400 196.788 C 96.730 196.788,97.270 196.613,97.600 196.400 C 98.133 196.055,98.133 196.012,97.600 196.012 C 97.270 196.012,96.730 196.187,96.400 196.400 M94.667 197.067 C 94.287 197.447,94.389 200.051,94.820 201.000 C 95.068 201.545,95.108 201.193,94.946 199.896 C 94.790 198.649,94.879 197.787,95.203 197.396 C 95.682 196.820,95.206 196.527,94.667 197.067 M95.275 204.000 C 95.265 204.770,95.411 205.760,95.600 206.200 C 96.057 207.264,96.057 205.597,95.600 203.800 L 95.295 202.600 95.275 204.000 M96.068 209.400 C 96.062 210.060,96.211 210.960,96.400 211.400 C 96.870 212.494,96.870 210.667,96.400 209.200 C 96.088 208.225,96.079 208.230,96.068 209.400 M96.875 214.200 C 96.865 214.860,97.011 215.760,97.200 216.200 L 97.544 217.000 97.525 216.200 C 97.514 215.760,97.368 214.860,97.200 214.200 L 96.895 213.000 96.875 214.200 M158.800 229.600 L 158.800 241.200 170.357 241.200 C 180.527 241.200,181.944 241.124,182.157 240.567 C 182.510 239.648,182.456 218.482,182.100 218.262 C 181.935 218.160,181.800 223.144,181.800 229.338 L 181.800 240.600 170.600 240.600 L 159.400 240.600 159.400 229.300 C 159.400 223.085,159.265 218.000,159.100 218.000 C 158.935 218.000,158.800 223.220,158.800 229.600 M97.687 219.400 C 97.683 220.060,97.824 221.050,98.000 221.600 L 98.320 222.600 98.313 221.600 C 98.309 221.050,98.168 220.060,98.000 219.400 L 97.695 218.200 97.687 219.400 M98.480 224.400 C 98.480 224.950,98.624 225.850,98.800 226.400 L 99.120 227.400 99.120 226.400 C 99.120 225.850,98.976 224.950,98.800 224.400 L 98.480 223.400 98.480 224.400 M99.406 230.096 C 99.580 231.951,97.453 235.167,92.899 239.935 C 92.618 240.229,91.896 241.129,91.294 241.934 C 90.692 242.740,89.872 243.759,89.471 244.200 C 88.645 245.106,81.245 254.119,79.218 256.687 L 77.887 258.374 79.243 260.175 C 79.990 261.165,80.734 261.981,80.897 261.988 C 81.061 261.994,80.561 261.170,79.786 260.155 C 78.598 258.597,78.456 258.207,78.882 257.655 C 80.066 256.121,93.248 240.119,96.393 236.400 C 100.078 232.041,100.176 231.848,99.675 229.919 L 99.228 228.200 99.406 230.096 M196.720 244.697 C 195.114 246.840,193.289 249.270,192.665 250.097 C 192.041 250.924,191.688 251.600,191.879 251.600 C 192.071 251.600,192.543 251.067,192.928 250.415 C 193.313 249.763,193.850 248.998,194.121 248.715 C 194.391 248.432,195.675 246.760,196.974 245.000 C 198.272 243.240,199.506 241.575,199.716 241.300 C 199.926 241.025,199.995 240.800,199.869 240.800 C 199.743 240.800,198.326 242.554,196.720 244.697 M190.744 252.700 C 189.452 254.260,189.119 254.800,189.451 254.795 C 189.643 254.792,190.207 254.162,190.704 253.395 C 191.672 251.901,191.692 251.556,190.744 252.700 M181.166 265.500 C 176.947 271.165,173.316 276.025,173.098 276.300 C 172.880 276.575,172.797 276.800,172.913 276.800 C 173.029 276.800,176.593 272.165,180.833 266.500 C 185.073 260.835,188.712 255.975,188.920 255.700 C 189.128 255.425,189.194 255.200,189.068 255.200 C 188.941 255.200,185.386 259.835,181.166 265.500 M81.484 262.900 C 83.436 265.459,90.800 274.406,90.800 274.220 C 90.800 273.894,81.570 262.400,81.309 262.400 C 81.195 262.400,81.274 262.625,81.484 262.900 M91.956 275.800 C 93.349 277.810,93.984 278.550,94.163 278.370 C 94.257 278.276,93.612 277.389,92.730 276.400 C 91.847 275.410,91.499 275.140,91.956 275.800 M219.391 287.500 L 219.400 299.000 230.800 299.010 L 242.200 299.019 230.906 298.903 L 219.612 298.788 219.497 287.394 L 219.381 276.000 219.391 287.500 M242.577 287.400 C 242.577 293.780,242.632 296.334,242.699 293.076 C 242.767 289.817,242.766 284.597,242.699 281.476 C 242.631 278.354,242.576 281.020,242.577 287.400 M171.296 278.605 C 170.132 280.403,170.400 280.400,171.773 278.600 C 172.360 277.830,172.697 277.202,172.520 277.205 C 172.344 277.208,171.793 277.838,171.296 278.605 M95.156 279.800 C 96.549 281.810,97.184 282.550,97.363 282.370 C 97.457 282.276,96.812 281.389,95.930 280.400 C 95.047 279.410,94.699 279.140,95.156 279.800 M166.900 284.384 C 163.569 288.904,163.512 289.140,165.400 290.553 C 166.170 291.129,167.430 292.071,168.200 292.647 C 168.970 293.224,169.600 293.532,169.600 293.334 C 169.600 293.135,169.105 292.679,168.500 292.321 C 167.895 291.963,166.860 291.204,166.200 290.635 C 165.540 290.066,164.865 289.601,164.700 289.600 C 164.137 289.600,164.398 288.254,165.121 287.426 C 166.632 285.697,170.405 280.401,170.110 280.425 C 169.939 280.438,168.495 282.220,166.900 284.384 M197.526 282.100 C 195.736 284.321,194.294 286.400,194.544 286.400 C 194.653 286.400,195.590 285.275,196.625 283.900 C 197.661 282.525,198.686 281.175,198.903 280.900 C 199.120 280.625,199.208 280.400,199.097 280.400 C 198.987 280.400,198.280 281.165,197.526 282.100 M98.343 283.888 C 99.385 285.389,100.305 286.117,99.677 284.944 C 99.455 284.530,98.863 283.833,98.361 283.396 L 97.449 282.600 98.343 283.888 M99.400 287.600 C 99.246 288.510,99.211 289.344,99.321 289.454 C 99.431 289.564,99.646 288.910,99.800 288.000 C 99.954 287.090,99.989 286.256,99.879 286.146 C 99.769 286.036,99.554 286.690,99.400 287.600 M192.396 288.897 C 191.467 290.294,191.049 291.048,191.452 290.600 C 193.215 288.640,193.686 288.000,193.366 288.000 C 193.161 288.000,192.724 288.404,192.396 288.897 M98.600 292.400 C 98.446 293.310,98.411 294.144,98.521 294.254 C 98.631 294.364,98.846 293.710,99.000 292.800 C 99.154 291.890,99.189 291.056,99.079 290.946 C 98.969 290.836,98.754 291.490,98.600 292.400 M186.600 296.645 C 181.830 303.105,182.313 302.735,180.484 301.334 C 178.400 299.738,176.400 298.394,176.400 298.589 C 176.400 298.911,181.779 302.800,182.186 302.772 C 182.652 302.741,191.352 291.192,190.893 291.214 C 190.732 291.222,188.800 293.666,186.600 296.645 M170.169 293.949 C 170.559 294.582,172.801 296.099,172.795 295.727 C 172.792 295.547,172.143 294.981,171.352 294.468 C 170.560 293.955,170.028 293.722,170.169 293.949 M97.800 297.200 C 97.646 298.110,97.611 298.944,97.721 299.054 C 97.831 299.164,98.046 298.510,98.200 297.600 C 98.354 296.690,98.389 295.856,98.279 295.746 C 98.169 295.636,97.954 296.290,97.800 297.200 M173.340 296.303 C 173.496 296.556,174.191 297.167,174.884 297.660 C 175.577 298.154,176.017 298.350,175.860 298.097 C 175.704 297.844,175.009 297.233,174.316 296.740 C 173.623 296.246,173.183 296.050,173.340 296.303 M97.073 301.353 C 96.923 301.745,96.816 302.546,96.836 303.133 C 96.870 304.128,96.898 304.109,97.257 302.863 C 97.673 301.419,97.523 300.182,97.073 301.353 M96.178 306.578 C 96.027 307.381,95.994 308.127,96.104 308.237 C 96.214 308.347,96.427 307.781,96.578 306.978 C 96.728 306.175,96.762 305.428,96.652 305.318 C 96.542 305.208,96.328 305.775,96.178 306.578 M95.449 311.015 C 95.312 311.373,95.218 312.146,95.240 312.733 C 95.273 313.591,95.352 313.495,95.646 312.240 C 96.022 310.639,95.895 309.853,95.449 311.015 M94.649 315.415 C 94.512 315.773,94.422 316.906,94.449 317.933 L 94.498 319.800 94.843 317.428 C 95.191 315.041,95.112 314.211,94.649 315.415 M101.600 322.400 C 101.930 322.613,102.470 322.788,102.800 322.788 C 103.333 322.788,103.333 322.745,102.800 322.400 C 102.470 322.187,101.930 322.012,101.600 322.012 C 101.067 322.012,101.067 322.055,101.600 322.400 M103.700 323.300 C 103.791 323.575,104.199 323.864,104.605 323.943 C 105.283 324.075,105.291 324.034,104.700 323.443 C 103.932 322.675,103.470 322.608,103.700 323.300 " stroke="none" fill="#fcb074" fill-rule="evenodd"></path></g></svg>