<svg id="svg" version="1.1" xmlns="http://www.w3.org/2000/svg" xmlns:xlink="http://www.w3.org/1999/xlink" width="400" height="400" viewBox="0, 0, 400,400"><g id="svgg"><path id="path0" d="M271.100 0.282 C 270.275 0.373,269.600 0.617,269.600 0.824 C 269.600 1.031,269.150 1.200,268.600 1.200 C 268.050 1.200,267.600 1.380,267.600 1.600 C 267.600 1.820,267.150 2.000,266.600 2.000 C 266.050 2.000,265.600 2.180,265.600 2.400 C 265.600 2.620,265.317 2.800,264.972 2.800 C 264.319 2.800,260.700 5.111,260.467 5.677 C 260.393 5.855,260.162 6.000,259.953 6.000 C 259.744 6.000,258.977 6.585,258.248 7.300 C 257.519 8.015,256.490 8.979,255.961 9.443 C 254.765 10.492,253.600 11.910,253.600 12.316 C 253.600 12.485,253.240 12.883,252.800 13.200 C 252.360 13.517,252.000 14.097,252.000 14.488 C 252.000 14.880,251.820 15.200,251.600 15.200 C 251.380 15.200,251.200 15.470,251.200 15.800 C 251.200 16.130,251.065 16.401,250.900 16.403 C 250.494 16.407,249.600 18.386,249.600 19.280 C 249.600 19.676,249.464 20.000,249.297 20.000 C 248.935 20.000,248.000 22.862,248.000 23.970 C 248.000 24.401,247.820 24.864,247.600 25.000 C 247.350 25.155,247.200 29.130,247.200 35.600 C 247.200 42.070,247.350 46.045,247.600 46.200 C 247.820 46.336,248.000 46.782,248.000 47.190 C 248.000 47.599,248.167 47.993,248.370 48.067 C 248.574 48.140,248.799 48.464,248.870 48.787 C 249.147 50.039,252.818 53.174,254.515 53.608 C 255.442 53.845,256.722 54.210,257.360 54.420 C 258.944 54.939,263.865 54.900,264.875 54.360 C 265.327 54.118,266.315 53.920,267.070 53.920 C 267.987 53.920,268.763 53.601,269.404 52.960 C 269.932 52.432,270.552 52.000,270.782 52.000 C 271.012 52.000,271.200 51.844,271.200 51.654 C 271.200 51.464,271.742 50.699,272.404 49.954 C 273.067 49.209,273.721 48.150,273.859 47.600 C 273.997 47.050,274.286 46.377,274.501 46.104 C 274.716 45.831,274.811 45.058,274.713 44.386 C 274.614 43.714,274.683 43.072,274.867 42.959 C 275.050 42.845,275.200 39.883,275.200 36.376 C 275.200 32.699,275.358 30.000,275.573 30.000 C 275.778 30.000,276.060 29.640,276.200 29.200 C 276.340 28.760,276.712 28.400,277.027 28.400 C 277.342 28.400,277.600 28.220,277.600 28.000 C 277.600 27.739,283.804 27.600,295.413 27.600 L 313.227 27.600 314.578 28.952 L 315.930 30.303 315.980 37.452 C 316.010 41.619,316.191 44.656,316.415 44.733 C 316.627 44.807,316.800 45.392,316.800 46.033 C 316.800 46.675,316.980 47.200,317.200 47.200 C 317.420 47.200,317.600 47.560,317.600 48.000 C 317.600 48.440,317.780 48.800,318.000 48.800 C 318.220 48.800,318.406 49.025,318.413 49.300 C 318.450 50.759,322.203 53.602,324.765 54.112 C 332.272 55.606,339.674 53.805,341.306 50.087 C 341.569 49.489,341.878 48.910,341.992 48.800 C 342.215 48.587,342.818 47.303,343.550 45.481 C 344.132 44.034,344.178 26.400,343.600 26.400 C 343.380 26.400,343.200 25.680,343.200 24.800 C 343.200 23.920,343.020 23.200,342.800 23.200 C 342.580 23.200,342.400 22.660,342.400 22.000 C 342.400 21.340,342.220 20.800,342.000 20.800 C 341.780 20.800,341.600 20.361,341.600 19.824 C 341.600 19.287,341.417 18.734,341.193 18.596 C 340.970 18.458,340.898 18.166,341.033 17.947 C 341.168 17.728,341.034 17.246,340.735 16.875 C 340.436 16.504,339.853 15.570,339.441 14.800 C 339.028 14.030,338.265 12.988,337.745 12.484 C 337.225 11.980,336.800 11.419,336.800 11.238 C 336.800 10.753,332.826 6.800,332.338 6.800 C 332.109 6.800,331.417 6.260,330.800 5.600 C 330.183 4.940,329.406 4.400,329.073 4.400 C 328.739 4.400,328.407 4.233,328.333 4.030 C 328.260 3.826,327.930 3.601,327.600 3.530 C 327.270 3.458,326.910 3.310,326.800 3.200 C 326.285 2.685,323.049 1.200,322.442 1.200 C 322.067 1.200,321.535 0.975,321.260 0.700 C 320.776 0.216,275.128 -0.165,271.100 0.282 M125.967 130.429 C 125.655 130.626,124.545 130.791,123.500 130.794 C 122.455 130.797,121.600 130.980,121.600 131.200 C 121.600 131.420,121.060 131.600,120.400 131.600 C 119.740 131.600,119.200 131.780,119.200 132.000 C 119.200 132.220,118.845 132.400,118.412 132.400 C 117.539 132.400,114.197 134.140,112.267 135.600 C 110.492 136.943,106.800 140.782,106.800 141.285 C 106.800 141.581,106.440 142.083,106.000 142.400 C 105.560 142.717,105.200 143.192,105.200 143.455 C 105.200 143.718,105.065 143.993,104.900 144.067 C 104.735 144.140,104.175 145.100,103.656 146.200 C 103.137 147.300,102.552 148.513,102.356 148.895 C 102.160 149.277,102.000 150.132,102.000 150.795 C 102.000 151.458,101.820 152.000,101.600 152.000 C 101.343 152.000,101.200 155.933,101.200 163.000 L 101.200 174.000 107.800 174.000 L 114.400 174.000 114.400 164.400 C 114.400 158.267,114.544 154.800,114.800 154.800 C 115.020 154.800,115.200 154.350,115.200 153.800 C 115.200 153.250,115.380 152.800,115.600 152.800 C 115.820 152.800,116.000 152.440,116.000 152.000 C 116.000 151.560,116.180 151.200,116.400 151.200 C 116.620 151.200,116.800 150.930,116.800 150.600 C 116.800 150.270,116.980 150.000,117.200 150.000 C 117.420 150.000,117.600 149.799,117.600 149.554 C 117.600 148.937,120.319 146.503,121.680 145.900 C 122.296 145.628,122.800 145.269,122.800 145.102 C 122.800 144.936,123.149 144.800,123.576 144.800 C 124.003 144.800,124.464 144.620,124.600 144.400 C 124.739 144.175,126.671 144.000,129.024 144.000 C 131.541 144.000,133.200 144.159,133.200 144.400 C 133.200 144.620,133.560 144.800,134.000 144.800 C 134.440 144.800,134.800 144.980,134.800 145.200 C 134.800 145.420,135.085 145.600,135.433 145.600 C 136.284 145.600,141.200 150.484,141.200 151.329 C 141.200 151.698,141.349 152.000,141.531 152.000 C 142.402 152.000,142.993 156.627,143.191 165.000 L 143.400 173.800 150.000 173.800 L 156.600 173.800 156.540 164.000 C 156.479 154.251,156.244 150.945,155.559 150.220 C 155.362 150.011,155.200 149.426,155.200 148.920 C 155.200 148.414,155.059 148.000,154.887 148.000 C 154.715 148.000,154.345 147.222,154.064 146.272 C 153.784 145.321,153.204 144.291,152.777 143.983 C 152.350 143.675,152.000 143.187,152.000 142.897 C 152.000 142.608,151.645 141.973,151.211 141.486 C 150.777 140.999,149.766 139.835,148.964 138.900 C 148.163 137.965,147.330 137.200,147.114 137.200 C 146.898 137.200,146.217 136.660,145.600 136.000 C 144.983 135.340,144.191 134.800,143.840 134.800 C 143.488 134.800,143.200 134.632,143.200 134.426 C 143.200 134.220,142.570 133.824,141.800 133.546 C 141.030 133.267,140.400 132.895,140.400 132.720 C 140.400 132.544,139.950 132.400,139.400 132.400 C 138.850 132.400,138.400 132.240,138.400 132.045 C 138.400 131.696,137.943 131.572,133.600 130.745 C 130.537 130.162,126.643 130.001,125.967 130.429 M68.600 208.300 L 68.600 243.400 60.844 243.509 C 50.106 243.660,46.366 242.549,42.302 238.000 C 40.646 236.146,38.000 231.172,38.000 229.911 C 38.000 229.520,37.818 229.200,37.596 229.200 C 37.203 229.200,37.232 245.121,37.804 340.976 C 37.941 363.884,37.874 375.486,37.604 375.756 C 37.070 376.290,37.066 387.070,37.600 387.400 C 37.820 387.536,38.000 388.177,38.000 388.824 C 38.000 389.471,38.180 390.000,38.400 390.000 C 38.620 390.000,38.800 390.360,38.800 390.800 C 38.800 391.240,38.980 391.600,39.200 391.600 C 39.420 391.600,39.600 391.851,39.600 392.157 C 39.600 392.929,44.333 397.708,45.800 398.418 C 46.460 398.737,47.128 399.179,47.285 399.399 C 47.745 400.044,210.085 399.945,210.300 399.300 C 210.392 399.025,210.772 398.800,211.145 398.800 C 211.518 398.800,212.083 398.440,212.400 398.000 C 212.717 397.560,213.213 397.200,213.502 397.200 C 214.152 397.200,216.800 394.599,216.800 393.960 C 216.800 393.704,217.115 393.201,217.500 392.843 C 218.401 392.004,219.200 390.577,219.200 389.805 C 219.200 389.472,219.380 389.200,219.600 389.200 C 219.820 389.200,220.000 388.390,220.000 387.400 C 220.000 386.410,220.180 385.600,220.400 385.600 C 221.150 385.600,220.910 376.128,220.153 375.837 C 219.559 375.609,219.529 369.761,219.792 304.295 C 219.972 259.229,219.937 232.635,219.695 232.007 L 219.313 231.013 219.031 232.007 C 217.931 235.872,214.179 240.082,210.023 242.116 L 207.400 243.400 198.100 243.527 L 188.800 243.653 188.800 208.427 L 188.800 173.200 178.300 173.200 L 167.800 173.200 167.800 208.300 L 167.800 243.400 128.908 243.502 L 90.016 243.604 89.795 242.702 C 89.673 242.206,89.624 226.365,89.687 207.500 L 89.800 173.200 79.200 173.200 L 68.600 173.200 68.600 208.300 M89.237 217.717 C 89.374 242.935,89.626 261.379,89.837 261.579 C 90.037 261.769,91.683 261.987,93.495 262.065 C 96.598 262.197,96.866 262.282,98.095 263.510 L 99.400 264.815 99.524 269.508 C 99.763 278.593,100.207 278.399,79.194 278.399 C 58.545 278.400,58.800 278.502,58.800 270.293 C 58.800 263.682,59.836 262.326,65.133 262.008 L 68.600 261.800 68.844 251.800 C 68.979 246.300,69.114 226.665,69.144 208.167 C 69.175 189.668,69.323 174.410,69.474 174.260 C 69.624 174.109,74.079 174.034,79.374 174.093 L 89.000 174.200 89.237 217.717 M186.087 174.247 L 187.885 174.493 188.086 217.888 C 188.254 254.375,188.375 261.339,188.843 261.635 C 189.149 261.829,190.624 261.991,192.120 261.994 C 197.494 262.006,198.600 263.406,198.600 270.200 C 198.600 278.679,199.286 278.400,178.427 278.400 C 157.326 278.400,157.872 278.633,158.084 269.707 L 158.200 264.813 159.498 263.517 C 160.717 262.299,161.008 262.207,164.298 262.010 L 167.800 261.800 168.043 251.600 C 168.177 245.990,168.312 226.355,168.343 207.967 C 168.375 189.578,168.520 174.413,168.667 174.267 C 169.002 173.931,183.662 173.914,186.087 174.247 M180.963 306.156 C 186.853 308.207,186.800 307.934,186.800 335.962 C 186.800 363.780,186.999 362.556,182.000 365.557 L 180.600 366.397 128.884 366.399 C 71.632 366.400,76.023 366.591,73.254 363.977 C 70.780 361.640,70.818 362.073,70.811 336.400 C 70.807 320.614,70.947 312.479,71.244 311.400 C 71.773 309.475,74.415 306.791,76.407 306.156 C 78.660 305.439,178.901 305.438,180.963 306.156 M240.000 373.595 C 239.450 374.028,238.773 374.386,238.495 374.391 C 237.874 374.402,236.306 375.256,235.906 375.800 C 235.444 376.429,235.534 390.000,236.000 390.000 C 236.220 390.000,236.400 390.632,236.400 391.405 C 236.400 392.621,236.936 394.138,237.601 394.800 C 237.711 394.910,238.046 395.475,238.345 396.056 C 238.644 396.637,239.363 397.356,239.944 397.655 C 240.525 397.954,241.090 398.289,241.200 398.400 C 242.544 399.753,252.000 400.454,252.000 399.201 C 252.000 399.075,252.545 398.651,253.211 398.257 C 257.656 395.632,258.331 393.480,258.259 382.178 L 258.200 373.000 249.600 372.904 C 241.573 372.815,240.933 372.861,240.000 373.595 M333.200 382.960 C 333.200 388.830,333.357 393.190,333.570 393.267 C 333.773 393.340,333.998 393.670,334.070 394.000 C 334.142 394.330,334.515 394.891,334.900 395.247 C 335.285 395.603,335.601 396.053,335.601 396.247 C 335.602 396.441,336.141 396.960,336.800 397.400 C 337.459 397.840,337.998 398.335,337.999 398.500 C 337.999 398.665,338.345 398.800,338.767 398.800 C 339.188 398.800,339.608 399.025,339.700 399.300 C 339.931 399.991,348.476 399.972,348.707 399.280 C 348.795 399.016,349.093 398.800,349.370 398.800 C 350.541 398.800,354.400 394.354,354.400 393.005 C 354.400 392.672,354.583 392.400,354.807 392.400 C 355.075 392.400,355.178 389.083,355.107 382.700 L 355.000 373.000 344.100 372.894 L 333.200 372.787 333.200 382.960 " stroke="none" fill="#cca49b" fill-rule="evenodd"></path><path id="path1" d="M52.000 173.630 C 52.000 173.833,51.280 174.000,50.400 174.000 C 49.520 174.000,48.800 174.180,48.800 174.400 C 48.800 174.620,48.436 174.800,47.992 174.800 C 47.548 174.800,46.423 175.280,45.492 175.867 C 43.519 177.112,39.342 181.200,40.044 181.200 C 40.307 181.200,40.135 181.536,39.661 181.947 C 39.188 182.358,38.800 183.078,38.800 183.547 C 38.800 184.016,38.620 184.400,38.400 184.400 C 38.180 184.400,38.000 184.850,38.000 185.400 C 38.000 185.950,37.820 186.400,37.600 186.400 C 37.338 186.400,37.200 193.800,37.200 207.800 C 37.200 221.800,37.338 229.200,37.600 229.200 C 37.820 229.200,38.000 229.520,38.000 229.911 C 38.000 231.172,40.646 236.146,42.302 238.000 C 46.366 242.549,50.106 243.660,60.844 243.509 L 68.600 243.400 68.710 209.200 C 68.771 190.390,68.721 174.589,68.599 174.087 L 68.378 173.173 60.189 173.216 C 55.468 173.241,52.000 173.416,52.000 173.630 M89.852 174.100 C 89.488 175.461,89.564 242.524,89.931 243.102 C 90.184 243.500,98.269 243.583,129.025 243.502 L 167.800 243.400 167.910 209.200 C 167.971 190.390,167.922 174.595,167.802 174.100 C 167.564 173.115,157.186 172.652,156.600 173.600 C 156.452 173.839,153.804 174.000,150.000 174.000 C 146.196 174.000,143.548 173.839,143.400 173.600 C 143.243 173.345,137.929 173.200,128.776 173.200 C 119.459 173.200,114.400 173.341,114.400 173.600 C 114.400 173.851,111.933 174.000,107.800 174.000 C 103.667 174.000,101.200 173.851,101.200 173.600 C 101.200 172.630,90.115 173.118,89.852 174.100 M188.800 208.427 L 188.800 243.653 198.100 243.527 L 207.400 243.400 210.023 242.116 C 214.307 240.020,217.338 236.568,219.259 231.600 C 219.973 229.752,220.060 187.878,219.352 186.360 C 219.106 185.832,218.502 184.481,218.010 183.357 C 215.654 177.970,209.016 174.000,202.369 174.000 C 201.312 174.000,200.336 173.820,200.200 173.600 C 200.054 173.364,197.663 173.200,194.376 173.200 L 188.800 173.200 188.800 208.427 M22.400 306.400 C 22.400 306.620,21.680 306.800,20.800 306.800 C 19.920 306.800,19.200 306.980,19.200 307.200 C 19.200 307.420,18.840 307.600,18.400 307.600 C 17.960 307.600,17.600 307.780,17.600 308.000 C 17.600 308.220,17.270 308.400,16.867 308.400 C 15.160 308.400,10.875 313.556,9.387 317.400 C 8.664 319.267,8.600 321.168,8.600 340.800 C 8.600 361.230,8.731 364.353,9.631 365.438 C 9.888 365.747,9.997 366.000,9.873 366.000 C 9.749 366.000,9.865 366.405,10.132 366.900 C 10.935 368.392,13.654 372.000,13.975 372.000 C 14.140 372.000,14.799 372.450,15.438 373.000 C 16.077 373.549,16.825 373.999,17.100 374.000 C 17.375 374.000,17.600 374.164,17.600 374.365 C 17.600 374.566,18.365 374.856,19.300 375.010 C 20.235 375.164,21.203 375.454,21.451 375.654 C 21.700 375.854,25.480 375.968,29.851 375.909 L 37.800 375.800 37.902 341.678 C 37.971 318.612,37.870 307.304,37.588 306.778 C 37.118 305.899,22.400 305.532,22.400 306.400 M219.698 341.300 L 219.800 375.800 227.771 375.909 C 232.155 375.968,235.845 375.878,235.971 375.708 C 236.097 375.538,236.695 375.174,237.300 374.899 C 237.905 374.625,238.888 374.175,239.485 373.900 C 241.149 373.133,245.287 368.745,246.345 366.625 C 248.337 362.635,248.391 361.952,248.387 340.800 L 248.383 321.000 247.396 318.200 C 244.388 309.666,239.257 306.800,226.989 306.800 L 219.596 306.800 219.698 341.300 " stroke="none" fill="#62a2fb" fill-rule="evenodd"></path><path id="path2" d="M217.200 94.400 C 216.870 94.613,215.936 94.791,215.124 94.794 C 214.312 94.797,213.536 94.980,213.400 95.200 C 213.264 95.420,212.713 95.600,212.176 95.600 C 211.639 95.600,211.200 95.736,211.200 95.902 C 211.200 96.069,210.618 96.462,209.907 96.777 C 209.196 97.092,208.231 97.721,207.762 98.175 C 207.294 98.629,206.501 99.270,206.002 99.600 C 204.801 100.392,203.600 101.657,203.600 102.129 C 203.600 102.336,203.285 102.797,202.900 103.153 C 202.515 103.509,202.142 104.070,202.070 104.400 C 201.998 104.730,201.773 105.060,201.570 105.133 C 201.367 105.207,201.200 105.601,201.200 106.010 C 201.200 106.418,201.020 106.864,200.800 107.000 C 200.580 107.136,200.400 107.867,200.400 108.624 C 200.400 109.381,200.220 110.000,200.000 110.000 C 199.376 110.000,199.455 172.895,200.080 173.520 C 200.344 173.784,201.399 174.000,202.425 174.000 C 209.014 174.000,215.663 177.991,218.010 183.357 C 218.502 184.481,219.106 185.832,219.352 186.360 C 219.676 187.055,219.800 203.829,219.800 247.060 L 219.800 306.800 227.092 306.800 C 239.247 306.800,244.397 309.692,247.396 318.200 L 248.383 321.000 248.387 340.800 C 248.391 364.608,248.251 365.458,243.512 370.453 C 242.443 371.580,241.681 372.614,241.818 372.751 C 242.216 373.149,374.782 373.153,375.028 372.755 C 375.149 372.560,375.957 372.400,376.824 372.400 C 377.691 372.400,378.400 372.243,378.400 372.050 C 378.400 371.858,378.918 371.596,379.552 371.470 C 380.185 371.343,380.982 370.960,381.323 370.620 C 381.664 370.279,382.153 370.000,382.411 370.000 C 382.668 370.000,383.383 369.460,384.000 368.800 C 384.617 368.140,385.319 367.600,385.560 367.600 C 385.802 367.600,386.000 367.443,386.000 367.250 C 386.000 367.058,386.630 366.213,387.400 365.372 C 388.170 364.531,388.800 363.609,388.800 363.322 C 388.800 363.035,388.980 362.800,389.200 362.800 C 389.420 362.800,389.600 362.440,389.600 362.000 C 389.600 361.560,389.741 361.200,389.913 361.200 C 390.085 361.200,390.490 360.345,390.813 359.300 C 391.625 356.671,391.712 108.771,390.900 108.500 C 390.625 108.408,390.400 107.808,390.400 107.167 C 390.400 106.525,390.220 106.000,390.000 106.000 C 389.780 106.000,389.600 105.640,389.600 105.200 C 389.600 104.760,389.420 104.400,389.200 104.400 C 388.980 104.400,388.800 104.148,388.800 103.841 C 388.800 103.064,382.997 97.200,382.227 97.200 C 381.882 97.200,381.600 97.020,381.600 96.800 C 381.600 96.580,381.240 96.400,380.800 96.400 C 380.360 96.400,380.000 96.220,380.000 96.000 C 380.000 95.780,379.460 95.600,378.800 95.600 C 378.140 95.600,377.600 95.420,377.600 95.200 C 377.600 94.980,376.880 94.800,376.000 94.800 C 375.120 94.800,374.400 94.620,374.400 94.400 C 374.400 93.687,337.525 93.870,336.576 94.587 C 335.432 95.453,324.317 95.464,323.600 94.600 C 322.846 93.691,267.804 93.691,267.455 94.600 C 267.264 95.098,266.164 95.200,261.000 95.200 C 255.836 95.200,254.736 95.098,254.545 94.600 C 254.269 93.882,218.299 93.690,217.200 94.400 " stroke="none" fill="#83e39b" fill-rule="evenodd"></path><path id="path3" d="M254.400 73.912 C 254.400 89.189,254.519 94.359,254.880 94.720 C 255.593 95.433,266.547 95.386,267.144 94.668 C 267.749 93.938,267.981 54.078,267.381 53.848 C 267.151 53.760,266.251 53.935,265.381 54.238 C 263.615 54.852,258.950 54.984,257.526 54.459 C 257.017 54.271,256.105 53.997,255.500 53.851 L 254.400 53.585 254.400 73.912 M334.400 54.249 C 332.244 54.834,328.884 54.811,324.900 54.184 L 323.200 53.916 323.200 74.014 C 323.200 97.824,322.323 95.175,330.200 95.175 C 334.238 95.175,335.995 95.026,336.500 94.643 C 337.239 94.082,337.634 53.562,336.900 53.626 C 336.735 53.641,335.610 53.921,334.400 54.249 M69.474 174.260 C 69.323 174.410,69.175 189.668,69.144 208.167 C 69.114 226.665,68.979 246.300,68.844 251.800 L 68.600 261.800 65.133 262.008 C 59.836 262.326,58.800 263.682,58.800 270.293 C 58.800 278.502,58.545 278.400,79.194 278.399 C 100.207 278.399,99.763 278.593,99.524 269.508 L 99.400 264.815 98.095 263.510 C 96.866 262.282,96.598 262.197,93.495 262.065 C 91.683 261.987,90.037 261.769,89.837 261.579 C 89.626 261.379,89.374 242.935,89.237 217.717 L 89.000 174.200 79.374 174.093 C 74.079 174.034,69.624 174.109,69.474 174.260 M168.667 174.267 C 168.520 174.413,168.375 189.578,168.343 207.967 C 168.312 226.355,168.177 245.990,168.043 251.600 L 167.800 261.800 164.298 262.010 C 161.008 262.207,160.717 262.299,159.498 263.517 L 158.200 264.813 158.084 269.707 C 157.872 278.633,157.326 278.400,178.427 278.400 C 199.286 278.400,198.600 278.679,198.600 270.200 C 198.600 263.406,197.494 262.006,192.120 261.994 C 190.624 261.991,189.149 261.829,188.843 261.635 C 188.375 261.339,188.254 254.375,188.086 217.888 L 187.885 174.493 186.087 174.247 C 183.662 173.914,169.002 173.931,168.667 174.267 " stroke="none" fill="#efb42e" fill-rule="evenodd"></path><path id="path4" d="M76.407 306.156 C 74.415 306.791,71.773 309.475,71.244 311.400 C 70.947 312.479,70.807 320.614,70.811 336.400 C 70.818 362.073,70.780 361.640,73.254 363.977 C 76.023 366.591,71.632 366.400,128.884 366.399 L 180.600 366.397 182.000 365.557 C 186.999 362.556,186.800 363.780,186.800 335.962 C 186.800 307.934,186.853 308.207,180.963 306.156 C 178.901 305.438,78.660 305.439,76.407 306.156 " stroke="none" fill="#f4e4c4" fill-rule="evenodd"></path></g></svg>