<?xml version="1.0" standalone="no"?>
<!DOCTYPE svg PUBLIC "-//W3C//DTD SVG 20010904//EN"
 "http://www.w3.org/TR/2001/REC-SVG-20010904/DTD/svg10.dtd">
<svg version="1.0" xmlns="http://www.w3.org/2000/svg"
 width="512.000000pt" height="512.000000pt" viewBox="0 0 512.000000 512.000000"
 preserveAspectRatio="xMidYMid meet">

<g transform="translate(0.000000,512.000000) scale(0.100000,-0.100000)"
fill="#000000" stroke="none">
<path d="M4591 5105 c-122 -34 -266 -127 -414 -265 -130 -123 -172 -182 -280
-396 -58 -116 -98 -184 -107 -184 -8 0 -287 25 -620 55 -333 30 -617 55 -632
55 -19 0 -61 -28 -145 -96 -65 -53 -128 -107 -140 -121 -31 -33 -31 -85 1
-110 13 -11 280 -115 593 -233 312 -117 578 -218 590 -224 21 -11 20 -15 -80
-206 l-102 -195 -195 -27 c-107 -15 -204 -32 -216 -38 -28 -16 -177 -295 -177
-332 0 -48 28 -65 180 -105 l143 -38 0 -36 c0 -19 12 -59 27 -88 54 -110 196
-169 300 -126 20 9 39 12 42 7 19 -27 171 -209 184 -220 9 -7 32 -12 53 -10
36 3 44 11 132 123 140 180 134 146 67 379 -50 171 -55 199 -43 216 7 10 69
89 138 175 l125 155 455 -460 c411 -416 458 -461 486 -460 56 0 70 23 119 197
25 88 45 168 45 177 0 9 -139 265 -310 570 -170 305 -310 559 -310 564 0 5 61
85 136 178 151 187 183 242 244 430 111 341 89 574 -62 667 -58 36 -146 44
-227 22z m148 -161 c74 -52 68 -244 -14 -491 -20 -59 -51 -136 -70 -170 -19
-34 -272 -355 -562 -715 -859 -1061 -831 -1028 -857 -1028 -28 0 -72 33 -81
59 -4 12 30 89 98 222 58 112 280 551 495 974 349 687 398 777 450 837 208
233 452 374 541 312z m-1559 -790 c294 -26 536 -48 537 -49 5 -3 -191 -375
-198 -375 -3 0 -229 84 -500 186 -272 102 -507 191 -523 197 l-30 10 50 44
c44 39 53 43 89 39 22 -2 281 -26 575 -52z m1494 -992 c152 -271 276 -499 276
-506 0 -7 -7 -36 -16 -66 l-16 -53 -394 394 c-248 248 -393 400 -391 409 6 25
251 330 259 322 3 -4 130 -229 282 -500z m-1514 -157 c0 -3 -23 -52 -52 -109
l-51 -104 -91 25 c-50 14 -93 27 -96 30 -2 2 11 33 30 68 l34 64 86 11 c47 6
90 13 95 15 16 5 45 6 45 0z m490 -404 l29 -104 -42 -58 c-23 -32 -45 -59 -48
-59 -10 0 -119 137 -119 150 0 14 144 193 147 183 2 -4 16 -55 33 -112z"/>
<path d="M504 4568 c-38 -18 -44 -51 -44 -229 0 -217 6 -231 100 -241 l25 -3
3 -246 2 -246 -37 -7 c-21 -3 -51 -6 -66 -6 -45 0 -173 -47 -230 -84 -106 -68
-187 -172 -229 -294 l-23 -67 0 -1255 0 -1255 32 -65 c18 -36 53 -87 80 -113
44 -45 134 -97 166 -97 11 0 16 -20 20 -78 8 -120 57 -201 150 -249 137 -69
298 -17 369 120 14 27 24 69 27 117 l6 75 336 3 336 2 6 -71 c7 -84 42 -165
89 -204 62 -53 108 -70 188 -70 65 0 82 4 129 30 56 31 106 88 128 148 6 18
12 63 12 100 1 55 4 69 19 74 158 53 256 162 282 313 8 46 10 414 8 1265 l-3
1200 -22 65 c-79 230 -257 369 -505 395 l-58 6 0 250 0 249 38 0 c27 0 45 7
60 23 21 22 22 32 22 219 l0 197 -26 20 c-26 21 -33 21 -698 20 -440 0 -678
-4 -692 -11z m1256 -228 l0 -80 -570 0 -570 0 0 80 0 80 570 0 570 0 0 -80z
m-120 -490 l0 -250 -445 0 -445 0 0 250 0 250 445 0 445 0 0 -250z m300 -430
l43 -11 -51 -34 c-130 -88 -200 -242 -224 -492 l-12 -123 -503 0 c-396 0 -503
3 -503 13 0 122 -46 350 -86 430 -32 63 -94 136 -144 168 -27 18 -48 35 -45
38 3 2 29 9 59 15 76 16 1408 12 1466 -4z m-1581 -177 c90 -56 142 -170 161
-354 6 -64 10 -524 10 -1241 l0 -1140 -114 4 c-108 3 -117 5 -158 33 -28 20
-53 49 -71 85 l-27 54 2 1226 3 1225 23 50 c41 90 49 98 90 91 19 -3 56 -18
81 -33z m1820 -21 c16 -32 34 -84 40 -117 8 -40 11 -427 11 -1225 0 -1277 2
-1231 -58 -1297 -53 -57 -99 -73 -212 -73 l-101 0 4 1218 c3 1116 4 1222 20
1281 21 79 60 157 95 194 34 37 109 76 144 77 24 0 32 -8 57 -58z m-479 -732
l0 -110 -505 0 -505 0 0 110 0 110 505 0 505 0 0 -110z m0 -610 l0 -340 -505
0 -505 0 0 340 0 340 505 0 505 0 0 -340z m0 -935 l0 -435 -505 0 -505 0 0
435 0 435 505 0 505 0 0 -435z m-1010 -649 c0 -62 -14 -92 -52 -117 -46 -28
-101 -20 -141 20 -25 24 -31 40 -35 85 l-4 56 116 0 116 0 0 -44z m1230 -10
c0 -61 -21 -96 -69 -116 -81 -33 -161 34 -161 136 l0 34 115 0 115 0 0 -54z"/>
<path d="M2851 1699 c-85 -17 -156 -73 -204 -163 -21 -39 -22 -56 -27 -328
l-5 -287 -45 -24 c-52 -27 -105 -91 -120 -145 -5 -20 -10 -113 -10 -205 0
-165 0 -168 25 -192 23 -24 30 -25 150 -25 l125 0 0 -140 c0 -136 1 -142 25
-165 23 -24 28 -25 169 -25 l145 0 33 29 c18 17 85 91 148 165 l115 135 405 0
405 0 115 -135 c63 -74 130 -148 148 -165 l33 -29 145 0 c141 0 146 1 169 25
24 23 25 29 25 165 l0 140 125 0 c120 0 127 1 150 25 25 24 25 27 25 192 0 92
-5 185 -10 205 -15 54 -68 118 -120 145 l-45 24 -5 282 c-5 260 -7 286 -26
328 -31 66 -78 114 -142 146 l-57 28 -910 2 c-500 0 -930 -3 -954 -8z m1866
-175 c59 -43 63 -64 63 -341 l0 -253 -84 0 -83 0 -5 88 c-3 52 -12 100 -21
119 -22 42 -71 81 -110 88 -18 3 -139 5 -269 3 -263 -3 -265 -4 -315 -78 -20
-28 -23 -46 -23 -126 l0 -94 -90 0 -90 0 0 94 c0 80 -3 98 -22 126 -51 74 -53
75 -316 78 -130 2 -251 0 -269 -3 -39 -7 -88 -46 -110 -88 -9 -19 -18 -67 -21
-119 l-5 -88 -83 0 -84 0 0 250 c0 264 4 295 48 333 11 10 33 22 48 27 16 5
430 8 921 7 885 -2 892 -2 920 -23z m-1187 -524 l0 -70 -210 0 -210 0 0 63 c0
35 3 67 7 70 3 4 98 7 210 7 l203 0 0 -70z m918 -2 l3 -68 -211 0 -210 0 0 70
0 70 208 -2 207 -3 3 -67z m483 -257 c29 -29 29 -31 29 -140 l0 -111 -1180 0
-1180 0 0 111 c0 109 0 111 29 140 l29 29 1122 0 1122 0 29 -29z m-1777 -423
c-4 -7 -37 -46 -72 -85 l-64 -73 -59 0 -59 0 0 85 0 85 131 0 c101 0 129 -3
123 -12z m1506 -73 l0 -85 -59 0 -59 0 -64 73 c-35 39 -68 78 -72 85 -6 9 22
12 123 12 l131 0 0 -85z"/>
</g>
</svg>
