<svg id="svg" version="1.1" xmlns="http://www.w3.org/2000/svg" xmlns:xlink="http://www.w3.org/1999/xlink" width="400" height="400" viewBox="0, 0, 400,400"><g id="svgg"><path id="path0" d="M195.200 96.237 C 187.435 97.899,181.075 103.650,177.991 111.800 C 176.876 114.747,176.800 118.205,176.814 165.931 C 176.829 215.644,176.846 216.317,178.190 220.200 C 181.094 228.584,188.566 234.574,197.371 235.574 C 200.696 235.952,205.268 235.610,207.319 234.831 C 209.621 233.955,212.166 232.691,212.699 232.158 C 213.006 231.851,213.410 231.600,213.596 231.600 C 215.575 231.600,221.355 223.043,222.597 218.275 C 223.376 215.287,223.520 116.069,222.749 113.628 C 218.546 100.314,207.811 93.537,195.200 96.237 M196.400 260.197 C 191.275 260.900,189.621 261.243,189.367 261.654 C 189.249 261.844,188.876 262.000,188.537 262.000 C 187.137 262.000,181.173 265.332,178.022 267.874 C 158.712 283.455,161.937 314.783,183.967 325.626 C 185.855 326.555,187.713 327.470,188.095 327.658 C 188.477 327.846,189.064 328.000,189.400 328.000 C 189.736 328.000,190.323 328.161,190.705 328.357 C 193.846 329.971,208.610 329.923,210.240 328.294 C 210.401 328.132,210.846 328.000,211.229 328.000 C 211.891 328.000,214.234 326.969,216.400 325.725 C 216.950 325.409,217.715 325.051,218.100 324.929 C 218.485 324.807,218.800 324.548,218.800 324.353 C 218.800 324.159,219.000 324.000,219.244 324.000 C 220.992 324.000,230.400 313.903,230.400 312.028 C 230.400 311.793,230.580 311.600,230.800 311.600 C 231.020 311.600,231.200 311.418,231.200 311.196 C 231.200 310.973,231.548 310.028,231.974 309.096 C 234.278 304.048,235.222 297.990,234.733 291.400 C 233.315 272.307,215.260 257.610,196.400 260.197 " stroke="none" fill="#d3d7f7" fill-rule="evenodd"></path><path id="path1" d="M194.200 22.800 C 194.064 23.020,192.603 23.200,190.953 23.200 C 189.055 23.200,188.044 23.347,188.200 23.600 C 188.349 23.842,187.804 24.000,186.824 24.000 C 185.931 24.000,185.200 24.180,185.200 24.400 C 185.200 24.620,184.585 24.800,183.833 24.800 C 183.082 24.800,182.376 25.025,182.265 25.300 C 182.112 25.679,182.056 25.682,182.032 25.313 C 181.998 24.794,180.996 25.016,180.054 25.749 C 179.754 25.983,179.124 26.180,178.654 26.187 C 178.184 26.194,177.836 26.399,177.881 26.643 C 177.926 26.891,177.530 27.038,176.981 26.978 C 176.441 26.919,176.000 27.035,176.000 27.235 C 176.000 27.436,175.569 27.600,175.043 27.600 C 174.516 27.600,173.975 27.889,173.839 28.242 C 173.694 28.619,173.340 28.786,172.976 28.646 C 172.623 28.511,172.463 28.578,172.603 28.805 C 172.740 29.026,172.396 29.200,171.824 29.200 C 171.261 29.200,170.800 29.380,170.800 29.600 C 170.800 29.820,170.524 30.000,170.187 30.000 C 169.851 30.000,169.472 30.269,169.346 30.598 C 169.219 30.926,168.974 31.107,168.800 31.000 C 168.626 30.893,168.382 31.071,168.257 31.396 C 168.115 31.765,167.763 31.890,167.315 31.730 C 166.922 31.588,166.726 31.613,166.881 31.784 C 167.259 32.203,166.219 33.200,165.405 33.200 C 165.046 33.200,164.864 33.380,165.000 33.600 C 165.136 33.820,165.057 34.000,164.824 34.000 C 164.591 34.000,164.265 34.039,164.100 34.087 C 163.315 34.313,156.220 41.251,155.888 42.116 C 155.743 42.492,155.393 42.800,155.110 42.800 C 154.827 42.800,154.356 43.341,154.063 44.002 C 153.770 44.664,153.366 45.103,153.165 44.979 C 152.964 44.854,152.800 45.044,152.800 45.400 C 152.800 45.756,152.616 45.933,152.390 45.794 C 152.165 45.655,152.023 45.689,152.075 45.870 C 152.223 46.386,151.151 48.144,150.337 48.723 C 149.931 49.010,149.600 49.606,149.600 50.046 C 149.600 50.487,149.420 50.736,149.200 50.600 C 148.980 50.464,148.800 50.657,148.800 51.029 C 148.800 51.402,148.412 52.042,147.939 52.453 C 147.430 52.895,147.291 53.200,147.600 53.200 C 147.939 53.200,147.855 53.446,147.361 53.900 C 146.943 54.285,146.542 54.870,146.470 55.200 C 146.399 55.530,145.949 56.234,145.470 56.765 C 144.987 57.300,144.867 57.598,145.200 57.434 C 145.530 57.272,145.435 57.468,144.989 57.870 C 144.150 58.624,142.568 61.570,142.716 62.100 C 142.762 62.265,142.620 62.400,142.400 62.400 C 142.180 62.400,142.000 62.630,142.000 62.912 C 142.000 63.193,141.644 63.680,141.209 63.994 C 140.627 64.413,140.548 64.646,140.909 64.876 C 141.294 65.121,141.292 65.189,140.900 65.194 C 140.625 65.197,140.400 65.481,140.400 65.824 C 140.400 66.167,140.220 66.336,140.000 66.200 C 139.780 66.064,139.600 66.323,139.600 66.776 C 139.600 67.229,139.420 67.600,139.200 67.600 C 138.980 67.600,138.797 68.005,138.794 68.500 C 138.789 69.228,138.714 69.285,138.400 68.800 C 138.069 68.288,138.011 68.304,138.006 68.905 C 137.999 69.771,137.237 71.171,136.300 72.043 C 135.915 72.401,135.600 72.963,135.600 73.293 C 135.600 73.623,135.240 74.350,134.800 74.909 C 134.360 75.469,133.997 76.258,133.994 76.663 C 133.989 77.285,133.927 77.307,133.600 76.800 C 133.286 76.315,133.211 76.372,133.206 77.100 C 133.203 77.595,133.020 78.000,132.800 78.000 C 132.580 78.000,132.400 78.268,132.400 78.595 C 132.400 79.140,131.774 80.072,130.519 81.397 C 130.255 81.676,130.151 82.018,130.290 82.157 C 130.428 82.295,130.152 82.772,129.676 83.215 C 129.199 83.659,128.698 84.466,128.562 85.008 C 128.426 85.551,128.171 85.905,127.995 85.797 C 127.819 85.688,127.769 85.959,127.884 86.399 C 128.027 86.946,127.897 87.200,127.474 87.200 C 126.903 87.200,126.135 88.599,126.321 89.300 C 126.364 89.465,126.242 89.600,126.049 89.600 C 125.653 89.600,124.552 92.019,124.715 92.530 C 124.773 92.711,124.648 92.753,124.438 92.624 C 124.228 92.494,123.831 93.011,123.555 93.772 C 123.280 94.534,122.907 95.066,122.727 94.955 C 122.547 94.844,122.400 95.033,122.400 95.376 C 122.400 95.719,122.220 96.000,122.000 96.000 C 121.780 96.000,121.621 96.135,121.647 96.300 C 121.774 97.104,121.558 97.621,121.190 97.394 C 120.965 97.255,120.806 97.289,120.837 97.470 C 120.960 98.178,120.773 98.680,120.100 99.440 C 119.715 99.875,118.979 101.062,118.464 102.079 C 117.949 103.095,117.184 104.296,116.764 104.747 C 116.344 105.198,116.000 105.844,116.000 106.183 C 116.000 106.522,115.865 106.801,115.700 106.803 C 115.320 106.807,114.402 108.758,114.394 109.580 C 114.389 110.089,114.325 110.101,114.037 109.647 C 113.780 109.241,113.612 109.434,113.406 110.374 C 113.251 111.078,112.885 111.746,112.593 111.858 C 112.104 112.046,110.650 114.586,110.615 115.315 C 110.607 115.488,110.330 115.800,110.000 116.008 C 109.670 116.217,109.548 116.391,109.729 116.394 C 109.909 116.397,109.765 116.692,109.409 117.048 C 109.052 117.405,108.657 118.215,108.530 118.848 C 108.404 119.482,108.142 120.000,107.950 120.000 C 107.758 120.000,107.600 120.360,107.600 120.800 C 107.600 121.240,107.450 121.600,107.268 121.600 C 107.085 121.600,106.681 122.095,106.370 122.700 C 106.060 123.305,105.515 124.070,105.160 124.400 C 104.805 124.730,104.394 125.383,104.246 125.851 C 104.098 126.319,103.533 127.219,102.989 127.851 C 102.446 128.483,102.001 129.326,102.000 129.724 C 102.000 130.122,101.820 130.336,101.600 130.200 C 101.380 130.064,101.200 130.296,101.200 130.714 C 101.200 131.133,100.840 131.802,100.400 132.200 C 99.960 132.598,99.600 133.166,99.600 133.462 C 99.600 133.758,99.426 134.000,99.213 134.000 C 98.999 134.000,98.918 134.241,99.031 134.536 C 99.144 134.831,98.958 135.303,98.618 135.585 C 98.278 135.867,98.000 136.247,98.000 136.429 C 98.000 136.611,97.460 137.560,96.800 138.538 C 96.140 139.516,95.600 140.449,95.600 140.611 C 95.600 140.773,95.223 141.233,94.763 141.632 C 94.303 142.031,94.044 142.547,94.187 142.779 C 94.330 143.010,94.247 143.200,94.001 143.200 C 93.756 143.200,93.111 144.172,92.567 145.360 C 92.023 146.548,91.313 147.740,90.989 148.009 C 90.665 148.278,90.400 148.746,90.400 149.049 C 90.400 149.352,90.220 149.600,90.000 149.600 C 89.780 149.600,89.600 149.932,89.600 150.338 C 89.600 150.744,89.240 151.402,88.800 151.800 C 88.360 152.198,88.000 152.818,88.000 153.177 C 88.000 153.536,87.467 154.453,86.816 155.215 C 86.165 155.977,85.625 156.739,85.616 156.908 C 85.607 157.077,85.148 157.932,84.595 158.808 C 84.042 159.684,83.722 160.400,83.884 160.400 C 84.046 160.400,83.778 160.680,83.289 161.023 C 82.800 161.365,82.400 161.905,82.400 162.223 C 82.400 162.540,82.234 162.800,82.032 162.800 C 81.829 162.800,81.545 163.340,81.400 164.000 C 81.255 164.660,80.973 165.200,80.774 165.200 C 80.574 165.200,80.149 165.826,79.830 166.591 C 79.510 167.355,78.878 168.379,78.424 168.866 C 77.971 169.353,77.600 169.987,77.600 170.275 C 77.600 170.564,77.420 170.800,77.200 170.800 C 76.980 170.800,76.800 171.083,76.800 171.429 C 76.800 171.774,76.528 172.329,76.196 172.661 C 75.864 172.993,75.695 173.430,75.820 173.632 C 75.945 173.835,75.846 174.000,75.600 174.000 C 75.354 174.000,75.264 174.180,75.400 174.400 C 75.536 174.620,75.457 174.800,75.224 174.800 C 74.991 174.800,74.800 174.987,74.800 175.216 C 74.800 175.690,73.155 178.131,72.700 178.333 C 72.535 178.407,72.400 178.812,72.400 179.233 C 72.400 179.655,72.220 180.000,72.000 180.000 C 71.780 180.000,71.600 180.281,71.600 180.624 C 71.600 181.009,71.409 181.137,71.100 180.959 C 70.825 180.801,70.723 180.808,70.873 180.975 C 71.229 181.371,69.644 184.408,68.941 184.678 C 68.644 184.792,68.400 185.139,68.400 185.448 C 68.400 186.182,67.583 187.622,66.700 188.443 C 66.315 188.801,66.000 189.388,66.000 189.747 C 66.000 190.106,65.809 190.400,65.576 190.400 C 65.343 190.400,65.255 190.565,65.380 190.768 C 65.505 190.970,65.336 191.407,65.004 191.739 C 64.672 192.071,64.397 192.671,64.394 193.071 C 64.389 193.600,64.299 193.660,64.062 193.287 C 63.841 192.938,63.568 193.286,63.209 194.374 C 62.914 195.268,62.501 195.862,62.272 195.721 C 62.023 195.567,61.966 195.735,62.125 196.150 C 62.287 196.571,62.161 196.917,61.793 197.058 C 61.467 197.183,61.200 197.536,61.200 197.843 C 61.200 198.149,61.020 198.400,60.800 198.400 C 60.580 198.400,60.400 198.670,60.400 199.000 C 60.400 199.330,60.239 199.600,60.043 199.600 C 59.846 199.600,59.578 199.879,59.447 200.221 C 59.291 200.629,59.378 200.756,59.705 200.591 C 59.977 200.453,59.897 200.590,59.527 200.895 C 59.156 201.200,58.732 201.933,58.583 202.525 C 58.435 203.116,58.153 203.600,57.957 203.600 C 57.760 203.600,57.600 203.881,57.600 204.224 C 57.600 204.609,57.409 204.737,57.100 204.559 C 56.825 204.401,56.730 204.416,56.889 204.592 C 57.216 204.953,56.132 207.089,55.159 208.000 C 54.807 208.330,54.279 209.265,53.987 210.079 C 53.694 210.892,53.307 211.466,53.127 211.355 C 52.947 211.244,52.800 211.433,52.800 211.776 C 52.800 212.119,52.620 212.400,52.400 212.400 C 52.180 212.400,52.021 212.535,52.047 212.700 C 52.180 213.539,51.951 214.017,51.538 213.762 C 51.273 213.598,51.184 213.651,51.330 213.886 C 51.469 214.111,51.137 214.814,50.592 215.448 C 50.047 216.082,49.601 216.926,49.600 217.324 C 49.600 217.722,49.420 217.936,49.200 217.800 C 48.980 217.664,48.800 217.815,48.800 218.136 C 48.800 218.983,46.983 222.050,46.668 221.734 C 46.520 221.587,46.400 221.857,46.400 222.333 C 46.400 222.810,46.234 223.200,46.031 223.200 C 45.828 223.200,45.454 223.832,45.199 224.604 C 44.927 225.428,44.558 225.898,44.306 225.742 C 44.042 225.579,43.994 225.666,44.181 225.969 C 44.361 226.261,44.139 226.784,43.634 227.254 C 43.165 227.691,42.887 228.217,43.015 228.424 C 43.143 228.631,43.046 228.800,42.800 228.800 C 42.554 228.800,42.447 228.953,42.563 229.139 C 42.678 229.326,42.462 229.821,42.083 230.239 C 41.704 230.658,41.172 231.450,40.900 232.000 C 40.214 233.389,39.462 234.555,39.066 234.845 C 38.882 234.979,38.766 235.220,38.807 235.380 C 38.848 235.540,38.504 236.107,38.041 236.639 C 37.578 237.171,37.200 237.875,37.200 238.203 C 37.200 238.531,37.020 238.800,36.800 238.800 C 36.580 238.800,36.400 239.150,36.400 239.577 C 36.400 240.005,36.085 240.592,35.700 240.882 C 34.863 241.513,34.000 242.970,34.000 243.752 C 34.000 244.061,33.719 244.422,33.375 244.554 C 33.031 244.686,32.861 244.976,32.998 245.197 C 33.135 245.419,33.057 245.600,32.824 245.600 C 32.591 245.600,32.400 245.881,32.400 246.224 C 32.400 246.593,32.212 246.731,31.938 246.562 C 31.664 246.393,31.585 246.451,31.742 246.706 C 31.888 246.942,31.736 247.407,31.404 247.739 C 31.072 248.071,30.800 248.536,30.800 248.771 C 30.800 249.007,30.609 249.200,30.376 249.200 C 30.143 249.200,30.065 249.381,30.202 249.603 C 30.339 249.824,30.170 250.113,29.828 250.245 C 29.485 250.376,29.295 250.630,29.405 250.808 C 29.515 250.986,29.109 251.724,28.503 252.448 C 27.896 253.172,27.670 253.624,28.000 253.452 C 28.330 253.280,28.181 253.508,27.669 253.958 C 27.158 254.409,26.854 254.964,26.995 255.192 C 27.136 255.419,26.989 255.706,26.670 255.829 C 26.325 255.961,26.171 256.367,26.291 256.826 C 26.429 257.353,26.289 257.600,25.854 257.600 C 25.503 257.600,25.102 258.050,24.964 258.600 C 24.826 259.150,24.553 259.600,24.357 259.600 C 24.160 259.600,24.000 260.080,24.000 260.667 C 24.000 261.253,23.889 261.622,23.752 261.486 C 23.409 261.143,22.400 262.215,22.400 262.922 C 22.400 263.241,22.132 263.724,21.804 263.996 C 21.477 264.268,21.307 264.650,21.428 264.845 C 21.549 265.040,21.457 265.200,21.224 265.200 C 20.991 265.200,20.800 265.481,20.800 265.824 C 20.800 266.167,20.620 266.336,20.400 266.200 C 20.180 266.064,20.000 266.323,20.000 266.776 C 20.000 267.229,19.820 267.600,19.600 267.600 C 19.380 267.600,19.200 267.920,19.200 268.312 C 19.200 268.703,18.840 269.283,18.400 269.600 C 17.960 269.917,17.600 270.414,17.600 270.705 C 17.600 270.996,17.240 271.620,16.800 272.092 C 16.360 272.564,16.000 273.187,16.000 273.475 C 16.000 273.764,15.809 274.000,15.576 274.000 C 15.343 274.000,15.255 274.165,15.380 274.368 C 15.505 274.570,15.381 274.980,15.104 275.279 C 14.162 276.294,12.800 278.366,12.800 278.784 C 12.800 279.013,12.605 279.200,12.367 279.200 C 12.128 279.200,12.008 279.423,12.099 279.696 C 12.190 279.969,12.070 280.413,11.832 280.683 C 10.679 281.989,10.400 282.399,10.400 282.783 C 10.400 283.012,10.201 283.200,9.957 283.200 C 9.714 283.200,9.612 283.455,9.732 283.767 C 9.852 284.079,9.679 284.437,9.349 284.564 C 9.019 284.691,8.861 284.976,8.998 285.197 C 9.135 285.419,9.057 285.600,8.824 285.600 C 8.591 285.600,8.400 285.960,8.400 286.400 C 8.400 286.840,8.220 287.200,8.000 287.200 C 7.780 287.200,7.600 287.520,7.600 287.912 C 7.600 288.303,7.240 288.883,6.800 289.200 C 6.360 289.517,6.000 290.086,6.000 290.465 C 6.000 290.843,5.820 291.264,5.600 291.400 C 5.380 291.536,5.200 291.997,5.200 292.424 C 5.200 292.851,5.020 293.200,4.800 293.200 C 4.580 293.200,4.400 293.545,4.400 293.967 C 4.400 294.388,4.231 294.793,4.025 294.867 C 3.818 294.940,3.587 295.450,3.511 296.000 C 3.436 296.550,3.065 297.613,2.687 298.361 C 2.309 299.110,2.000 300.055,2.000 300.461 C 2.000 300.868,1.820 301.200,1.600 301.200 C 1.380 301.200,1.200 302.021,1.200 303.024 C 1.200 304.027,1.038 304.747,0.839 304.624 C -0.281 303.932,-0.200 331.134,0.922 332.255 C 1.075 332.408,1.200 332.917,1.200 333.387 C 1.200 333.856,1.374 334.414,1.587 334.627 C 1.799 334.839,2.016 335.583,2.069 336.279 C 2.123 336.975,2.309 337.456,2.483 337.349 C 2.657 337.241,2.800 337.598,2.800 338.143 C 2.800 338.688,2.978 339.193,3.197 339.267 C 3.415 339.340,3.634 339.895,3.684 340.500 C 3.734 341.105,3.915 341.600,4.087 341.600 C 4.259 341.600,4.400 341.960,4.400 342.400 C 4.400 342.840,4.580 343.200,4.800 343.200 C 5.020 343.200,5.200 343.560,5.200 344.000 C 5.200 344.440,5.380 344.800,5.600 344.800 C 5.820 344.800,6.000 345.160,6.000 345.600 C 6.000 346.040,6.136 346.400,6.302 346.400 C 6.665 346.400,7.821 348.860,7.679 349.330 C 7.625 349.511,7.765 349.545,7.990 349.406 C 8.216 349.267,8.400 349.433,8.400 349.776 C 8.400 350.119,8.591 350.400,8.824 350.400 C 9.057 350.400,9.140 350.574,9.008 350.787 C 8.876 351.000,9.312 351.743,9.976 352.438 C 10.641 353.133,11.092 353.851,10.979 354.033 C 10.867 354.216,11.230 354.663,11.787 355.028 C 12.344 355.393,12.800 355.941,12.800 356.246 C 12.800 356.551,12.980 356.800,13.200 356.800 C 13.420 356.800,13.603 357.115,13.606 357.500 C 13.611 358.098,13.669 358.113,14.000 357.600 C 14.375 357.019,14.536 357.285,14.486 358.400 C 14.481 358.510,14.729 358.832,15.038 359.116 C 15.347 359.399,15.600 359.556,15.600 359.463 C 15.600 359.370,16.291 359.948,17.136 360.747 C 17.981 361.546,18.600 362.335,18.512 362.500 C 18.425 362.665,18.768 362.803,19.276 362.806 C 20.019 362.811,20.083 362.888,19.600 363.200 C 19.072 363.541,19.075 363.588,19.625 363.594 C 19.968 363.597,20.636 363.960,21.108 364.400 C 21.580 364.840,22.165 365.200,22.407 365.200 C 22.649 365.200,22.736 365.380,22.600 365.600 C 22.464 365.820,22.734 366.000,23.200 366.000 C 23.666 366.000,23.936 366.180,23.800 366.400 C 23.664 366.620,23.751 366.800,23.993 366.800 C 24.432 366.800,24.966 367.172,26.429 368.500 C 26.853 368.885,27.481 369.200,27.824 369.200 C 28.167 369.200,28.336 369.380,28.200 369.600 C 28.064 369.820,28.323 370.000,28.776 370.000 C 29.229 370.000,29.960 370.360,30.400 370.800 C 30.840 371.240,31.425 371.601,31.700 371.601 C 31.975 371.602,32.799 371.968,33.532 372.415 C 34.265 372.862,34.725 372.996,34.555 372.714 C 34.320 372.322,34.403 372.327,34.906 372.734 C 35.268 373.028,35.757 373.150,35.992 373.005 C 36.227 372.859,36.370 372.979,36.310 373.270 C 36.244 373.588,36.492 373.750,36.930 373.676 C 37.331 373.607,37.931 373.777,38.263 374.052 C 38.595 374.328,39.167 374.607,39.533 374.674 C 39.900 374.740,40.875 374.905,41.700 375.041 C 42.525 375.176,43.200 375.448,43.200 375.644 C 43.200 375.840,43.920 376.000,44.800 376.000 C 45.680 376.000,46.400 376.152,46.400 376.337 C 46.400 376.522,47.611 376.713,49.091 376.761 C 50.571 376.809,51.900 377.038,52.043 377.269 C 52.211 377.541,52.374 377.496,52.502 377.145 C 52.661 376.708,52.805 376.699,53.230 377.100 C 53.650 377.496,68.932 377.600,126.874 377.600 L 199.988 377.600 200.094 365.700 L 200.200 353.800 273.800 353.580 L 347.400 353.361 350.400 352.471 C 352.050 351.982,353.760 351.428,354.200 351.241 C 356.465 350.279,359.016 348.965,359.133 348.700 C 359.207 348.535,359.479 348.400,359.739 348.400 C 360.206 348.400,364.647 344.973,366.206 343.409 C 369.584 340.022,374.800 331.202,374.800 328.880 C 374.800 328.422,374.980 327.936,375.200 327.800 C 375.420 327.664,375.600 326.969,375.600 326.256 C 375.600 325.543,375.789 324.771,376.021 324.539 C 376.836 323.724,376.047 309.124,375.158 308.574 C 374.961 308.452,374.800 307.924,374.800 307.400 C 374.800 306.876,374.620 306.336,374.400 306.200 C 374.180 306.064,374.000 305.648,374.000 305.276 C 374.000 304.268,371.413 299.694,361.402 283.000 C 357.708 276.840,354.330 271.170,353.896 270.400 C 353.462 269.630,352.767 268.522,352.353 267.938 C 351.939 267.354,351.600 266.757,351.600 266.610 C 351.600 266.464,351.060 265.559,350.400 264.600 C 349.740 263.641,349.200 262.741,349.200 262.600 C 349.200 262.459,348.660 261.559,348.000 260.600 C 347.340 259.641,346.800 258.741,346.800 258.600 C 346.800 258.459,346.260 257.559,345.600 256.600 C 344.940 255.641,344.400 254.741,344.400 254.600 C 344.400 254.459,343.860 253.559,343.200 252.600 C 342.540 251.641,342.000 250.776,342.000 250.679 C 342.000 250.582,341.010 248.852,339.800 246.836 C 338.590 244.819,337.600 242.996,337.600 242.784 C 337.600 242.573,337.465 242.400,337.299 242.400 C 337.134 242.400,336.553 241.545,336.009 240.500 C 335.465 239.455,334.925 238.510,334.809 238.400 C 334.486 238.094,332.000 233.974,332.000 233.745 C 332.000 233.635,331.460 232.759,330.800 231.800 C 330.140 230.841,329.600 229.941,329.600 229.800 C 329.600 229.659,329.060 228.759,328.400 227.800 C 327.740 226.841,327.200 225.941,327.200 225.800 C 327.200 225.659,326.660 224.759,326.000 223.800 C 325.340 222.841,324.800 221.975,324.800 221.876 C 324.800 221.778,323.270 219.154,321.400 216.046 C 319.530 212.938,318.000 210.232,318.000 210.031 C 318.000 209.831,317.859 209.607,317.687 209.533 C 317.397 209.410,312.799 201.942,312.441 201.013 C 312.353 200.786,311.768 199.848,311.141 198.928 C 310.513 198.008,310.000 197.141,310.000 197.000 C 310.000 196.859,309.460 195.959,308.800 195.000 C 308.140 194.041,307.600 193.140,307.600 192.998 C 307.600 192.856,306.790 191.488,305.800 189.958 C 304.810 188.427,304.000 187.104,304.000 187.017 C 304.000 186.930,303.076 185.361,301.947 183.529 C 299.746 179.961,299.069 178.805,296.338 173.955 C 296.042 173.430,295.702 172.910,295.582 172.800 C 295.352 172.588,289.113 162.118,287.598 159.400 C 287.108 158.520,286.367 157.322,285.953 156.738 C 285.539 156.154,285.200 155.479,285.200 155.238 C 285.200 154.997,285.041 154.800,284.847 154.800 C 284.652 154.800,284.393 154.485,284.271 154.100 C 284.054 153.415,282.796 151.196,282.400 150.800 C 282.004 150.404,280.746 148.185,280.529 147.500 C 280.407 147.115,280.148 146.800,279.953 146.800 C 279.759 146.800,279.600 146.607,279.600 146.372 C 279.600 146.137,279.060 145.159,278.400 144.200 C 277.740 143.241,277.200 142.341,277.200 142.200 C 277.200 142.059,276.660 141.159,276.000 140.200 C 275.340 139.241,274.800 138.363,274.800 138.249 C 274.800 138.135,273.270 135.503,271.400 132.400 C 269.530 129.297,268.000 126.588,268.000 126.379 C 268.000 126.171,267.841 126.000,267.647 126.000 C 267.452 126.000,267.193 125.685,267.071 125.300 C 266.854 124.615,265.596 122.396,265.200 122.000 C 264.804 121.604,263.546 119.385,263.329 118.700 C 263.207 118.315,262.948 118.000,262.753 118.000 C 262.559 118.000,262.400 117.807,262.400 117.572 C 262.400 117.337,261.860 116.359,261.200 115.400 C 260.540 114.441,260.000 113.541,260.000 113.400 C 260.000 113.259,259.460 112.359,258.800 111.400 C 258.140 110.441,257.600 109.563,257.600 109.449 C 257.600 109.335,256.045 106.667,254.144 103.521 C 250.969 98.264,250.298 97.127,248.738 94.355 C 248.442 93.830,248.110 93.310,248.000 93.200 C 247.890 93.090,247.575 92.595,247.300 92.100 C 247.025 91.605,246.575 90.795,246.300 90.300 C 246.025 89.805,245.710 89.310,245.600 89.200 C 245.204 88.804,243.946 86.585,243.729 85.900 C 243.607 85.515,243.348 85.200,243.153 85.200 C 242.959 85.200,242.800 85.036,242.800 84.836 C 242.800 84.636,241.630 82.543,240.200 80.185 C 238.770 77.827,237.600 75.850,237.600 75.793 C 237.600 75.736,236.133 73.284,234.339 70.344 C 232.546 67.405,230.881 64.596,230.639 64.103 C 230.398 63.610,230.065 63.205,229.900 63.203 C 229.735 63.201,229.600 63.022,229.600 62.804 C 229.600 60.744,221.392 53.091,216.600 50.683 C 211.964 48.353,210.978 48.053,204.000 46.853 L 200.200 46.200 200.094 34.300 L 199.988 22.400 197.218 22.400 C 195.694 22.400,194.336 22.580,194.200 22.800 M205.400 95.600 C 205.536 95.820,206.057 96.000,206.557 96.000 C 210.582 96.000,219.171 103.125,221.434 108.340 C 221.782 109.143,222.232 110.113,222.434 110.495 C 222.635 110.877,222.800 111.631,222.800 112.171 C 222.800 112.711,222.980 113.264,223.200 113.400 C 223.753 113.742,223.753 217.858,223.200 218.200 C 222.980 218.336,222.800 218.966,222.800 219.600 C 222.800 220.234,222.620 220.864,222.400 221.000 C 222.180 221.136,222.000 221.597,222.000 222.024 C 222.000 222.451,221.820 222.800,221.600 222.800 C 221.380 222.800,221.200 223.087,221.200 223.438 C 221.200 224.055,220.284 225.522,218.606 227.595 C 207.593 241.196,185.521 238.451,178.443 222.600 C 178.148 221.940,177.748 221.087,177.553 220.705 C 177.359 220.323,177.200 219.569,177.200 219.029 C 177.200 218.489,177.020 217.936,176.800 217.800 C 176.199 217.429,176.254 115.116,176.855 113.228 C 177.106 112.443,177.442 111.440,177.602 111.000 C 179.679 105.291,184.774 99.623,189.800 97.431 C 190.680 97.047,191.713 96.568,192.095 96.366 C 192.477 96.165,193.197 95.997,193.695 95.994 C 194.193 95.991,194.870 95.813,195.200 95.600 C 196.000 95.083,205.080 95.083,205.400 95.600 M206.400 259.768 C 209.656 260.383,212.011 261.157,215.900 262.890 C 238.702 273.052,242.336 307.573,222.187 322.611 C 221.314 323.263,220.510 323.895,220.400 324.017 C 219.808 324.673,215.352 327.061,212.800 328.090 C 212.250 328.312,211.487 328.652,211.105 328.847 C 210.723 329.041,209.904 329.200,209.285 329.200 C 208.666 329.200,207.942 329.418,207.676 329.684 C 206.477 330.883,192.799 330.153,189.200 328.697 C 188.650 328.475,187.840 328.160,187.400 327.997 C 166.717 320.350,158.337 295.528,169.831 275.958 C 173.046 270.482,183.934 261.641,187.505 261.605 C 187.783 261.602,188.323 261.442,188.705 261.249 C 189.958 260.616,192.235 260.001,193.428 259.972 C 194.073 259.956,194.960 259.784,195.400 259.588 C 196.261 259.205,204.098 259.334,206.400 259.768 " stroke="none" fill="#ed042d" fill-rule="evenodd"></path><path id="path2" d="M200.094 34.300 L 200.200 46.200 204.000 46.853 C 210.978 48.053,211.964 48.353,216.600 50.683 C 221.392 53.091,229.600 60.744,229.600 62.804 C 229.600 63.022,229.735 63.201,229.900 63.203 C 230.065 63.205,230.398 63.610,230.639 64.103 C 230.881 64.596,232.546 67.405,234.339 70.344 C 236.133 73.284,237.600 75.736,237.600 75.793 C 237.600 75.850,238.770 77.827,240.200 80.185 C 241.630 82.543,242.800 84.636,242.800 84.836 C 242.800 85.036,242.959 85.200,243.153 85.200 C 243.348 85.200,243.607 85.515,243.729 85.900 C 243.946 86.585,245.204 88.804,245.600 89.200 C 245.710 89.310,245.997 89.760,246.238 90.200 C 247.278 92.102,247.813 93.013,248.000 93.200 C 248.110 93.310,248.442 93.830,248.738 94.355 C 250.298 97.127,250.969 98.264,254.144 103.521 C 256.045 106.667,257.600 109.335,257.600 109.449 C 257.600 109.563,258.140 110.441,258.800 111.400 C 259.460 112.359,260.000 113.259,260.000 113.400 C 260.000 113.541,260.540 114.441,261.200 115.400 C 261.860 116.359,262.400 117.337,262.400 117.572 C 262.400 117.807,262.559 118.000,262.753 118.000 C 262.948 118.000,263.207 118.315,263.329 118.700 C 263.546 119.385,264.804 121.604,265.200 122.000 C 265.596 122.396,266.854 124.615,267.071 125.300 C 267.193 125.685,267.452 126.000,267.647 126.000 C 267.841 126.000,268.000 126.171,268.000 126.379 C 268.000 126.588,269.530 129.297,271.400 132.400 C 273.270 135.503,274.800 138.135,274.800 138.249 C 274.800 138.363,275.340 139.241,276.000 140.200 C 276.660 141.159,277.200 142.059,277.200 142.200 C 277.200 142.341,277.740 143.241,278.400 144.200 C 279.060 145.159,279.600 146.137,279.600 146.372 C 279.600 146.607,279.759 146.800,279.953 146.800 C 280.148 146.800,280.407 147.115,280.529 147.500 C 280.746 148.185,282.004 150.404,282.400 150.800 C 282.796 151.196,284.054 153.415,284.271 154.100 C 284.393 154.485,284.652 154.800,284.847 154.800 C 285.041 154.800,285.200 154.997,285.200 155.238 C 285.200 155.479,285.539 156.154,285.953 156.738 C 286.367 157.322,287.108 158.520,287.598 159.400 C 289.113 162.118,295.352 172.588,295.582 172.800 C 295.702 172.910,296.042 173.430,296.338 173.955 C 299.069 178.805,299.746 179.961,301.947 183.529 C 303.076 185.361,304.000 186.930,304.000 187.017 C 304.000 187.104,304.810 188.427,305.800 189.958 C 306.790 191.488,307.600 192.856,307.600 192.998 C 307.600 193.140,308.140 194.041,308.800 195.000 C 309.460 195.959,310.000 196.859,310.000 197.000 C 310.000 197.141,310.513 198.008,311.141 198.928 C 311.768 199.848,312.353 200.786,312.441 201.013 C 312.799 201.942,317.397 209.410,317.687 209.533 C 317.859 209.607,318.000 209.831,318.000 210.031 C 318.000 210.232,319.530 212.938,321.400 216.046 C 323.270 219.154,324.800 221.778,324.800 221.876 C 324.800 221.975,325.340 222.841,326.000 223.800 C 326.660 224.759,327.200 225.659,327.200 225.800 C 327.200 225.941,327.740 226.841,328.400 227.800 C 329.060 228.759,329.600 229.659,329.600 229.800 C 329.600 229.941,330.140 230.841,330.800 231.800 C 331.460 232.759,332.000 233.635,332.000 233.745 C 332.000 233.974,334.486 238.094,334.809 238.400 C 334.925 238.510,335.465 239.455,336.009 240.500 C 336.553 241.545,337.134 242.400,337.299 242.400 C 337.465 242.400,337.600 242.573,337.600 242.784 C 337.600 242.996,338.590 244.819,339.800 246.836 C 341.010 248.852,342.000 250.582,342.000 250.679 C 342.000 250.776,342.540 251.641,343.200 252.600 C 343.860 253.559,344.400 254.459,344.400 254.600 C 344.400 254.741,344.940 255.641,345.600 256.600 C 346.260 257.559,346.800 258.459,346.800 258.600 C 346.800 258.741,347.340 259.641,348.000 260.600 C 348.660 261.559,349.200 262.459,349.200 262.600 C 349.200 262.741,349.740 263.641,350.400 264.600 C 351.060 265.559,351.600 266.464,351.600 266.610 C 351.600 266.757,351.939 267.354,352.353 267.938 C 352.767 268.522,353.462 269.630,353.896 270.400 C 354.330 271.170,357.708 276.840,361.402 283.000 C 371.413 299.694,374.000 304.268,374.000 305.276 C 374.000 305.648,374.180 306.064,374.400 306.200 C 374.620 306.336,374.800 306.876,374.800 307.400 C 374.800 307.924,374.961 308.452,375.158 308.574 C 376.047 309.124,376.836 323.724,376.021 324.539 C 375.789 324.771,375.600 325.543,375.600 326.256 C 375.600 326.969,375.420 327.664,375.200 327.800 C 374.980 327.936,374.800 328.422,374.800 328.880 C 374.800 331.202,369.584 340.022,366.206 343.409 C 364.647 344.973,360.206 348.400,359.739 348.400 C 359.479 348.400,359.207 348.535,359.133 348.700 C 359.016 348.965,356.465 350.279,354.200 351.241 C 353.760 351.428,352.050 351.982,350.400 352.471 L 347.400 353.361 273.800 353.580 L 200.200 353.800 200.094 365.700 L 199.988 377.600 273.770 377.600 C 322.527 377.600,347.637 377.464,347.800 377.200 C 347.936 376.980,349.196 376.800,350.600 376.800 C 352.004 376.800,353.264 376.620,353.400 376.400 C 353.536 376.180,354.256 376.000,355.000 376.000 C 355.744 376.000,356.448 375.846,356.565 375.657 C 356.681 375.469,357.660 375.210,358.741 375.082 C 360.453 374.879,363.007 373.977,365.295 372.767 C 365.677 372.565,366.262 372.400,366.595 372.400 C 366.928 372.400,367.200 372.220,367.200 372.000 C 367.200 371.780,367.464 371.600,367.786 371.600 C 368.433 371.600,371.838 369.810,372.831 368.948 C 373.179 368.647,373.634 368.400,373.843 368.400 C 374.052 368.400,374.483 368.040,374.800 367.600 C 375.117 367.160,375.621 366.800,375.920 366.800 C 376.218 366.800,377.124 366.125,377.931 365.300 C 378.739 364.475,379.895 363.545,380.500 363.232 C 381.105 362.920,381.600 362.395,381.600 362.066 C 381.600 361.736,381.705 361.572,381.833 361.700 C 382.045 361.912,386.400 357.801,386.400 357.389 C 386.400 357.293,386.843 356.716,387.385 356.107 C 389.098 354.182,390.976 351.459,391.802 349.705 C 392.241 348.772,392.735 348.007,392.900 348.005 C 393.065 348.002,393.200 347.640,393.200 347.200 C 393.200 346.760,393.380 346.400,393.600 346.400 C 393.820 346.400,394.000 346.040,394.000 345.600 C 394.000 345.160,394.180 344.800,394.400 344.800 C 394.620 344.800,394.800 344.440,394.800 344.000 C 394.800 343.560,394.980 343.200,395.200 343.200 C 395.420 343.200,395.600 342.840,395.600 342.400 C 395.600 341.960,395.780 341.600,396.000 341.600 C 396.220 341.600,396.400 341.150,396.400 340.600 C 396.400 340.050,396.536 339.600,396.703 339.600 C 397.069 339.600,398.000 336.733,398.000 335.606 C 398.000 335.163,398.180 334.800,398.400 334.800 C 398.620 334.800,398.800 334.116,398.800 333.280 C 398.800 332.444,399.025 331.535,399.300 331.260 C 399.680 330.880,399.800 327.617,399.800 317.713 C 399.800 307.631,399.686 304.629,399.300 304.500 C 399.025 304.408,398.800 303.729,398.800 302.990 C 398.800 302.252,398.620 301.536,398.400 301.400 C 398.180 301.264,398.000 300.623,398.000 299.976 C 398.000 299.329,397.820 298.800,397.600 298.800 C 397.380 298.800,397.200 298.457,397.200 298.038 C 397.200 297.222,395.599 293.888,395.100 293.667 C 394.935 293.593,394.800 292.998,394.800 292.343 C 394.800 291.651,394.632 291.256,394.400 291.400 C 394.172 291.541,394.000 291.196,394.000 290.600 C 394.000 290.004,393.828 289.659,393.600 289.800 C 393.380 289.936,393.200 289.767,393.200 289.424 C 393.200 289.081,393.020 288.800,392.800 288.800 C 392.580 288.800,392.400 288.440,392.400 288.000 C 392.400 287.560,392.220 287.200,392.000 287.200 C 391.780 287.200,391.600 286.926,391.600 286.592 C 391.600 286.258,391.120 285.224,390.533 284.294 C 389.947 283.365,389.467 282.387,389.467 282.120 C 389.467 281.853,389.347 281.709,389.201 281.799 C 389.055 281.890,388.691 281.342,388.393 280.582 C 388.095 279.822,387.704 279.200,387.525 279.200 C 387.346 279.200,387.200 278.930,387.200 278.600 C 387.200 278.270,386.885 277.653,386.500 277.229 C 385.105 275.692,384.800 275.223,384.800 274.617 C 384.800 274.278,384.620 274.000,384.400 274.000 C 384.180 274.000,384.000 273.730,384.000 273.400 C 384.000 273.070,383.820 272.800,383.600 272.800 C 383.380 272.800,383.200 272.530,383.200 272.200 C 383.200 271.870,383.065 271.599,382.900 271.597 C 382.589 271.594,381.600 269.696,381.600 269.102 C 381.600 268.916,381.147 268.310,380.592 267.756 C 380.038 267.202,379.689 266.580,379.816 266.374 C 379.943 266.168,379.857 266.000,379.624 266.000 C 379.391 266.000,379.200 265.680,379.200 265.288 C 379.200 264.897,378.840 264.317,378.400 264.000 C 377.960 263.683,377.600 263.103,377.600 262.712 C 377.600 262.320,377.420 262.000,377.200 262.000 C 376.980 262.000,376.800 261.764,376.800 261.475 C 376.800 261.187,376.478 260.602,376.085 260.175 C 375.692 259.749,375.130 258.815,374.837 258.100 C 374.543 257.385,374.134 256.800,373.928 256.800 C 373.722 256.800,373.664 256.620,373.800 256.400 C 373.936 256.180,373.857 256.000,373.624 256.000 C 373.391 256.000,373.200 255.640,373.200 255.200 C 373.200 254.760,373.020 254.400,372.800 254.400 C 372.580 254.400,372.400 254.164,372.400 253.875 C 372.400 253.587,372.040 252.964,371.600 252.492 C 371.160 252.020,370.800 251.356,370.800 251.017 C 370.800 250.678,370.620 250.400,370.400 250.400 C 370.180 250.400,370.000 250.130,370.000 249.800 C 370.000 249.470,369.820 249.200,369.600 249.200 C 369.380 249.200,369.200 248.930,369.200 248.600 C 369.200 248.270,369.020 248.000,368.800 248.000 C 368.580 248.000,368.400 247.640,368.400 247.200 C 368.400 246.760,368.220 246.400,368.000 246.400 C 367.780 246.400,367.600 246.080,367.600 245.688 C 367.600 245.297,367.240 244.717,366.800 244.400 C 366.360 244.083,366.000 243.603,366.000 243.334 C 366.000 243.065,365.600 242.565,365.111 242.223 C 364.591 241.858,364.450 241.600,364.772 241.600 C 365.128 241.600,365.018 241.336,364.461 240.853 C 363.988 240.442,363.600 239.812,363.600 239.453 C 363.600 239.094,363.420 238.800,363.200 238.800 C 362.980 238.800,362.800 238.480,362.800 238.088 C 362.800 237.697,362.440 237.117,362.000 236.800 C 361.560 236.483,361.200 235.903,361.200 235.512 C 361.200 235.120,361.020 234.800,360.800 234.800 C 360.580 234.800,360.400 234.480,360.400 234.088 C 360.400 233.697,360.040 233.117,359.600 232.800 C 359.160 232.483,358.800 232.002,358.800 231.731 C 358.800 230.871,357.897 229.217,357.546 229.433 C 357.361 229.548,357.316 229.362,357.447 229.021 C 357.578 228.679,357.486 228.400,357.243 228.400 C 356.999 228.400,356.800 228.170,356.800 227.888 C 356.800 227.607,356.440 227.117,356.000 226.800 C 355.560 226.483,355.200 225.903,355.200 225.512 C 355.200 225.120,355.020 224.800,354.800 224.800 C 354.580 224.800,354.400 224.455,354.400 224.033 C 354.400 223.612,354.265 223.207,354.100 223.133 C 353.724 222.966,352.425 220.836,352.129 219.900 C 352.007 219.515,351.748 219.200,351.553 219.200 C 351.359 219.200,351.200 218.922,351.200 218.583 C 351.200 218.244,350.840 217.580,350.400 217.108 C 349.960 216.636,349.600 216.013,349.600 215.725 C 349.600 215.436,349.454 215.200,349.275 215.200 C 349.096 215.200,348.702 214.570,348.400 213.800 C 348.098 213.030,347.704 212.400,347.525 212.400 C 347.346 212.400,347.200 212.130,347.200 211.800 C 347.200 211.470,347.020 211.200,346.800 211.200 C 346.580 211.200,346.400 210.919,346.400 210.576 C 346.400 210.233,346.220 210.064,346.000 210.200 C 345.777 210.338,345.600 210.034,345.600 209.512 C 345.600 208.997,345.240 208.317,344.800 208.000 C 344.360 207.683,344.000 207.103,344.000 206.712 C 344.000 206.320,343.820 206.000,343.600 206.000 C 343.380 206.000,343.200 205.764,343.200 205.475 C 343.200 205.187,342.840 204.564,342.400 204.092 C 341.960 203.620,341.600 202.996,341.600 202.706 C 341.600 202.415,341.352 201.823,341.048 201.389 C 340.745 200.955,340.132 199.950,339.686 199.155 C 339.240 198.360,338.633 197.280,338.338 196.755 C 338.042 196.230,337.710 195.710,337.599 195.600 C 337.489 195.490,337.145 194.908,336.835 194.307 C 336.526 193.705,335.941 192.858,335.536 192.423 C 335.131 191.989,334.800 191.345,334.800 190.993 C 334.800 190.641,334.620 190.464,334.400 190.600 C 334.177 190.738,334.000 190.434,334.000 189.912 C 334.000 189.397,333.640 188.717,333.200 188.400 C 332.760 188.083,332.400 187.503,332.400 187.112 C 332.400 186.720,332.220 186.400,332.000 186.400 C 331.780 186.400,331.600 186.164,331.600 185.875 C 331.600 185.587,331.240 184.964,330.800 184.492 C 330.360 184.020,330.000 183.356,330.000 183.017 C 330.000 182.678,329.820 182.400,329.600 182.400 C 329.380 182.400,329.200 182.080,329.200 181.688 C 329.200 181.297,328.840 180.717,328.400 180.400 C 327.960 180.083,327.600 179.503,327.600 179.112 C 327.600 178.720,327.420 178.400,327.200 178.400 C 326.980 178.400,326.800 178.132,326.800 177.803 C 326.800 177.475,326.440 176.982,326.000 176.707 C 325.560 176.432,325.200 175.972,325.200 175.684 C 325.200 175.137,324.068 172.747,323.644 172.400 C 323.203 172.038,322.400 170.421,322.400 169.894 C 322.400 169.609,322.040 169.117,321.600 168.800 C 321.160 168.483,320.800 167.903,320.800 167.512 C 320.800 167.120,320.620 166.800,320.400 166.800 C 320.180 166.800,320.000 166.564,320.000 166.275 C 320.000 165.987,319.640 165.364,319.200 164.892 C 318.760 164.420,318.400 163.756,318.400 163.417 C 318.400 163.078,318.220 162.800,318.000 162.800 C 317.780 162.800,317.600 162.564,317.600 162.275 C 317.600 161.987,317.240 161.364,316.800 160.892 C 316.360 160.420,316.000 159.756,316.000 159.417 C 316.000 159.078,315.820 158.800,315.600 158.800 C 315.380 158.800,315.200 158.530,315.200 158.200 C 315.200 157.870,315.020 157.600,314.800 157.600 C 314.580 157.600,314.400 157.319,314.400 156.976 C 314.400 156.633,314.220 156.464,314.000 156.600 C 313.780 156.736,313.600 156.477,313.600 156.024 C 313.600 155.571,313.420 155.200,313.200 155.200 C 312.980 155.200,312.800 154.840,312.800 154.400 C 312.800 153.960,312.620 153.600,312.400 153.600 C 312.180 153.600,312.000 153.229,312.000 152.776 C 312.000 152.323,311.820 152.064,311.600 152.200 C 311.380 152.336,311.200 152.167,311.200 151.824 C 311.200 151.481,311.020 151.200,310.800 151.200 C 310.580 151.200,310.400 150.840,310.400 150.400 C 310.400 149.960,310.220 149.600,310.000 149.600 C 309.780 149.600,309.600 149.345,309.600 149.033 C 309.600 148.722,309.465 148.407,309.300 148.333 C 309.135 148.260,308.460 147.166,307.800 145.901 C 307.140 144.637,306.465 143.602,306.300 143.601 C 306.135 143.601,306.000 143.240,306.000 142.800 C 306.000 142.360,305.842 142.000,305.649 142.000 C 305.455 142.000,305.073 141.460,304.800 140.800 C 304.527 140.140,304.145 139.600,303.951 139.600 C 303.758 139.600,303.600 139.240,303.600 138.800 C 303.600 138.360,303.420 138.000,303.200 138.000 C 302.980 138.000,302.800 137.764,302.800 137.475 C 302.800 137.187,302.440 136.564,302.000 136.092 C 301.560 135.620,301.200 134.956,301.200 134.617 C 301.200 134.278,301.020 134.000,300.800 134.000 C 300.580 134.000,300.400 133.764,300.400 133.475 C 300.400 133.187,300.040 132.564,299.600 132.092 C 299.160 131.620,298.800 130.956,298.800 130.617 C 298.800 130.278,298.620 130.000,298.400 130.000 C 298.180 130.000,298.000 129.629,298.000 129.176 C 298.000 128.723,297.820 128.464,297.600 128.600 C 297.380 128.736,297.200 128.567,297.200 128.224 C 297.200 127.881,297.020 127.600,296.800 127.600 C 296.580 127.600,296.400 127.319,296.400 126.976 C 296.400 126.633,296.220 126.464,296.000 126.600 C 295.777 126.738,295.600 126.434,295.600 125.912 C 295.600 125.397,295.240 124.717,294.800 124.400 C 294.360 124.083,294.000 123.503,294.000 123.112 C 294.000 122.720,293.820 122.400,293.600 122.400 C 293.380 122.400,293.200 122.106,293.200 121.747 C 293.200 121.388,292.864 120.803,292.454 120.447 C 292.043 120.091,291.582 119.227,291.428 118.527 C 291.274 117.828,290.881 117.033,290.554 116.762 C 290.228 116.491,289.618 115.518,289.200 114.600 C 288.782 113.682,288.180 112.715,287.863 112.452 C 287.546 112.189,287.052 111.394,286.765 110.687 C 286.479 109.979,285.919 109.109,285.522 108.753 C 285.125 108.397,284.800 107.812,284.800 107.453 C 284.800 107.094,284.620 106.800,284.400 106.800 C 284.180 106.800,284.000 106.480,284.000 106.088 C 284.000 105.697,283.640 105.117,283.200 104.800 C 282.760 104.483,282.400 103.903,282.400 103.512 C 282.400 103.120,282.220 102.800,282.000 102.800 C 281.780 102.800,281.600 102.564,281.600 102.275 C 281.600 101.987,281.240 101.364,280.800 100.892 C 280.360 100.420,280.000 99.756,280.000 99.417 C 280.000 99.078,279.820 98.800,279.600 98.800 C 279.380 98.800,279.200 98.480,279.200 98.088 C 279.200 97.697,278.840 97.117,278.400 96.800 C 277.960 96.483,277.600 95.903,277.600 95.512 C 277.600 95.120,277.420 94.800,277.200 94.800 C 276.980 94.800,276.800 94.530,276.800 94.200 C 276.800 93.870,276.665 93.599,276.500 93.597 C 276.335 93.595,276.002 93.190,275.759 92.697 C 274.731 90.604,273.003 87.385,272.810 87.200 C 272.694 87.090,272.163 86.190,271.628 85.200 C 271.094 84.210,270.321 83.102,269.912 82.739 C 269.358 82.247,269.300 82.024,269.684 81.870 C 270.079 81.712,270.083 81.656,269.700 81.632 C 269.425 81.614,269.200 81.330,269.200 81.000 C 269.200 80.670,269.020 80.400,268.800 80.400 C 268.580 80.400,268.400 80.130,268.400 79.800 C 268.400 79.470,268.264 79.200,268.098 79.200 C 267.931 79.200,267.540 78.615,267.228 77.900 C 266.916 77.185,266.352 76.327,265.976 75.993 C 265.599 75.659,264.891 74.534,264.402 73.493 C 263.912 72.452,263.352 71.600,263.156 71.600 C 262.960 71.600,262.800 71.240,262.800 70.800 C 262.800 70.360,262.620 70.000,262.400 70.000 C 262.180 70.000,262.000 69.730,262.000 69.400 C 262.000 69.070,261.820 68.800,261.600 68.800 C 261.380 68.800,261.200 68.530,261.200 68.200 C 261.200 67.870,261.020 67.600,260.800 67.600 C 260.580 67.600,260.400 67.240,260.400 66.800 C 260.400 66.360,260.265 65.999,260.100 65.997 C 259.935 65.995,259.607 65.590,259.371 65.097 C 258.220 62.693,256.609 60.000,256.321 60.000 C 256.145 60.000,256.000 59.655,256.000 59.233 C 256.000 58.812,255.833 58.407,255.630 58.333 C 255.426 58.260,255.201 57.930,255.130 57.600 C 255.058 57.270,254.685 56.709,254.300 56.353 C 253.915 55.997,253.600 55.412,253.600 55.053 C 253.600 54.694,253.420 54.400,253.200 54.400 C 252.980 54.400,252.800 54.130,252.800 53.800 C 252.800 53.470,252.620 53.200,252.400 53.200 C 252.180 53.200,252.000 52.930,252.000 52.600 C 252.000 52.270,251.820 52.000,251.600 52.000 C 251.380 52.000,251.200 51.640,251.200 51.200 C 251.200 50.760,251.020 50.400,250.800 50.400 C 250.580 50.400,250.400 50.112,250.400 49.760 C 250.400 49.409,249.860 48.617,249.200 48.000 C 248.540 47.383,248.000 46.661,248.000 46.393 C 248.000 46.126,247.335 45.299,246.522 44.554 C 245.709 43.809,245.161 43.200,245.305 43.200 C 245.448 43.200,244.077 41.670,242.256 39.800 C 240.436 37.930,238.824 36.400,238.674 36.400 C 238.524 36.400,237.659 35.680,236.752 34.800 C 235.845 33.920,234.895 33.200,234.640 33.200 C 234.385 33.200,233.917 32.840,233.600 32.400 C 233.283 31.960,232.703 31.600,232.312 31.600 C 231.920 31.600,231.600 31.420,231.600 31.200 C 231.600 30.980,231.364 30.800,231.075 30.800 C 230.787 30.800,230.164 30.440,229.692 30.000 C 229.220 29.560,228.651 29.200,228.429 29.200 C 228.206 29.200,227.383 28.840,226.600 28.400 C 225.817 27.960,224.911 27.600,224.588 27.600 C 224.265 27.600,224.000 27.420,224.000 27.200 C 224.000 26.980,223.651 26.800,223.224 26.800 C 222.797 26.800,222.342 26.630,222.214 26.423 C 222.086 26.216,221.176 25.925,220.191 25.778 C 219.206 25.630,218.400 25.350,218.400 25.155 C 218.400 24.960,217.680 24.800,216.800 24.800 C 215.920 24.800,215.200 24.620,215.200 24.400 C 215.200 24.180,214.480 24.000,213.600 24.000 C 212.720 24.000,212.000 23.820,212.000 23.600 C 212.000 23.371,210.800 23.200,209.200 23.200 C 207.600 23.200,206.400 23.029,206.400 22.800 C 206.400 22.567,205.065 22.400,203.194 22.400 L 199.988 22.400 200.094 34.300 " stroke="none" fill="#c4041c" fill-rule="evenodd"></path><path id="path3" d="M195.200 95.595 C 194.791 95.855,195.110 95.899,196.200 95.732 C 198.177 95.429,198.514 95.198,196.967 95.206 C 196.325 95.209,195.530 95.384,195.200 95.595 M203.233 95.344 C 203.705 95.750,205.643 95.993,205.410 95.616 C 205.268 95.387,204.683 95.200,204.110 95.200 C 203.536 95.200,203.142 95.265,203.233 95.344 M187.944 98.424 L 187.000 99.247 188.200 98.545 C 189.779 97.620,189.803 97.600,189.311 97.600 C 189.079 97.600,188.464 97.971,187.944 98.424 M212.400 98.525 C 212.400 98.624,213.061 99.209,213.868 99.825 C 214.676 100.441,215.211 100.741,215.056 100.491 C 214.740 99.979,212.400 98.247,212.400 98.525 M183.656 101.870 L 181.000 104.539 183.800 101.987 C 185.340 100.584,186.675 99.383,186.767 99.318 C 186.858 99.253,186.794 99.200,186.623 99.200 C 186.452 99.200,185.117 100.401,183.656 101.870 M215.600 100.925 C 215.600 100.994,216.185 101.579,216.900 102.225 L 218.200 103.400 217.025 102.100 C 215.930 100.888,215.600 100.616,215.600 100.925 M176.649 113.815 C 176.512 114.173,176.420 115.036,176.444 115.733 C 176.482 116.837,176.533 116.771,176.836 115.225 C 177.193 113.405,177.094 112.657,176.649 113.815 M176.400 216.110 C 176.400 216.903,176.569 217.657,176.776 217.785 C 177.001 217.924,177.059 217.409,176.920 216.509 C 176.610 214.500,176.400 214.339,176.400 216.110 M220.222 224.622 C 219.845 225.198,219.616 225.749,219.714 225.847 C 219.812 225.945,220.200 225.554,220.578 224.978 C 220.955 224.402,221.184 223.851,221.086 223.753 C 220.988 223.655,220.600 224.046,220.222 224.622 M183.793 229.800 C 185.145 231.120,186.825 232.525,187.526 232.923 C 189.309 233.934,189.123 233.463,187.300 232.350 C 186.475 231.846,184.795 230.526,183.567 229.417 C 181.498 227.548,181.514 227.576,183.793 229.800 M217.374 228.502 C 216.728 229.217,215.390 230.499,214.400 231.351 C 213.410 232.202,212.960 232.703,213.400 232.464 C 214.298 231.978,217.044 229.470,218.179 228.100 C 219.320 226.721,218.700 227.031,217.374 228.502 M205.600 235.618 C 205.162 235.915,205.324 235.952,206.200 235.756 C 207.671 235.427,207.990 235.198,206.967 235.206 C 206.545 235.209,205.930 235.395,205.600 235.618 M198.679 236.409 C 199.823 236.573,201.353 236.574,202.079 236.411 C 203.012 236.202,202.401 236.114,200.000 236.112 C 196.917 236.110,196.794 236.137,198.679 236.409 M195.513 259.528 C 195.135 259.678,197.232 259.800,200.174 259.800 C 203.115 259.800,205.314 259.668,205.061 259.506 C 204.486 259.140,196.448 259.158,195.513 259.528 M191.200 260.418 C 190.762 260.715,190.924 260.752,191.800 260.556 C 193.271 260.227,193.590 259.998,192.567 260.006 C 192.145 260.009,191.530 260.195,191.200 260.418 M207.233 260.144 C 207.325 260.223,207.940 260.408,208.600 260.556 C 209.476 260.752,209.638 260.715,209.200 260.418 C 208.660 260.053,206.832 259.798,207.233 260.144 M216.400 263.390 C 216.400 263.494,216.985 263.865,217.700 264.214 L 219.000 264.848 218.000 264.033 C 217.037 263.248,216.400 262.992,216.400 263.390 M180.944 264.769 C 180.253 265.190,179.557 265.746,179.398 266.004 C 179.239 266.261,179.849 265.982,180.754 265.383 C 182.179 264.440,182.676 263.996,182.300 264.001 C 182.245 264.002,181.635 264.348,180.944 264.769 M220.400 265.688 C 220.400 265.766,221.255 266.533,222.300 267.392 C 223.345 268.251,223.840 268.540,223.400 268.034 C 222.622 267.139,220.400 265.402,220.400 265.688 M174.563 270.100 C 172.864 271.876,170.612 274.612,171.846 273.400 C 173.180 272.091,176.893 268.000,176.747 268.000 C 176.651 268.000,175.668 268.945,174.563 270.100 M226.062 271.100 C 228.038 273.150,230.630 276.890,231.744 279.300 C 232.125 280.125,232.530 280.800,232.642 280.800 C 232.755 280.800,232.783 280.665,232.705 280.500 C 232.626 280.335,232.305 279.660,231.991 279.000 C 230.494 275.857,225.447 269.200,224.561 269.200 C 224.379 269.200,225.054 270.055,226.062 271.100 M170.469 274.839 C 169.728 276.024,170.057 276.113,170.919 274.961 C 171.314 274.432,171.492 274.000,171.315 274.000 C 171.138 274.000,170.757 274.378,170.469 274.839 M169.297 276.900 C 168.610 277.758,167.135 280.868,167.325 281.059 C 167.425 281.158,168.042 280.151,168.696 278.820 C 169.903 276.364,170.017 276.002,169.297 276.900 M234.428 286.833 C 234.444 287.365,234.619 288.160,234.819 288.600 C 235.071 289.158,235.107 288.915,234.938 287.800 C 234.655 285.943,234.387 285.436,234.428 286.833 M165.056 288.084 C 164.921 288.588,164.827 289.360,164.846 289.800 C 164.865 290.240,165.045 289.898,165.246 289.040 C 165.636 287.378,165.470 286.540,165.056 288.084 M235.354 294.800 C 235.354 297.550,235.418 298.675,235.496 297.300 C 235.574 295.925,235.574 293.675,235.496 292.300 C 235.418 290.925,235.354 292.050,235.354 294.800 M164.868 300.000 C 164.862 300.550,165.011 301.360,165.200 301.800 L 165.544 302.600 165.532 301.800 C 165.526 301.360,165.376 300.550,165.200 300.000 L 164.880 299.000 164.868 300.000 M234.656 301.284 C 234.521 301.788,234.427 302.560,234.446 303.000 C 234.465 303.440,234.645 303.098,234.846 302.240 C 235.236 300.578,235.070 299.740,234.656 301.284 M167.488 309.100 C 169.029 313.209,175.095 321.087,177.800 322.494 C 178.240 322.723,177.500 321.900,176.156 320.665 C 173.045 317.807,170.868 314.962,168.989 311.300 C 167.573 308.541,166.918 307.581,167.488 309.100 M231.829 310.061 C 231.483 310.755,231.200 311.425,231.200 311.550 C 231.200 311.897,232.233 310.294,232.521 309.500 C 232.936 308.355,232.506 308.704,231.829 310.061 M230.553 312.500 C 229.176 314.836,229.086 315.035,229.787 314.200 C 230.600 313.232,231.300 312.000,231.038 312.000 C 230.933 312.000,230.715 312.225,230.553 312.500 M227.667 316.777 C 226.970 317.644,226.400 318.467,226.400 318.607 C 226.400 318.836,227.233 317.880,228.758 315.900 C 229.852 314.482,228.892 315.252,227.667 316.777 M222.770 321.900 L 221.800 323.000 223.000 322.000 C 223.660 321.450,224.275 320.955,224.367 320.900 C 224.458 320.845,224.355 320.800,224.136 320.800 C 223.918 320.800,223.303 321.295,222.770 321.900 M181.600 325.167 C 182.563 325.952,183.200 326.208,183.200 325.810 C 183.200 325.706,182.615 325.335,181.900 324.986 L 180.600 324.352 181.600 325.167 M216.600 326.000 C 215.940 326.437,215.580 326.792,215.800 326.788 C 216.201 326.782,218.376 325.223,218.000 325.212 C 217.890 325.208,217.260 325.563,216.600 326.000 M210.800 328.400 C 209.157 328.958,208.873 329.154,209.676 329.174 C 210.268 329.188,210.864 329.020,211.000 328.800 C 211.136 328.580,211.586 328.400,212.000 328.400 C 212.414 328.400,212.864 328.220,213.000 328.000 C 213.136 327.780,213.192 327.612,213.124 327.626 C 213.056 327.641,212.010 327.989,210.800 328.400 M189.390 328.784 C 189.532 329.013,190.117 329.200,190.690 329.200 C 191.944 329.200,191.799 329.008,190.266 328.640 C 189.523 328.462,189.221 328.511,189.390 328.784 M192.600 329.604 C 193.367 329.930,196.711 330.153,196.367 329.856 C 196.275 329.777,195.210 329.611,194.000 329.488 C 192.631 329.349,192.102 329.392,192.600 329.604 M205.800 329.600 L 203.800 329.874 205.676 329.937 C 206.708 329.972,207.664 329.820,207.800 329.600 C 207.936 329.380,207.992 329.228,207.924 329.263 C 207.856 329.297,206.900 329.449,205.800 329.600 M198.305 330.283 C 198.802 330.379,199.522 330.375,199.905 330.275 C 200.287 330.175,199.880 330.096,199.000 330.101 C 198.120 330.105,197.807 330.187,198.305 330.283 M201.505 330.283 C 202.002 330.379,202.722 330.375,203.105 330.275 C 203.487 330.175,203.080 330.096,202.200 330.101 C 201.320 330.105,201.007 330.187,201.505 330.283 " stroke="none" fill="#e3567d" fill-rule="evenodd"></path><path id="path4" d="M199.091 95.489 C 199.801 95.577,201.061 95.579,201.891 95.492 C 202.721 95.405,202.140 95.333,200.600 95.331 C 199.060 95.329,198.381 95.400,199.091 95.489 M193.645 96.232 C 187.849 97.791,181.760 102.893,179.001 108.504 C 178.161 110.211,177.588 111.722,177.728 111.861 C 177.867 112.000,178.091 111.774,178.224 111.357 C 180.530 104.177,187.624 97.859,195.200 96.237 C 196.630 95.931,197.350 95.674,196.800 95.666 C 196.250 95.659,194.830 95.913,193.645 96.232 M205.200 96.155 C 205.200 96.240,205.730 96.387,206.379 96.482 C 207.027 96.577,207.467 96.508,207.355 96.328 C 207.157 96.007,205.200 95.850,205.200 96.155 M208.800 97.324 C 210.128 98.013,211.200 98.412,211.200 98.217 C 211.200 97.976,208.737 96.800,208.239 96.802 C 207.997 96.804,208.250 97.038,208.800 97.324 M213.442 99.860 C 214.519 100.664,216.026 101.879,216.791 102.560 C 217.672 103.345,217.892 103.452,217.391 102.851 C 216.512 101.797,212.224 98.400,211.773 98.400 C 211.615 98.400,212.366 99.057,213.442 99.860 M219.074 105.567 C 219.693 106.428,220.252 107.081,220.316 107.018 C 220.513 106.820,218.618 104.035,218.274 104.017 C 218.095 104.008,218.455 104.705,219.074 105.567 M221.874 111.100 C 222.908 114.187,223.179 114.736,222.911 113.200 C 222.653 111.720,221.710 109.200,221.414 109.200 C 221.317 109.200,221.525 110.055,221.874 111.100 M177.040 114.040 C 176.893 114.957,176.852 115.785,176.947 115.880 C 177.042 115.976,177.246 115.310,177.400 114.400 C 177.554 113.490,177.596 112.662,177.493 112.560 C 177.390 112.457,177.187 113.123,177.040 114.040 M223.394 165.800 C 223.394 193.740,223.442 205.111,223.500 191.069 C 223.558 177.027,223.558 154.167,223.500 140.269 C 223.442 126.371,223.394 137.860,223.394 165.800 M176.594 165.800 C 176.594 192.860,176.642 203.989,176.700 190.531 C 176.758 177.073,176.758 154.933,176.700 141.331 C 176.642 127.729,176.594 138.740,176.594 165.800 M177.058 217.200 C 177.595 221.269,180.282 226.241,183.750 229.583 C 186.347 232.086,186.055 231.448,183.276 228.545 C 181.998 227.210,180.416 225.056,179.760 223.759 C 178.651 221.565,178.231 220.418,177.214 216.800 C 176.844 215.486,176.835 215.510,177.058 217.200 M222.790 217.100 C 222.785 217.265,222.619 218.097,222.422 218.949 C 222.224 219.801,222.206 220.341,222.383 220.149 C 222.770 219.726,223.326 216.800,223.018 216.800 C 222.898 216.800,222.796 216.935,222.790 217.100 M221.457 221.484 C 221.323 221.878,221.036 222.605,220.819 223.100 C 220.179 224.564,220.703 224.125,221.434 222.586 C 221.803 221.808,222.014 221.081,221.903 220.970 C 221.792 220.859,221.592 221.090,221.457 221.484 M218.229 227.162 L 217.058 228.600 218.409 227.313 C 219.151 226.605,219.678 225.958,219.579 225.875 C 219.481 225.792,218.873 226.371,218.229 227.162 M214.095 231.182 C 213.597 231.597,212.967 232.016,212.695 232.114 C 212.423 232.211,212.301 232.401,212.425 232.537 C 212.549 232.673,213.269 232.254,214.025 231.608 C 214.781 230.961,215.310 230.431,215.200 230.430 C 215.090 230.428,214.593 230.766,214.095 231.182 M210.200 233.600 C 209.320 234.025,208.797 234.379,209.039 234.386 C 209.542 234.402,212.000 233.227,212.000 232.971 C 212.000 232.732,211.987 232.737,210.200 233.600 M190.000 233.795 C 190.000 234.061,192.790 235.207,193.349 235.170 C 193.597 235.154,193.080 234.807,192.200 234.400 C 190.509 233.617,190.000 233.477,190.000 233.795 M194.800 235.603 C 195.789 235.917,199.888 236.134,199.567 235.856 C 199.475 235.777,198.140 235.616,196.600 235.499 C 194.973 235.375,194.219 235.419,194.800 235.603 M203.400 235.600 L 201.400 235.874 203.200 235.931 C 204.190 235.962,205.270 235.813,205.600 235.600 C 205.930 235.387,206.020 235.238,205.800 235.269 C 205.580 235.300,204.500 235.449,203.400 235.600 M194.600 260.000 L 193.000 260.286 194.600 260.308 C 195.480 260.320,197.100 260.190,198.200 260.018 L 200.200 259.707 198.200 259.710 C 197.100 259.712,195.480 259.842,194.600 260.000 M203.800 259.980 C 204.561 260.326,207.517 260.564,207.167 260.251 C 207.075 260.169,206.100 259.993,205.000 259.859 C 203.654 259.695,203.261 259.735,203.800 259.980 M191.000 260.669 C 182.954 262.439,171.194 271.823,168.944 278.268 C 168.803 278.671,169.455 277.830,170.391 276.400 C 174.680 269.853,184.505 262.000,188.407 262.000 C 188.629 262.000,189.123 261.835,189.505 261.634 C 189.887 261.433,190.830 261.091,191.600 260.875 C 192.988 260.485,192.538 260.331,191.000 260.669 M208.097 260.631 C 208.229 260.762,208.936 261.022,209.668 261.208 C 213.093 262.077,213.064 262.073,211.800 261.488 C 210.503 260.887,207.706 260.239,208.097 260.631 M213.200 262.176 C 213.200 262.279,214.055 262.767,215.100 263.261 C 217.765 264.521,217.914 264.567,216.908 263.824 C 215.915 263.092,213.200 261.884,213.200 262.176 M218.000 264.490 C 218.110 264.608,219.460 265.630,221.000 266.761 C 223.150 268.340,223.403 268.463,222.089 267.289 C 220.710 266.056,217.252 263.689,218.000 264.490 M227.375 272.932 C 227.991 273.739,228.576 274.400,228.675 274.400 C 228.953 274.400,227.221 272.060,226.709 271.744 C 226.459 271.589,226.759 272.124,227.375 272.932 M233.844 285.800 C 234.173 287.271,234.402 287.590,234.394 286.567 C 234.391 286.145,234.205 285.530,233.982 285.200 C 233.685 284.762,233.648 284.924,233.844 285.800 M165.838 286.053 C 164.987 290.062,164.805 291.717,164.840 295.120 C 164.862 297.254,165.014 299.450,165.178 300.000 C 165.342 300.550,165.392 299.020,165.290 296.600 C 165.160 293.536,165.298 291.175,165.744 288.825 C 166.301 285.891,166.382 283.489,165.838 286.053 M234.688 291.000 C 234.914 295.158,235.136 295.746,235.140 292.200 C 235.142 290.660,235.002 289.040,234.828 288.600 C 234.654 288.157,234.591 289.227,234.688 291.000 M234.872 297.400 C 234.826 298.720,234.696 300.250,234.583 300.800 L 234.377 301.800 234.806 300.819 C 235.041 300.280,235.171 298.750,235.094 297.419 L 234.954 295.000 234.872 297.400 M165.606 302.233 C 165.609 302.875,165.796 303.670,166.021 304.000 C 166.314 304.430,166.354 304.146,166.162 303.000 C 165.830 301.016,165.598 300.696,165.606 302.233 M234.046 302.867 C 234.021 303.234,233.896 303.864,233.770 304.267 C 233.552 304.962,233.563 304.963,233.997 304.287 C 234.248 303.896,234.373 303.266,234.273 302.887 C 234.111 302.268,234.088 302.266,234.046 302.867 M170.474 314.097 C 171.587 316.138,178.500 323.105,180.428 324.128 C 181.418 324.654,181.577 324.680,181.000 324.221 C 180.560 323.871,179.480 323.014,178.600 322.315 C 176.108 320.337,172.846 316.858,171.297 314.524 C 169.601 311.969,169.201 311.762,170.474 314.097 M226.470 317.622 C 225.958 318.270,225.688 318.790,225.870 318.778 C 226.051 318.766,226.619 318.226,227.130 317.578 C 227.642 316.930,227.912 316.410,227.730 316.422 C 227.549 316.434,226.981 316.974,226.470 317.622 M224.460 319.842 C 224.162 320.178,223.999 320.532,224.095 320.629 C 224.192 320.726,224.598 320.444,224.998 320.002 C 225.397 319.561,225.561 319.207,225.362 319.215 C 225.163 319.224,224.757 319.505,224.460 319.842 M221.600 322.454 L 219.800 324.085 221.494 322.813 C 222.968 321.707,223.914 320.774,223.524 320.812 C 223.456 320.819,222.590 321.558,221.600 322.454 M182.400 325.185 C 183.422 325.945,186.069 327.264,186.236 327.097 C 186.323 327.010,185.542 326.503,184.501 325.969 C 182.277 324.830,181.566 324.565,182.400 325.185 M189.400 328.400 C 190.501 328.873,190.892 328.873,190.600 328.400 C 190.464 328.180,189.958 328.013,189.476 328.028 C 188.631 328.055,188.629 328.069,189.400 328.400 M192.400 329.200 C 192.950 329.376,193.850 329.520,194.400 329.520 L 195.400 329.520 194.400 329.200 C 193.850 329.024,192.950 328.880,192.400 328.880 L 191.400 328.880 192.400 329.200 M206.800 329.200 C 205.996 329.457,205.957 329.523,206.600 329.532 C 207.040 329.538,207.760 329.389,208.200 329.200 C 209.219 328.762,208.168 328.762,206.800 329.200 M196.480 329.813 C 196.768 330.101,203.620 330.113,203.907 329.826 C 204.031 329.702,202.363 329.600,200.200 329.600 C 198.037 329.600,196.363 329.696,196.480 329.813 " stroke="none" fill="#e17499" fill-rule="evenodd"></path></g></svg>